<?xml version="1.0" encoding="UTF-8" standalone="yes"?>
<svg xmlns="http://www.w3.org/2000/svg" xmlns:xlink="http://www.w3.org/1999/xlink" width="64" height="64" viewBox="0 0 64 64" version="1.1">
  <g id="surface1">
    <path style=" stroke:none;fill-rule:nonzero;fill:rgb(73.333335%,73.333335%,73.333335%);fill-opacity:1;" d="M 6 10 L 6 54 L 14 54 L 14 2 C 11.878906 2 9.84375 2.84375 8.34375 4.34375 C 6.84375 5.84375 6 7.878906 6 10 Z M 6 10 "/>
    <path style=" stroke:none;fill-rule:nonzero;fill:rgb(85.09804%,85.09804%,85.09804%);fill-opacity:1;" d="M 58 1.980469 L 14 1.980469 L 14 47.980469 L 58 47.980469 Z M 58 1.980469 "/>
    <path style=" stroke:none;fill-rule:nonzero;fill:rgb(73.333335%,73.333335%,73.333335%);fill-opacity:1;" d="M 58 59.980469 L 14 59.980469 L 14 61.980469 L 58 61.980469 Z M 58 59.980469 "/>
    <path style=" stroke:none;fill-rule:nonzero;fill:rgb(73.333335%,73.333335%,73.333335%);fill-opacity:1;" d="M 14 61.980469 C 18.417969 61.980469 22 58.398438 22 53.980469 C 22 49.5625 18.417969 45.980469 14 45.980469 C 9.582031 45.980469 6 49.5625 6 53.980469 C 6 58.398438 9.582031 61.980469 14 61.980469 Z M 14 61.980469 "/>
    <path style=" stroke:none;fill-rule:nonzero;fill:rgb(73.333335%,73.333335%,73.333335%);fill-opacity:1;" d="M 58 45.980469 L 14 45.980469 L 14 47.980469 L 58 47.980469 Z M 58 45.980469 "/>
    <path style=" stroke:none;fill-rule:nonzero;fill:rgb(73.333335%,73.333335%,73.333335%);fill-opacity:1;" d="M 58 57.980469 L 14 57.980469 L 14 59.980469 L 58 59.980469 Z M 58 57.980469 "/>
    <path style=" stroke:none;fill-rule:nonzero;fill:rgb(95.294118%,95.294118%,95.294118%);fill-opacity:1;" d="M 17 57.980469 C 19.761719 57.980469 22 55.742188 22 52.980469 C 22 50.21875 19.761719 47.980469 17 47.980469 C 14.238281 47.980469 12 50.21875 12 52.980469 C 12 55.742188 14.238281 57.980469 17 57.980469 Z M 17 57.980469 "/>
    <path style=" stroke:none;fill-rule:nonzero;fill:rgb(95.294118%,95.294118%,95.294118%);fill-opacity:1;" d="M 55.441406 52.980469 C 55.441406 50.261719 56.578125 48.039062 58 48 L 17 48 L 17 58 L 58 58 C 56.578125 58 55.441406 55.71875 55.441406 52.980469 Z M 55.441406 52.980469 "/>
    <path style=" stroke:none;fill-rule:nonzero;fill:rgb(40.000001%,40.000001%,40.000001%);fill-opacity:1;" d="M 57.519531 49.058594 L 58.058594 48.78125 L 58.058594 2 L 14 2 C 11.878906 2 9.84375 2.84375 8.34375 4.34375 C 6.84375 5.84375 6 7.878906 6 10 L 6 54 C 6 56.121094 6.84375 58.15625 8.34375 59.65625 C 9.84375 61.15625 11.878906 62 14 62 L 58 62 L 58 58 L 57.5 57.71875 C 56.820312 57.226562 56.277344 56.566406 55.925781 55.800781 C 55.578125 55.039062 55.429688 54.199219 55.5 53.359375 C 55.4375 52.53125 55.589844 51.699219 55.945312 50.945312 C 56.296875 50.191406 56.839844 49.542969 57.519531 49.058594 Z M 53.519531 53.359375 C 53.472656 54.441406 53.667969 55.519531 54.097656 56.515625 C 54.527344 57.511719 55.179688 58.394531 56 59.101562 L 56 60 L 14 60 C 12.410156 60 10.882812 59.367188 9.757812 58.242188 C 8.632812 57.117188 8 55.589844 8 54 L 8 10 C 8 8.410156 8.632812 6.882812 9.757812 5.757812 C 10.882812 4.632812 12.410156 4 14 4 L 56 4 L 56 47.679688 C 55.175781 48.371094 54.523438 49.242188 54.097656 50.230469 C 53.671875 51.214844 53.480469 52.285156 53.539062 53.359375 Z M 53.519531 53.359375 "/>
  </g>
</svg>