<?xml version="1.0" encoding="UTF-8" standalone="yes"?>
<svg xmlns="http://www.w3.org/2000/svg" xmlns:xlink="http://www.w3.org/1999/xlink" width="64" height="64" viewBox="0 0 64 64" version="1.1">
  <g id="surface1">
    <path style=" stroke:none;fill-rule:nonzero;fill:rgb(95.294118%,95.294118%,95.294118%);fill-opacity:1;" d="M 58 22.398438 L 51.398438 42.421875 C 50.738281 42.28125 50.078125 42.160156 49.398438 42.101562 C 48.898438 42.039062 48.421875 42.019531 47.921875 42 C 40.5 42.28125 33.71875 46.5 30.238281 53.058594 L 29.738281 54 L 30.21875 54.921875 C 30.421875 55.28125 30.621094 55.640625 30.839844 56 L 11.078125 56 L 0 22.398438 L 29 0 Z M 58 22.398438 "/>
    <path style=" stroke:none;fill-rule:nonzero;fill:rgb(40.000001%,40.000001%,40.000001%);fill-opacity:1;" d="M 29 0 L 0 22.398438 L 11.078125 56 L 30.839844 56 C 30.621094 55.640625 30.421875 55.28125 30.21875 54.921875 L 29.738281 54 L 12.519531 54 L 2.339844 23.121094 L 29 2.519531 L 55.660156 23.121094 L 49.398438 42.101562 C 50.078125 42.160156 50.738281 42.28125 51.398438 42.421875 L 58 22.398438 Z M 29 0 "/>
    <path style=" stroke:none;fill-rule:evenodd;fill:rgb(9.019608%,56.078434%,90.196079%);fill-opacity:1;" d="M 42 54 C 42 50.679688 44.679688 48 48 48 C 51.320312 48 54 50.679688 54 54 C 54 57.320312 51.320312 60 48 60 C 44.679688 60 42 57.320312 42 54 Z M 32 54 C 35.140625 59.980469 41.261719 63.800781 48 64 C 54.738281 63.78125 60.859375 59.980469 64 54 C 60.839844 48.039062 54.738281 44.238281 48 44 C 41.261719 44.238281 35.179688 48.058594 32 54 Z M 44 54 C 44 56.199219 45.800781 58 48 58 C 50.199219 58 52 56.199219 52 54 C 52 51.800781 50.199219 50 48 50 C 45.800781 50 44 51.800781 44 54 Z M 44 54 "/>
  </g>
</svg>