<?xml version="1.0" encoding="UTF-8" standalone="yes"?>
<svg xmlns="http://www.w3.org/2000/svg" xmlns:xlink="http://www.w3.org/1999/xlink" width="64" height="64" viewBox="0 0 64 64" version="1.1">
  <defs>
    <filter id="alpha" filterUnits="objectBoundingBox" x="0%" y="0%" width="100%" height="100%">
      <feColorMatrix type="matrix" in="SourceGraphic" values="0 0 0 0 1 0 0 0 0 1 0 0 0 0 1 0 0 0 1 0"/>
    </filter>
    <mask id="mask0">
      <g filter="url(#alpha)">
        <rect x="0" y="0" width="64" height="64" style="fill:rgb(0%,0%,0%);fill-opacity:0.2;stroke:none;"/>
      </g>
    </mask>
    <clipPath id="clip1">
      <rect x="0" y="0" width="64" height="64"/>
    </clipPath>
    <g id="surface5" clip-path="url(#clip1)">
      <path style=" stroke:none;fill-rule:nonzero;fill:rgb(0%,0%,0%);fill-opacity:1;" d="M 34 34 L 34 62 L 62 62 L 62 34 Z M 60 60 L 36 60 L 36 36 L 60 36 Z M 60 60 "/>
    </g>
  </defs>
  <g id="surface1">
    <path style=" stroke:none;fill-rule:nonzero;fill:rgb(95.294118%,95.294118%,95.294118%);fill-opacity:1;" d="M 17 31 C 24.730469 31 31 24.730469 31 17 C 31 9.269531 24.730469 3 17 3 C 9.269531 3 3 9.269531 3 17 C 3 24.730469 9.269531 31 17 31 Z M 17 31 "/>
    <path style=" stroke:none;fill-rule:nonzero;fill:rgb(40.000001%,40.000001%,40.000001%);fill-opacity:1;" d="M 17 4 C 24.160156 4 30 9.839844 30 17 C 30 24.160156 24.160156 30 17 30 C 9.839844 30 4 24.160156 4 17 C 4 9.839844 9.839844 4 17 4 Z M 17 2 C 8.71875 2 2 8.71875 2 17 C 2 25.28125 8.71875 32 17 32 C 25.28125 32 32 25.28125 32 17 C 32 8.71875 25.28125 2 17 2 Z M 17 2 "/>
    <path style=" stroke:none;fill-rule:nonzero;fill:rgb(40.392157%,69.411767%,90.196079%);fill-opacity:1;" d="M 62 34 L 34 34 L 34 62 L 62 62 Z M 62 34 "/>
    <path style=" stroke:none;fill-rule:nonzero;fill:rgb(20%,20%,20%);fill-opacity:1;" d="M 52 22 L 52 10 L 36 10 L 36 12 L 50 12 L 50 22 L 46 22 L 51 30 L 56 22 Z M 52 22 "/>
    <use xlink:href="#surface5" mask="url(#mask0)"/>
  </g>
</svg>