<?xml version="1.0" encoding="UTF-8" standalone="yes"?>
<svg xmlns="http://www.w3.org/2000/svg" xmlns:xlink="http://www.w3.org/1999/xlink" width="64" height="64" viewBox="0 0 64 64" version="1.1">
  <defs>
    <filter id="alpha" filterUnits="objectBoundingBox" x="0%" y="0%" width="100%" height="100%">
      <feColorMatrix type="matrix" in="SourceGraphic" values="0 0 0 0 1 0 0 0 0 1 0 0 0 0 1 0 0 0 1 0"/>
    </filter>
    <mask id="mask0">
      <g filter="url(#alpha)">
        <rect x="0" y="0" width="64" height="64" style="fill:rgb(0%,0%,0%);fill-opacity:0.1;stroke:none;"/>
      </g>
    </mask>
    <mask id="mask1">
      <g filter="url(#alpha)">
        <rect x="0" y="0" width="64" height="64" style="fill:rgb(0%,0%,0%);fill-opacity:0.2;stroke:none;"/>
      </g>
    </mask>
    <clipPath id="clip1">
      <rect x="0" y="0" width="64" height="64"/>
    </clipPath>
    <clipPath id="clip2">
      <rect x="0" y="0" width="64" height="64"/>
    </clipPath>
    <g id="surface5" clip-path="url(#clip1)">
      <path style=" stroke:none;fill-rule:nonzero;fill:rgb(0%,0%,0%);fill-opacity:1;" d="M 49.261719 40.761719 L 55.160156 46.660156 L 44.71875 57.101562 L 38.820312 51.199219 Z M 49.261719 37.941406 L 36 51.199219 L 44.71875 59.921875 L 58 46.660156 Z M 49.261719 37.941406 "/>
    </g>
    <g id="surface8" clip-path="url(#clip2)">
      <path style=" stroke:none;fill-rule:nonzero;fill:rgb(0%,0%,0%);fill-opacity:1;" d="M 0 18 L 0 32 L 52.921875 32 C 54.101562 31.339844 55.441406 31 56.820312 31 C 58.199219 31 59.539062 31.339844 60.71875 32 L 62 32 L 62 18 Z M 2 30 L 2 20 L 20 20 L 20 30 Z M 22 30 L 22 20 L 40 20 L 40 30 Z M 60 30 L 42 30 L 42 20 L 60 20 Z M 60 30 "/>
    </g>
  </defs>
  <g id="surface1">
    <path style=" stroke:none;fill-rule:nonzero;fill:rgb(40.000001%,40.000001%,40.000001%);fill-opacity:1;" d="M 0 0 L 0 56.378906 L 31.78125 56.378906 L 32.359375 54 L 32.980469 51.460938 L 42 42.441406 L 42.460938 42 L 51.058594 33.398438 C 51.621094 32.839844 52.238281 32.359375 52.921875 32 C 54.101562 31.339844 55.441406 31 56.820312 31 C 57.941406 31 59 31.21875 60 31.640625 C 60.71875 31.941406 61.378906 32.359375 62 32.859375 L 62 0 Z M 6 6 L 2 6 L 2 2 L 6 2 Z M 6 6 "/>
    <path style=" stroke:none;fill-rule:nonzero;fill:rgb(95.294118%,95.294118%,95.294118%);fill-opacity:1;" d="M 60 8 L 60 31.640625 C 59 31.21875 57.941406 31 56.820312 31 C 55.441406 31 54.101562 31.339844 52.921875 32 C 52.238281 32.359375 51.621094 32.839844 51.058594 33.398438 L 42.460938 42 L 42 42.441406 L 32.980469 51.460938 L 32.359375 54 L 2 54 L 2 8 Z M 60 8 "/>
    <path style=" stroke:none;fill-rule:nonzero;fill:rgb(40.000001%,40.000001%,40.000001%);fill-opacity:1;" d="M 60 18 L 2 18 L 2 20 L 60 20 Z M 60 18 "/>
    <path style=" stroke:none;fill-rule:nonzero;fill:rgb(40.000001%,40.000001%,40.000001%);fill-opacity:1;" d="M 60 30 L 60 31.640625 C 59 31.21875 57.941406 31 56.820312 31 C 55.441406 31 54.101562 31.339844 52.921875 32 L 2 32 L 2 30 Z M 60 30 "/>
    <path style=" stroke:none;fill-rule:nonzero;fill:rgb(40.000001%,40.000001%,40.000001%);fill-opacity:1;" d="M 42.460938 42 L 42 42.441406 L 40.441406 44 L 2 44 L 2 42 Z M 42.460938 42 "/>
    <path style=" stroke:none;fill-rule:nonzero;fill:rgb(40.000001%,40.000001%,40.000001%);fill-opacity:1;" d="M 22 8 L 20 8 L 20 54 L 22 54 Z M 22 8 "/>
    <path style=" stroke:none;fill-rule:nonzero;fill:rgb(40.000001%,40.000001%,40.000001%);fill-opacity:1;" d="M 42 8 L 42 42.441406 L 40 44.441406 L 40 8 Z M 42 8 "/>
    <path style=" stroke:none;fill-rule:evenodd;fill:rgb(100%,20%,20%);fill-opacity:1;" d="M 61.160156 34.738281 C 63.558594 37.160156 63.558594 41.078125 61.160156 43.480469 L 59.71875 44.941406 L 51.039062 36.199219 L 52.480469 34.738281 C 54.878906 32.320312 58.761719 32.320312 61.160156 34.738281 Z M 61.160156 34.738281 "/>
    <path style=" stroke:none;fill-rule:evenodd;fill:rgb(40.000001%,40.000001%,40.000001%);fill-opacity:1;" d="M 34.5 53.378906 L 42.640625 61.300781 L 32.058594 64 Z M 34.5 53.378906 "/>
    <path style=" stroke:none;fill-rule:evenodd;fill:rgb(100%,76.862746%,30.19608%);fill-opacity:1;" d="M 49.261719 37.941406 L 58 46.660156 L 44.738281 59.921875 L 36 51.199219 Z M 49.261719 37.941406 "/>
    <path style=" stroke:none;fill-rule:nonzero;fill:rgb(0%,0%,0%);fill-opacity:0.101961;" d="M 56.820312 34.921875 C 57.921875 34.921875 58.960938 35.359375 59.738281 36.140625 C 61.359375 37.78125 61.359375 40.441406 59.738281 42.058594 L 59.71875 42.078125 L 53.839844 36.179688 L 53.878906 36.140625 C 54.679688 35.359375 55.71875 34.921875 56.820312 34.921875 Z M 56.820312 32.921875 C 55.238281 32.921875 53.679688 33.519531 52.480469 34.738281 L 51.039062 36.199219 L 59.71875 44.941406 L 61.160156 43.480469 C 63.558594 41.058594 63.558594 37.140625 61.160156 34.738281 C 59.960938 33.519531 58.398438 32.921875 56.820312 32.921875 Z M 56.820312 32.921875 "/>
    <path style=" stroke:none;fill-rule:nonzero;fill:rgb(40.392157%,69.411767%,90.196079%);fill-opacity:1;" d="M 62 18 L 62 32 L 60.71875 32 C 59.539062 31.339844 58.199219 31 56.820312 31 C 55.441406 31 54.101562 31.339844 52.921875 32 L 0 32 L 0 18 Z M 62 18 "/>
    <use xlink:href="#surface5" mask="url(#mask0)"/>
    <use xlink:href="#surface8" mask="url(#mask1)"/>
  </g>
</svg>