<?xml version="1.0" encoding="UTF-8" standalone="yes"?>
<svg xmlns="http://www.w3.org/2000/svg" xmlns:xlink="http://www.w3.org/1999/xlink" width="64" height="64" viewBox="0 0 64 64" version="1.1">
  <defs>
    <filter id="alpha" filterUnits="objectBoundingBox" x="0%" y="0%" width="100%" height="100%">
      <feColorMatrix type="matrix" in="SourceGraphic" values="0 0 0 0 1 0 0 0 0 1 0 0 0 0 1 0 0 0 1 0"/>
    </filter>
    <mask id="mask0">
      <g filter="url(#alpha)">
        <rect x="0" y="0" width="64" height="64" style="fill:rgb(0%,0%,0%);fill-opacity:0.2;stroke:none;"/>
      </g>
    </mask>
    <mask id="mask1">
      <g filter="url(#alpha)">
        <rect x="0" y="0" width="64" height="64" style="fill:rgb(0%,0%,0%);fill-opacity:0.2;stroke:none;"/>
      </g>
    </mask>
    <mask id="mask2">
      <g filter="url(#alpha)">
        <rect x="0" y="0" width="64" height="64" style="fill:rgb(0%,0%,0%);fill-opacity:0.3;stroke:none;"/>
      </g>
    </mask>
    <mask id="mask3">
      <g filter="url(#alpha)">
        <rect x="0" y="0" width="64" height="64" style="fill:rgb(0%,0%,0%);fill-opacity:0.3;stroke:none;"/>
      </g>
    </mask>
    <clipPath id="clip1">
      <rect x="0" y="0" width="64" height="64"/>
    </clipPath>
    <clipPath id="clip2">
      <rect x="0" y="0" width="64" height="64"/>
    </clipPath>
    <clipPath id="clip3">
      <rect x="0" y="0" width="64" height="64"/>
    </clipPath>
    <clipPath id="clip4">
      <rect x="0" y="0" width="64" height="64"/>
    </clipPath>
    <g id="surface5" clip-path="url(#clip1)">
      <path style=" stroke:none;fill-rule:nonzero;fill:rgb(0%,0%,0%);fill-opacity:1;" d="M 49.28125 46 L 4 46 L 4 18.820312 L 16.820312 6 L 56 6 L 56 26.148438 C 56.671875 26.210938 57.339844 26.300781 58 26.453125 L 58 4 L 16 4 L 2 18 L 2 48 L 48.960938 48 C 48.988281 47.324219 49.097656 46.652344 49.28125 46 Z M 49.28125 46 "/>
    </g>
    <g id="surface8" clip-path="url(#clip2)">
      <path style=" stroke:none;fill-rule:nonzero;fill:rgb(0%,0%,0%);fill-opacity:1;" d="M 56.1875 36.214844 C 56.234375 35.929688 56.167969 35.445312 55.9375 35.179688 L 55.9375 37.90625 C 56.105469 37.710938 56.164062 37.46875 56.1875 37.21875 Z M 56.1875 36.214844 "/>
    </g>
    <g id="surface11" clip-path="url(#clip3)">
      <path style=" stroke:none;fill-rule:nonzero;fill:rgb(100%,100%,100%);fill-opacity:1;" d="M 8 34 L 28 34 L 28 38 L 8 38 Z M 8 34 "/>
    </g>
    <g id="surface14" clip-path="url(#clip4)">
      <path style=" stroke:none;fill-rule:nonzero;fill:rgb(100%,100%,100%);fill-opacity:1;" d="M 32 16 L 40 16 L 40 26 L 32 26 Z M 32 16 "/>
    </g>
  </defs>
  <g id="surface1">
    <path style=" stroke:none;fill-rule:nonzero;fill:rgb(35.294119%,78.039217%,49.411765%);fill-opacity:1;" d="M 53.90625 39.878906 C 55.34375 38.699219 56.203125 37.878906 56.203125 37.199219 L 56.203125 36.101562 C 56.203125 35.480469 56.023438 34.65625 54.207031 34.460938 C 53.523438 34.386719 52.660156 34.570312 52.082031 35.089844 C 51.503906 35.609375 51.191406 36.363281 51.230469 37.140625 L 51.074219 38.960938 L 41.929688 38.960938 L 42.027344 36.960938 C 42.328125 30.460938 47.359375 26.078125 54.566406 26.078125 C 55.722656 26.074219 56.875 26.203125 58 26.460938 L 58 4 L 15.976562 4 L 2 18 L 2 48 L 48.875 48 C 49.234375 44.667969 51.085938 41.679688 53.90625 39.878906 Z M 53.90625 39.878906 "/>
    <path style=" stroke:none;fill-rule:nonzero;fill:rgb(40.000001%,40.000001%,40.000001%);fill-opacity:1;" d="M 24 10 L 48 10 L 48 16 L 24 16 Z M 24 10 "/>
    <path style=" stroke:none;fill-rule:nonzero;fill:rgb(95.294118%,95.294118%,95.294118%);fill-opacity:1;" d="M 0 30 L 10 30 L 10 40 L 0 40 Z M 0 30 "/>
    <path style=" stroke:none;fill-rule:evenodd;fill:rgb(40.000001%,40.000001%,40.000001%);fill-opacity:1;" d="M 0 40 L 0 30 L 10 30 L 10 40 Z M 2 38 L 8 38 L 8 32 L 2 32 Z M 2 38 "/>
    <path style=" stroke:none;fill-rule:nonzero;fill:rgb(9.019608%,56.078434%,90.196079%);fill-opacity:1;" d="M 56 57.019531 C 56 58.664062 54.664062 60 53.019531 60 C 51.375 60 50.039062 58.664062 50.039062 57.019531 C 50.039062 55.375 51.375 54.039062 53.019531 54.039062 C 54.664062 54.039062 56 55.375 56 57.019531 Z M 56 57.019531 "/>
    <path style=" stroke:none;fill-rule:nonzero;fill:rgb(40.000001%,40.000001%,40.000001%);fill-opacity:1;" d="M 42 38.960938 L 42.101562 36.960938 C 42.164062 35.007812 42.863281 32.699219 44.101562 30.9375 L 44.101562 30 C 44.101562 27.789062 42.308594 26 40.101562 26 L 32 26 C 29.789062 26 28 27.789062 28 30 L 28 38 C 28 40.210938 29.789062 42 32 42 L 40 42 C 41.832031 41.988281 43.421875 40.738281 43.859375 38.960938 Z M 42 38.960938 "/>
    <path style=" stroke:none;fill-rule:nonzero;fill:rgb(9.019608%,56.078434%,90.196079%);fill-opacity:1;" d="M 54.558594 28 C 48 28 44.21875 32 44 36.960938 L 49.300781 36.960938 C 49.304688 35.683594 49.847656 34.464844 50.796875 33.609375 C 51.742188 32.753906 53.007812 32.335938 54.28125 32.460938 C 56.820312 32.460938 58.28125 33.738281 58.28125 36.101562 L 58.28125 37.199219 C 58.28125 41.199219 50.839844 42.121094 50.839844 48.601562 L 50.839844 50 L 56.058594 50 L 56.058594 48.78125 C 56.058594 43.601562 63.941406 43.261719 63.941406 37.019531 L 63.941406 35.640625 C 64 31.441406 60.699219 28 54.558594 28 Z M 54.558594 28 "/>
    <use xlink:href="#surface5" mask="url(#mask0)"/>
    <use xlink:href="#surface8" mask="url(#mask1)"/>
    <use xlink:href="#surface11" mask="url(#mask2)"/>
    <use xlink:href="#surface14" mask="url(#mask3)"/>
  </g>
</svg>