<?xml version="1.0" encoding="UTF-8" standalone="yes"?>
<svg xmlns="http://www.w3.org/2000/svg" xmlns:xlink="http://www.w3.org/1999/xlink" width="64" height="64" viewBox="0 0 64 64" version="1.1">
  <defs>
    <filter id="alpha" filterUnits="objectBoundingBox" x="0%" y="0%" width="100%" height="100%">
      <feColorMatrix type="matrix" in="SourceGraphic" values="0 0 0 0 1 0 0 0 0 1 0 0 0 0 1 0 0 0 1 0"/>
    </filter>
    <mask id="mask0">
      <g filter="url(#alpha)">
        <rect x="0" y="0" width="64" height="64" style="fill:rgb(0%,0%,0%);fill-opacity:0.1;stroke:none;"/>
      </g>
    </mask>
    <clipPath id="clip1">
      <rect x="0" y="0" width="64" height="64"/>
    </clipPath>
    <g id="surface5" clip-path="url(#clip1)">
      <path style=" stroke:none;fill-rule:nonzero;fill:rgb(0%,0%,0%);fill-opacity:1;" d="M 18 3.601562 L 32.199219 12 L 18 20.398438 L 18 14 L 2 14 L 2 10 L 18 10 Z M 16 0 L 16 8 L 0 8 L 0 16 L 16 16 L 16 24 L 36 12 Z M 16 0 "/>
    </g>
  </defs>
  <g id="surface1">
    <path style=" stroke:none;fill-rule:nonzero;fill:rgb(95.294118%,95.294118%,95.294118%);fill-opacity:1;" d="M 64 20 L 50 34 L 4 34 L 14 24 L 14 27.601562 L 18 25.199219 L 20 24 L 23.199219 22 L 26.601562 20 Z M 64 20 "/>
    <path style=" stroke:none;fill-rule:nonzero;fill:rgb(73.333335%,73.333335%,73.333335%);fill-opacity:1;" d="M 64 48 L 50 62 L 50 34 L 64 20 Z M 64 48 "/>
    <path style=" stroke:none;fill-rule:nonzero;fill:rgb(85.09804%,85.09804%,85.09804%);fill-opacity:1;" d="M 50 34 L 4 34 L 4 62 L 50 62 Z M 50 34 "/>
    <path style=" stroke:none;fill-rule:nonzero;fill:rgb(40.000001%,40.000001%,40.000001%);fill-opacity:1;" d="M 26.601562 20 L 23.199219 22 L 62 22 L 62 47.199219 L 49.199219 60 L 6 60 L 6 34.800781 L 14 26.800781 L 14 24 L 4 34 L 4 62 L 50 62 L 64 48 L 64 20 Z M 26.601562 20 "/>
    <path style=" stroke:none;fill-rule:nonzero;fill:rgb(95.294118%,95.294118%,95.294118%);fill-opacity:1;" d="M 54 18 L 42 18 L 36 24 L 54 24 Z M 54 18 "/>
    <path style=" stroke:none;fill-rule:nonzero;fill:rgb(85.09804%,85.09804%,85.09804%);fill-opacity:1;" d="M 48 24 L 36 24 L 36 32 L 48 32 Z M 48 24 "/>
    <path style=" stroke:none;fill-rule:nonzero;fill:rgb(73.333335%,73.333335%,73.333335%);fill-opacity:1;" d="M 54 26 L 48 32 L 48 24 L 54 18 Z M 54 26 "/>
    <path style=" stroke:none;fill-rule:nonzero;fill:rgb(40.000001%,40.000001%,40.000001%);fill-opacity:1;" d="M 42 18 L 36 24 L 36 32 L 48 32 L 54 26 L 54 18 Z M 52 25.199219 L 47.199219 30 L 38 30 L 38 24.800781 L 42.800781 20 L 52 20 Z M 52 25.199219 "/>
    <path style=" stroke:none;fill-rule:nonzero;fill:rgb(95.294118%,95.294118%,95.294118%);fill-opacity:1;" d="M 34 18 L 34 24 L 20 24 L 23.199219 22 L 26.601562 20 L 29.800781 18 Z M 34 18 "/>
    <path style=" stroke:none;fill-rule:nonzero;fill:rgb(85.09804%,85.09804%,85.09804%);fill-opacity:1;" d="M 28 24 L 28 32 L 16 32 L 16 26.398438 L 20 24 Z M 28 24 "/>
    <path style=" stroke:none;fill-rule:nonzero;fill:rgb(73.333335%,73.333335%,73.333335%);fill-opacity:1;" d="M 34 26 L 28 32 L 28 24 L 34 18 Z M 34 26 "/>
    <path style=" stroke:none;fill-rule:nonzero;fill:rgb(40.000001%,40.000001%,40.000001%);fill-opacity:1;" d="M 29.800781 18 L 26.398438 20 L 32 20 L 32 25.199219 L 27.199219 30 L 18 30 L 18 25.199219 L 16 26.398438 L 16 32 L 28 32 L 34 26 L 34 18 Z M 29.800781 18 "/>
    <path style=" stroke:none;fill-rule:nonzero;fill:rgb(9.019608%,56.078434%,90.196079%);fill-opacity:1;" d="M 36 12 L 16 0 L 16 8 L 0 8 L 0 16 L 16 16 L 16 24 Z M 36 12 "/>
    <use xlink:href="#surface5" mask="url(#mask0)"/>
  </g>
</svg>