<?xml version="1.0" encoding="UTF-8" standalone="yes"?>
<svg xmlns="http://www.w3.org/2000/svg" xmlns:xlink="http://www.w3.org/1999/xlink" width="64" height="64" viewBox="0 0 64 64" version="1.1">
  <g id="surface1">
    <path style=" stroke:none;fill-rule:nonzero;fill:rgb(73.333335%,73.333335%,73.333335%);fill-opacity:1;" d="M 33.441406 57.480469 L 36.921875 54 L 32 54 L 32 44 L 8 44 L 8 0 C 5.878906 0 3.84375 0.84375 2.34375 2.34375 C 0.84375 3.84375 0 5.878906 0 8 L 0 52 C 0 54.121094 0.84375 56.15625 2.34375 57.65625 C 3.84375 59.15625 5.878906 60 8 60 L 36 60 Z M 33.441406 57.480469 "/>
    <path style=" stroke:none;fill-rule:nonzero;fill:rgb(95.294118%,95.294118%,95.294118%);fill-opacity:1;" d="M 36.921875 54 L 32 54 L 32 46 L 11 46 C 9.675781 46 8.402344 46.527344 7.464844 47.464844 C 6.527344 48.402344 6 49.675781 6 51 C 6 52.324219 6.527344 53.597656 7.464844 54.535156 C 8.402344 55.472656 9.675781 56 11 56 L 35 56 Z M 36.921875 54 "/>
    <path style=" stroke:none;fill-rule:nonzero;fill:rgb(85.09804%,85.09804%,85.09804%);fill-opacity:1;" d="M 36.921875 44 L 33.441406 40.519531 L 40.519531 33.441406 L 44 36.921875 L 44 32 L 52 32 L 52 0 L 8 0 L 8 44 Z M 36.921875 44 "/>
    <path style=" stroke:none;fill-rule:nonzero;fill:rgb(40.000001%,40.000001%,40.000001%);fill-opacity:1;" d="M 34 58 L 8 58 C 6.410156 58 4.882812 57.367188 3.757812 56.242188 C 2.632812 55.117188 2 53.589844 2 52 L 2 8 C 2 6.410156 2.632812 4.882812 3.757812 3.757812 C 4.882812 2.632812 6.410156 2 8 2 L 50 2 L 50 32 L 52 32 L 52 0 L 8 0 C 5.878906 0 3.84375 0.84375 2.34375 2.34375 C 0.84375 3.84375 0 5.878906 0 8 L 0 52 C 0 54.121094 0.84375 56.15625 2.34375 57.65625 C 3.84375 59.15625 5.878906 60 8 60 L 36 60 Z M 34 58 "/>
    <path style=" stroke:none;fill-rule:evenodd;fill:rgb(9.019608%,56.078434%,90.196079%);fill-opacity:1;" d="M 52 38.417969 L 52 34 L 46 34 L 46 38.417969 C 45.179688 38.648438 44.386719 38.976562 43.636719 39.394531 L 40.519531 36.28125 L 36.28125 40.519531 L 39.394531 43.636719 C 39.1875 44.007812 39 44.394531 38.835938 44.789062 C 38.671875 45.1875 38.53125 45.589844 38.417969 46 L 34 46 L 34 52 L 38.417969 52 C 38.652344 52.824219 38.980469 53.617188 39.394531 54.363281 L 36.28125 57.480469 L 40.519531 61.71875 L 43.636719 58.605469 C 44.382812 59.019531 45.175781 59.347656 46 59.582031 L 46 64 L 52 64 L 52 59.582031 C 52.410156 59.46875 52.8125 59.328125 53.210938 59.164062 C 53.605469 59 53.992188 58.8125 54.363281 58.605469 L 57.480469 61.71875 L 61.71875 57.480469 L 58.605469 54.363281 C 59.023438 53.613281 59.351562 52.820312 59.582031 52 L 64 52 L 64 46 L 59.582031 46 C 59.347656 45.175781 59.019531 44.382812 58.605469 43.636719 L 61.71875 40.519531 L 57.480469 36.28125 L 54.363281 39.394531 C 53.617188 38.980469 52.824219 38.652344 52 38.417969 Z M 49 54 C 48.011719 54 47.042969 53.707031 46.222656 53.15625 C 45.398438 52.609375 44.757812 51.828125 44.378906 50.914062 C 44.003906 50 43.902344 48.996094 44.097656 48.023438 C 44.289062 47.054688 44.765625 46.164062 45.464844 45.464844 C 46.164062 44.765625 47.054688 44.289062 48.023438 44.097656 C 48.996094 43.902344 50 44.003906 50.914062 44.378906 C 51.828125 44.757812 52.609375 45.398438 53.15625 46.222656 C 53.707031 47.042969 54 48.011719 54 49 C 54 50.324219 53.472656 51.597656 52.535156 52.535156 C 51.597656 53.472656 50.324219 54 49 54 Z M 49 54 "/>
  </g>
</svg>