<svg width="64" height="64" viewBox="0 0 64 64" fill="none" xmlns="http://www.w3.org/2000/svg">
<path fill-rule="evenodd" clip-rule="evenodd" d="M32 46H0L2 50H32V46Z" fill="#5AC77E"/>
<path fill-rule="evenodd" clip-rule="evenodd" d="M0 46L10 26H54L58 34L57.4 33.4L54 37V32H44V37L40.6 33.4L33.4 40.6L37 44H32V46H0Z" fill="#82D99F"/>
<path fill-rule="evenodd" clip-rule="evenodd" d="M35.8132 42.8791L36 44H32H28L30 32H34L35.1429 38.8571L33.4 40.6L35.8132 42.8791Z" fill="#FFDF6A"/>
<path fill-rule="evenodd" clip-rule="evenodd" d="M56.1315 34.7431L52.76 28H11.24L2.24 46L3.24 48H32V50H2L0 46L10 26H54L58 34L57.4 33.4L56.1315 34.7431Z" fill="black" fill-opacity="0.2"/>
<path d="M12 44H18L22 32H16L12 44Z" fill="#FFDF6A"/>
<path d="M20 44H26L30 32H24L20 44Z" fill="#FFDF6A"/>
<path d="M47 12H17L9 28H55L47 12Z" fill="#F3F3F3"/>
<path d="M23 18C24.6569 18 26 17.5523 26 17C26 16.4477 24.6569 16 23 16C21.3431 16 20 16.4477 20 17C20 17.5523 21.3431 18 23 18Z" fill="#666666"/>
<path fill-rule="evenodd" clip-rule="evenodd" d="M54.9444 36H54V37L54.9444 36ZM44 36H43.0556L44 37V36ZM38 36H8L10 40H34L38 36Z" fill="#BBBBBB"/>
<path fill-rule="evenodd" clip-rule="evenodd" d="M52 34V38.4272C52.8799 38.6829 53.7168 39.0475 54.4951 39.5048L57.6001 36.4L61.7998 40.6L58.6406 43.7597C59.0303 44.4649 59.3447 45.2154 59.5728 46H64V52H59.5728C59.3447 52.7846 59.0303 53.5352 58.6406 54.2404L61.7998 57.4L57.6001 61.6L54.4951 58.4952C53.7168 58.9526 52.8799 59.3171 52 59.5728V64H46V59.5728C45.2153 59.3448 44.4644 59.0302 43.7593 58.6404L40.6001 61.8L36.3999 57.6L39.5049 54.4951C39.0474 53.7169 38.6831 52.8798 38.4272 52H34V46H38.4272C38.6831 45.1202 39.0474 44.2831 39.5049 43.5048L36.3999 40.4L40.6001 36.2L43.7593 39.3596C44.4644 38.9698 45.2153 38.6552 46 38.4272V34H52ZM49 54C46.2002 54 44 51.8 44 49C44 46.2 46.2002 44 49 44C51.7998 44 54 46.2 54 49C54 51.8 51.7998 54 49 54Z" fill="#178FE6"/>
<path fill-rule="evenodd" clip-rule="evenodd" d="M9 28H55L55.8766 35.013L54.9444 36H54V32H44V36H43.0556L40.6 33.4L38 36H8L9 28Z" fill="#D9D9D9"/>
<path fill-rule="evenodd" clip-rule="evenodd" d="M42 34.8824V32H38V36L40.6 33.4L42 34.8824Z" fill="#666666"/>
<path fill-rule="evenodd" clip-rule="evenodd" d="M53.06 28.58L45.76 14H18.24L10.94 28.58L10.06 35.64L11.24 38H36L34 40H10L8 36L9 28L17 12H47L55 28L55.8766 35.013L54 37V32H53.4863L53.06 28.58Z" fill="#666666"/>
<path d="M18 32H14V42H18V32Z" fill="#666666"/>
<path d="M26 32H22V42H26V32Z" fill="#666666"/>
<path d="M34 32H30V42H34V32Z" fill="#666666"/>
</svg>
