<?xml version="1.0" encoding="UTF-8" standalone="yes"?>
<svg xmlns="http://www.w3.org/2000/svg" xmlns:xlink="http://www.w3.org/1999/xlink" width="64" height="64" viewBox="0 0 64 64" version="1.1">
  <defs>
    <filter id="alpha" filterUnits="objectBoundingBox" x="0%" y="0%" width="100%" height="100%">
      <feColorMatrix type="matrix" in="SourceGraphic" values="0 0 0 0 1 0 0 0 0 1 0 0 0 0 1 0 0 0 1 0"/>
    </filter>
    <mask id="mask0">
      <g filter="url(#alpha)">
        <rect x="0" y="0" width="64" height="64" style="fill:rgb(0%,0%,0%);fill-opacity:0.2;stroke:none;"/>
      </g>
    </mask>
    <mask id="mask1">
      <g filter="url(#alpha)">
        <rect x="0" y="0" width="64" height="64" style="fill:rgb(0%,0%,0%);fill-opacity:0.1;stroke:none;"/>
      </g>
    </mask>
    <clipPath id="clip1">
      <rect x="0" y="0" width="64" height="64"/>
    </clipPath>
    <clipPath id="clip2">
      <rect x="0" y="0" width="64" height="64"/>
    </clipPath>
    <g id="surface5" clip-path="url(#clip1)">
      <path style=" stroke:none;fill-rule:nonzero;fill:rgb(0%,0%,0%);fill-opacity:1;" d="M 0 0 L 0 22 L 56 22 L 56 0 Z M 54 20 L 2 20 L 2 2 L 54 2 Z M 54 20 "/>
    </g>
    <g id="surface8" clip-path="url(#clip2)">
      <path style=" stroke:none;fill-rule:nonzero;fill:rgb(0%,0%,0%);fill-opacity:1;" d="M 46 43.539062 L 60.121094 52 L 46 60.460938 L 46 54 L 30 54 L 30 50 L 46 50 Z M 44 40 L 44 48 L 28 48 L 28 56 L 44 56 L 44 64 L 64 52 Z M 44 40 "/>
    </g>
  </defs>
  <g id="surface1">
    <path style=" stroke:none;fill-rule:nonzero;fill:rgb(40.000001%,40.000001%,40.000001%);fill-opacity:1;" d="M 56 0 L 56 44.859375 L 54 43.660156 L 47.898438 40 L 44.558594 38 L 42 36.460938 L 42 46 L 26 46 L 26 56 L 0 56 L 0 0 Z M 56 0 "/>
    <path style=" stroke:none;fill-rule:nonzero;fill:rgb(95.294118%,95.294118%,95.294118%);fill-opacity:1;" d="M 54 2 L 54 43.660156 L 47.898438 40 L 44.558594 38 L 42 36.460938 L 42 46 L 26 46 L 26 54 L 2 54 L 2 2 Z M 54 2 "/>
    <path style=" stroke:none;fill-rule:nonzero;fill:rgb(40.000001%,40.000001%,40.000001%);fill-opacity:1;" d="M 20 38 L 2 38 L 2 54 L 20 54 Z M 20 38 "/>
    <path style=" stroke:none;fill-rule:nonzero;fill:rgb(40.000001%,40.000001%,40.000001%);fill-opacity:1;" d="M 11 32 C 13.761719 32 16 29.761719 16 27 C 16 24.238281 13.761719 22 11 22 C 8.238281 22 6 24.238281 6 27 C 6 29.761719 8.238281 32 11 32 Z M 11 32 "/>
    <path style=" stroke:none;fill-rule:nonzero;fill:rgb(95.294118%,95.294118%,95.294118%);fill-opacity:1;" d="M 11 30 C 12.660156 30 14 28.660156 14 27 C 14 25.339844 12.660156 24 11 24 C 9.339844 24 8 25.339844 8 27 C 8 28.660156 9.339844 30 11 30 Z M 11 30 "/>
    <path style=" stroke:none;fill-rule:nonzero;fill:rgb(40.000001%,40.000001%,40.000001%);fill-opacity:1;" d="M 12 30 L 10 30 L 10 38 L 12 38 Z M 12 30 "/>
    <path style=" stroke:none;fill-rule:nonzero;fill:rgb(40.000001%,40.000001%,40.000001%);fill-opacity:1;" d="M 32 2 L 30 2 L 30 28 L 32 28 Z M 32 2 "/>
    <path style=" stroke:none;fill-rule:nonzero;fill:rgb(40.000001%,40.000001%,40.000001%);fill-opacity:1;" d="M 40 26.421875 L 40 16 L 42 16 L 42 28.421875 Z M 40 26.421875 "/>
    <path style=" stroke:none;fill-rule:nonzero;fill:rgb(40.000001%,40.000001%,40.000001%);fill-opacity:1;" d="M 20.421875 10 L 2 10 L 2 8 L 18.421875 8 Z M 20.421875 10 "/>
    <path style=" stroke:none;fill-rule:nonzero;fill:rgb(40.000001%,40.000001%,40.000001%);fill-opacity:1;" d="M 23.359375 12.941406 L 21.941406 14.359375 L 15.582031 8 L 18.421875 8 Z M 23.359375 12.941406 "/>
    <path style=" stroke:none;fill-rule:nonzero;fill:rgb(40.000001%,40.000001%,40.000001%);fill-opacity:1;" d="M 37.578125 38 L 42 38 L 42 40 L 39.578125 40 Z M 37.578125 38 "/>
    <path style=" stroke:none;fill-rule:nonzero;fill:rgb(40.000001%,40.000001%,40.000001%);fill-opacity:1;" d="M 54 38 L 54 40 L 47.898438 40 L 44.558594 38 Z M 54 38 "/>
    <path style=" stroke:none;fill-rule:nonzero;fill:rgb(40.000001%,40.000001%,40.000001%);fill-opacity:1;" d="M 42 39.597656 L 42 40 L 39.601562 40 L 30.601562 31 L 32 29.597656 Z M 42 39.597656 "/>
    <path style=" stroke:none;fill-rule:nonzero;fill:rgb(40.000001%,40.000001%,40.000001%);fill-opacity:1;" d="M 46.058594 32 L 43.578125 30 L 54 30 L 54 32 Z M 46.058594 32 "/>
    <path style=" stroke:none;fill-rule:nonzero;fill:rgb(40.000001%,40.000001%,40.000001%);fill-opacity:1;" d="M 45.578125 32 L 40 26.421875 L 40 23.578125 L 48.421875 32 Z M 45.578125 32 "/>
    <path style=" stroke:none;fill-rule:nonzero;fill:rgb(40.000001%,40.000001%,40.000001%);fill-opacity:1;" d="M 23 20 C 25.761719 20 28 17.761719 28 15 C 28 12.238281 25.761719 10 23 10 C 20.238281 10 18 12.238281 18 15 C 18 17.761719 20.238281 20 23 20 Z M 23 20 "/>
    <path style=" stroke:none;fill-rule:nonzero;fill:rgb(95.294118%,95.294118%,95.294118%);fill-opacity:1;" d="M 23 18 C 24.660156 18 26 16.660156 26 15 C 26 13.339844 24.660156 12 23 12 C 21.339844 12 20 13.339844 20 15 C 20 16.660156 21.339844 18 23 18 Z M 23 18 "/>
    <path style=" stroke:none;fill-rule:nonzero;fill:rgb(40.000001%,40.000001%,40.000001%);fill-opacity:1;" d="M 36 15 C 36 17.761719 38.238281 20 41 20 C 43.761719 20 46 17.761719 46 15 C 46 12.238281 43.761719 10 41 10 C 38.238281 10 36 12.238281 36 15 Z M 36 15 "/>
    <path style=" stroke:none;fill-rule:nonzero;fill:rgb(95.294118%,95.294118%,95.294118%);fill-opacity:1;" d="M 38 15 C 38 16.660156 39.339844 18 41 18 C 42.660156 18 44 16.660156 44 15 C 44 13.339844 42.660156 12 41 12 C 39.339844 12 38 13.339844 38 15 Z M 38 15 "/>
    <path style=" stroke:none;fill-rule:nonzero;fill:rgb(40.000001%,40.000001%,40.000001%);fill-opacity:1;" d="M 26 29 C 26 31.761719 28.238281 34 31 34 C 33.761719 34 36 31.761719 36 29 C 36 26.238281 33.761719 24 31 24 C 28.238281 24 26 26.238281 26 29 Z M 26 29 "/>
    <path style=" stroke:none;fill-rule:nonzero;fill:rgb(95.294118%,95.294118%,95.294118%);fill-opacity:1;" d="M 28 29 C 28 30.660156 29.339844 32 31 32 C 32.660156 32 34 30.660156 34 29 C 34 27.339844 32.660156 26 31 26 C 29.339844 26 28 27.339844 28 29 Z M 28 29 "/>
    <path style=" stroke:none;fill-rule:nonzero;fill:rgb(30.19608%,30.19608%,30.19608%);fill-opacity:1;" d="M 56 0 L 0 0 L 0 22 L 56 22 Z M 56 0 "/>
    <path style=" stroke:none;fill-rule:nonzero;fill:rgb(100%,100%,100%);fill-opacity:1;" d="M 12.199219 6.5 C 12.800781 6.839844 13.238281 7.300781 13.539062 7.878906 C 13.839844 8.480469 13.980469 9.160156 13.980469 9.921875 L 13.980469 12.078125 C 13.980469 12.839844 13.839844 13.519531 13.539062 14.101562 C 13.238281 14.679688 12.800781 15.140625 12.199219 15.480469 C 11.601562 15.820312 10.878906 15.980469 10.019531 15.980469 C 9.160156 15.980469 8.441406 15.820312 7.859375 15.480469 C 7.261719 15.140625 6.820312 14.679688 6.519531 14.101562 C 6.21875 13.519531 6.082031 12.839844 6.082031 12.078125 L 6.082031 9.921875 C 6.082031 9.140625 6.21875 8.460938 6.519531 7.878906 C 6.820312 7.28125 7.261719 6.820312 7.859375 6.5 C 8.460938 6.160156 9.179688 6 10.019531 6 C 10.878906 6 11.601562 6.160156 12.199219 6.5 Z M 8.359375 8.019531 C 7.980469 8.480469 7.800781 9.101562 7.800781 9.898438 L 7.800781 12.101562 C 7.800781 12.878906 7.980469 13.519531 8.359375 13.960938 C 8.738281 14.421875 9.28125 14.640625 10.019531 14.640625 C 10.761719 14.640625 11.300781 14.421875 11.679688 13.960938 C 12.058594 13.5 12.238281 12.878906 12.238281 12.101562 L 12.238281 9.898438 C 12.238281 9.101562 12.058594 8.480469 11.679688 8.019531 C 11.300781 7.558594 10.761719 7.339844 10.019531 7.339844 C 9.28125 7.339844 8.738281 7.558594 8.359375 8.019531 Z M 8.359375 8.019531 "/>
    <path style=" stroke:none;fill-rule:nonzero;fill:rgb(100%,100%,100%);fill-opacity:1;" d="M 22.300781 7.078125 C 23 7.800781 23.339844 8.761719 23.339844 10 L 23.339844 11.78125 C 23.339844 13.101562 22.960938 14.140625 22.199219 14.878906 C 21.441406 15.621094 20.339844 16 18.921875 16 L 16 16 L 16 6 L 19.28125 6 C 20.601562 6 21.601562 6.359375 22.300781 7.078125 Z M 21.539062 9.960938 C 21.539062 9.140625 21.339844 8.5 20.941406 8.058594 C 20.539062 7.621094 19.960938 7.398438 19.179688 7.398438 L 17.800781 7.398438 L 17.800781 14.621094 L 18.921875 14.621094 C 19.800781 14.621094 20.460938 14.378906 20.878906 13.921875 C 21.320312 13.460938 21.539062 12.761719 21.539062 11.800781 Z M 21.539062 9.960938 "/>
    <path style=" stroke:none;fill-rule:nonzero;fill:rgb(100%,100%,100%);fill-opacity:1;" d="M 32.398438 11.441406 C 32.761719 11.761719 32.941406 12.238281 32.941406 12.839844 L 32.941406 13.421875 C 32.941406 13.921875 32.78125 14.378906 32.460938 14.761719 C 32.140625 15.160156 31.699219 15.460938 31.121094 15.679688 C 30.539062 15.898438 29.859375 16 29.078125 16 L 26 16 L 26 6 L 29.078125 6 C 30.160156 6 31.019531 6.21875 31.660156 6.660156 C 32.300781 7.101562 32.621094 7.699219 32.621094 8.480469 L 32.621094 9.101562 C 32.621094 9.578125 32.480469 9.960938 32.199219 10.21875 C 31.921875 10.5 31.558594 10.679688 31.160156 10.800781 C 31.621094 10.921875 32.039062 11.121094 32.398438 11.441406 Z M 27.800781 7.320312 L 27.800781 10.339844 L 29.378906 10.339844 C 29.820312 10.339844 30.179688 10.238281 30.441406 10.039062 C 30.699219 9.839844 30.820312 9.539062 30.820312 9.140625 L 30.820312 8.621094 C 30.820312 8.199219 30.660156 7.878906 30.359375 7.660156 C 30.058594 7.441406 29.640625 7.339844 29.101562 7.339844 L 27.800781 7.339844 Z M 31.140625 12.820312 C 31.140625 12.441406 31 12.140625 30.699219 11.921875 C 30.398438 11.699219 30 11.601562 29.460938 11.601562 L 27.800781 11.601562 L 27.800781 14.679688 L 29.101562 14.679688 C 29.738281 14.679688 30.238281 14.558594 30.601562 14.339844 C 30.960938 14.121094 31.140625 13.78125 31.140625 13.320312 Z M 31.140625 12.820312 "/>
    <path style=" stroke:none;fill-rule:nonzero;fill:rgb(100%,100%,100%);fill-opacity:1;" d="M 41.980469 11.761719 L 39.800781 11.761719 L 39.800781 14 L 38.160156 14 L 38.160156 11.761719 L 36 11.761719 L 36 10.238281 L 38.179688 10.238281 L 38.179688 8 L 39.820312 8 L 39.820312 10.238281 L 42 10.238281 L 42 11.761719 Z M 41.980469 11.761719 "/>
    <path style=" stroke:none;fill-rule:nonzero;fill:rgb(100%,100%,100%);fill-opacity:1;" d="M 49.980469 11.761719 L 47.800781 11.761719 L 47.800781 14 L 46.160156 14 L 46.160156 11.761719 L 44 11.761719 L 44 10.238281 L 46.179688 10.238281 L 46.179688 8 L 47.820312 8 L 47.820312 10.238281 L 50 10.238281 L 50 11.761719 Z M 49.980469 11.761719 "/>
    <path style=" stroke:none;fill-rule:nonzero;fill:rgb(60.000002%,60.000002%,60.000002%);fill-opacity:1;" d="M 18 40 L 2 40 L 2 54 L 18 54 Z M 18 40 "/>
    <path style=" stroke:none;fill-rule:nonzero;fill:rgb(9.019608%,56.078434%,90.196079%);fill-opacity:1;" d="M 44 40 L 44 48 L 28 48 L 28 56 L 44 56 L 44 64 L 64 52 Z M 44 40 "/>
    <use xlink:href="#surface5" mask="url(#mask0)"/>
    <use xlink:href="#surface8" mask="url(#mask1)"/>
  </g>
</svg>