<?xml version="1.0" encoding="UTF-8" standalone="yes"?>
<svg xmlns="http://www.w3.org/2000/svg" xmlns:xlink="http://www.w3.org/1999/xlink" width="64" height="64" viewBox="0 0 64 64" version="1.1">
  <g id="surface1">
    <path style=" stroke:none;fill-rule:nonzero;fill:rgb(100%,100%,100%);fill-opacity:1;" d="M 54 35.238281 L 54 32 L 44 32 L 44 36.941406 L 40.519531 33.460938 L 33.460938 40.519531 L 36.941406 44 L 32 44 L 32 54 L 35.238281 54 C 32.886719 54.667969 30.449219 55.003906 28 55 C 22.660156 55 17.441406 53.417969 13 50.449219 C 8.558594 47.484375 5.097656 43.265625 3.054688 38.332031 C 1.011719 33.398438 0.476562 27.96875 1.519531 22.734375 C 2.5625 17.496094 5.132812 12.683594 8.90625 8.90625 C 12.683594 5.132812 17.496094 2.5625 22.734375 1.519531 C 27.96875 0.476562 33.398438 1.011719 38.332031 3.054688 C 43.265625 5.097656 47.484375 8.558594 50.449219 13 C 53.417969 17.441406 55 22.660156 55 28 C 55.003906 30.449219 54.667969 32.886719 54 35.238281 Z M 54 35.238281 "/>
    <path style=" stroke:none;fill-rule:nonzero;fill:rgb(40.000001%,40.000001%,40.000001%);fill-opacity:1;" d="M 36 20.121094 C 33.320312 20 30.679688 20 28 20 C 25.320312 20 22.679688 20 20.101562 20.101562 C 20 22.679688 20 25.320312 20 28 C 20 30.679688 20 33.320312 20.101562 35.878906 C 22.679688 35.878906 25.320312 35.980469 28 35.980469 C 30.679688 35.980469 33.320312 36 36 36 C 36 33.441406 36.101562 30.800781 36.101562 28.121094 C 36.101562 25.441406 36 22.679688 36 20.121094 Z M 36 20.121094 "/>
    <path style=" stroke:none;fill-rule:nonzero;fill:rgb(40.000001%,40.000001%,40.000001%);fill-opacity:1;" d="M 8.257812 35.300781 C 8.484375 38.964844 8.898438 42.617188 9.5 46.238281 L 9.757812 46.5 C 13.382812 47.101562 17.035156 47.511719 20.699219 47.738281 C 20.417969 44 20.21875 40 20.101562 36 C 16 35.761719 12 35.578125 8.257812 35.300781 Z M 8.257812 35.300781 "/>
    <path style=" stroke:none;fill-rule:nonzero;fill:rgb(40.000001%,40.000001%,40.000001%);fill-opacity:1;" d="M 28 0 C 20.574219 0 13.453125 2.949219 8.199219 8.199219 C 2.949219 13.453125 0 20.574219 0 28 C 0 35.425781 2.949219 42.546875 8.199219 47.800781 C 13.453125 53.050781 20.574219 56 28 56 C 30.765625 56.007812 33.515625 55.59375 36.160156 54.78125 L 36.941406 54 L 32 54 L 32 48 C 30.679688 48 29.359375 48 28 48 C 25.519531 48 23.101562 48 20.71875 47.78125 C 20.859375 49.601562 21.019531 51.359375 21.179688 53.058594 C 16.878906 51.902344 12.957031 49.640625 9.800781 46.5 L 9.640625 46.359375 L 9.5 46.199219 C 6.363281 43.042969 4.101562 39.117188 2.941406 34.820312 L 8.21875 35.28125 C 8 32.898438 8 30.480469 8 28 C 8 25.519531 8 23.101562 8.21875 20.71875 L 2.941406 21.179688 C 4.09375 16.863281 6.355469 12.917969 9.5 9.738281 C 8.898438 13.371094 8.484375 17.027344 8.261719 20.699219 C 11.980469 20.421875 15.960938 20.238281 20.101562 20.121094 C 20.21875 15.980469 20.421875 12 20.699219 8.28125 C 17.035156 8.492188 13.382812 8.898438 9.761719 9.5 C 12.941406 6.375 16.875 4.125 21.179688 2.960938 C 21.019531 4.660156 20.859375 6.421875 20.71875 8.238281 C 23.101562 8 25.519531 8 28 8 C 30.480469 8 32.898438 8 35.28125 8.21875 C 35.140625 6.398438 34.980469 4.640625 34.820312 2.941406 C 39.128906 4.101562 43.066406 6.359375 46.238281 9.5 C 42.617188 8.898438 38.964844 8.484375 35.300781 8.261719 C 35.578125 11.980469 35.78125 15.960938 35.898438 20.101562 C 40.039062 20.21875 44.019531 20.398438 47.738281 20.679688 C 47.515625 17.015625 47.101562 13.363281 46.5 9.738281 C 49.644531 12.910156 51.90625 16.847656 53.058594 21.160156 L 47.78125 20.699219 C 48 23.101562 48 25.519531 48 28 C 48 29.359375 48 30.679688 48 32 L 54 32 L 54 36.941406 L 54.78125 36.160156 C 55.59375 33.515625 56.007812 30.765625 56 28 C 56 20.574219 53.050781 13.453125 47.800781 8.199219 C 42.546875 2.949219 35.425781 0 28 0 Z M 28 0 "/>
    <path style=" stroke:none;fill-rule:nonzero;fill:rgb(9.019608%,56.078434%,90.196079%);fill-opacity:1;" d="M 49 38 C 46.824219 38 44.699219 38.644531 42.890625 39.855469 C 41.078125 41.0625 39.667969 42.78125 38.835938 44.789062 C 38.003906 46.800781 37.785156 49.011719 38.210938 51.144531 C 38.636719 53.28125 39.683594 55.238281 41.222656 56.777344 C 42.761719 58.316406 44.71875 59.363281 46.855469 59.789062 C 48.988281 60.214844 51.199219 59.996094 53.210938 59.164062 C 55.21875 58.332031 56.9375 56.921875 58.144531 55.109375 C 59.355469 53.300781 60 51.175781 60 49 C 60 46.082031 58.839844 43.285156 56.777344 41.222656 C 54.714844 39.160156 51.917969 38 49 38 Z M 49 54 C 48.011719 54 47.042969 53.707031 46.222656 53.15625 C 45.398438 52.609375 44.757812 51.828125 44.378906 50.914062 C 44.003906 50 43.902344 48.996094 44.097656 48.023438 C 44.289062 47.054688 44.765625 46.164062 45.464844 45.464844 C 46.164062 44.765625 47.054688 44.289062 48.023438 44.097656 C 48.996094 43.902344 50 44.003906 50.914062 44.378906 C 51.828125 44.757812 52.609375 45.398438 53.15625 46.222656 C 53.707031 47.042969 54 48.011719 54 49 C 54 50.324219 53.472656 51.597656 52.535156 52.535156 C 51.597656 53.472656 50.324219 54 49 54 Z M 49 54 "/>
    <path style=" stroke:none;fill-rule:nonzero;fill:rgb(9.019608%,56.078434%,90.196079%);fill-opacity:1;" d="M 45.140625 40.898438 L 40.519531 36.28125 L 36.28125 40.519531 L 40.898438 45.140625 C 41.78125 43.277344 43.277344 41.78125 45.140625 40.898438 Z M 45.140625 40.898438 "/>
    <path style=" stroke:none;fill-rule:nonzero;fill:rgb(9.019608%,56.078434%,90.196079%);fill-opacity:1;" d="M 49 40 C 50.023438 40.011719 51.039062 40.199219 52 40.558594 L 52 34 L 46 34 L 46 40.558594 C 46.960938 40.199219 47.976562 40.011719 49 40 Z M 49 40 "/>
    <path style=" stroke:none;fill-rule:nonzero;fill:rgb(9.019608%,56.078434%,90.196079%);fill-opacity:1;" d="M 57.101562 45.140625 L 61.71875 40.519531 L 57.480469 36.28125 L 52.859375 40.898438 C 54.722656 41.78125 56.21875 43.277344 57.101562 45.140625 Z M 57.101562 45.140625 "/>
    <path style=" stroke:none;fill-rule:nonzero;fill:rgb(9.019608%,56.078434%,90.196079%);fill-opacity:1;" d="M 40 49 C 40.011719 47.976562 40.199219 46.960938 40.558594 46 L 34 46 L 34 52 L 40.558594 52 C 40.199219 51.039062 40.011719 50.023438 40 49 Z M 40 49 "/>
    <path style=" stroke:none;fill-rule:nonzero;fill:rgb(9.019608%,56.078434%,90.196079%);fill-opacity:1;" d="M 40.898438 52.859375 L 36.28125 57.480469 L 40.519531 61.71875 L 45.140625 57.101562 C 43.277344 56.21875 41.78125 54.722656 40.898438 52.859375 Z M 40.898438 52.859375 "/>
    <path style=" stroke:none;fill-rule:nonzero;fill:rgb(9.019608%,56.078434%,90.196079%);fill-opacity:1;" d="M 57.441406 46 C 58.1875 47.929688 58.1875 50.070312 57.441406 52 L 64 52 L 64 46 Z M 57.441406 46 "/>
    <path style=" stroke:none;fill-rule:nonzero;fill:rgb(9.019608%,56.078434%,90.196079%);fill-opacity:1;" d="M 52.859375 57.101562 L 57.480469 61.71875 L 61.71875 57.480469 L 57.101562 52.859375 C 56.21875 54.722656 54.722656 56.21875 52.859375 57.101562 Z M 52.859375 57.101562 "/>
    <path style=" stroke:none;fill-rule:nonzero;fill:rgb(9.019608%,56.078434%,90.196079%);fill-opacity:1;" d="M 49 58 C 47.976562 57.992188 46.960938 57.800781 46 57.441406 L 46 64 L 52 64 L 52 57.441406 C 51.039062 57.800781 50.023438 57.992188 49 58 Z M 49 58 "/>
  </g>
</svg>