<?xml version="1.0" encoding="UTF-8" standalone="yes"?>
<svg xmlns="http://www.w3.org/2000/svg" xmlns:xlink="http://www.w3.org/1999/xlink" width="64" height="64" viewBox="0 0 64 64" version="1.1">
  <g id="surface1">
    <path style=" stroke:none;fill-rule:nonzero;fill:rgb(9.019608%,56.078434%,90.196079%);fill-opacity:1;" d="M 62 48 L 2 48 L 2 56 L 62 56 Z M 62 48 "/>
    <path style=" stroke:none;fill-rule:nonzero;fill:rgb(73.333335%,73.333335%,73.333335%);fill-opacity:1;" d="M 22 6 L 2 6 L 2 14 L 22 14 Z M 22 6 "/>
    <path style=" stroke:none;fill-rule:nonzero;fill:rgb(73.333335%,73.333335%,73.333335%);fill-opacity:1;" d="M 60 6 L 40 6 L 40 14 L 60 14 Z M 60 6 "/>
    <path style=" stroke:none;fill-rule:evenodd;fill:rgb(20%,20%,20%);fill-opacity:1;" d="M 16 23 L 26 30 L 16 37 L 16 32 L 2 32 L 2 28 L 16 28 Z M 16 23 "/>
    <path style=" stroke:none;fill-rule:evenodd;fill:rgb(20%,20%,20%);fill-opacity:1;" d="M 46 37 L 36 30 L 46 23 L 46 28 L 60 28 L 60 32 L 46 32 Z M 46 37 "/>
    <path style=" stroke:none;fill-rule:nonzero;fill:rgb(40.000001%,40.000001%,40.000001%);fill-opacity:1;" d="M 32 0 L 30 0 L 30 4 L 32 4 Z M 32 0 "/>
    <path style=" stroke:none;fill-rule:nonzero;fill:rgb(40.000001%,40.000001%,40.000001%);fill-opacity:1;" d="M 32 8 L 30 8 L 30 12 L 32 12 Z M 32 8 "/>
    <path style=" stroke:none;fill-rule:nonzero;fill:rgb(40.000001%,40.000001%,40.000001%);fill-opacity:1;" d="M 32 16 L 30 16 L 30 20 L 32 20 Z M 32 16 "/>
    <path style=" stroke:none;fill-rule:nonzero;fill:rgb(40.000001%,40.000001%,40.000001%);fill-opacity:1;" d="M 32 24 L 30 24 L 30 28 L 32 28 Z M 32 24 "/>
    <path style=" stroke:none;fill-rule:nonzero;fill:rgb(40.000001%,40.000001%,40.000001%);fill-opacity:1;" d="M 32 32 L 30 32 L 30 36 L 32 36 Z M 32 32 "/>
    <path style=" stroke:none;fill-rule:nonzero;fill:rgb(40.000001%,40.000001%,40.000001%);fill-opacity:1;" d="M 32 40 L 30 40 L 30 44 L 32 44 Z M 32 40 "/>
    <path style=" stroke:none;fill-rule:nonzero;fill:rgb(40.000001%,40.000001%,40.000001%);fill-opacity:1;" d="M 32 58 L 30 58 L 30 62 L 32 62 Z M 32 58 "/>
  </g>
</svg>