<?xml version="1.0" encoding="UTF-8" standalone="yes"?>
<svg xmlns="http://www.w3.org/2000/svg" xmlns:xlink="http://www.w3.org/1999/xlink" width="64" height="64" viewBox="0 0 64 64" version="1.1">
  <g id="surface1">
    <path style=" stroke:none;fill-rule:nonzero;fill:rgb(9.019608%,56.078434%,90.196079%);fill-opacity:1;" d="M 34 28 L 28 28 L 28 34 L 34 34 Z M 34 28 "/>
    <path style=" stroke:none;fill-rule:nonzero;fill:rgb(40.000001%,40.000001%,40.000001%);fill-opacity:1;" d="M 31 0 C 26.269531 0.00390625 21.605469 1.085938 17.359375 3.171875 C 13.113281 5.253906 9.402344 8.28125 6.507812 12.023438 C 3.613281 15.761719 1.613281 20.113281 0.65625 24.746094 C -0.296875 29.375 -0.179688 34.164062 1.003906 38.746094 C 2.183594 43.324219 4.398438 47.570312 7.472656 51.164062 C 10.550781 54.753906 14.40625 57.597656 18.75 59.46875 C 23.089844 61.339844 27.804688 62.195312 32.527344 61.964844 C 37.25 61.734375 41.859375 60.425781 46 58.140625 L 46 55.820312 C 39.742188 59.609375 32.289062 60.902344 25.121094 59.4375 C 17.953125 57.972656 11.601562 53.859375 7.335938 47.914062 C 3.070312 41.972656 1.199219 34.640625 2.101562 27.382812 C 3.003906 20.121094 6.613281 13.46875 12.203125 8.753906 C 17.796875 4.035156 24.960938 1.601562 32.269531 1.9375 C 39.578125 2.269531 46.488281 5.347656 51.628906 10.554688 C 56.765625 15.765625 59.75 22.71875 59.984375 30.027344 C 60.222656 37.339844 57.691406 44.472656 52.898438 50 L 55.5 50 C 59.054688 45.417969 61.253906 39.929688 61.84375 34.15625 C 62.433594 28.386719 61.394531 22.566406 58.84375 17.359375 C 56.289062 12.152344 52.328125 7.761719 47.40625 4.695312 C 42.484375 1.625 36.800781 0 31 0 Z M 31 0 "/>
    <path style=" stroke:none;fill-rule:nonzero;fill:rgb(9.019608%,56.078434%,90.196079%);fill-opacity:1;" d="M 54 52 L 48 52 L 48 58 L 54 58 Z M 54 52 "/>
  </g>
</svg>