<?xml version="1.0" encoding="UTF-8" standalone="yes"?>
<svg xmlns="http://www.w3.org/2000/svg" xmlns:xlink="http://www.w3.org/1999/xlink" width="64" height="64" viewBox="0 0 64 64" version="1.1">
  <g id="surface1">
    <path style=" stroke:none;fill-rule:nonzero;fill:rgb(40.000001%,40.000001%,40.000001%);fill-opacity:1;" d="M 60 30 L 4 30 L 4 32 L 60 32 Z M 60 30 "/>
    <path style=" stroke:none;fill-rule:nonzero;fill:rgb(40.000001%,40.000001%,40.000001%);fill-opacity:1;" d="M 11.199219 17.300781 L 7.898438 17.300781 L 7.898438 26 L 4 26 L 4 4 L 11.339844 4 C 13.640625 4 15.480469 4.519531 16.878906 5.558594 C 18.261719 6.601562 18.960938 8.019531 18.960938 9.820312 L 18.960938 11.460938 C 18.960938 12.660156 18.621094 13.699219 17.921875 14.578125 C 17.199219 15.441406 16.238281 16.121094 15 16.601562 L 20 26 L 15.71875 26 Z M 7.921875 14.339844 L 11.21875 14.339844 C 12.398438 14.339844 13.320312 14.078125 14 13.558594 C 14.679688 13.039062 15 12.300781 15 11.359375 L 15 10 C 15 9.039062 14.660156 8.300781 13.980469 7.761719 C 13.300781 7.238281 12.359375 6.980469 11.179688 6.980469 L 7.921875 6.980469 Z M 7.921875 14.339844 "/>
    <path style=" stroke:none;fill-rule:nonzero;fill:rgb(40.000001%,40.000001%,40.000001%);fill-opacity:1;" d="M 36 22.859375 L 36 26 L 22.441406 26 L 22.441406 23.820312 C 22.441406 22.058594 22.800781 20.578125 23.539062 19.398438 C 24.28125 18.21875 25.320312 17.140625 26.679688 16.179688 L 29.558594 14.140625 C 30.539062 13.441406 31.21875 12.839844 31.601562 12.359375 C 31.980469 11.859375 32.179688 11.28125 32.179688 10.601562 L 32.179688 9.839844 C 32.179688 9.101562 31.878906 8.441406 31.300781 7.878906 C 30.699219 7.320312 29.839844 7.039062 28.699219 7.039062 C 27.820312 7.039062 27 7.179688 26.21875 7.480469 C 25.441406 7.761719 24.601562 8.238281 23.679688 8.898438 L 22 6.519531 C 23.019531 5.699219 24.101562 5.058594 25.21875 4.640625 C 26.359375 4.21875 27.601562 4 28.941406 4 C 30.378906 4 31.640625 4.261719 32.71875 4.800781 C 33.78125 5.339844 34.601562 6.039062 35.160156 6.921875 C 35.699219 7.800781 35.980469 8.71875 35.980469 9.71875 L 35.980469 10.679688 C 35.980469 11.78125 35.621094 12.800781 34.921875 13.78125 C 34.21875 14.761719 33.058594 15.78125 31.460938 16.839844 L 29.140625 18.378906 C 28.039062 19.140625 27.28125 19.859375 26.859375 20.519531 C 26.441406 21.179688 26.199219 21.960938 26.160156 22.859375 Z M 36 22.859375 "/>
    <path style=" stroke:none;fill-rule:nonzero;fill:rgb(9.019608%,56.078434%,90.196079%);fill-opacity:1;" d="M 16.941406 55.019531 L 16.941406 58 L 4.738281 58 L 4.738281 55.019531 L 9.238281 55.019531 L 9.238281 40.28125 L 5.441406 42.160156 L 4 39.578125 L 10.160156 36 L 13.078125 36 L 13.078125 55.019531 Z M 16.941406 55.019531 "/>
    <path style=" stroke:none;fill-rule:nonzero;fill:rgb(9.019608%,56.078434%,90.196079%);fill-opacity:1;" d="M 20.140625 56.039062 C 18.71875 54.71875 18 52.921875 18 50.640625 L 18 43.480469 C 18 41.140625 18.71875 39.300781 20.140625 37.980469 C 21.558594 36.660156 23.558594 36 26.140625 36 C 28.621094 36 30.558594 36.660156 31.941406 37.980469 C 33.320312 39.300781 34 41.140625 34 43.480469 L 34 50.640625 C 34 52.921875 33.300781 54.71875 31.921875 56.039062 C 30.519531 57.339844 28.601562 58 26.121094 58 C 23.558594 58 21.558594 57.339844 20.140625 56.039062 Z M 29.019531 53.898438 C 29.738281 53.160156 30.078125 52.078125 30.078125 50.660156 L 30.078125 43.421875 C 30.078125 41.921875 29.71875 40.800781 29.019531 40.019531 C 28.300781 39.261719 27.339844 38.859375 26.140625 38.859375 C 24.820312 38.859375 23.800781 39.238281 23.058594 40.019531 C 22.320312 40.78125 21.960938 41.921875 21.960938 43.421875 L 21.960938 50.660156 C 21.960938 52.101562 22.320312 53.179688 23.058594 53.921875 C 23.800781 54.660156 24.820312 55.019531 26.140625 55.019531 C 27.339844 55.039062 28.300781 54.660156 29.019531 53.898438 Z M 29.019531 53.898438 "/>
    <path style=" stroke:none;fill-rule:nonzero;fill:rgb(9.019608%,56.078434%,90.196079%);fill-opacity:1;" d="M 41.820312 48.578125 L 39.78125 51.121094 L 39.78125 58 L 36 58 L 36 36 L 39.78125 36 L 39.78125 46.160156 L 47.78125 36 L 51.960938 36 L 44.261719 45.859375 L 53.121094 58 L 48.621094 58 Z M 41.820312 48.578125 "/>
  </g>
</svg>