<?xml version="1.0" encoding="UTF-8" standalone="yes"?>
<svg xmlns="http://www.w3.org/2000/svg" xmlns:xlink="http://www.w3.org/1999/xlink" width="64" height="64" viewBox="0 0 64 64" version="1.1">
  <g id="surface1">
    <path style=" stroke:none;fill-rule:nonzero;fill:rgb(0%,74.901962%,74.901962%);fill-opacity:1;" d="M 64 60 L 8 60 L 8 64 L 64 64 Z M 64 60 "/>
    <path style=" stroke:none;fill-rule:nonzero;fill:rgb(95.294118%,95.294118%,95.294118%);fill-opacity:1;" d="M 22.421875 39 L 3.417969 20 L 22.421875 1 L 63 1 L 63 39 Z M 22.421875 39 "/>
    <path style=" stroke:none;fill-rule:nonzero;fill:rgb(40.000001%,40.000001%,40.000001%);fill-opacity:1;" d="M 62 2 L 62 38 L 22.820312 38 L 4.820312 20 L 22.820312 2 Z M 64 0 L 22 0 L 2 20 L 22 40 L 64 40 Z M 64 0 "/>
    <path style=" stroke:none;fill-rule:nonzero;fill:rgb(40.000001%,40.000001%,40.000001%);fill-opacity:1;" d="M 6 58 L 0 58 L 0 64 L 6 64 Z M 6 58 "/>
    <path style=" stroke:none;fill-rule:nonzero;fill:rgb(40.000001%,40.000001%,40.000001%);fill-opacity:1;" d="M 4 20 L 2 20 L 2 56 L 4 56 Z M 4 20 "/>
    <path style=" stroke:none;fill-rule:nonzero;fill:rgb(9.019608%,56.078434%,90.196079%);fill-opacity:1;" d="M 38.078125 13.71875 C 39.199219 14.859375 39.738281 16.421875 39.738281 18.398438 L 39.738281 21.238281 C 39.738281 23.359375 39.121094 25.019531 37.898438 26.21875 C 36.679688 27.421875 34.941406 28 32.660156 28 L 28 28 L 28 12 L 33.238281 12 C 35.359375 12 36.960938 12.578125 38.078125 13.71875 Z M 36.859375 18.339844 C 36.859375 17.019531 36.539062 16 35.921875 15.28125 C 35.28125 14.578125 34.339844 14.21875 33.101562 14.21875 L 30.878906 14.21875 L 30.878906 25.78125 L 32.679688 25.78125 C 34.078125 25.78125 35.121094 25.398438 35.820312 24.660156 C 36.519531 23.921875 36.859375 22.78125 36.859375 21.28125 Z M 36.859375 18.339844 "/>
    <path style=" stroke:none;fill-rule:nonzero;fill:rgb(9.019608%,56.078434%,90.196079%);fill-opacity:1;" d="M 52 25.820312 L 52 28 L 42.578125 28 L 42.578125 25.820312 L 46.058594 25.820312 L 46.058594 15.101562 L 43.121094 16.480469 L 42 14.601562 L 46.761719 12 L 49.019531 12 L 49.019531 25.820312 Z M 52 25.820312 "/>
  </g>
</svg>