<?xml version="1.0" encoding="UTF-8" standalone="yes"?>
<svg xmlns="http://www.w3.org/2000/svg" xmlns:xlink="http://www.w3.org/1999/xlink" width="64" height="64" viewBox="0 0 64 64" version="1.1">
  <defs>
    <filter id="alpha" filterUnits="objectBoundingBox" x="0%" y="0%" width="100%" height="100%">
      <feColorMatrix type="matrix" in="SourceGraphic" values="0 0 0 0 1 0 0 0 0 1 0 0 0 0 1 0 0 0 1 0"/>
    </filter>
    <mask id="mask0">
      <g filter="url(#alpha)">
        <rect x="0" y="0" width="64" height="64" style="fill:rgb(0%,0%,0%);fill-opacity:0.2;stroke:none;"/>
      </g>
    </mask>
    <clipPath id="clip1">
      <rect x="0" y="0" width="64" height="64"/>
    </clipPath>
    <g id="surface5" clip-path="url(#clip1)">
      <path style=" stroke:none;fill-rule:evenodd;fill:rgb(0%,0%,0%);fill-opacity:1;" d="M 43.558594 7.058594 L 39.320312 2.820312 L 37.941406 4.261719 C 33.460938 8.71875 32.578125 15.699219 35.820312 21.21875 L 36.539062 22.457031 C 36.949219 23.011719 37.402344 23.539062 37.898438 24.039062 C 38.433594 24.574219 39 25.054688 39.597656 25.484375 L 40.761719 26.160156 C 42.921875 27.441406 45.378906 28.101562 47.898438 28.101562 C 51.621094 28.101562 55.121094 26.660156 57.71875 24.058594 L 59.140625 22.640625 Z M 28 28.28125 L 33.660156 33.941406 L 39.71875 27.878906 C 42.21875 29.339844 45.058594 30.078125 47.878906 30.078125 C 51.960938 30.078125 56.019531 28.539062 59.121094 25.441406 L 61.941406 22.621094 L 56.28125 16.960938 L 61.941406 11.300781 L 59.121094 8.480469 L 53.460938 14.140625 L 47.800781 8.480469 L 53.460938 2.820312 L 50.621094 0 L 44.960938 5.660156 L 39.320312 0 L 36.5 2.820312 C 31.261719 8.054688 30.480469 16.070312 34.074219 22.207031 Z M 28 28.28125 "/>
    </g>
  </defs>
  <g id="surface1">
    <path style=" stroke:none;fill-rule:nonzero;fill:rgb(95.294118%,95.294118%,95.294118%);fill-opacity:1;" d="M 1.421875 56.339844 L 7.320312 50.441406 L 6.941406 49.78125 C 3.480469 43.878906 4.417969 36.398438 9.199219 31.601562 L 11.320312 29.480469 L 16.980469 35.140625 L 22.640625 29.480469 L 24.058594 30.898438 L 18.398438 36.558594 L 25.480469 43.640625 L 31.140625 37.980469 L 32.558594 39.398438 L 26.898438 45.058594 L 32.558594 50.71875 L 30.398438 52.800781 C 27.601562 55.601562 23.859375 57.140625 19.878906 57.140625 C 17.179688 57.140625 14.539062 56.421875 12.21875 55.058594 L 11.558594 54.660156 L 5.660156 60.558594 Z M 1.421875 56.339844 "/>
    <path style=" stroke:none;fill-rule:evenodd;fill:rgb(40.000001%,40.000001%,40.000001%);fill-opacity:1;" d="M 15.558594 35.121094 L 11.320312 30.878906 L 9.941406 32.320312 C 5.460938 36.78125 4.578125 43.761719 7.820312 49.28125 L 8.539062 50.515625 C 8.949219 51.070312 9.402344 51.601562 9.898438 52.101562 C 10.433594 52.632812 11 53.113281 11.597656 53.542969 L 12.761719 54.21875 C 14.921875 55.5 17.378906 56.160156 19.898438 56.160156 C 23.621094 56.160156 27.121094 54.71875 29.71875 52.121094 L 31.140625 50.699219 L 26.898438 46.460938 L 25.480469 45.039062 L 24.058594 43.621094 L 18.398438 37.960938 L 16.980469 36.539062 Z M 0 56.339844 L 5.660156 62 L 11.71875 55.941406 C 14.21875 57.398438 17.058594 58.140625 19.878906 58.140625 C 23.960938 58.140625 28.019531 56.601562 31.121094 53.5 L 33.941406 50.679688 L 28.28125 45.019531 L 33.941406 39.359375 L 31.121094 36.539062 L 25.460938 42.199219 L 19.800781 36.539062 L 25.460938 30.878906 L 22.621094 28.058594 L 16.960938 33.71875 L 11.300781 28.058594 L 8.480469 30.878906 C 3.238281 36.121094 2.460938 44.140625 6.058594 50.28125 Z M 0 56.339844 "/>
    <path style=" stroke:none;fill-rule:nonzero;fill:rgb(40.392157%,69.411767%,90.196079%);fill-opacity:1;" d="M 33.660156 33.941406 L 39.71875 27.878906 C 45.839844 31.460938 53.878906 30.699219 59.121094 25.460938 L 61.941406 22.640625 L 56.28125 16.980469 L 61.941406 11.320312 L 59.121094 8.5 L 53.460938 14.160156 L 47.800781 8.480469 L 53.460938 2.820312 L 50.621094 0 L 44.960938 5.660156 L 39.320312 0 L 36.5 2.820312 C 31.261719 8.058594 30.480469 16.078125 34.078125 22.21875 L 28 28.28125 Z M 33.660156 33.941406 "/>
    <use xlink:href="#surface5" mask="url(#mask0)"/>
  </g>
</svg>