<?xml version="1.0" encoding="UTF-8" standalone="yes"?>
<svg xmlns="http://www.w3.org/2000/svg" xmlns:xlink="http://www.w3.org/1999/xlink" width="64" height="64" viewBox="0 0 64 64" version="1.1">
  <g id="surface1">
    <path style=" stroke:none;fill-rule:nonzero;fill:rgb(95.294118%,95.294118%,95.294118%);fill-opacity:1;" d="M 62 12 L 16 12 L 2 26 L 48 26 Z M 62 12 "/>
    <path style=" stroke:none;fill-rule:nonzero;fill:rgb(73.333335%,73.333335%,73.333335%);fill-opacity:1;" d="M 62 40 L 48 54 L 48 26 L 62 12 Z M 62 40 "/>
    <path style=" stroke:none;fill-rule:nonzero;fill:rgb(85.09804%,85.09804%,85.09804%);fill-opacity:1;" d="M 48 26 L 2 26 L 2 54 L 48 54 Z M 48 26 "/>
    <path style=" stroke:none;fill-rule:nonzero;fill:rgb(40.000001%,40.000001%,40.000001%);fill-opacity:1;" d="M 62 12 L 62 40 L 48 54 L 2 54 L 2 26 L 16 12 Z M 64 10 L 15.199219 10 L 14.601562 10.601562 L 0.601562 24.601562 L 0 25.199219 L 0 56 L 48.800781 56 L 49.398438 55.398438 L 63.398438 41.398438 L 64 40.800781 Z M 64 10 "/>
    <path style=" stroke:none;fill-rule:nonzero;fill:rgb(95.294118%,95.294118%,95.294118%);fill-opacity:1;" d="M 30 8 L 20 8 L 14 14 L 30 14 Z M 30 8 "/>
    <path style=" stroke:none;fill-rule:nonzero;fill:rgb(85.09804%,85.09804%,85.09804%);fill-opacity:1;" d="M 24 14 L 14 14 L 14 20 L 24 20 Z M 24 14 "/>
    <path style=" stroke:none;fill-rule:nonzero;fill:rgb(73.333335%,73.333335%,73.333335%);fill-opacity:1;" d="M 30 14 L 24 20 L 24 14 L 30 8 Z M 30 14 "/>
    <path style=" stroke:none;fill-rule:nonzero;fill:rgb(40.000001%,40.000001%,40.000001%);fill-opacity:1;" d="M 30 8 L 30 14 L 24 20 L 14 20 L 14 14 L 20 8 Z M 32 6 L 19.199219 6 L 18.601562 6.601562 L 12.601562 12.601562 L 12 13.199219 L 12 22 L 24.800781 22 L 25.398438 21.398438 L 31.398438 15.398438 L 32 14.800781 Z M 32 6 "/>
    <path style=" stroke:none;fill-rule:nonzero;fill:rgb(95.294118%,95.294118%,95.294118%);fill-opacity:1;" d="M 52 8 L 42 8 L 36 14 L 52 14 Z M 52 8 "/>
    <path style=" stroke:none;fill-rule:nonzero;fill:rgb(85.09804%,85.09804%,85.09804%);fill-opacity:1;" d="M 46 14 L 36 14 L 36 20 L 46 20 Z M 46 14 "/>
    <path style=" stroke:none;fill-rule:nonzero;fill:rgb(73.333335%,73.333335%,73.333335%);fill-opacity:1;" d="M 52 14 L 46 20 L 46 14 L 52 8 Z M 52 14 "/>
    <path style=" stroke:none;fill-rule:nonzero;fill:rgb(40.000001%,40.000001%,40.000001%);fill-opacity:1;" d="M 52 8 L 52 14 L 46 20 L 36 20 L 36 14 L 42 8 Z M 54 6 L 41.199219 6 L 40.601562 6.601562 L 34.601562 12.601562 L 34 13.199219 L 34 22 L 46.800781 22 L 47.398438 21.398438 L 53.398438 15.398438 L 54 14.800781 Z M 54 6 "/>
  </g>
</svg>