<?xml version="1.0" encoding="UTF-8" standalone="yes"?>
<svg xmlns="http://www.w3.org/2000/svg" xmlns:xlink="http://www.w3.org/1999/xlink" width="64" height="64" viewBox="0 0 64 64" version="1.1">
  <defs>
    <filter id="alpha" filterUnits="objectBoundingBox" x="0%" y="0%" width="100%" height="100%">
      <feColorMatrix type="matrix" in="SourceGraphic" values="0 0 0 0 1 0 0 0 0 1 0 0 0 0 1 0 0 0 1 0"/>
    </filter>
    <mask id="mask0">
      <g filter="url(#alpha)">
        <rect x="0" y="0" width="64" height="64" style="fill:rgb(0%,0%,0%);fill-opacity:0.2;stroke:none;"/>
      </g>
    </mask>
    <mask id="mask1">
      <g filter="url(#alpha)">
        <rect x="0" y="0" width="64" height="64" style="fill:rgb(0%,0%,0%);fill-opacity:0.1;stroke:none;"/>
      </g>
    </mask>
    <mask id="mask2">
      <g filter="url(#alpha)">
        <rect x="0" y="0" width="64" height="64" style="fill:rgb(0%,0%,0%);fill-opacity:0.2;stroke:none;"/>
      </g>
    </mask>
    <clipPath id="clip1">
      <rect x="0" y="0" width="64" height="64"/>
    </clipPath>
    <clipPath id="clip2">
      <rect x="0" y="0" width="64" height="64"/>
    </clipPath>
    <clipPath id="clip3">
      <rect x="0" y="0" width="64" height="64"/>
    </clipPath>
    <g id="surface5" clip-path="url(#clip1)">
      <path style=" stroke:none;fill-rule:nonzero;fill:rgb(0%,0%,0%);fill-opacity:1;" d="M 39.160156 50.820312 C 35.15625 51.632812 31.082031 52.027344 27 52 C 12.960938 52 4 47.859375 4 45 C 4 43 8 40.558594 15.039062 39.140625 C 14.023438 38.773438 13.039062 38.320312 12.101562 37.78125 C 6 39.421875 2 42 2 45 C 2 50 13.199219 54 27 54 C 30.238281 54.011719 33.476562 53.777344 36.679688 53.300781 Z M 39.160156 50.820312 "/>
    </g>
    <g id="surface8" clip-path="url(#clip2)">
      <path style=" stroke:none;fill-rule:nonzero;fill:rgb(0%,0%,0%);fill-opacity:1;" d="M 56.800781 38.820312 L 59.179688 41.199219 L 51.78125 48.578125 L 50.378906 50 L 51.78125 51.421875 L 59.179688 58.800781 L 56.800781 61.179688 L 49.421875 53.78125 L 48 52.378906 L 46.578125 53.78125 L 39.199219 61.179688 L 36.820312 58.800781 L 44.21875 51.421875 L 45.621094 50 L 44.21875 48.578125 L 36.820312 41.199219 L 39.199219 38.820312 L 46.578125 46.21875 L 48 47.621094 L 49.421875 46.21875 Z M 56.800781 36 L 48 44.800781 L 39.199219 36 L 34 41.199219 L 42.800781 50 L 34 58.800781 L 39.199219 64 L 48 55.199219 L 56.800781 64 L 62 58.800781 L 53.199219 50 L 62 41.199219 Z M 56.800781 36 "/>
    </g>
    <g id="surface11" clip-path="url(#clip3)">
      <path style=" stroke:none;fill-rule:nonzero;fill:rgb(0%,0%,0%);fill-opacity:1;" d="M 27 0 C 13.199219 0 2 4 2 9 C 2 12.679688 8.121094 15.839844 16.859375 17.238281 L 19.699219 17.621094 L 20 17.621094 C 22.324219 17.871094 24.660156 18 27 18 C 29.339844 18.003906 31.675781 17.886719 34 17.640625 L 34.300781 17.640625 L 37.140625 17.261719 C 45.878906 15.839844 52 12.679688 52 9 C 52 4 40.800781 0 27 0 Z M 34 15.640625 C 31.675781 15.878906 29.339844 16 27 16 C 24.660156 16 22.324219 15.878906 20 15.640625 C 10 14.558594 4 11.359375 4 9 C 4 6.140625 12.960938 2 27 2 C 41.039062 2 50 6.140625 50 9 C 50 11.359375 44 14.558594 34 15.640625 Z M 34 15.640625 "/>
    </g>
  </defs>
  <g id="surface1">
    <path style=" stroke:none;fill-rule:nonzero;fill:rgb(40.392157%,69.411767%,90.196079%);fill-opacity:1;" d="M 40 50 L 31.199219 41.199219 L 31.640625 40.761719 C 30.105469 40.925781 28.5625 41.003906 27.019531 41 C 21.863281 41.195312 16.738281 40.085938 12.121094 37.78125 C 6 39.421875 2 42 2 45 C 2 50 13.199219 54 27 54 C 30.238281 54.011719 33.476562 53.777344 36.679688 53.300781 Z M 40 50 "/>
    <path style=" stroke:none;fill-rule:nonzero;fill:rgb(95.294118%,95.294118%,95.294118%);fill-opacity:1;" d="M 39.199219 33.179688 L 43.039062 37.019531 C 43.582031 36.703125 44.042969 36.265625 44.390625 35.742188 C 44.738281 35.21875 44.960938 34.621094 45.039062 34 C 45.039062 31.738281 41.621094 29.320312 36.078125 28 C 41.621094 26.679688 45.039062 24.261719 45.039062 22 C 45.039062 18.679688 37.640625 15 27.039062 15 C 16.441406 15 9.039062 18.679688 9.039062 22 C 9.039062 24.261719 12.460938 26.679688 18 28 C 12.460938 29.320312 9.039062 31.738281 9.039062 34 C 9.039062 37.320312 16.441406 41 27.039062 41 C 28.582031 40.996094 30.125 40.910156 31.660156 40.738281 Z M 39.199219 33.179688 "/>
    <path style=" stroke:none;fill-rule:nonzero;fill:rgb(40.000001%,40.000001%,40.000001%);fill-opacity:1;" d="M 34 45 L 34 44 L 31.179688 41.199219 L 32.761719 39.601562 C 30.851562 39.875 28.925781 40.007812 27 40 C 16.621094 40 10 36.441406 10 34 C 10 32.378906 12.941406 30.28125 18 29.039062 L 20 29.441406 L 20 33 C 20 34.660156 23.140625 36 27 36 C 30.859375 36 34 34.660156 34 33 L 34 29.441406 L 36 29.039062 C 41.019531 30.28125 44 32.378906 44 34 C 43.914062 34.488281 43.722656 34.949219 43.433594 35.351562 C 43.148438 35.75 42.773438 36.082031 42.339844 36.320312 L 43.78125 37.738281 C 44.410156 37.328125 44.9375 36.773438 45.320312 36.125 C 45.707031 35.476562 45.9375 34.75 46 34 C 46 31.601562 43.5 29.460938 39.539062 28 C 43.539062 26.539062 46 24.398438 46 22 C 46 17.578125 37.5 14 27 14 C 16.5 14 8 17.578125 8 22 C 8 24.398438 10.5 26.539062 14.460938 28 C 10.5 29.460938 8 31.601562 8 34 C 8 37.378906 12.980469 40.261719 20 41.441406 L 20 45 C 20 46.660156 23.140625 48 27 48 C 30.859375 48 34 46.660156 34 45 Z M 10 22 C 10 20.160156 13.738281 17.699219 20 16.578125 L 20 21 C 20 22.660156 23.140625 24 27 24 C 30.859375 24 34 22.660156 34 21 L 34 16.578125 C 40.261719 17.699219 44 20.160156 44 22 C 44 24.441406 37.378906 28 27 28 C 16.621094 28 10 24.441406 10 22 Z M 10 22 "/>
    <path style=" stroke:none;fill-rule:nonzero;fill:rgb(100%,20%,20%);fill-opacity:1;" d="M 62 41.199219 L 56.800781 36 L 48 44.800781 L 39.199219 36 L 34 41.199219 L 42.800781 50 L 34 58.800781 L 39.199219 64 L 48 55.199219 L 56.800781 64 L 62 58.800781 L 53.199219 50 Z M 62 41.199219 "/>
    <path style=" stroke:none;fill-rule:nonzero;fill:rgb(80.000001%,36.078432%,36.078432%);fill-opacity:1;" d="M 27 0 C 13.199219 0 2 4 2 9 C 2 12.679688 8.121094 15.839844 16.859375 17.238281 L 19.699219 17.621094 L 20 17.621094 C 22.324219 17.871094 24.660156 18 27 18 C 29.339844 18.003906 31.675781 17.886719 34 17.640625 L 34.300781 17.640625 L 37.140625 17.261719 C 45.878906 15.839844 52 12.679688 52 9 C 52 4 40.800781 0 27 0 Z M 34.160156 10.859375 C 33.640625 11.371094 33.019531 11.773438 32.339844 12.039062 C 30.640625 12.707031 28.824219 13.03125 27 13 C 25.171875 13.019531 23.359375 12.679688 21.660156 12 C 20.980469 11.734375 20.359375 11.332031 19.839844 10.820312 C 19.332031 10.347656 19.03125 9.691406 19 9 C 19.011719 8.648438 19.089844 8.304688 19.234375 7.984375 C 19.378906 7.667969 19.585938 7.378906 19.839844 7.140625 C 20.363281 6.640625 20.984375 6.253906 21.660156 6 C 25.113281 4.761719 28.886719 4.761719 32.339844 6 C 33.015625 6.265625 33.632812 6.660156 34.160156 7.160156 C 34.417969 7.402344 34.625 7.691406 34.769531 8.015625 C 34.914062 8.339844 34.992188 8.6875 35 9.039062 C 34.988281 9.382812 34.90625 9.722656 34.765625 10.035156 C 34.621094 10.347656 34.414062 10.628906 34.160156 10.859375 Z M 34.160156 10.859375 "/>
    <path style=" stroke:none;fill-rule:nonzero;fill:rgb(40.000001%,40.000001%,40.000001%);fill-opacity:1;" d="M 27 12 C 30.867188 12 34 10.65625 34 9 C 34 7.34375 30.867188 6 27 6 C 23.132812 6 20 7.34375 20 9 C 20 10.65625 23.132812 12 27 12 Z M 27 12 "/>
    <use xlink:href="#surface5" mask="url(#mask0)"/>
    <use xlink:href="#surface8" mask="url(#mask1)"/>
    <use xlink:href="#surface11" mask="url(#mask2)"/>
  </g>
</svg>