<?xml version="1.0" encoding="UTF-8" standalone="yes"?>
<svg xmlns="http://www.w3.org/2000/svg" xmlns:xlink="http://www.w3.org/1999/xlink" width="64" height="64" viewBox="0 0 64 64" version="1.1">
  <defs>
    <filter id="alpha" filterUnits="objectBoundingBox" x="0%" y="0%" width="100%" height="100%">
      <feColorMatrix type="matrix" in="SourceGraphic" values="0 0 0 0 1 0 0 0 0 1 0 0 0 0 1 0 0 0 1 0"/>
    </filter>
    <mask id="mask0">
      <g filter="url(#alpha)">
        <rect x="0" y="0" width="64" height="64" style="fill:rgb(0%,0%,0%);fill-opacity:0.1;stroke:none;"/>
      </g>
    </mask>
    <clipPath id="clip1">
      <rect x="0" y="0" width="64" height="64"/>
    </clipPath>
    <g id="surface5" clip-path="url(#clip1)">
      <path style=" stroke:none;fill-rule:nonzero;fill:rgb(0%,0%,0%);fill-opacity:1;" d="M 18.839844 37.839844 L 16.199219 43.101562 L 15.121094 45.261719 L 17.441406 45.921875 L 27.28125 48.738281 L 13.140625 58.160156 L 15.78125 52.898438 L 16.859375 50.738281 L 14.539062 50.078125 L 4.699219 47.261719 Z M 24 32 L 0 48 L 14 52 L 8 64 L 32 48 L 18 44 Z M 24 32 "/>
    </g>
  </defs>
  <g id="surface1">
    <path style=" stroke:none;fill-rule:evenodd;fill:rgb(100%,66.666669%,0%);fill-opacity:1;" d="M 0 48 L 24 32 L 18 44 L 32 48 L 8 64 L 14 52 Z M 0 48 "/>
    <path style=" stroke:none;fill-rule:nonzero;fill:rgb(9.019608%,56.078434%,90.196079%);fill-opacity:1;" d="M 48 49.199219 L 48 16 L 0 16 L 0 20 L 44 20 L 44 50.800781 L 57.199219 64 L 62.800781 64 Z M 48 49.199219 "/>
    <path style=" stroke:none;fill-rule:nonzero;fill:rgb(9.019608%,56.078434%,90.196079%);fill-opacity:1;" d="M 64 49.199219 L 64 54.800781 L 52 42.800781 L 52 12 L 0 12 L 0 8 L 56 8 L 56 41.199219 Z M 64 49.199219 "/>
    <path style=" stroke:none;fill-rule:nonzero;fill:rgb(9.019608%,56.078434%,90.196079%);fill-opacity:1;" d="M 64 0 L 64 38.800781 L 60 34.800781 L 60 4 L 0 4 L 0 0 Z M 64 0 "/>
    <use xlink:href="#surface5" mask="url(#mask0)"/>
  </g>
</svg>