<?xml version="1.0" encoding="UTF-8" standalone="yes"?>
<svg xmlns="http://www.w3.org/2000/svg" xmlns:xlink="http://www.w3.org/1999/xlink" width="64" height="64" viewBox="0 0 64 64" version="1.1">
  <defs>
    <filter id="alpha" filterUnits="objectBoundingBox" x="0%" y="0%" width="100%" height="100%">
      <feColorMatrix type="matrix" in="SourceGraphic" values="0 0 0 0 1 0 0 0 0 1 0 0 0 0 1 0 0 0 1 0"/>
    </filter>
    <mask id="mask0">
      <g filter="url(#alpha)">
        <rect x="0" y="0" width="64" height="64" style="fill:rgb(0%,0%,0%);fill-opacity:0.1;stroke:none;"/>
      </g>
    </mask>
    <clipPath id="clip1">
      <rect x="0" y="0" width="64" height="64"/>
    </clipPath>
    <g id="surface5" clip-path="url(#clip1)">
      <path style=" stroke:none;fill-rule:nonzero;fill:rgb(0%,0%,0%);fill-opacity:1;" d="M 18.800781 37.800781 L 15 45.199219 L 27.199219 48.601562 L 13 58 L 16.800781 50.601562 L 4.601562 47.199219 Z M 24 32 L 0 48 L 14 52 L 8 64 L 32 48 L 18 44 Z M 24 32 "/>
    </g>
  </defs>
  <g id="surface1">
    <path style=" stroke:none;fill-rule:evenodd;fill:rgb(100%,66.666669%,0%);fill-opacity:1;" d="M 0 48 L 24 32 L 18 44 L 32 48 L 8 64 L 14 52 Z M 0 48 "/>
    <path style=" stroke:none;fill-rule:nonzero;fill:rgb(9.019608%,56.078434%,90.196079%);fill-opacity:1;" d="M 64 0 L 4 0 L 4 4 L 64 4 Z M 64 0 "/>
    <path style=" stroke:none;fill-rule:nonzero;fill:rgb(9.019608%,56.078434%,90.196079%);fill-opacity:1;" d="M 56 8 L 4 8 L 4 12 L 56 12 Z M 56 8 "/>
    <path style=" stroke:none;fill-rule:nonzero;fill:rgb(9.019608%,56.078434%,90.196079%);fill-opacity:1;" d="M 44 16 L 4 16 L 4 20 L 44 20 Z M 44 16 "/>
    <path style=" stroke:none;fill-rule:nonzero;fill:rgb(80.000001%,16.078432%,16.078432%);fill-opacity:1;" d="M 64 37.199219 L 56 29.199219 L 56 12 L 52 12 L 52 30.800781 L 62 40.800781 Z M 64 37.199219 "/>
    <path style=" stroke:none;fill-rule:nonzero;fill:rgb(40.000001%,40.000001%,40.000001%);fill-opacity:1;" d="M 45 50.398438 L 41.199219 54.199219 L 46.800781 59.800781 L 50.601562 56 Z M 45 50.398438 "/>
    <path style=" stroke:none;fill-rule:nonzero;fill:rgb(40.000001%,40.000001%,40.000001%);fill-opacity:1;" d="M 57.800781 37.800781 L 46.601562 49 L 52.199219 54.601562 L 63.398438 43.398438 L 64 37.199219 Z M 57.800781 37.800781 "/>
    <use xlink:href="#surface5" mask="url(#mask0)"/>
  </g>
</svg>