<?xml version="1.0" encoding="UTF-8" standalone="yes"?>
<svg xmlns="http://www.w3.org/2000/svg" xmlns:xlink="http://www.w3.org/1999/xlink" width="64" height="64" viewBox="0 0 64 64" version="1.1">
  <defs>
    <filter id="alpha" filterUnits="objectBoundingBox" x="0%" y="0%" width="100%" height="100%">
      <feColorMatrix type="matrix" in="SourceGraphic" values="0 0 0 0 1 0 0 0 0 1 0 0 0 0 1 0 0 0 1 0"/>
    </filter>
    <mask id="mask0">
      <g filter="url(#alpha)">
        <rect x="0" y="0" width="64" height="64" style="fill:rgb(0%,0%,0%);fill-opacity:0.2;stroke:none;"/>
      </g>
    </mask>
    <mask id="mask1">
      <g filter="url(#alpha)">
        <rect x="0" y="0" width="64" height="64" style="fill:rgb(0%,0%,0%);fill-opacity:0.2;stroke:none;"/>
      </g>
    </mask>
    <mask id="mask2">
      <g filter="url(#alpha)">
        <rect x="0" y="0" width="64" height="64" style="fill:rgb(0%,0%,0%);fill-opacity:0.1;stroke:none;"/>
      </g>
    </mask>
    <mask id="mask3">
      <g filter="url(#alpha)">
        <rect x="0" y="0" width="64" height="64" style="fill:rgb(0%,0%,0%);fill-opacity:0.2;stroke:none;"/>
      </g>
    </mask>
    <clipPath id="clip1">
      <rect x="0" y="0" width="64" height="64"/>
    </clipPath>
    <clipPath id="clip2">
      <rect x="0" y="0" width="64" height="64"/>
    </clipPath>
    <clipPath id="clip3">
      <rect x="0" y="0" width="64" height="64"/>
    </clipPath>
    <clipPath id="clip4">
      <rect x="0" y="0" width="64" height="64"/>
    </clipPath>
    <g id="surface5" clip-path="url(#clip1)">
      <path style=" stroke:none;fill-rule:nonzero;fill:rgb(0%,0%,0%);fill-opacity:1;" d="M 40 38.699219 L 38.960938 39.140625 L 40 39.378906 Z M 40 38.699219 "/>
    </g>
    <g id="surface8" clip-path="url(#clip2)">
      <path style=" stroke:none;fill-rule:nonzero;fill:rgb(0%,0%,0%);fill-opacity:1;" d="M 28 52 L 27 52 C 12.960938 52 4 47.859375 4 45 C 4 43 8 40.558594 15.039062 39.140625 C 14.023438 38.773438 13.039062 38.320312 12.101562 37.78125 C 6 39.421875 2 42 2 45 C 2 50 13.199219 54 27 54 L 28 54 Z M 28 52 "/>
    </g>
    <g id="surface11" clip-path="url(#clip3)">
      <path style=" stroke:none;fill-rule:nonzero;fill:rgb(0%,0%,0%);fill-opacity:1;" d="M 48 34 L 48 46 L 60 46 L 60 50 L 48 50 L 48 62 L 44 62 L 44 50 L 32 50 L 32 46 L 44 46 L 44 34 Z M 50 32 L 42 32 L 42 44 L 30 44 L 30 52 L 42 52 L 42 64 L 50 64 L 50 52 L 62 52 L 62 44 L 50 44 Z M 50 32 "/>
    </g>
    <g id="surface14" clip-path="url(#clip4)">
      <path style=" stroke:none;fill-rule:nonzero;fill:rgb(0%,0%,0%);fill-opacity:1;" d="M 27 0 C 13.199219 0 2 4 2 9 C 2 12.679688 8.121094 15.839844 16.859375 17.238281 L 19.699219 17.621094 L 20 17.621094 C 22.324219 17.871094 24.660156 18 27 18 C 29.339844 18.003906 31.675781 17.886719 34 17.640625 L 34.300781 17.640625 L 37.140625 17.261719 C 45.878906 15.839844 52 12.679688 52 9 C 52 4 40.800781 0 27 0 Z M 34 15.640625 C 31.675781 15.878906 29.339844 16 27 16 C 24.660156 16 22.324219 15.878906 20 15.640625 C 10 14.558594 4 11.359375 4 9 C 4 6.140625 12.960938 2 27 2 C 41.039062 2 50 6.140625 50 9 C 50 11.359375 44 14.558594 34 15.640625 Z M 34 15.640625 "/>
    </g>
  </defs>
  <g id="surface1">
    <path style=" stroke:none;fill-rule:nonzero;fill:rgb(40.392157%,69.411767%,90.196079%);fill-opacity:1;" d="M 28 42 L 40 42 L 40 38.699219 C 35.859375 40.3125 31.441406 41.09375 27 41 C 21.84375 41.195312 16.71875 40.085938 12.101562 37.78125 C 6 39.421875 2 42 2 45 C 2 50 13.199219 54 27 54 L 28 54 Z M 28 42 "/>
    <path style=" stroke:none;fill-rule:nonzero;fill:rgb(95.294118%,95.294118%,95.294118%);fill-opacity:1;" d="M 40 30 L 41.5 30 C 39.761719 29.097656 37.914062 28.425781 36 28 C 41.539062 26.679688 44.960938 24.261719 44.960938 22 C 44.960938 18.679688 37.558594 15 26.960938 15 C 16.359375 15 8.960938 18.679688 8.960938 22 C 8.960938 24.261719 12.378906 26.679688 17.921875 28 C 12.378906 29.320312 8.960938 31.738281 8.960938 34 C 8.960938 37.320312 16.359375 41 26.960938 41 C 31.410156 41.097656 35.839844 40.332031 40 38.738281 Z M 40 30 "/>
    <path style=" stroke:none;fill-rule:nonzero;fill:rgb(40.000001%,40.000001%,40.000001%);fill-opacity:1;" d="M 28 42 L 34 42 L 34 41.441406 C 36.050781 41.105469 38.0625 40.5625 40 39.820312 L 40 37.640625 C 35.875 39.3125 31.449219 40.113281 27 40 C 16.621094 40 10 36.441406 10 34 C 10 32.378906 12.941406 30.28125 18 29.039062 L 20 29.441406 L 20 33 C 20 34.660156 23.140625 36 27 36 C 30.859375 36 34 34.660156 34 33 L 34 29.441406 L 36 29.039062 C 37.371094 29.367188 38.710938 29.8125 40 30.378906 L 40 30 L 43.421875 30 C 42.222656 29.164062 40.917969 28.488281 39.539062 28 C 43.539062 26.539062 46 24.398438 46 22 C 46 17.578125 37.5 14 27 14 C 16.5 14 8 17.578125 8 22 C 8 24.398438 10.5 26.539062 14.460938 28 C 10.5 29.460938 8 31.601562 8 34 C 8 37.378906 12.980469 40.261719 20 41.441406 L 20 45 C 20 46.660156 23.140625 48 27 48 L 28 48 Z M 10 22 C 10 20.160156 13.738281 17.699219 20 16.578125 L 20 21 C 20 22.660156 23.140625 24 27 24 C 30.859375 24 34 22.660156 34 21 L 34 16.578125 C 40.261719 17.699219 44 20.160156 44 22 C 44 24.441406 37.378906 28 27 28 C 16.621094 28 10 24.441406 10 22 Z M 10 22 "/>
    <path style=" stroke:none;fill-rule:evenodd;fill:rgb(14.117648%,69.803923%,32.156864%);fill-opacity:1;" d="M 62 44 L 50 44 L 50 32 L 42 32 L 42 44 L 30 44 L 30 52 L 42 52 L 42 64 L 50 64 L 50 52 L 62 52 Z M 62 44 "/>
    <path style=" stroke:none;fill-rule:nonzero;fill:rgb(80.000001%,36.078432%,36.078432%);fill-opacity:1;" d="M 33.460938 7.839844 C 33.625 7.988281 33.753906 8.167969 33.847656 8.367188 C 33.941406 8.566406 33.992188 8.78125 34 9 C 33.992188 9.21875 33.941406 9.4375 33.847656 9.636719 C 33.753906 9.835938 33.625 10.011719 33.460938 10.160156 C 33.015625 10.570312 32.5 10.894531 31.941406 11.121094 C 30.367188 11.730469 28.6875 12.03125 27 12 C 25.292969 12.03125 23.59375 11.734375 22 11.121094 C 21.449219 10.902344 20.945312 10.574219 20.519531 10.160156 C 20.359375 10.011719 20.230469 9.832031 20.140625 9.632812 C 20.050781 9.433594 20.003906 9.21875 20 9 C 20.007812 8.777344 20.0625 8.5625 20.15625 8.363281 C 20.253906 8.160156 20.390625 7.984375 20.558594 7.839844 C 20.972656 7.429688 21.460938 7.101562 22 6.878906 C 23.59375 6.261719 25.292969 5.964844 27 6 C 28.707031 5.960938 30.40625 6.261719 32 6.878906 C 32.539062 7.113281 33.035156 7.4375 33.460938 7.839844 Z M 33.460938 7.839844 "/>
    <path style=" stroke:none;fill-rule:nonzero;fill:rgb(40.000001%,40.000001%,40.000001%);fill-opacity:1;" d="M 34 9 C 33.992188 9.21875 33.941406 9.4375 33.847656 9.636719 C 33.753906 9.835938 33.625 10.011719 33.460938 10.160156 C 33.015625 10.570312 32.5 10.894531 31.941406 11.121094 C 30.367188 11.730469 28.6875 12.03125 27 12 C 25.292969 12.03125 23.59375 11.734375 22 11.121094 C 21.449219 10.902344 20.945312 10.574219 20.519531 10.160156 C 20.359375 10.011719 20.230469 9.832031 20.140625 9.632812 C 20.050781 9.433594 20.003906 9.21875 20 9 C 20.007812 8.777344 20.0625 8.5625 20.15625 8.363281 C 20.253906 8.160156 20.390625 7.984375 20.558594 7.839844 C 20.972656 7.429688 21.460938 7.101562 22 6.878906 C 23.59375 6.261719 25.292969 5.964844 27 6 C 28.707031 5.960938 30.40625 6.261719 32 6.878906 C 32.5625 7.105469 33.074219 7.429688 33.519531 7.839844 C 33.671875 7.992188 33.792969 8.171875 33.875 8.371094 C 33.957031 8.570312 34 8.785156 34 9 Z M 34 9 "/>
    <path style=" stroke:none;fill-rule:nonzero;fill:rgb(80.000001%,36.078432%,36.078432%);fill-opacity:1;" d="M 27 0 C 13.199219 0 2 4 2 9 C 2 14 13.199219 18 27 18 C 40.800781 18 52 14 52 9 C 52 4 40.800781 0 27 0 Z M 27 13 C 23 13 19 11.601562 19 9 C 19 6.398438 23 5 27 5 C 31 5 35 6.398438 35 9 C 35 11.601562 31 13 27 13 Z M 27 13 "/>
    <use xlink:href="#surface5" mask="url(#mask0)"/>
    <use xlink:href="#surface8" mask="url(#mask1)"/>
    <use xlink:href="#surface11" mask="url(#mask2)"/>
    <use xlink:href="#surface14" mask="url(#mask3)"/>
  </g>
</svg>