<?xml version="1.0" encoding="UTF-8" standalone="yes"?>
<svg xmlns="http://www.w3.org/2000/svg" xmlns:xlink="http://www.w3.org/1999/xlink" width="64" height="64" viewBox="0 0 64 64" version="1.1">
  <g id="surface1">
    <path style=" stroke:none;fill-rule:nonzero;fill:rgb(9.019608%,56.078434%,90.196079%);fill-opacity:1;" d="M 42 39.160156 L 42 6 L 14 6 L 14 10 L 38 10 L 38 40.839844 L 49.578125 52.421875 L 52.421875 49.578125 Z M 42 39.160156 "/>
    <path style=" stroke:none;fill-rule:nonzero;fill:rgb(40.000001%,40.000001%,40.000001%);fill-opacity:1;" d="M 8 2 C 11.300781 2 14 4.699219 14 8 C 14 11.300781 11.300781 14 8 14 C 4.699219 14 2 11.300781 2 8 C 2 4.699219 4.699219 2 8 2 Z M 8 0 C 3.578125 0 0 3.578125 0 8 C 0 12.421875 3.578125 16 8 16 C 12.421875 16 16 12.421875 16 8 C 16 3.578125 12.421875 0 8 0 Z M 8 0 "/>
    <path style=" stroke:none;fill-rule:nonzero;fill:rgb(40.000001%,40.000001%,40.000001%);fill-opacity:1;" d="M 56 50 C 59.300781 50 62 52.699219 62 56 C 62 59.300781 59.300781 62 56 62 C 52.699219 62 50 59.300781 50 56 C 50 52.699219 52.699219 50 56 50 Z M 56 48 C 51.578125 48 48 51.578125 48 56 C 48 60.421875 51.578125 64 56 64 C 60.421875 64 64 60.421875 64 56 C 64 51.578125 60.421875 48 56 48 Z M 56 48 "/>
  </g>
</svg>