<?xml version="1.0" encoding="UTF-8" standalone="yes"?>
<svg xmlns="http://www.w3.org/2000/svg" xmlns:xlink="http://www.w3.org/1999/xlink" width="64" height="64" viewBox="0 0 64 64" version="1.1">
  <defs>
    <filter id="alpha" filterUnits="objectBoundingBox" x="0%" y="0%" width="100%" height="100%">
      <feColorMatrix type="matrix" in="SourceGraphic" values="0 0 0 0 1 0 0 0 0 1 0 0 0 0 1 0 0 0 1 0"/>
    </filter>
    <mask id="mask0">
      <g filter="url(#alpha)">
        <rect x="0" y="0" width="64" height="64" style="fill:rgb(0%,0%,0%);fill-opacity:0.2;stroke:none;"/>
      </g>
    </mask>
    <mask id="mask1">
      <g filter="url(#alpha)">
        <rect x="0" y="0" width="64" height="64" style="fill:rgb(0%,0%,0%);fill-opacity:0.3;stroke:none;"/>
      </g>
    </mask>
    <mask id="mask2">
      <g filter="url(#alpha)">
        <rect x="0" y="0" width="64" height="64" style="fill:rgb(0%,0%,0%);fill-opacity:0.3;stroke:none;"/>
      </g>
    </mask>
    <mask id="mask3">
      <g filter="url(#alpha)">
        <rect x="0" y="0" width="64" height="64" style="fill:rgb(0%,0%,0%);fill-opacity:0.1;stroke:none;"/>
      </g>
    </mask>
    <clipPath id="clip1">
      <rect x="0" y="0" width="64" height="64"/>
    </clipPath>
    <clipPath id="clip2">
      <rect x="0" y="0" width="64" height="64"/>
    </clipPath>
    <clipPath id="clip3">
      <rect x="0" y="0" width="64" height="64"/>
    </clipPath>
    <clipPath id="clip4">
      <rect x="0" y="0" width="64" height="64"/>
    </clipPath>
    <g id="surface5" clip-path="url(#clip1)">
      <path style=" stroke:none;fill-rule:evenodd;fill:rgb(0%,0%,0%);fill-opacity:1;" d="M 39.878906 16 L 36.539062 18 L 62 18 L 62 58 L 10 58 L 10 30.820312 L 14 26.820312 L 14 24 L 8 30 L 8 60 L 64 60 L 64 16 Z M 39.878906 16 "/>
    </g>
    <g id="surface8" clip-path="url(#clip2)">
      <path style=" stroke:none;fill-rule:nonzero;fill:rgb(100%,100%,100%);fill-opacity:1;" d="M 34 46 L 14 46 L 14 50 L 34 50 Z M 34 46 "/>
    </g>
    <g id="surface11" clip-path="url(#clip3)">
      <path style=" stroke:none;fill-rule:nonzero;fill:rgb(100%,100%,100%);fill-opacity:1;" d="M 46 28 L 38 28 L 38 38 L 46 38 Z M 46 28 "/>
    </g>
    <g id="surface14" clip-path="url(#clip4)">
      <path style=" stroke:none;fill-rule:nonzero;fill:rgb(0%,0%,0%);fill-opacity:1;" d="M 2 14 L 18 14 L 18 7.539062 L 32.121094 16 L 18 24.460938 L 18 18 L 2 18 Z M 0 12 L 0 20 L 16 20 L 16 28 L 36 16 L 16 4 L 16 12 Z M 0 12 "/>
    </g>
  </defs>
  <g id="surface1">
    <path style=" stroke:none;fill-rule:nonzero;fill:rgb(35.294119%,78.039217%,49.411765%);fill-opacity:1;" d="M 64 16 L 64 60 L 8 60 L 8 30 L 14 24 L 14 31.539062 L 36.539062 18 L 39.878906 16 Z M 64 16 "/>
    <path style=" stroke:none;fill-rule:nonzero;fill:rgb(40.000001%,40.000001%,40.000001%);fill-opacity:1;" d="M 54 22 L 30 22 L 30 28 L 54 28 Z M 54 22 "/>
    <path style=" stroke:none;fill-rule:nonzero;fill:rgb(40.000001%,40.000001%,40.000001%);fill-opacity:1;" d="M 38 38 L 46 38 C 48.199219 38 50 39.800781 50 42 L 50 50 C 50 52.199219 48.199219 54 46 54 L 38 54 C 35.800781 54 34 52.199219 34 50 L 34 42 C 34 39.800781 35.800781 38 38 38 Z M 38 38 "/>
    <path style=" stroke:none;fill-rule:nonzero;fill:rgb(95.294118%,95.294118%,95.294118%);fill-opacity:1;" d="M 16 42 L 6 42 L 6 52 L 16 52 Z M 16 42 "/>
    <path style=" stroke:none;fill-rule:evenodd;fill:rgb(40.000001%,40.000001%,40.000001%);fill-opacity:1;" d="M 6 42 L 6 52 L 16 52 L 16 42 Z M 14 50 L 8 50 L 8 44 L 14 44 Z M 14 50 "/>
    <path style=" stroke:none;fill-rule:evenodd;fill:rgb(9.019608%,56.078434%,90.196079%);fill-opacity:1;" d="M 36 16 L 16 28 L 16 20 L 0 20 L 0 12 L 16 12 L 16 4 Z M 36 16 "/>
    <use xlink:href="#surface5" mask="url(#mask0)"/>
    <use xlink:href="#surface8" mask="url(#mask1)"/>
    <use xlink:href="#surface11" mask="url(#mask2)"/>
    <use xlink:href="#surface14" mask="url(#mask3)"/>
  </g>
</svg>