<?xml version="1.0" encoding="UTF-8" standalone="yes"?>
<svg xmlns="http://www.w3.org/2000/svg" xmlns:xlink="http://www.w3.org/1999/xlink" width="64" height="64" viewBox="0 0 64 64" version="1.1">
  <defs>
    <filter id="alpha" filterUnits="objectBoundingBox" x="0%" y="0%" width="100%" height="100%">
      <feColorMatrix type="matrix" in="SourceGraphic" values="0 0 0 0 1 0 0 0 0 1 0 0 0 0 1 0 0 0 1 0"/>
    </filter>
    <mask id="mask0">
      <g filter="url(#alpha)">
        <rect x="0" y="0" width="64" height="64" style="fill:rgb(0%,0%,0%);fill-opacity:0.1;stroke:none;"/>
      </g>
    </mask>
    <clipPath id="clip1">
      <rect x="0" y="0" width="64" height="64"/>
    </clipPath>
    <g id="surface5" clip-path="url(#clip1)">
      <path style=" stroke:none;fill-rule:nonzero;fill:rgb(0%,0%,0%);fill-opacity:1;" d="M 26 0 C 11.640625 0 0 11.640625 0 26 C 0 40.359375 11.640625 52 26 52 C 40.359375 52 52 40.359375 52 26 C 52 11.640625 40.359375 0 26 0 Z M 26 0 "/>
    </g>
  </defs>
  <g id="surface1">
    <use xlink:href="#surface5" mask="url(#mask0)"/>
    <path style=" stroke:none;fill-rule:nonzero;fill:rgb(49.019608%,38.431373%,24.313726%);fill-opacity:1;" d="M 63.199219 58.960938 L 48.5 44.261719 C 47.238281 45.820312 45.820312 47.238281 44.261719 48.5 L 58.960938 63.199219 C 58.960938 63.199219 61.078125 65.078125 63.078125 63.078125 C 65.078125 61.078125 63.199219 58.960938 63.199219 58.960938 Z M 63.199219 58.960938 "/>
    <path style=" stroke:none;fill-rule:nonzero;fill:rgb(40.000001%,40.000001%,40.000001%);fill-opacity:1;" d="M 26 0 C 11.640625 0 0 11.640625 0 26 C 0 40.359375 11.640625 52 26 52 C 40.359375 52 52 40.359375 52 26 C 52 11.640625 40.359375 0 26 0 Z M 26 50 C 12.738281 50 2 39.261719 2 26 C 2 12.738281 12.738281 2 26 2 C 39.261719 2 50 12.738281 50 26 C 50 39.261719 39.261719 50 26 50 Z M 26 50 "/>
    <path style=" stroke:none;fill-rule:evenodd;fill:rgb(0%,74.901962%,74.901962%);fill-opacity:1;" d="M 9.929688 26.003906 C 9.929688 26 9.929688 26 8 25.480469 C 6.070312 24.957031 6.070312 24.957031 6.070312 24.957031 L 6.070312 24.953125 L 6.074219 24.945312 L 6.082031 24.910156 L 6.113281 24.800781 C 6.140625 24.707031 6.179688 24.570312 6.230469 24.402344 C 6.332031 24.066406 6.484375 23.59375 6.683594 23.023438 C 7.082031 21.894531 7.675781 20.367188 8.46875 18.828125 C 9.25 17.300781 10.273438 15.664062 11.554688 14.378906 C 12.835938 13.097656 14.554688 12 16.679688 12 C 20.011719 12 22.320312 14.1875 23.957031 16.640625 C 25.597656 19.097656 26.890625 22.304688 28.070312 25.257812 C 28.097656 25.320312 28.125 25.386719 28.148438 25.449219 C 29.34375 28.4375 30.433594 31.164062 31.710938 33.179688 C 33.035156 35.269531 34.183594 36 35.300781 36 C 35.964844 36 36.726562 35.664062 37.59375 34.792969 C 38.464844 33.921875 39.261719 32.691406 39.953125 31.347656 C 40.636719 30.019531 41.164062 28.671875 41.519531 27.652344 C 41.699219 27.144531 41.835938 26.722656 41.921875 26.429688 C 41.96875 26.285156 42 26.171875 42.019531 26.097656 L 42.042969 26.015625 L 42.046875 26 L 42.050781 25.996094 C 42.050781 26 42.050781 26 43.980469 26.519531 C 45.910156 27.042969 45.910156 27.042969 45.910156 27.042969 L 45.90625 27.054688 L 45.898438 27.089844 L 45.867188 27.199219 C 45.839844 27.292969 45.800781 27.429688 45.75 27.597656 C 45.644531 27.933594 45.496094 28.40625 45.296875 28.976562 C 44.898438 30.105469 44.304688 31.632812 43.511719 33.171875 C 42.730469 34.699219 41.707031 36.335938 40.425781 37.621094 C 39.144531 38.902344 37.425781 40 35.300781 40 C 32.054688 40 29.863281 37.730469 28.332031 35.320312 C 26.851562 32.984375 25.640625 29.953125 24.511719 27.125 C 24.460938 26.996094 24.410156 26.871094 24.359375 26.742188 C 23.140625 23.695312 21.996094 20.902344 20.632812 18.859375 C 19.265625 16.8125 18.007812 16 16.679688 16 C 16.015625 16 15.253906 16.335938 14.382812 17.207031 C 13.515625 18.078125 12.71875 19.308594 12.027344 20.652344 C 11.34375 21.980469 10.816406 23.328125 10.457031 24.347656 C 10.28125 24.855469 10.144531 25.277344 10.058594 25.570312 C 10.011719 25.714844 9.980469 25.828125 9.960938 25.902344 L 9.9375 25.984375 L 9.929688 26 Z M 9.929688 26.003906 "/>
  </g>
</svg>