<?xml version="1.0" encoding="UTF-8" standalone="yes"?>
<svg xmlns="http://www.w3.org/2000/svg" xmlns:xlink="http://www.w3.org/1999/xlink" width="64" height="64" viewBox="0 0 64 64" version="1.1">
  <defs>
    <filter id="alpha" filterUnits="objectBoundingBox" x="0%" y="0%" width="100%" height="100%">
      <feColorMatrix type="matrix" in="SourceGraphic" values="0 0 0 0 1 0 0 0 0 1 0 0 0 0 1 0 0 0 1 0"/>
    </filter>
    <mask id="mask0">
      <g filter="url(#alpha)">
        <rect x="0" y="0" width="64" height="64" style="fill:rgb(0%,0%,0%);fill-opacity:0.1;stroke:none;"/>
      </g>
    </mask>
    <clipPath id="clip1">
      <rect x="0" y="0" width="64" height="64"/>
    </clipPath>
    <g id="surface5" clip-path="url(#clip1)">
      <path style=" stroke:none;fill-rule:nonzero;fill:rgb(0%,0%,0%);fill-opacity:1;" d="M 26 0 C 11.640625 0 0 11.640625 0 26 C 0 40.359375 11.640625 52 26 52 C 40.359375 52 52 40.359375 52 26 C 52 11.640625 40.359375 0 26 0 Z M 26 0 "/>
    </g>
  </defs>
  <g id="surface1">
    <use xlink:href="#surface5" mask="url(#mask0)"/>
    <path style=" stroke:none;fill-rule:nonzero;fill:rgb(49.019608%,38.431373%,24.313726%);fill-opacity:1;" d="M 63.199219 58.960938 L 48.5 44.261719 C 47.238281 45.820312 45.820312 47.238281 44.261719 48.5 L 58.960938 63.199219 C 58.960938 63.199219 61.078125 65.078125 63.078125 63.078125 C 65.078125 61.078125 63.199219 58.960938 63.199219 58.960938 Z M 63.199219 58.960938 "/>
    <path style=" stroke:none;fill-rule:nonzero;fill:rgb(40.000001%,40.000001%,40.000001%);fill-opacity:1;" d="M 26 0 C 11.640625 0 0 11.640625 0 26 C 0 40.359375 11.640625 52 26 52 C 40.359375 52 52 40.359375 52 26 C 52 11.640625 40.359375 0 26 0 Z M 26 50 C 12.738281 50 2 39.261719 2 26 C 2 12.738281 12.738281 2 26 2 C 39.261719 2 50 12.738281 50 26 C 50 39.261719 39.261719 50 26 50 Z M 26 50 "/>
    <path style=" stroke:none;fill-rule:nonzero;fill:rgb(40.000001%,40.000001%,40.000001%);fill-opacity:1;" d="M 13 32 L 18 24 L 8 24 Z M 13 32 "/>
    <path style=" stroke:none;fill-rule:nonzero;fill:rgb(40.000001%,40.000001%,40.000001%);fill-opacity:1;" d="M 26 12 C 18.960938 12 13.140625 17.21875 12.160156 24 L 14.179688 24 C 15.140625 18.339844 20.058594 14 26 14 C 32.621094 14 38 19.378906 38 26 C 38 32.621094 32.621094 38 26 38 L 26 40 C 33.71875 40 40 33.71875 40 26 C 40 18.28125 33.71875 12 26 12 Z M 26 12 "/>
  </g>
</svg>