<?xml version="1.0" encoding="UTF-8" standalone="yes"?>
<svg xmlns="http://www.w3.org/2000/svg" xmlns:xlink="http://www.w3.org/1999/xlink" width="64" height="64" viewBox="0 0 64 64" version="1.1">
  <defs>
    <filter id="alpha" filterUnits="objectBoundingBox" x="0%" y="0%" width="100%" height="100%">
      <feColorMatrix type="matrix" in="SourceGraphic" values="0 0 0 0 1 0 0 0 0 1 0 0 0 0 1 0 0 0 1 0"/>
    </filter>
    <mask id="mask0">
      <g filter="url(#alpha)">
        <rect x="0" y="0" width="64" height="64" style="fill:rgb(0%,0%,0%);fill-opacity:0.1;stroke:none;"/>
      </g>
    </mask>
    <clipPath id="clip1">
      <rect x="0" y="0" width="64" height="64"/>
    </clipPath>
    <g id="surface5" clip-path="url(#clip1)">
      <path style=" stroke:none;fill-rule:nonzero;fill:rgb(0%,0%,0%);fill-opacity:1;" d="M 47 29 L 29 47 L 19 37 L 13.320312 42.679688 L 29 58.359375 L 52.679688 34.679688 Z M 16.140625 42.679688 L 19 39.820312 L 29 49.820312 L 47 31.820312 L 49.859375 34.679688 L 29 55.539062 Z M 16.140625 42.679688 "/>
    </g>
  </defs>
  <g id="surface1">
    <path style=" stroke:none;fill-rule:nonzero;fill:rgb(40.000001%,40.000001%,40.000001%);fill-opacity:1;" d="M 11.699219 8.78125 L 11.699219 14.460938 L 19.359375 14.460938 L 19.359375 17.238281 L 11.699219 17.238281 L 11.699219 23.21875 L 20 23.21875 L 20 26 L 8 26 L 8 6 L 20 6 L 20 8.78125 Z M 11.699219 8.78125 "/>
    <path style=" stroke:none;fill-rule:nonzero;fill:rgb(40.000001%,40.000001%,40.000001%);fill-opacity:1;" d="M 30.621094 18.078125 L 27.601562 18.078125 L 27.601562 26 L 24 26 L 24 6 L 30.738281 6 C 32.859375 6 34.539062 6.480469 35.820312 7.421875 C 37.101562 8.359375 37.738281 9.660156 37.738281 11.300781 L 37.738281 12.78125 C 37.738281 13.859375 37.421875 14.800781 36.78125 15.601562 C 36.140625 16.398438 35.261719 17.019531 34.101562 17.460938 L 38.699219 26 L 34.761719 26 Z M 27.601562 15.398438 L 30.621094 15.398438 C 31.699219 15.398438 32.558594 15.160156 33.179688 14.679688 C 33.800781 14.199219 34.101562 13.539062 34.101562 12.679688 L 34.101562 11.460938 C 34.101562 10.578125 33.78125 9.898438 33.160156 9.421875 C 32.539062 8.941406 31.679688 8.699219 30.578125 8.699219 L 27.578125 8.699219 L 27.578125 15.398438 Z M 27.601562 15.398438 "/>
    <path style=" stroke:none;fill-rule:nonzero;fill:rgb(40.000001%,40.000001%,40.000001%);fill-opacity:1;" d="M 45.578125 25.101562 C 44.421875 24.5 43.519531 23.660156 42.921875 22.558594 C 42.320312 21.460938 42 20.199219 42 18.761719 L 42 13.679688 C 42 12.121094 42.320312 10.761719 42.960938 9.601562 C 43.601562 8.441406 44.519531 7.558594 45.699219 6.921875 C 46.878906 6.320312 48.300781 6 49.941406 6 C 51.238281 6 52.359375 6.179688 53.300781 6.539062 C 54.238281 6.898438 55.140625 7.421875 56 8.101562 L 54.199219 10.078125 C 53.558594 9.621094 52.921875 9.28125 52.261719 9.039062 C 51.621094 8.800781 50.878906 8.679688 50.039062 8.679688 C 48.621094 8.679688 47.5 9.101562 46.71875 9.941406 C 45.941406 10.78125 45.539062 11.960938 45.539062 13.5 L 45.539062 18.699219 C 45.539062 20.21875 45.898438 21.378906 46.621094 22.160156 C 47.339844 22.941406 48.421875 23.339844 49.859375 23.339844 C 50.738281 23.339844 51.539062 23.21875 52.261719 22.960938 C 52.980469 22.71875 53.660156 22.359375 54.320312 21.921875 L 55.820312 23.980469 C 55.058594 24.558594 54.179688 25.019531 53.140625 25.421875 C 52.121094 25.800781 51 26 49.800781 26 C 48.160156 26 46.761719 25.699219 45.578125 25.101562 Z M 45.578125 25.101562 "/>
    <path style=" stroke:none;fill-rule:nonzero;fill:rgb(14.117648%,69.803923%,32.156864%);fill-opacity:1;" d="M 52.679688 34.679688 L 29 58.359375 L 13.320312 42.679688 L 19 37 L 29 47 L 47 29 Z M 52.679688 34.679688 "/>
    <use xlink:href="#surface5" mask="url(#mask0)"/>
  </g>
</svg>