<?xml version="1.0" encoding="UTF-8" standalone="yes"?>
<svg xmlns="http://www.w3.org/2000/svg" xmlns:xlink="http://www.w3.org/1999/xlink" width="64" height="64" viewBox="0 0 64 64" version="1.1">
  <g id="surface1">
    <path style=" stroke:none;fill-rule:nonzero;fill:rgb(95.294118%,95.294118%,95.294118%);fill-opacity:1;" d="M 59 1 L 59 34.980469 L 57.480469 33.460938 L 54 36.941406 L 54 32 L 44 32 L 44 36.941406 L 40.519531 33.460938 L 33.460938 40.519531 L 36.941406 44 L 32 44 L 32 47 L 1 47 L 1 1 Z M 59 1 "/>
    <path style=" stroke:none;fill-rule:nonzero;fill:rgb(40.000001%,40.000001%,40.000001%);fill-opacity:1;" d="M 0 0 L 0 48 L 32 48 L 32 46 L 2 46 L 2 2 L 58 2 L 58 33.980469 L 60 35.980469 L 60 0 Z M 0 0 "/>
    <path style=" stroke:none;fill-rule:nonzero;fill:rgb(0%,74.901962%,74.901962%);fill-opacity:1;" d="M 44 20 L 44 8 L 28 8 L 28 36 L 20 36 L 20 20 L 8 20 L 8 24 L 16 24 L 16 40 L 32 40 L 32 12 L 40 12 L 40 24 L 52 24 L 52 20 Z M 44 20 "/>
    <path style=" stroke:none;fill-rule:nonzero;fill:rgb(9.019608%,56.078434%,90.196079%);fill-opacity:1;" d="M 64 52 L 64 46 L 59.578125 46 C 59.421875 45.480469 59.238281 44.960938 59 44.460938 C 58.878906 44.179688 58.761719 43.898438 58.601562 43.640625 L 61.71875 40.519531 L 57.480469 36.28125 L 54.359375 39.398438 C 53.621094 38.980469 52.820312 38.660156 52 38.421875 L 52 34 L 46 34 L 46 38.441406 C 45.179688 38.660156 44.378906 38.980469 43.640625 39.398438 L 40.519531 36.28125 L 36.28125 40.519531 L 39.398438 43.640625 C 38.980469 44.378906 38.660156 45.179688 38.421875 46 L 34 46 L 34 52 L 38.421875 52 C 38.660156 52.820312 38.980469 53.621094 39.398438 54.359375 L 36.28125 57.5 L 40.519531 61.738281 L 43.640625 58.601562 C 44.378906 59.019531 45.179688 59.339844 46 59.578125 L 46 64 L 52 64 L 52 59.558594 C 52.820312 59.320312 53.621094 59 54.359375 58.578125 L 57.480469 61.71875 L 61.71875 57.480469 L 58.601562 54.339844 C 59.019531 53.601562 59.339844 52.820312 59.578125 52 Z M 53.140625 51.738281 C 52.601562 52.558594 51.820312 53.179688 50.898438 53.539062 C 50 53.898438 49 54 48.039062 53.800781 C 47.078125 53.601562 46.199219 53.121094 45.519531 52.441406 C 44.839844 51.738281 44.359375 50.859375 44.179688 49.898438 C 44.058594 49.28125 44.058594 48.621094 44.199219 48 C 44.238281 47.660156 44.339844 47.339844 44.460938 47.039062 C 44.460938 47.019531 44.480469 47.019531 44.480469 47 C 44.640625 46.640625 44.820312 46.300781 45.078125 46 C 45.398438 45.539062 45.820312 45.140625 46.28125 44.820312 C 47.101562 44.28125 48.058594 43.980469 49.039062 43.980469 C 50.359375 44 51.621094 44.519531 52.539062 45.460938 C 52.71875 45.640625 52.859375 45.820312 53 46 C 53.238281 46.320312 53.441406 46.640625 53.578125 47 C 53.71875 47.320312 53.839844 47.660156 53.898438 48 C 53.960938 48.320312 54 48.660156 54 49 C 54 49.980469 53.699219 50.941406 53.140625 51.738281 Z M 53.140625 51.738281 "/>
  </g>
</svg>