<?xml version="1.0" encoding="UTF-8" standalone="yes"?>
<svg xmlns="http://www.w3.org/2000/svg" xmlns:xlink="http://www.w3.org/1999/xlink" width="64" height="64" viewBox="0 0 64 64" version="1.1">
  <defs>
    <filter id="alpha" filterUnits="objectBoundingBox" x="0%" y="0%" width="100%" height="100%">
      <feColorMatrix type="matrix" in="SourceGraphic" values="0 0 0 0 1 0 0 0 0 1 0 0 0 0 1 0 0 0 1 0"/>
    </filter>
    <mask id="mask0">
      <g filter="url(#alpha)">
        <rect x="0" y="0" width="64" height="64" style="fill:rgb(0%,0%,0%);fill-opacity:0.1;stroke:none;"/>
      </g>
    </mask>
    <clipPath id="clip1">
      <rect x="0" y="0" width="64" height="64"/>
    </clipPath>
    <g id="surface5" clip-path="url(#clip1)">
      <path style=" stroke:none;fill-rule:nonzero;fill:rgb(0%,0%,0%);fill-opacity:1;" d="M 50 34 L 50 46 L 62 46 L 62 50 L 50 50 L 50 62 L 46 62 L 46 50 L 34 50 L 34 46 L 46 46 L 46 34 Z M 52 32 L 44 32 L 44 44 L 32 44 L 32 52 L 44 52 L 44 64 L 52 64 L 52 52 L 64 52 L 64 44 L 52 44 Z M 52 32 "/>
    </g>
  </defs>
  <g id="surface1">
    <path style=" stroke:none;fill-rule:nonzero;fill:rgb(95.294118%,95.294118%,95.294118%);fill-opacity:1;" d="M 50 2 L 50 30 L 42 30 L 42 42 L 30 42 L 30 52 L 12 52 L 12 2 Z M 50 2 "/>
    <path style=" stroke:none;fill-rule:nonzero;fill:rgb(90.196079%,49.411765%,20.784314%);fill-opacity:1;" d="M 10 10 L 0 10 L 0 14 L 10 14 Z M 10 10 "/>
    <path style=" stroke:none;fill-rule:nonzero;fill:rgb(90.196079%,49.411765%,20.784314%);fill-opacity:1;" d="M 10 20 L 0 20 L 0 24 L 10 24 Z M 10 20 "/>
    <path style=" stroke:none;fill-rule:nonzero;fill:rgb(40.000001%,40.000001%,40.000001%);fill-opacity:1;" d="M 26 8 L 18 8 L 18 10 L 26 10 Z M 26 8 "/>
    <path style=" stroke:none;fill-rule:nonzero;fill:rgb(90.196079%,49.411765%,20.784314%);fill-opacity:1;" d="M 10 30 L 0 30 L 0 34 L 10 34 Z M 10 30 "/>
    <path style=" stroke:none;fill-rule:nonzero;fill:rgb(90.196079%,49.411765%,20.784314%);fill-opacity:1;" d="M 10 40 L 0 40 L 0 44 L 10 44 Z M 10 40 "/>
    <path style=" stroke:none;fill-rule:nonzero;fill:rgb(90.196079%,49.411765%,20.784314%);fill-opacity:1;" d="M 62 10 L 52 10 L 52 14 L 62 14 Z M 62 10 "/>
    <path style=" stroke:none;fill-rule:nonzero;fill:rgb(90.196079%,49.411765%,20.784314%);fill-opacity:1;" d="M 62 20 L 52 20 L 52 24 L 62 24 Z M 62 20 "/>
    <path style=" stroke:none;fill-rule:nonzero;fill:rgb(90.196079%,49.411765%,20.784314%);fill-opacity:1;" d="M 62 30 L 54 30 L 54 34 L 62 34 Z M 62 30 "/>
    <path style=" stroke:none;fill-rule:nonzero;fill:rgb(90.196079%,49.411765%,20.784314%);fill-opacity:1;" d="M 62 40 L 54 40 L 54 42 L 62 42 Z M 62 40 "/>
    <path style=" stroke:none;fill-rule:nonzero;fill:rgb(40.000001%,40.000001%,40.000001%);fill-opacity:1;" d="M 12 2 L 12 52 L 30 52 L 30 50 L 14 50 L 14 4 L 48 4 L 48 30 L 50 30 L 50 2 Z M 12 2 "/>
    <path style=" stroke:none;fill-rule:evenodd;fill:rgb(14.117648%,69.803923%,32.156864%);fill-opacity:1;" d="M 64 44 L 52 44 L 52 32 L 44 32 L 44 44 L 32 44 L 32 52 L 44 52 L 44 64 L 52 64 L 52 52 L 64 52 Z M 64 44 "/>
    <use xlink:href="#surface5" mask="url(#mask0)"/>
  </g>
</svg>