<?xml version="1.0" encoding="UTF-8" standalone="yes"?>
<svg xmlns="http://www.w3.org/2000/svg" xmlns:xlink="http://www.w3.org/1999/xlink" width="64" height="64" viewBox="0 0 64 64" version="1.1">
  <g id="surface1">
    <path style=" stroke:none;fill-rule:nonzero;fill:rgb(9.019608%,56.078434%,90.196079%);fill-opacity:1;" d="M 24 6 L 14 6 L 14 10 L 24 10 Z M 24 6 "/>
    <path style=" stroke:none;fill-rule:nonzero;fill:rgb(9.019608%,56.078434%,90.196079%);fill-opacity:1;" d="M 36 6 L 28 6 L 28 10 L 36 10 Z M 36 6 "/>
    <path style=" stroke:none;fill-rule:nonzero;fill:rgb(9.019608%,56.078434%,90.196079%);fill-opacity:1;" d="M 50 6 L 40 6 L 40 10 L 50 10 Z M 50 6 "/>
    <path style=" stroke:none;fill-rule:nonzero;fill:rgb(40.000001%,40.000001%,40.000001%);fill-opacity:1;" d="M 8 2 C 11.300781 2 14 4.699219 14 8 C 14 11.300781 11.300781 14 8 14 C 4.699219 14 2 11.300781 2 8 C 2 4.699219 4.699219 2 8 2 Z M 8 0 C 3.578125 0 0 3.578125 0 8 C 0 12.421875 3.578125 16 8 16 C 12.421875 16 16 12.421875 16 8 C 16 3.578125 12.421875 0 8 0 Z M 8 0 "/>
    <path style=" stroke:none;fill-rule:nonzero;fill:rgb(9.019608%,56.078434%,90.196079%);fill-opacity:1;" d="M 54 40 L 54 50 L 58 50 L 58 40 Z M 54 40 "/>
    <path style=" stroke:none;fill-rule:nonzero;fill:rgb(9.019608%,56.078434%,90.196079%);fill-opacity:1;" d="M 54 14 L 54 24 L 58 24 L 58 14 Z M 54 14 "/>
    <path style=" stroke:none;fill-rule:nonzero;fill:rgb(9.019608%,56.078434%,90.196079%);fill-opacity:1;" d="M 54 28 L 54 36 L 58 36 L 58 28 Z M 54 28 "/>
    <path style=" stroke:none;fill-rule:nonzero;fill:rgb(40.000001%,40.000001%,40.000001%);fill-opacity:1;" d="M 56 2 C 59.320312 2 62 4.679688 62 8 C 62 11.320312 59.320312 14 56 14 C 52.679688 14 50 11.320312 50 8 C 50 4.679688 52.679688 2 56 2 Z M 56 0 C 51.578125 0 48 3.578125 48 8 C 48 12.421875 51.578125 16 56 16 C 60.421875 16 64 12.421875 64 8 C 64 3.578125 60.421875 0 56 0 Z M 56 0 "/>
    <path style=" stroke:none;fill-rule:nonzero;fill:rgb(40.000001%,40.000001%,40.000001%);fill-opacity:1;" d="M 56 50 C 59.320312 50 62 52.679688 62 56 C 62 59.320312 59.320312 62 56 62 C 52.679688 62 50 59.320312 50 56 C 50 52.679688 52.679688 50 56 50 Z M 56 48 C 51.578125 48 48 51.578125 48 56 C 48 60.421875 51.578125 64 56 64 C 60.421875 64 64 60.421875 64 56 C 64 51.578125 60.421875 48 56 48 Z M 56 48 "/>
  </g>
</svg>