<svg width="64" height="64" viewBox="0 0 64 64" fill="none" xmlns="http://www.w3.org/2000/svg">
<path d="M31.58 1H5V27.58L9.42 32H20.82L30 41.18V52.58L36 58.58L62.58 32L31.58 1ZM16 17C15.0111 17 14.0444 16.7068 13.2221 16.1573C12.3999 15.6079 11.759 14.827 11.3806 13.9134C11.0022 12.9998 10.9031 11.9945 11.0961 11.0245C11.289 10.0546 11.7652 9.16373 12.4645 8.46447C13.1637 7.7652 14.0546 7.289 15.0245 7.09607C15.9945 6.90315 16.9998 7.00216 17.9134 7.3806C18.827 7.75904 19.6079 8.3999 20.1573 9.22215C20.7068 10.0444 21 11.0111 21 12C21 13.3261 20.4732 14.5979 19.5355 15.5355C18.5979 16.4732 17.3261 17 16 17Z" fill="#F3F3F3"/>
<path d="M32 0H4V28L8 32H10.82L6 27.18V2H31.18L61.18 32L36 57.18L30 51.18V54L36 60L64 32L32 0Z" fill="#666666"/>
<path d="M16 6C14.8133 6 13.6533 6.35189 12.6666 7.01118C11.6799 7.67047 10.9109 8.60754 10.4567 9.7039C10.0026 10.8003 9.88378 12.0067 10.1153 13.1705C10.3468 14.3344 10.9182 15.4035 11.7574 16.2426C12.5965 17.0818 13.6656 17.6532 14.8295 17.8847C15.9933 18.1162 17.1997 17.9974 18.2961 17.5433C19.3925 17.0892 20.3295 16.3201 20.9888 15.3334C21.6481 14.3467 22 13.1867 22 12C22 10.4087 21.3679 8.88258 20.2426 7.75736C19.1174 6.63214 17.5913 6 16 6ZM16 16C15.2089 16 14.4355 15.7654 13.7777 15.3259C13.1199 14.8864 12.6072 14.2616 12.3045 13.5307C12.0017 12.7998 11.9225 11.9956 12.0769 11.2196C12.2312 10.4437 12.6122 9.73098 13.1716 9.17157C13.731 8.61216 14.4437 8.2312 15.2196 8.07686C15.9956 7.92252 16.7998 8.00173 17.5307 8.30448C18.2616 8.60723 18.8864 9.11992 19.3259 9.77772C19.7654 10.4355 20 11.2089 20 12C20 13.0609 19.5786 14.0783 18.8284 14.8284C18.0783 15.5786 17.0609 16 16 16Z" fill="#666666"/>
<path d="M32.7174 13.2865L31.3032 14.7007L51.3002 34.6977L52.7144 33.2834L32.7174 13.2865Z" fill="#666666"/>
<path d="M32.7062 25.285L31.292 26.6992L44.2886 39.6958L45.7028 38.2816L32.7062 25.285Z" fill="#666666"/>
<path d="M26.696 31.2943L25.2817 32.7085L36.2843 43.7111L37.6985 42.2969L26.696 31.2943Z" fill="#666666"/>
<path d="M29.2967 19.282L25.2944 23.2842L26.7086 24.6984L30.7109 20.6962L29.2967 19.282Z" fill="#666666"/>
<path d="M23.2967 25.2873L19.2944 29.2896L20.7086 30.7038L24.7109 26.7015L23.2967 25.2873Z" fill="#666666"/>
<path fill-rule="evenodd" clip-rule="evenodd" d="M0 34V64H28V44H18V34H0Z" fill="#67B1E6"/>
<path fill-rule="evenodd" clip-rule="evenodd" d="M20 34V42H28L24 38L20 34Z" fill="#178FE6"/>
<path d="M22 48H6V50H22V48Z" fill="white"/>
<path d="M16 44H6V46H16V44Z" fill="white"/>
<path d="M22 52H6V54H22V52Z" fill="white"/>
<path d="M16 56H6V58H16V56Z" fill="white"/>
<path fill-rule="evenodd" clip-rule="evenodd" d="M18 34H0V64H28V44H26V62H2V36H18V34Z" fill="black" fill-opacity="0.2"/>
</svg>
