<?xml version="1.0" encoding="UTF-8" standalone="yes"?>
<svg xmlns="http://www.w3.org/2000/svg" xmlns:xlink="http://www.w3.org/1999/xlink" width="64" height="64" viewBox="0 0 64 64" version="1.1">
  <defs>
    <filter id="alpha" filterUnits="objectBoundingBox" x="0%" y="0%" width="100%" height="100%">
      <feColorMatrix type="matrix" in="SourceGraphic" values="0 0 0 0 1 0 0 0 0 1 0 0 0 0 1 0 0 0 1 0"/>
    </filter>
    <mask id="mask0">
      <g filter="url(#alpha)">
        <rect x="0" y="0" width="64" height="64" style="fill:rgb(0%,0%,0%);fill-opacity:0.2;stroke:none;"/>
      </g>
    </mask>
    <mask id="mask1">
      <g filter="url(#alpha)">
        <rect x="0" y="0" width="64" height="64" style="fill:rgb(0%,0%,0%);fill-opacity:0.2;stroke:none;"/>
      </g>
    </mask>
    <clipPath id="clip1">
      <rect x="0" y="0" width="64" height="64"/>
    </clipPath>
    <clipPath id="clip2">
      <rect x="0" y="0" width="64" height="64"/>
    </clipPath>
    <g id="surface5" clip-path="url(#clip1)">
      <path style=" stroke:none;fill-rule:nonzero;fill:rgb(0%,0%,0%);fill-opacity:1;" d="M 28 2 L 4 26 L 36 26 L 60 2 Z M 35.179688 24 L 8.820312 24 L 28.820312 4 L 55.160156 4 Z M 35.179688 24 "/>
    </g>
    <g id="surface8" clip-path="url(#clip2)">
      <path style=" stroke:none;fill-rule:nonzero;fill:rgb(0%,0%,0%);fill-opacity:1;" d="M 48.820312 40 L 55.179688 40 L 35.179688 60 L 8.820312 60 L 16.820312 52 L 14 52 L 4 62 L 36 62 L 60 38 L 50.820312 38 Z M 48.820312 40 "/>
    </g>
  </defs>
  <g id="surface1">
    <path style=" stroke:none;fill-rule:nonzero;fill:rgb(95.294118%,95.294118%,95.294118%);fill-opacity:1;" d="M 50.820312 14 L 36.820312 28 L 14 28 L 4 38 L 36 38 L 60 14 Z M 50.820312 14 "/>
    <path style=" stroke:none;fill-rule:nonzero;fill:rgb(40.392157%,69.411767%,90.196079%);fill-opacity:1;" d="M 36 26 L 4 26 L 28 2 L 60 2 Z M 36 26 "/>
    <path style=" stroke:none;fill-rule:nonzero;fill:rgb(40.000001%,40.000001%,40.000001%);fill-opacity:1;" d="M 48.820312 16 L 55.179688 16 L 35.179688 36 L 8.820312 36 L 16.820312 28 L 14 28 L 4 38 L 36 38 L 60 14 L 50.820312 14 Z M 48.820312 16 "/>
    <path style=" stroke:none;fill-rule:nonzero;fill:rgb(95.294118%,95.294118%,95.294118%);fill-opacity:1;" d="M 50.820312 26 L 36.820312 40 L 14 40 L 4 50 L 36 50 L 60 26 Z M 50.820312 26 "/>
    <path style=" stroke:none;fill-rule:nonzero;fill:rgb(40.000001%,40.000001%,40.000001%);fill-opacity:1;" d="M 48.820312 28 L 55.179688 28 L 35.179688 48 L 8.820312 48 L 16.820312 40 L 14 40 L 4 50 L 36 50 L 60 26 L 50.820312 26 Z M 48.820312 28 "/>
    <path style=" stroke:none;fill-rule:nonzero;fill:rgb(80.000001%,36.078432%,36.078432%);fill-opacity:1;" d="M 50.820312 38 L 36.820312 52 L 14 52 L 4 62 L 36 62 L 60 38 Z M 50.820312 38 "/>
    <use xlink:href="#surface5" mask="url(#mask0)"/>
    <use xlink:href="#surface8" mask="url(#mask1)"/>
  </g>
</svg>