<?xml version="1.0" encoding="UTF-8" standalone="yes"?>
<svg xmlns="http://www.w3.org/2000/svg" xmlns:xlink="http://www.w3.org/1999/xlink" width="64" height="64" viewBox="0 0 64 64" version="1.1">
  <defs>
    <filter id="alpha" filterUnits="objectBoundingBox" x="0%" y="0%" width="100%" height="100%">
      <feColorMatrix type="matrix" in="SourceGraphic" values="0 0 0 0 1 0 0 0 0 1 0 0 0 0 1 0 0 0 1 0"/>
    </filter>
    <mask id="mask0">
      <g filter="url(#alpha)">
        <rect x="0" y="0" width="64" height="64" style="fill:rgb(0%,0%,0%);fill-opacity:0.2;stroke:none;"/>
      </g>
    </mask>
    <mask id="mask1">
      <g filter="url(#alpha)">
        <rect x="0" y="0" width="64" height="64" style="fill:rgb(0%,0%,0%);fill-opacity:0.2;stroke:none;"/>
      </g>
    </mask>
    <clipPath id="clip1">
      <rect x="0" y="0" width="64" height="64"/>
    </clipPath>
    <clipPath id="clip2">
      <rect x="0" y="0" width="64" height="64"/>
    </clipPath>
    <g id="surface5" clip-path="url(#clip1)">
      <path style=" stroke:none;fill-rule:nonzero;fill:rgb(0%,0%,0%);fill-opacity:1;" d="M 31 46 C 45.039062 46 54 50.140625 54 53 C 54 55.859375 45.039062 60 31 60 C 16.960938 60 8 55.859375 8 53 C 8 50.140625 16.960938 46 31 46 Z M 31 44 C 17.199219 44 6 48.019531 6 53 C 6 57.980469 17.199219 62 31 62 C 44.800781 62 56 57.980469 56 53 C 56 48.019531 44.800781 44 31 44 Z M 31 44 "/>
    </g>
    <g id="surface8" clip-path="url(#clip2)">
      <path style=" stroke:none;fill-rule:nonzero;fill:rgb(0%,0%,0%);fill-opacity:1;" d="M 31 2 C 17.199219 2 6 6.019531 6 11 C 6 14.679688 12.121094 17.839844 20.859375 19.238281 C 21.78125 19.378906 22.71875 19.5 23.699219 19.621094 C 23.800781 19.621094 23.898438 19.640625 24 19.640625 C 26.21875 19.878906 28.578125 20 31 20 C 33.421875 20 35.78125 19.878906 38 19.640625 C 38.101562 19.640625 38.199219 19.621094 38.300781 19.621094 C 39.28125 19.5 40.21875 19.378906 41.140625 19.238281 C 49.878906 17.839844 56 14.679688 56 11 C 56 6.019531 44.800781 2 31 2 Z M 38 17.640625 C 35.839844 17.859375 33.5 18 31 18 C 28.5 18 26.160156 17.859375 24 17.640625 C 14.058594 16.558594 8 13.359375 8 11 C 8 8.140625 16.960938 4 31 4 C 45.039062 4 54 8.140625 54 11 C 54 13.359375 47.941406 16.558594 38 17.640625 Z M 38 17.640625 "/>
    </g>
  </defs>
  <g id="surface1">
    <path style=" stroke:none;fill-rule:nonzero;fill:rgb(40.392157%,69.411767%,90.196079%);fill-opacity:1;" d="M 31 62 C 44.800781 62 56 57.980469 56 53 C 56 48.019531 44.800781 44 31 44 C 17.199219 44 6 48.019531 6 53 C 6 57.980469 17.199219 62 31 62 Z M 31 62 "/>
    <path style=" stroke:none;fill-rule:nonzero;fill:rgb(40.000001%,40.000001%,40.000001%);fill-opacity:1;" d="M 24 45 L 24 53 C 24 54.660156 27.140625 56 31 56 C 34.859375 56 38 54.660156 38 53 L 38 45 Z M 24 45 "/>
    <path style="fill-rule:nonzero;fill:rgb(94.117647%,94.117647%,94.117647%);fill-opacity:1;stroke-width:0.208;stroke-linecap:butt;stroke-linejoin:miter;stroke:rgb(94.117647%,94.117647%,94.117647%);stroke-opacity:1;stroke-miterlimit:10;" d="M 15.410156 22.910156 C 17.359375 22.910156 18.949219 22.349609 18.949219 21.660156 C 18.949219 20.970703 17.369141 20.410156 15.410156 20.410156 C 13.460938 20.410156 11.869141 20.970703 11.869141 21.660156 C 11.869141 22.349609 13.449219 22.910156 15.410156 22.910156 Z M 15.410156 22.910156 " transform="matrix(2,0,0,2,0,0)"/>
    <path style=" stroke:none;fill-rule:nonzero;fill:rgb(95.294118%,95.294118%,95.294118%);fill-opacity:1;" d="M 31 47 C 40.941406 47 49 43.859375 49 40 C 49 36.140625 40.941406 33 31 33 C 21.058594 33 13 36.140625 13 40 C 13 43.859375 21.058594 47 31 47 Z M 31 47 "/>
    <path style=" stroke:none;fill-rule:nonzero;fill:rgb(40.000001%,40.000001%,40.000001%);fill-opacity:1;" d="M 31 34 C 41.378906 34 48 37.558594 48 40 C 48 42.441406 41.378906 46 31 46 C 20.621094 46 14 42.441406 14 40 C 14 37.558594 20.621094 34 31 34 Z M 31 32 C 20.5 32 12 35.578125 12 40 C 12 44.421875 20.5 48 31 48 C 41.5 48 50 44.421875 50 40 C 50 35.578125 41.5 32 31 32 Z M 31 32 "/>
    <path style=" stroke:none;fill-rule:nonzero;fill:rgb(40.000001%,40.000001%,40.000001%);fill-opacity:1;" d="M 24 31 L 24 39 C 24 40.660156 27.140625 42 31 42 C 34.859375 42 38 40.660156 38 39 L 38 31 Z M 24 31 "/>
    <path style=" stroke:none;fill-rule:nonzero;fill:rgb(95.294118%,95.294118%,95.294118%);fill-opacity:1;" d="M 31 33 C 40.941406 33 49 29.859375 49 26 C 49 22.140625 40.941406 19 31 19 C 21.058594 19 13 22.140625 13 26 C 13 29.859375 21.058594 33 31 33 Z M 31 33 "/>
    <path style=" stroke:none;fill-rule:nonzero;fill:rgb(40.000001%,40.000001%,40.000001%);fill-opacity:1;" d="M 41.140625 19.238281 C 40.160156 18.980469 39.101562 18.738281 38 18.578125 C 35.839844 18.199219 33.480469 18 31 18 C 28.519531 18 26.160156 18.199219 24 18.578125 C 22.898438 18.738281 21.839844 18.980469 20.859375 19.238281 C 15.539062 20.640625 12 23.160156 12 26 C 12 30.421875 20.5 34 31 34 C 41.5 34 50 30.421875 50 26 C 50 23.160156 46.460938 20.640625 41.140625 19.238281 Z M 31 32 C 20.621094 32 14 28.441406 14 26 C 14 24.160156 17.738281 21.699219 24 20.601562 C 26.058594 20.21875 28.421875 20 31 20 C 33.578125 20 35.941406 20.21875 38 20.601562 C 44.261719 21.699219 48 24.160156 48 26 C 48 28.441406 41.378906 32 31 32 Z M 31 32 "/>
    <path style=" stroke:none;fill-rule:nonzero;fill:rgb(40.000001%,40.000001%,40.000001%);fill-opacity:1;" d="M 24 17 L 24 25 C 24 26.660156 27.140625 28 31 28 C 34.859375 28 38 26.660156 38 25 L 38 17 Z M 24 17 "/>
    <path style=" stroke:none;fill-rule:nonzero;fill:rgb(80.000001%,36.078432%,36.078432%);fill-opacity:1;" d="M 37.460938 9.839844 C 37.820312 10.199219 38 10.601562 38 11 C 38 11.398438 37.820312 11.800781 37.460938 12.160156 C 37.101562 12.519531 36.578125 12.839844 35.941406 13.121094 C 34.621094 13.679688 32.878906 14 31 14 C 29.140625 14 27.378906 13.679688 26.039062 13.121094 C 25.398438 12.839844 24.898438 12.519531 24.558594 12.160156 C 24.179688 11.800781 24 11.398438 24 11 C 24 10.601562 24.179688 10.199219 24.558594 9.839844 C 24.898438 9.480469 25.398438 9.160156 26.058594 8.878906 C 27.378906 8.320312 29.140625 8 31 8 C 32.878906 8 34.621094 8.320312 35.941406 8.878906 C 36.578125 9.160156 37.101562 9.480469 37.460938 9.839844 Z M 37.460938 9.839844 "/>
    <path style=" stroke:none;fill-rule:nonzero;fill:rgb(80.000001%,36.078432%,36.078432%);fill-opacity:1;" d="M 31 2 C 17.199219 2 6 6.019531 6 11 C 6 14.679688 12.121094 17.839844 20.859375 19.238281 C 21.78125 19.378906 22.71875 19.5 23.699219 19.621094 C 23.800781 19.621094 23.898438 19.640625 24 19.640625 C 26.21875 19.878906 28.578125 20 31 20 C 33.421875 20 35.78125 19.878906 38 19.640625 C 38.101562 19.640625 38.199219 19.621094 38.300781 19.621094 C 39.28125 19.5 40.21875 19.378906 41.140625 19.238281 C 49.878906 17.839844 56 14.679688 56 11 C 56 6.019531 44.800781 2 31 2 Z M 38.160156 12.859375 C 37.71875 13.320312 37.101562 13.71875 36.339844 14.039062 C 34.898438 14.660156 33 15 31 15 C 29 15 27.101562 14.660156 25.660156 14.039062 C 24.898438 13.71875 24.28125 13.320312 23.839844 12.859375 C 23.300781 12.320312 23 11.660156 23 11 C 23 10.339844 23.300781 9.679688 23.839844 9.140625 C 24.28125 8.679688 24.898438 8.28125 25.660156 7.960938 C 28.539062 6.71875 33.460938 6.71875 36.339844 7.960938 C 37.101562 8.28125 37.71875 8.679688 38.160156 9.121094 C 38.71875 9.679688 39 10.339844 39 11 C 39 11.660156 38.71875 12.320312 38.160156 12.859375 Z M 38.160156 12.859375 "/>
    <path style=" stroke:none;fill-rule:nonzero;fill:rgb(40.000001%,40.000001%,40.000001%);fill-opacity:1;" d="M 38 11 C 38 11.398438 37.820312 11.800781 37.460938 12.160156 C 37.101562 12.519531 36.578125 12.839844 35.941406 13.121094 C 34.621094 13.679688 32.878906 14 31 14 C 29.140625 14 27.378906 13.679688 26.039062 13.121094 C 25.398438 12.839844 24.898438 12.519531 24.558594 12.160156 C 24.179688 11.800781 24 11.398438 24 11 C 24 10.601562 24.179688 10.199219 24.558594 9.839844 C 24.898438 9.480469 25.398438 9.160156 26.058594 8.878906 C 27.378906 8.320312 29.140625 8 31 8 C 32.878906 8 34.621094 8.320312 35.941406 8.878906 C 36.578125 9.160156 37.101562 9.480469 37.460938 9.839844 C 37.820312 10.199219 38 10.601562 38 11 Z M 38 11 "/>
    <use xlink:href="#surface5" mask="url(#mask0)"/>
    <use xlink:href="#surface8" mask="url(#mask1)"/>
  </g>
</svg>