<?xml version="1.0" encoding="UTF-8" standalone="yes"?>
<svg xmlns="http://www.w3.org/2000/svg" xmlns:xlink="http://www.w3.org/1999/xlink" width="64" height="64" viewBox="0 0 64 64" version="1.1">
  <g id="surface1">
    <path style=" stroke:none;fill-rule:nonzero;fill:rgb(95.294118%,95.294118%,95.294118%);fill-opacity:1;" d="M 3 29.578125 L 3 3 L 29.578125 3 L 60.578125 34 L 34 60.578125 Z M 14 9 C 11.238281 9 9 11.238281 9 14 C 9 16.761719 11.238281 19 14 19 C 16.761719 19 19 16.761719 19 14 C 19 11.238281 16.761719 9 14 9 Z M 14 9 "/>
    <path style=" stroke:none;fill-rule:nonzero;fill:rgb(40.000001%,40.000001%,40.000001%);fill-opacity:1;" d="M 29.179688 4 L 59.179688 34 L 34 59.179688 L 4 29.179688 L 4 4 Z M 14 20 C 17.300781 20 20 17.300781 20 14 C 20 10.699219 17.300781 8 14 8 C 10.699219 8 8 10.699219 8 14 C 8 17.300781 10.699219 20 14 20 Z M 30 2 L 2 2 L 2 30 L 34 62 L 62 34 Z M 14 18 C 11.800781 18 10 16.199219 10 14 C 10 11.800781 11.800781 10 14 10 C 16.199219 10 18 11.800781 18 14 C 18 16.199219 16.199219 18 14 18 Z M 14 18 "/>
    <path style=" stroke:none;fill-rule:nonzero;fill:rgb(40.000001%,40.000001%,40.000001%);fill-opacity:1;" d="M 14 8 C 10.699219 8 8 10.699219 8 14 C 8 17.300781 10.699219 20 14 20 C 17.300781 20 20 17.300781 20 14 C 20 10.699219 17.300781 8 14 8 Z M 14 18 C 11.800781 18 10 16.199219 10 14 C 10 11.800781 11.800781 10 14 10 C 16.199219 10 18 11.800781 18 14 C 18 16.199219 16.199219 18 14 18 Z M 14 18 "/>
    <path style=" stroke:none;fill-rule:nonzero;fill:rgb(40.000001%,40.000001%,40.000001%);fill-opacity:1;" d="M 28.707031 15.292969 L 27.292969 16.707031 L 47.289062 36.707031 L 48.703125 35.292969 Z M 28.707031 15.292969 "/>
    <path style=" stroke:none;fill-rule:nonzero;fill:rgb(40.000001%,40.000001%,40.000001%);fill-opacity:1;" d="M 28.703125 27.289062 L 27.289062 28.703125 L 40.285156 41.699219 L 41.699219 40.285156 Z M 28.703125 27.289062 "/>
    <path style=" stroke:none;fill-rule:nonzero;fill:rgb(40.000001%,40.000001%,40.000001%);fill-opacity:1;" d="M 22.707031 33.292969 L 21.289062 34.707031 L 32.292969 45.707031 L 33.707031 44.292969 Z M 22.707031 33.292969 "/>
    <path style=" stroke:none;fill-rule:nonzero;fill:rgb(40.000001%,40.000001%,40.000001%);fill-opacity:1;" d="M 25.300781 21.285156 L 21.296875 25.289062 L 22.710938 26.703125 L 26.714844 22.699219 Z M 25.300781 21.285156 "/>
    <path style=" stroke:none;fill-rule:nonzero;fill:rgb(40.000001%,40.000001%,40.000001%);fill-opacity:1;" d="M 19.300781 27.285156 L 15.296875 31.289062 L 16.710938 32.703125 L 20.714844 28.699219 Z M 19.300781 27.285156 "/>
  </g>
</svg>