<?xml version="1.0" encoding="UTF-8" standalone="yes"?>
<svg xmlns="http://www.w3.org/2000/svg" xmlns:xlink="http://www.w3.org/1999/xlink" width="64" height="64" viewBox="0 0 64 64" version="1.1">
  <defs>
    <filter id="alpha" filterUnits="objectBoundingBox" x="0%" y="0%" width="100%" height="100%">
      <feColorMatrix type="matrix" in="SourceGraphic" values="0 0 0 0 1 0 0 0 0 1 0 0 0 0 1 0 0 0 1 0"/>
    </filter>
    <mask id="mask0">
      <g filter="url(#alpha)">
        <rect x="0" y="0" width="64" height="64" style="fill:rgb(0%,0%,0%);fill-opacity:0.2;stroke:none;"/>
      </g>
    </mask>
    <mask id="mask1">
      <g filter="url(#alpha)">
        <rect x="0" y="0" width="64" height="64" style="fill:rgb(0%,0%,0%);fill-opacity:0.2;stroke:none;"/>
      </g>
    </mask>
    <mask id="mask2">
      <g filter="url(#alpha)">
        <rect x="0" y="0" width="64" height="64" style="fill:rgb(0%,0%,0%);fill-opacity:0.2;stroke:none;"/>
      </g>
    </mask>
    <mask id="mask3">
      <g filter="url(#alpha)">
        <rect x="0" y="0" width="64" height="64" style="fill:rgb(0%,0%,0%);fill-opacity:0.2;stroke:none;"/>
      </g>
    </mask>
    <mask id="mask4">
      <g filter="url(#alpha)">
        <rect x="0" y="0" width="64" height="64" style="fill:rgb(0%,0%,0%);fill-opacity:0.2;stroke:none;"/>
      </g>
    </mask>
    <clipPath id="clip1">
      <rect x="0" y="0" width="64" height="64"/>
    </clipPath>
    <clipPath id="clip2">
      <rect x="0" y="0" width="64" height="64"/>
    </clipPath>
    <clipPath id="clip3">
      <rect x="0" y="0" width="64" height="64"/>
    </clipPath>
    <clipPath id="clip4">
      <rect x="0" y="0" width="64" height="64"/>
    </clipPath>
    <clipPath id="clip5">
      <rect x="0" y="0" width="64" height="64"/>
    </clipPath>
    <g id="surface5" clip-path="url(#clip1)">
      <path style=" stroke:none;fill-rule:nonzero;fill:rgb(0%,0%,0%);fill-opacity:1;" d="M 34.5 22 C 34.679688 21.320312 34.921875 20.640625 35.179688 20 L 0 20 L 0 52 L 10 52 L 10 50 L 2 50 L 2 22 Z M 34.5 22 "/>
    </g>
    <g id="surface8" clip-path="url(#clip2)">
      <path style=" stroke:none;fill-rule:nonzero;fill:rgb(0%,0%,0%);fill-opacity:1;" d="M 45.28125 10.71875 C 44.640625 10.921875 44 11.160156 43.398438 11.421875 C 42.441406 9.398438 40.378906 8 38 8 C 34.699219 8 32 10.699219 32 14 L 32 20 L 30 20 L 30 14 C 30 9.578125 33.578125 6 38 6 C 41.238281 6 44.039062 7.941406 45.28125 10.71875 Z M 45.28125 10.71875 "/>
    </g>
    <g id="surface11" clip-path="url(#clip3)">
      <path style=" stroke:none;fill-rule:nonzero;fill:rgb(0%,0%,0%);fill-opacity:1;" d="M 51.441406 10.058594 C 50.980469 10.019531 50.480469 10 50 10 C 49.78125 10 49.539062 10 49.320312 10.019531 C 47.679688 5.359375 43.21875 2 38 2 C 31.378906 2 26 7.378906 26 14 L 26 20 L 24 20 L 24 14 C 24 6.261719 30.261719 0 38 0 C 44.378906 0 49.738281 4.238281 51.441406 10.058594 Z M 51.441406 10.058594 "/>
    </g>
    <g id="surface14" clip-path="url(#clip4)">
      <path style=" stroke:none;fill-rule:nonzero;fill:rgb(0%,0%,0%);fill-opacity:1;" d="M 12 32 L 12 64 L 52 64 L 52 32 Z M 50 62 L 14 62 L 14 34 L 50 34 Z M 50 62 "/>
    </g>
    <g id="surface17" clip-path="url(#clip5)">
      <path style=" stroke:none;fill-rule:nonzero;fill:rgb(0%,0%,0%);fill-opacity:1;" d="M 50 12 C 42.261719 12 36 18.261719 36 26 L 36 32 L 38 32 L 38 26 C 38 19.378906 43.378906 14 50 14 C 56.621094 14 62 19.378906 62 26 L 62 30 L 58 30 L 58 26 C 58 21.578125 54.421875 18 50 18 C 45.578125 18 42 21.578125 42 26 L 42 32 L 44 32 L 44 26 C 44 22.699219 46.699219 20 50 20 C 53.300781 20 56 22.699219 56 26 L 56 32 L 64 32 L 64 26 C 64 18.261719 57.738281 12 50 12 Z M 50 12 "/>
    </g>
  </defs>
  <g id="surface1">
    <path style=" stroke:none;fill-rule:nonzero;fill:rgb(100%,66.666669%,0%);fill-opacity:1;" d="M 35.179688 20 C 34.921875 20.640625 34.679688 21.320312 34.5 22 C 34.179688 23.28125 34 24.621094 34 26 L 34 30 L 10 30 L 10 52 L 0 52 L 0 20 Z M 35.179688 20 "/>
    <path style=" stroke:none;fill-rule:nonzero;fill:rgb(100%,66.666669%,0%);fill-opacity:1;" d="M 51.441406 10.058594 C 50.980469 10.019531 50.480469 10 50 10 C 49.78125 10 49.539062 10 49.320312 10.019531 C 47.921875 10.078125 46.558594 10.320312 45.28125 10.71875 C 44.640625 10.921875 44 11.160156 43.398438 11.421875 C 42.441406 9.398438 40.378906 8 38 8 C 34.699219 8 32 10.699219 32 14 L 32 20 L 24 20 L 24 14 C 24 6.261719 30.261719 0 38 0 C 44.378906 0 49.738281 4.238281 51.441406 10.058594 Z M 51.441406 10.058594 "/>
    <path style=" stroke:none;fill-rule:nonzero;fill:rgb(100%,66.666669%,0%);fill-opacity:1;" d="M 52 32 L 12 32 L 12 64 L 52 64 Z M 52 32 "/>
    <path style=" stroke:none;fill-rule:nonzero;fill:rgb(100%,66.666669%,0%);fill-opacity:1;" d="M 44 32 L 44 26 C 44 22.699219 46.699219 20 50 20 C 53.300781 20 56 22.699219 56 26 L 56 32 L 64 32 L 64 26 C 64 18.261719 57.738281 12 50 12 C 42.261719 12 36 18.261719 36 26 L 36 32 Z M 44 32 "/>
    <path style=" stroke:none;fill-rule:nonzero;fill:rgb(100%,100%,100%);fill-opacity:1;" d="M 34 42 L 30 42 L 30 54 L 34 54 Z M 34 42 "/>
    <use xlink:href="#surface5" mask="url(#mask0)"/>
    <use xlink:href="#surface8" mask="url(#mask1)"/>
    <use xlink:href="#surface11" mask="url(#mask2)"/>
    <use xlink:href="#surface14" mask="url(#mask3)"/>
    <use xlink:href="#surface17" mask="url(#mask4)"/>
  </g>
</svg>