<?xml version="1.0" encoding="UTF-8" standalone="yes"?>
<svg xmlns="http://www.w3.org/2000/svg" xmlns:xlink="http://www.w3.org/1999/xlink" width="66" height="64" viewBox="0 0 66 64" version="1.1">
  <g id="surface1">
    <path style=" stroke:none;fill-rule:nonzero;fill:rgb(73.333335%,73.333335%,73.333335%);fill-opacity:1;" d="M 55.738281 56 L 4.421875 56 L 2.082031 52 L 58.078125 52 Z M 55.738281 56 "/>
    <path style=" stroke:none;fill-rule:nonzero;fill:rgb(85.09804%,85.09804%,85.09804%);fill-opacity:1;" d="M 56.921875 44 L 3.238281 44 L 2.082031 52 L 58.078125 52 Z M 56.921875 44 "/>
    <path style=" stroke:none;fill-rule:nonzero;fill:rgb(95.294118%,95.294118%,95.294118%);fill-opacity:1;" d="M 56.921875 44 L 3.242188 44 L 14.582031 18 L 31.898438 18 L 41.859375 24.21875 L 49.082031 35.78125 L 51.582031 31.761719 Z M 56.921875 44 "/>
    <path style=" stroke:none;fill-rule:nonzero;fill:rgb(40.000001%,40.000001%,40.000001%);fill-opacity:1;" d="M 60.058594 51.71875 L 58.898438 43.71875 L 58.859375 43.441406 L 58.738281 43.199219 L 52.859375 29.71875 L 51.578125 31.761719 L 56.921875 44 L 58.078125 52 L 55.738281 56 L 4.421875 56 L 2.078125 52 L 3.238281 44 L 14.578125 18 L 31.898438 18 L 30.300781 17 L 31.898438 16 L 13.28125 16 L 12.738281 17.199219 L 1.421875 43.199219 L 1.300781 43.441406 L 1.261719 43.71875 L 0.101562 51.71875 L 0 52.398438 L 0.359375 53 L 2.679688 57 L 3.261719 58 L 56.898438 58 L 57.480469 57 L 59.800781 53 L 60.160156 52.398438 Z M 60.058594 51.71875 "/>
    <path style=" stroke:none;fill-rule:nonzero;fill:rgb(40.000001%,40.000001%,40.000001%);fill-opacity:1;" d="M 20.078125 24 C 23.398438 24 26.078125 23.101562 26.078125 22 C 26.078125 20.898438 23.398438 20 20.078125 20 C 16.761719 20 14.082031 20.898438 14.082031 22 C 14.082031 23.101562 16.761719 24 20.078125 24 Z M 20.078125 24 "/>
    <path style=" stroke:none;fill-rule:nonzero;fill:rgb(40.000001%,40.000001%,40.000001%);fill-opacity:1;" d="M 12.082031 48 L 8.082031 48 L 8.082031 62 L 12.082031 62 Z M 12.082031 48 "/>
    <path style=" stroke:none;fill-rule:nonzero;fill:rgb(40.000001%,40.000001%,40.000001%);fill-opacity:1;" d="M 20.078125 48 L 16.082031 48 L 16.082031 62 L 20.078125 62 Z M 20.078125 48 "/>
    <path style=" stroke:none;fill-rule:nonzero;fill:rgb(40.000001%,40.000001%,40.000001%);fill-opacity:1;" d="M 28.078125 48 L 24.078125 48 L 24.078125 62 L 28.078125 62 Z M 28.078125 48 "/>
    <path style=" stroke:none;fill-rule:nonzero;fill:rgb(40.000001%,40.000001%,40.000001%);fill-opacity:1;" d="M 36.078125 48 L 32.078125 48 L 32.078125 62 L 36.078125 62 Z M 36.078125 48 "/>
    <path style=" stroke:none;fill-rule:nonzero;fill:rgb(40.000001%,40.000001%,40.000001%);fill-opacity:1;" d="M 44.078125 48 L 40.078125 48 L 40.078125 62 L 44.078125 62 Z M 44.078125 48 "/>
    <path style=" stroke:none;fill-rule:nonzero;fill:rgb(40.000001%,40.000001%,40.000001%);fill-opacity:1;" d="M 52.078125 48 L 48.078125 48 L 48.078125 62 L 52.078125 62 Z M 52.078125 48 "/>
    <path style=" stroke:none;fill-rule:nonzero;fill:rgb(20%,20%,20%);fill-opacity:1;" d="M 64.078125 17 L 56.078125 12 L 56.078125 16 L 50.078125 16 L 50.078125 10 L 54.078125 10 L 49.078125 2 L 44.078125 10 L 48.078125 10 L 48.078125 16 L 42.078125 16 L 42.078125 12 L 34.078125 17 L 42.078125 22 L 42.078125 18 L 48.078125 18 L 48.078125 24 L 44.078125 24 L 49.078125 32 L 54.078125 24 L 50.078125 24 L 50.078125 18 L 56.078125 18 L 56.078125 22 Z M 64.078125 17 "/>
  </g>
</svg>