<?xml version="1.0" encoding="UTF-8" standalone="yes"?>
<svg xmlns="http://www.w3.org/2000/svg" xmlns:xlink="http://www.w3.org/1999/xlink" width="64" height="64" viewBox="0 0 64 64" version="1.1">
  <defs>
    <filter id="alpha" filterUnits="objectBoundingBox" x="0%" y="0%" width="100%" height="100%">
      <feColorMatrix type="matrix" in="SourceGraphic" values="0 0 0 0 1 0 0 0 0 1 0 0 0 0 1 0 0 0 1 0"/>
    </filter>
    <mask id="mask0">
      <g filter="url(#alpha)">
        <rect x="0" y="0" width="64" height="64" style="fill:rgb(0%,0%,0%);fill-opacity:0.5;stroke:none;"/>
      </g>
    </mask>
    <mask id="mask1">
      <g filter="url(#alpha)">
        <rect x="0" y="0" width="64" height="64" style="fill:rgb(0%,0%,0%);fill-opacity:0.5;stroke:none;"/>
      </g>
    </mask>
    <mask id="mask2">
      <g filter="url(#alpha)">
        <rect x="0" y="0" width="64" height="64" style="fill:rgb(0%,0%,0%);fill-opacity:0.5;stroke:none;"/>
      </g>
    </mask>
    <clipPath id="clip1">
      <rect x="0" y="0" width="64" height="64"/>
    </clipPath>
    <clipPath id="clip2">
      <rect x="0" y="0" width="64" height="64"/>
    </clipPath>
    <clipPath id="clip3">
      <rect x="0" y="0" width="64" height="64"/>
    </clipPath>
    <g id="surface5" clip-path="url(#clip1)">
      <path style=" stroke:none;fill-rule:nonzero;fill:rgb(40.000001%,40.000001%,40.000001%);fill-opacity:1;" d="M 14 24 L 14 26.300781 C 11.800781 27.480469 9.738281 27.878906 7.921875 27.878906 C 5.378906 27.878906 3.320312 27.078125 2 26.378906 L 2 24.078125 C 3.300781 25 8.039062 27.738281 14 24 Z M 14 24 "/>
    </g>
    <g id="surface8" clip-path="url(#clip2)">
      <path style=" stroke:none;fill-rule:nonzero;fill:rgb(40.000001%,40.000001%,40.000001%);fill-opacity:1;" d="M 28 24 L 28 26.300781 C 25.800781 27.480469 23.738281 27.878906 21.921875 27.878906 C 19.378906 27.878906 17.320312 27.078125 16 26.378906 L 16 24.078125 C 17.300781 25 22.039062 27.738281 28 24 Z M 28 24 "/>
    </g>
    <g id="surface11" clip-path="url(#clip3)">
      <path style=" stroke:none;fill-rule:nonzero;fill:rgb(40.000001%,40.000001%,40.000001%);fill-opacity:1;" d="M 42 24 L 42 26.300781 C 39.800781 27.480469 37.738281 27.878906 35.921875 27.878906 C 33.378906 27.878906 31.320312 27.078125 30 26.378906 L 30 24.078125 C 31.300781 25 36.039062 27.738281 42 24 Z M 42 24 "/>
    </g>
  </defs>
  <g id="surface1">
    <path style=" stroke:none;fill-rule:nonzero;fill:rgb(40.000001%,40.000001%,40.000001%);fill-opacity:1;" d="M 8 60 C 6.679688 60 5.359375 59.78125 4.121094 59.320312 C 2.878906 58.898438 1.78125 58.320312 0.78125 57.558594 L 0 56.960938 L 0 13.140625 L 13.179688 0 L 28 0 L 28 44.820312 L 15.320312 57.5 L 15.21875 57.578125 C 14.28125 58.300781 13.199219 58.859375 11.859375 59.320312 C 10.640625 59.78125 9.320312 60 8 60 Z M 8 60 "/>
    <path style=" stroke:none;fill-rule:nonzero;fill:rgb(73.333335%,73.333335%,73.333335%);fill-opacity:1;" d="M 26 44 L 14 56 L 14 14 L 26 2 Z M 26 44 "/>
    <path style=" stroke:none;fill-rule:nonzero;fill:rgb(95.294118%,95.294118%,95.294118%);fill-opacity:1;" d="M 14 2 L 2 14 C 3.679688 15.261719 5.738281 16.039062 8 16.039062 C 10.261719 16.039062 12.320312 15.261719 14 14 L 26 2 Z M 14 2 "/>
    <path style=" stroke:none;fill-rule:nonzero;fill:rgb(85.09804%,85.09804%,85.09804%);fill-opacity:1;" d="M 14 13.960938 L 14 55.960938 C 13.160156 56.601562 12.238281 57.078125 11.199219 57.441406 C 10.199219 57.800781 9.121094 58 8 58 C 6.878906 58 5.800781 57.800781 4.800781 57.441406 C 3.761719 57.078125 2.839844 56.601562 2 55.960938 L 2 13.960938 C 2.839844 14.601562 3.761719 15.078125 4.800781 15.441406 C 5.800781 15.800781 6.878906 16 8 16 C 9.121094 16 10.199219 15.800781 11.199219 15.441406 C 12.238281 15.078125 13.160156 14.601562 14 13.960938 Z M 14 13.960938 "/>
    <path style=" stroke:none;fill-rule:nonzero;fill:rgb(40.000001%,40.000001%,40.000001%);fill-opacity:1;" d="M 42 0 L 42 36.359375 L 40 34.339844 L 37.421875 31.761719 L 31.761719 37.421875 L 37.601562 43.261719 L 31.898438 48.921875 C 31.121094 49.71875 30.460938 50.621094 30 51.601562 C 29.898438 51.78125 29.820312 51.960938 29.738281 52.160156 C 29.359375 53.058594 29.121094 54 29.019531 54.980469 C 29.019531 55 29.019531 55 29.019531 55 C 29 55.339844 28.980469 55.660156 28.980469 56 C 28.980469 56.558594 29.019531 57.101562 29.121094 57.640625 C 29.078125 57.679688 29.058594 57.699219 29.019531 57.71875 C 28.121094 58.398438 27.101562 58.898438 25.859375 59.339844 C 24.640625 59.78125 23.320312 60 22 60 C 20.679688 60 19.359375 59.78125 18.121094 59.320312 C 16.980469 58.941406 15.960938 58.398438 15.019531 57.71875 C 14.941406 57.679688 14.859375 57.621094 14.78125 57.558594 L 14 56.960938 L 14 13.140625 L 25.179688 2 L 27.179688 0 Z M 42 0 "/>
    <path style=" stroke:none;fill-rule:nonzero;fill:rgb(73.333335%,73.333335%,73.333335%);fill-opacity:1;" d="M 40 2 L 40 34.339844 L 37.421875 31.761719 L 31.761719 37.421875 L 37.601562 43.261719 L 31.898438 48.921875 C 31.121094 49.71875 30.460938 50.621094 30 51.601562 C 29.898438 51.78125 29.820312 51.960938 29.738281 52.160156 C 29.359375 53.058594 29.121094 54 29.019531 54.980469 C 29.019531 55 29.019531 55 29.019531 55 L 28 56 L 28 14 Z M 40 2 "/>
    <path style=" stroke:none;fill-rule:nonzero;fill:rgb(95.294118%,95.294118%,95.294118%);fill-opacity:1;" d="M 28 2 L 16 14 C 17.679688 15.261719 19.738281 16.039062 22 16.039062 C 24.261719 16.039062 26.320312 15.261719 28 14 L 40 2 Z M 28 2 "/>
    <path style=" stroke:none;fill-rule:nonzero;fill:rgb(85.09804%,85.09804%,85.09804%);fill-opacity:1;" d="M 28 13.960938 L 28 55.960938 C 27.160156 56.601562 26.238281 57.078125 25.199219 57.441406 C 24.199219 57.800781 23.121094 58 22 58 C 20.878906 58 19.800781 57.800781 18.800781 57.441406 C 17.761719 57.078125 16.839844 56.601562 16 55.960938 L 16 13.960938 C 16.839844 14.601562 17.761719 15.078125 18.800781 15.441406 C 19.800781 15.800781 20.878906 16 22 16 C 23.121094 16 24.199219 15.800781 25.199219 15.441406 C 26.238281 15.078125 27.160156 14.601562 28 13.960938 Z M 28 13.960938 "/>
    <path style=" stroke:none;fill-rule:nonzero;fill:rgb(40.000001%,40.000001%,40.000001%);fill-opacity:1;" d="M 56 0 L 56 34.761719 C 55.320312 34.761719 54.660156 34.820312 54 34.960938 C 52.441406 35.28125 50.980469 35.960938 49.738281 36.960938 L 46.941406 39.621094 L 46.140625 40.5 L 42 36.359375 L 40 34.339844 L 37.421875 31.761719 L 31.761719 37.421875 L 37.601562 43.261719 L 31.898438 48.921875 C 31.121094 49.71875 30.460938 50.621094 30 51.601562 C 29.898438 51.78125 29.820312 51.960938 29.738281 52.160156 C 29.359375 53.058594 29.121094 54 29.019531 54.980469 C 29.019531 55 29.019531 55 29.019531 55 C 29 55.339844 28.980469 55.660156 28.980469 56 C 28.980469 56.558594 29.019531 57.101562 29.121094 57.640625 C 29.121094 57.699219 29.140625 57.761719 29.160156 57.820312 C 29.101562 57.800781 29.058594 57.761719 29.019531 57.71875 C 28.941406 57.679688 28.859375 57.621094 28.78125 57.558594 L 28 56.960938 L 28 13.140625 L 39.179688 2 L 41.179688 0 Z M 56 0 "/>
    <path style=" stroke:none;fill-rule:nonzero;fill:rgb(73.333335%,73.333335%,73.333335%);fill-opacity:1;" d="M 54 2 L 54 34.960938 C 52.441406 35.28125 50.980469 35.960938 49.738281 36.960938 L 46.941406 39.621094 L 46.140625 40.5 L 42 36.359375 L 42 14 Z M 54 2 "/>
    <path style=" stroke:none;fill-rule:nonzero;fill:rgb(95.294118%,95.294118%,95.294118%);fill-opacity:1;" d="M 42 2 L 30 14 C 31.679688 15.261719 33.738281 16.039062 36 16.039062 C 38.261719 16.039062 40.320312 15.261719 42 14 L 54 2 Z M 42 2 "/>
    <path style=" stroke:none;fill-rule:nonzero;fill:rgb(85.09804%,85.09804%,85.09804%);fill-opacity:1;" d="M 42 13.960938 L 42 36.359375 L 40 34.339844 L 37.421875 31.761719 L 31.761719 37.421875 L 37.601562 43.261719 L 31.898438 48.921875 C 31.121094 49.71875 30.460938 50.621094 30 51.601562 L 30 13.960938 C 30 13.960938 30.019531 13.960938 30.019531 13.980469 C 30.859375 14.601562 31.761719 15.078125 32.800781 15.441406 C 33.800781 15.800781 34.878906 16 36 16 C 37.121094 16 38.199219 15.800781 39.199219 15.441406 C 39.480469 15.339844 39.738281 15.238281 40 15.121094 C 40.71875 14.820312 41.378906 14.441406 42 13.960938 Z M 42 13.960938 "/>
    <path style=" stroke:none;fill-rule:nonzero;fill:rgb(90.196079%,49.411765%,20.784314%);fill-opacity:1;" d="M 49.640625 56.71875 L 46.761719 59.539062 L 44.640625 61.660156 C 43.902344 62.398438 43 62.980469 42.039062 63.398438 C 41.058594 63.800781 40.019531 64 38.980469 64 C 37.921875 64 36.878906 63.800781 35.921875 63.398438 C 34.941406 62.980469 34.058594 62.398438 33.320312 61.660156 C 32.582031 60.917969 31.980469 60.019531 31.582031 59.058594 C 31.179688 58.078125 30.980469 57.039062 30.980469 56 C 30.980469 54.941406 31.179688 53.898438 31.582031 52.941406 C 31.980469 51.960938 32.582031 51.078125 33.320312 50.339844 L 38.300781 45.378906 L 41.160156 48.238281 L 36.242188 53.179688 C 35.539062 53.941406 35.179688 54.941406 35.199219 55.960938 C 35.242188 56.980469 35.660156 57.960938 36.378906 58.679688 C 37.101562 59.417969 38.082031 59.839844 39.121094 59.859375 C 40.140625 59.878906 41.140625 59.5 41.902344 58.820312 L 46.820312 53.898438 Z M 49.640625 56.71875 "/>
    <path style=" stroke:none;fill-rule:nonzero;fill:rgb(90.196079%,49.411765%,20.784314%);fill-opacity:1;" d="M 64 44.660156 C 64.019531 46.761719 63.238281 48.761719 61.800781 50.28125 L 59.582031 52.5 L 56.761719 49.679688 L 58.941406 47.601562 C 59.679688 46.839844 60.101562 45.820312 60.101562 44.761719 C 60.101562 43.699219 59.679688 42.679688 58.941406 41.941406 C 58.179688 41.179688 57.160156 40.761719 56.101562 40.761719 C 55.039062 40.761719 54.019531 41.179688 53.28125 41.941406 L 51.859375 43.359375 L 51.160156 44.078125 L 48.238281 41.160156 L 48.421875 40.960938 L 50.5 38.960938 C 52 37.519531 54.019531 36.738281 56.101562 36.761719 C 58.199219 36.78125 60.179688 37.640625 61.660156 39.101562 C 63.140625 40.578125 63.980469 42.578125 64 44.660156 Z M 64 44.660156 "/>
    <path style=" stroke:none;fill-rule:nonzero;fill:rgb(80.000001%,16.078432%,16.078432%);fill-opacity:1;" d="M 37.417969 34.589844 L 34.585938 37.417969 L 60.582031 63.410156 L 63.410156 60.582031 Z M 37.417969 34.589844 "/>
    <use xlink:href="#surface5" mask="url(#mask0)"/>
    <use xlink:href="#surface8" mask="url(#mask1)"/>
    <use xlink:href="#surface11" mask="url(#mask2)"/>
  </g>
</svg>