<?xml version="1.0" encoding="UTF-8" standalone="yes"?>
<svg xmlns="http://www.w3.org/2000/svg" xmlns:xlink="http://www.w3.org/1999/xlink" width="64" height="64" viewBox="0 0 64 64" version="1.1">
  <defs>
    <filter id="alpha" filterUnits="objectBoundingBox" x="0%" y="0%" width="100%" height="100%">
      <feColorMatrix type="matrix" in="SourceGraphic" values="0 0 0 0 1 0 0 0 0 1 0 0 0 0 1 0 0 0 1 0"/>
    </filter>
    <mask id="mask0">
      <g filter="url(#alpha)">
        <rect x="0" y="0" width="64" height="64" style="fill:rgb(0%,0%,0%);fill-opacity:0.2;stroke:none;"/>
      </g>
    </mask>
    <clipPath id="clip1">
      <rect x="0" y="0" width="64" height="64"/>
    </clipPath>
    <g id="surface5" clip-path="url(#clip1)">
      <path style=" stroke:none;fill-rule:nonzero;fill:rgb(0%,0%,0%);fill-opacity:1;" d="M 50 12 C 51.101562 12 52 12.898438 52 14 L 52 48 C 52 49.101562 51.101562 50 50 50 L 40 50 C 38.898438 50 38 49.101562 38 48 L 38 44 C 38 34.078125 29.921875 26 20 26 L 14 26 C 12.898438 26 12 25.101562 12 24 L 12 14 C 12 12.898438 12.898438 12 14 12 Z M 50 10 L 14 10 C 11.800781 10 10 11.800781 10 14 L 10 24 C 10 26.199219 11.800781 28 14 28 L 20 28 C 28.839844 28 36 35.160156 36 44 L 36 48 C 36 50.199219 37.800781 52 40 52 L 50 52 C 52.199219 52 54 50.199219 54 48 L 54 14 C 54 11.800781 52.199219 10 50 10 Z M 50 10 "/>
    </g>
  </defs>
  <g id="surface1">
    <path style=" stroke:none;fill-rule:nonzero;fill:rgb(40.000001%,40.000001%,40.000001%);fill-opacity:1;" d="M 32 2 L 32 4 L 36 4 L 36 2 Z M 20 2 L 20 4 L 24 4 L 24 2 Z M 8 2 L 8 4 L 12 4 L 12 2 Z M 14 2 L 14 4 L 18 4 L 18 2 Z M 26 2 L 26 4 L 30 4 L 30 2 Z M 54 2 L 46 2 L 46 4 L 54 4 C 57.300781 4 60 6.699219 60 10 L 60 52 C 60 55.300781 57.300781 58 54 58 L 50 58 L 50 60 L 54 60 C 58.421875 60 62 56.421875 62 52 L 62 10 C 62 5.578125 58.421875 2 54 2 Z M 30 52 L 30 44 C 30 38.480469 25.519531 34 20 34 L 10 34 C 6.699219 34 4 31.300781 4 28 L 4 8 L 2 8 L 2 28 C 2 32.421875 5.578125 36 10 36 L 20 36 C 24.421875 36 28 39.578125 28 44 L 28 52 C 28 56.421875 31.578125 60 36 60 L 40 60 L 40 58 L 36 58 C 32.699219 58 30 55.300781 30 52 Z M 30 52 "/>
    <path style=" stroke:none;fill-rule:nonzero;fill:rgb(35.294119%,78.039217%,49.411765%);fill-opacity:1;" d="M 36 48 L 36 44 C 36 35.160156 28.839844 28 20 28 L 14 28 C 11.800781 28 10 26.199219 10 24 L 10 14 C 10 11.800781 11.800781 10 14 10 L 50 10 C 52.199219 10 54 11.800781 54 14 L 54 48 C 54 50.199219 52.199219 52 50 52 L 40 52 C 37.800781 52 36 50.199219 36 48 Z M 36 48 "/>
    <path style=" stroke:none;fill-rule:nonzero;fill:rgb(9.019608%,56.078434%,90.196079%);fill-opacity:1;" d="M 48 56 L 42 56 L 42 62 L 48 62 Z M 48 56 "/>
    <path style=" stroke:none;fill-rule:nonzero;fill:rgb(9.019608%,56.078434%,90.196079%);fill-opacity:1;" d="M 44 0 L 38 0 L 38 6 L 44 6 Z M 44 0 "/>
    <path style=" stroke:none;fill-rule:nonzero;fill:rgb(9.019608%,56.078434%,90.196079%);fill-opacity:1;" d="M 6 0 L 0 0 L 0 6 L 6 6 Z M 6 0 "/>
    <use xlink:href="#surface5" mask="url(#mask0)"/>
  </g>
</svg>