<?xml version="1.0" encoding="UTF-8" standalone="yes"?>
<svg xmlns="http://www.w3.org/2000/svg" xmlns:xlink="http://www.w3.org/1999/xlink" width="64" height="64" viewBox="0 0 64 64" version="1.1">
  <defs>
    <filter id="alpha" filterUnits="objectBoundingBox" x="0%" y="0%" width="100%" height="100%">
      <feColorMatrix type="matrix" in="SourceGraphic" values="0 0 0 0 1 0 0 0 0 1 0 0 0 0 1 0 0 0 1 0"/>
    </filter>
    <mask id="mask0">
      <g filter="url(#alpha)">
        <rect x="0" y="0" width="64" height="64" style="fill:rgb(0%,0%,0%);fill-opacity:0.2;stroke:none;"/>
      </g>
    </mask>
    <mask id="mask1">
      <g filter="url(#alpha)">
        <rect x="0" y="0" width="64" height="64" style="fill:rgb(0%,0%,0%);fill-opacity:0.1;stroke:none;"/>
      </g>
    </mask>
    <clipPath id="clip1">
      <rect x="0" y="0" width="64" height="64"/>
    </clipPath>
    <clipPath id="clip2">
      <rect x="0" y="0" width="64" height="64"/>
    </clipPath>
    <g id="surface5" clip-path="url(#clip1)">
      <path style=" stroke:none;fill-rule:nonzero;fill:rgb(0%,0%,0%);fill-opacity:1;" d="M 0 30 L 0 60 L 34.378906 60 L 33.179688 58.800781 L 33.980469 58 L 2 58 L 2 32 L 50 32 L 50 41.980469 L 52 39.980469 L 52 30 Z M 0 30 "/>
    </g>
    <g id="surface8" clip-path="url(#clip2)">
      <path style=" stroke:none;fill-rule:nonzero;fill:rgb(0%,0%,0%);fill-opacity:1;" d="M 64 41.199219 L 58.800781 36 L 50 44.800781 L 41.199219 36 L 36 41.199219 L 44.800781 50 L 36 58.800781 L 41.199219 64 L 50 55.199219 L 58.800781 64 L 64 58.800781 L 55.199219 50 Z M 61.179688 58.800781 L 58.800781 61.179688 L 50 52.378906 L 41.199219 61.179688 L 38.820312 58.800781 L 47.621094 50 L 38.820312 41.199219 L 41.199219 38.820312 L 50 47.621094 L 58.800781 38.820312 L 61.179688 41.199219 L 52.378906 50 Z M 61.179688 58.800781 "/>
    </g>
  </defs>
  <g id="surface1">
    <path style=" stroke:none;fill-rule:nonzero;fill:rgb(95.294118%,95.294118%,95.294118%);fill-opacity:1;" d="M 52 18 L 52 39.980469 L 50 41.980469 L 41.199219 33.179688 L 33.179688 41.199219 L 41.980469 50 L 33.179688 58.800781 L 34.378906 60 L 0 60 L 0 0 L 34 0 L 34 18 Z M 52 18 "/>
    <path style=" stroke:none;fill-rule:nonzero;fill:rgb(40.000001%,40.000001%,40.000001%);fill-opacity:1;" d="M 34.378906 60 L 0 60 L 0 0 L 34 0 L 34 2 L 2 2 L 2 58 L 33.980469 58 L 33.179688 58.800781 Z M 34.378906 60 "/>
    <path style=" stroke:none;fill-rule:nonzero;fill:rgb(40.000001%,40.000001%,40.000001%);fill-opacity:1;" d="M 52 18 L 52 39.980469 L 50 41.980469 L 50 18 Z M 52 18 "/>
    <path style=" stroke:none;fill-rule:nonzero;fill:rgb(38.431373%,81.176472%,85.09804%);fill-opacity:1;" d="M 52 30 L 52 39.980469 L 50 41.980469 L 41.199219 33.179688 L 33.179688 41.199219 L 41.980469 50 L 33.179688 58.800781 L 34.378906 60 L 0 60 L 0 30 Z M 52 30 "/>
    <path style=" stroke:none;fill-rule:nonzero;fill:rgb(100%,100%,100%);fill-opacity:1;" d="M 41.761719 49.78125 C 39.300781 53.039062 36.460938 55.5 33.339844 55.5 C 29.078125 55.5 26.660156 50.78125 24.359375 46 C 24.28125 45.839844 24.199219 45.660156 24.121094 45.480469 C 23.878906 44.980469 23.640625 44.5 23.398438 44 C 21.78125 40.699219 20 37.5 18 37.5 C 14.980469 37.5 12.679688 40.320312 10.640625 44 C 10.261719 44.640625 9.921875 45.320312 9.578125 46 L 6.21875 46 C 6.558594 45.320312 6.878906 44.660156 7.21875 44 C 9.859375 38.960938 13.058594 34.5 18 34.5 C 22.121094 34.5 24.480469 39.28125 26.71875 44 C 26.761719 44.058594 26.78125 44.140625 26.820312 44.199219 C 27.101562 44.800781 27.398438 45.398438 27.699219 46 C 29.339844 49.320312 31.179688 52.5 33.339844 52.5 C 35.398438 52.5 37.578125 50.398438 39.601562 47.621094 Z M 41.761719 49.78125 "/>
    <path style=" stroke:none;fill-rule:nonzero;fill:rgb(40.000001%,40.000001%,40.000001%);fill-opacity:1;" d="M 34 18 L 52 18 L 34 0 Z M 34 18 "/>
    <path style=" stroke:none;fill-rule:nonzero;fill:rgb(100%,20%,20%);fill-opacity:1;" d="M 64 41.199219 L 58.800781 36 L 50 44.800781 L 41.199219 36 L 36 41.199219 L 44.800781 50 L 36 58.800781 L 41.199219 64 L 50 55.199219 L 58.800781 64 L 64 58.800781 L 55.199219 50 Z M 64 41.199219 "/>
    <use xlink:href="#surface5" mask="url(#mask0)"/>
    <use xlink:href="#surface8" mask="url(#mask1)"/>
  </g>
</svg>