<?xml version="1.0" encoding="UTF-8" standalone="yes"?>
<svg xmlns="http://www.w3.org/2000/svg" xmlns:xlink="http://www.w3.org/1999/xlink" width="64" height="64" viewBox="0 0 64 64" version="1.1">
  <g id="surface1">
    <path style=" stroke:none;fill-rule:nonzero;fill:rgb(40.000001%,40.000001%,40.000001%);fill-opacity:1;" d="M 62 18 L 62 16 L 50 16 L 50 2 L 48 2 L 48 16 L 34 16 L 34 2 L 32 2 L 32 16 L 18 16 L 18 2 L 16 2 L 16 16 L 2 16 L 2 18 L 16 18 L 16 32 L 2 32 L 2 34 L 16 34 L 16 48 L 2 48 L 2 50 L 16 50 L 16 62 L 18 62 L 18 50 L 32 50 L 32 62 L 34 62 L 34 50 L 48 50 L 48 62 L 50 62 L 50 50 L 62 50 L 62 48 L 50 48 L 50 34 L 62 34 L 62 32 L 50 32 L 50 18 Z M 18 18 L 32 18 L 32 32 L 18 32 Z M 18 48 L 18 34 L 32 34 L 32 48 Z M 48 48 L 34 48 L 34 34 L 48 34 Z M 48 32 L 34 32 L 34 18 L 48 18 Z M 48 32 "/>
  </g>
</svg>