<?xml version="1.0" encoding="UTF-8" standalone="yes"?>
<svg xmlns="http://www.w3.org/2000/svg" xmlns:xlink="http://www.w3.org/1999/xlink" width="64" height="64" viewBox="0 0 64 64" version="1.1">
  <defs>
    <filter id="alpha" filterUnits="objectBoundingBox" x="0%" y="0%" width="100%" height="100%">
      <feColorMatrix type="matrix" in="SourceGraphic" values="0 0 0 0 1 0 0 0 0 1 0 0 0 0 1 0 0 0 1 0"/>
    </filter>
    <mask id="mask0">
      <g filter="url(#alpha)">
        <rect x="0" y="0" width="64" height="64" style="fill:rgb(0%,0%,0%);fill-opacity:0.2;stroke:none;"/>
      </g>
    </mask>
    <mask id="mask1">
      <g filter="url(#alpha)">
        <rect x="0" y="0" width="64" height="64" style="fill:rgb(0%,0%,0%);fill-opacity:0.2;stroke:none;"/>
      </g>
    </mask>
    <clipPath id="clip1">
      <rect x="0" y="0" width="64" height="64"/>
    </clipPath>
    <clipPath id="clip2">
      <rect x="0" y="0" width="64" height="64"/>
    </clipPath>
    <g id="surface5" clip-path="url(#clip1)">
      <path style=" stroke:none;fill-rule:evenodd;fill:rgb(0%,0%,0%);fill-opacity:1;" d="M 53.878906 23.839844 L 62.261719 15.5 C 63.800781 13.960938 63.800781 11.480469 62.261719 9.941406 L 59.460938 7.160156 C 57.921875 5.621094 55.421875 5.621094 53.878906 7.160156 L 45.5 15.5 L 38.519531 8.539062 C 35.441406 5.460938 30.441406 5.460938 27.359375 8.539062 L 21.878906 14.101562 L 55.421875 47.558594 L 60.839844 41.941406 C 63.921875 38.859375 63.921875 33.878906 60.839844 30.800781 Z M 59.441406 40.519531 L 55.402344 44.699219 L 24.699219 14.101562 L 28.78125 9.960938 C 29.878906 8.859375 31.359375 8.261719 32.941406 8.261719 C 34.519531 8.261719 36 8.878906 37.101562 9.980469 L 45.480469 18.339844 L 55.261719 8.578125 C 55.660156 8.199219 56.140625 8 56.660156 8 C 57.179688 8 57.679688 8.199219 58.039062 8.558594 L 60.839844 11.339844 C 61.199219 11.71875 61.402344 12.199219 61.402344 12.71875 C 61.402344 13.238281 61.199219 13.71875 60.839844 14.078125 L 51.039062 23.839844 L 59.441406 32.21875 C 60.5625 33.320312 61.160156 34.800781 61.160156 36.359375 C 61.160156 37.941406 60.539062 39.417969 59.441406 40.519531 Z M 59.441406 40.519531 "/>
    </g>
    <g id="surface8" clip-path="url(#clip2)">
      <path style=" stroke:none;fill-rule:nonzero;fill:rgb(0%,0%,0%);fill-opacity:1;" d="M 20.421875 15.480469 C 16.300781 19.28125 4.480469 29.421875 0 25 C 4.140625 29.101562 28.160156 52.921875 32.761719 57.480469 C 37.21875 61.902344 49.558594 52.441406 53.898438 48.859375 Z M 35.921875 56.640625 C 34.761719 56.640625 34.320312 56.199219 34.179688 56.058594 L 5.578125 27.699219 C 10.519531 26.339844 16.398438 21.761719 20.359375 18.242188 L 50.921875 48.699219 C 44.558594 53.699219 39.039062 56.640625 35.921875 56.640625 Z M 35.921875 56.640625 "/>
    </g>
  </defs>
  <g id="surface1">
    <path style=" stroke:none;fill-rule:evenodd;fill:rgb(50.196081%,50.196081%,50.196081%);fill-opacity:1;" d="M 53.878906 23.839844 L 62.261719 15.5 C 63.800781 13.960938 63.800781 11.480469 62.261719 9.941406 L 59.460938 7.160156 C 57.921875 5.621094 55.421875 5.621094 53.878906 7.160156 L 45.5 15.5 L 38.519531 8.539062 C 35.441406 5.460938 30.441406 5.460938 27.359375 8.539062 L 21.878906 14.101562 L 55.421875 47.558594 L 60.839844 41.941406 C 63.921875 38.859375 63.921875 33.878906 60.839844 30.800781 Z M 53.878906 23.839844 "/>
    <path style=" stroke:none;fill-rule:nonzero;fill:rgb(100%,66.666669%,0%);fill-opacity:1;" d="M 20.421875 15.480469 C 16.300781 19.28125 4.480469 29.421875 0 25 C 4.140625 29.101562 28.160156 52.921875 32.761719 57.480469 C 37.21875 61.902344 49.558594 52.441406 53.898438 48.859375 Z M 20.421875 15.480469 "/>
    <use xlink:href="#surface5" mask="url(#mask0)"/>
    <use xlink:href="#surface8" mask="url(#mask1)"/>
  </g>
</svg>