<?xml version="1.0" encoding="UTF-8" standalone="yes"?>
<svg xmlns="http://www.w3.org/2000/svg" xmlns:xlink="http://www.w3.org/1999/xlink" width="64" height="64" viewBox="0 0 64 64" version="1.1">
  <g id="surface1">
    <path style=" stroke:none;fill-rule:nonzero;fill:rgb(73.333335%,73.333335%,73.333335%);fill-opacity:1;" d="M 30 48 C 30 46.652344 30.152344 45.3125 30.460938 44 L 8 44 L 8 0 C 5.878906 0 3.84375 0.84375 2.34375 2.34375 C 0.84375 3.84375 0 5.878906 0 8 L 0 52 C 0 54.121094 0.84375 56.15625 2.34375 57.65625 C 3.84375 59.15625 5.878906 60 8 60 L 34.621094 60 C 31.644531 56.710938 30 52.433594 30 48 Z M 30 48 "/>
    <path style=" stroke:none;fill-rule:nonzero;fill:rgb(2.352941%,58.823532%,84.313726%);fill-opacity:1;" d="M 48 64 C 56.835938 64 64 56.835938 64 48 C 64 39.164062 56.835938 32 48 32 C 39.164062 32 32 39.164062 32 48 C 32 56.835938 39.164062 64 48 64 Z M 48 64 "/>
    <path style=" stroke:none;fill-rule:nonzero;fill:rgb(85.09804%,85.09804%,85.09804%);fill-opacity:1;" d="M 48 30 C 49.347656 30 50.6875 30.152344 52 30.460938 L 52 0 L 8 0 L 8 44 L 30.460938 44 C 31.367188 40.023438 33.59375 36.476562 36.78125 33.933594 C 39.96875 31.386719 43.921875 30.003906 48 30 Z M 48 30 "/>
    <path style=" stroke:none;fill-rule:nonzero;fill:rgb(40.000001%,40.000001%,40.000001%);fill-opacity:1;" d="M 33.039062 58 L 8 58 C 6.410156 58 4.882812 57.367188 3.757812 56.242188 C 2.632812 55.117188 2 53.589844 2 52 L 2 8 C 2 6.410156 2.632812 4.882812 3.757812 3.757812 C 4.882812 2.632812 6.410156 2 8 2 L 50 2 L 50 30.121094 C 50.679688 30.121094 51.339844 30.320312 52 30.460938 L 52 0 L 8 0 C 5.878906 0 3.84375 0.84375 2.34375 2.34375 C 0.84375 3.84375 0 5.878906 0 8 L 0 52 C 0 54.121094 0.84375 56.15625 2.34375 57.65625 C 3.84375 59.15625 5.878906 60 8 60 L 34.621094 60 C 34.042969 59.375 33.515625 58.707031 33.039062 58 Z M 33.039062 58 "/>
    <path style=" stroke:none;fill-rule:evenodd;fill:rgb(100%,100%,100%);fill-opacity:1;" d="M 36.519531 48.460938 C 36.511719 46.339844 37.121094 44.265625 38.277344 42.488281 C 39.429688 40.710938 41.082031 39.3125 43.023438 38.460938 C 44.964844 37.609375 47.109375 37.347656 49.199219 37.703125 C 51.289062 38.058594 53.230469 39.015625 54.78125 40.460938 L 58.78125 37.660156 L 59.519531 49.039062 L 48 45.300781 L 52.179688 42.339844 C 50.828125 41.265625 49.148438 40.679688 47.421875 40.679688 C 45.96875 40.679688 44.546875 41.085938 43.316406 41.847656 C 42.085938 42.613281 41.089844 43.707031 40.445312 45.007812 C 39.800781 46.304688 39.535156 47.761719 39.671875 49.203125 C 39.8125 50.648438 40.351562 52.023438 41.230469 53.175781 C 42.109375 54.328125 43.292969 55.214844 44.648438 55.730469 C 46.003906 56.246094 47.476562 56.375 48.898438 56.097656 C 50.324219 55.820312 51.640625 55.152344 52.707031 54.167969 C 53.769531 53.183594 54.535156 51.917969 54.921875 50.519531 L 57.859375 51.558594 C 57.109375 54.0625 55.484375 56.214844 53.277344 57.617188 C 51.074219 59.023438 48.441406 59.589844 45.851562 59.214844 C 43.265625 58.839844 40.902344 57.546875 39.1875 55.570312 C 37.476562 53.597656 36.527344 51.074219 36.519531 48.460938 Z M 36.519531 48.460938 "/>
    <path style=" stroke:none;fill-rule:nonzero;fill:rgb(95.294118%,95.294118%,95.294118%);fill-opacity:1;" d="M 30 48 C 30 47.332031 30.039062 46.664062 30.121094 46 L 11 46 C 9.675781 46 8.402344 46.527344 7.464844 47.464844 C 6.527344 48.402344 6 49.675781 6 51 C 6 52.324219 6.527344 53.597656 7.464844 54.535156 C 8.402344 55.472656 9.675781 56 11 56 L 32 56 C 30.722656 53.523438 30.039062 50.785156 30 48 Z M 30 48 "/>
  </g>
</svg>