<?xml version="1.0" encoding="UTF-8" standalone="yes"?>
<svg xmlns="http://www.w3.org/2000/svg" xmlns:xlink="http://www.w3.org/1999/xlink" width="64" height="64" viewBox="0 0 64 64" version="1.1">
  <defs>
    <filter id="alpha" filterUnits="objectBoundingBox" x="0%" y="0%" width="100%" height="100%">
      <feColorMatrix type="matrix" in="SourceGraphic" values="0 0 0 0 1 0 0 0 0 1 0 0 0 0 1 0 0 0 1 0"/>
    </filter>
    <mask id="mask0">
      <g filter="url(#alpha)">
        <rect x="0" y="0" width="64" height="64" style="fill:rgb(0%,0%,0%);fill-opacity:0.2;stroke:none;"/>
      </g>
    </mask>
    <mask id="mask1">
      <g filter="url(#alpha)">
        <rect x="0" y="0" width="64" height="64" style="fill:rgb(0%,0%,0%);fill-opacity:0.2;stroke:none;"/>
      </g>
    </mask>
    <clipPath id="clip1">
      <rect x="0" y="0" width="64" height="64"/>
    </clipPath>
    <clipPath id="clip2">
      <rect x="0" y="0" width="64" height="64"/>
    </clipPath>
    <g id="surface5" clip-path="url(#clip1)">
      <path style=" stroke:none;fill-rule:nonzero;fill:rgb(0%,0%,0%);fill-opacity:1;" d="M 60 16 L 60 27.199219 L 54 33.199219 L 54 36 L 62 28 L 62 14 Z M 2 38 L 2 26 L 0 26 L 0 40 L 34 40 L 36 38 Z M 2 38 "/>
    </g>
    <g id="surface8" clip-path="url(#clip2)">
      <path style=" stroke:none;fill-rule:nonzero;fill:rgb(0%,0%,0%);fill-opacity:1;" d="M 12 0 L 0 12 L 10 12 L 20 2 L 30 2 L 20 12 L 30 12 L 40 2 L 50 2 L 40 12 L 50 12 L 62 0 Z M 12 0 "/>
    </g>
  </defs>
  <g id="surface1">
    <path style=" stroke:none;fill-rule:nonzero;fill:rgb(73.333335%,73.333335%,73.333335%);fill-opacity:1;" d="M 62 26 L 62 38 L 57.398438 33.398438 L 54 37 L 54 34 Z M 62 26 "/>
    <path style=" stroke:none;fill-rule:nonzero;fill:rgb(85.09804%,85.09804%,85.09804%);fill-opacity:1;" d="M 37 44 L 32 44 L 32 54 L 0 54 L 0 38 L 36 38 L 33.398438 40.601562 Z M 37 44 "/>
    <path style=" stroke:none;fill-rule:nonzero;fill:rgb(38.431373%,81.176472%,85.09804%);fill-opacity:1;" d="M 50 24 L 50 32 L 44 32 L 44 37 L 40.601562 33.398438 L 34 40 L 0 40 L 0 24 Z M 50 24 "/>
    <path style=" stroke:none;fill-rule:nonzero;fill:rgb(26.274511%,70.980394%,74.901962%);fill-opacity:1;" d="M 62 12 L 62 28 L 54 36 L 54 32 L 50 32 L 50 24 Z M 62 12 "/>
    <path style=" stroke:none;fill-rule:nonzero;fill:rgb(73.333335%,73.333335%,73.333335%);fill-opacity:1;" d="M 62 14 L 50 26 L 50 12 L 62 0 Z M 62 14 "/>
    <path style=" stroke:none;fill-rule:nonzero;fill:rgb(85.09804%,85.09804%,85.09804%);fill-opacity:1;" d="M 50 12 L 0 12 L 0 26 L 50 26 Z M 50 12 "/>
    <path style=" stroke:none;fill-rule:nonzero;fill:rgb(40.000001%,40.000001%,40.000001%);fill-opacity:1;" d="M 60 2 L 60 13.199219 L 49.199219 24 L 2 24 L 2 12 L 0 12 L 0 26 L 50 26 L 62 14 L 62 0 Z M 60 2 "/>
    <path style=" stroke:none;fill-rule:nonzero;fill:rgb(40.000001%,40.000001%,40.000001%);fill-opacity:1;" d="M 0 40 L 0 54 L 32 54 L 32 52 L 2 52 L 2 40 L 34 40 L 36 38 L 0 38 Z M 0 40 "/>
    <path style=" stroke:none;fill-rule:nonzero;fill:rgb(40.000001%,40.000001%,40.000001%);fill-opacity:1;" d="M 54 33.199219 L 54 36 L 60 30 L 60 36 L 62 38 L 62 25.199219 Z M 54 33.199219 "/>
    <path style=" stroke:none;fill-rule:nonzero;fill:rgb(96.862745%,71.372551%,53.333336%);fill-opacity:1;" d="M 19 11 L 11 11 L 11 53 L 19 53 Z M 19 11 "/>
    <path style=" stroke:none;fill-rule:nonzero;fill:rgb(90.196079%,49.411765%,20.784314%);fill-opacity:1;" d="M 19 26 L 19 24 L 18 24 L 18 40 L 19 40 L 19 38 L 20 38 L 20 26 Z M 10 10 L 10 54 L 20 54 L 20 10 Z M 18 52 L 12 52 L 12 12 L 18 12 Z M 19 26 L 19 24 L 18 24 L 18 40 L 19 40 L 19 38 L 20 38 L 20 26 Z M 19 26 L 19 24 L 18 24 L 18 40 L 19 40 L 19 38 L 20 38 L 20 26 Z M 19 26 "/>
    <path style=" stroke:none;fill-rule:nonzero;fill:rgb(96.862745%,71.372551%,53.333336%);fill-opacity:1;" d="M 39 11 L 39 35 L 33.398438 40.601562 L 37 44 L 32 44 L 32 53 L 31 53 L 31 11 Z M 39 11 "/>
    <path style=" stroke:none;fill-rule:nonzero;fill:rgb(90.196079%,49.411765%,20.784314%);fill-opacity:1;" d="M 30 10 L 30 54 L 32 54 L 32 12 L 38 12 L 38 36 L 40 34 L 40 10 Z M 30 24 L 30 38 L 32 38 L 32 24 Z M 30 24 "/>
    <path style=" stroke:none;fill-rule:nonzero;fill:rgb(35.294119%,78.039217%,49.411765%);fill-opacity:1;" d="M 62 0 L 50 12 L 0 12 L 12 0 Z M 62 0 "/>
    <path style=" stroke:none;fill-rule:evenodd;fill:rgb(9.019608%,56.078434%,90.196079%);fill-opacity:1;" d="M 52 38.425781 L 52 34 L 46 34 L 46 38.425781 C 45.214844 38.65625 44.464844 38.96875 43.757812 39.359375 L 40.601562 36.199219 L 36.199219 40.601562 L 39.359375 43.757812 C 38.96875 44.464844 38.65625 45.214844 38.425781 46 L 34 46 L 34 52 L 38.425781 52 C 38.65625 52.785156 38.96875 53.535156 39.359375 54.242188 L 36.199219 57.398438 L 40.398438 61.601562 L 43.503906 58.496094 C 44.28125 58.953125 45.121094 59.316406 46 59.574219 L 46 64 L 52 64 L 52 59.574219 C 52.785156 59.34375 53.535156 59.03125 54.242188 58.640625 L 57.398438 61.800781 L 61.601562 57.601562 L 58.496094 54.496094 C 58.953125 53.71875 59.316406 52.878906 59.574219 52 L 64 52 L 64 46 L 59.574219 46 C 59.34375 45.214844 59.03125 44.464844 58.640625 43.757812 L 61.800781 40.601562 L 57.601562 36.402344 L 54.320312 39.40625 C 53.59375 38.996094 52.816406 38.664062 52 38.425781 Z M 49 54 C 46.199219 54 44 51.800781 44 49 C 44 46.199219 46.199219 44 49 44 C 51.800781 44 54 46.199219 54 49 C 54 51.800781 51.800781 54 49 54 Z M 49 54 "/>
    <use xlink:href="#surface5" mask="url(#mask0)"/>
    <use xlink:href="#surface8" mask="url(#mask1)"/>
  </g>
</svg>