<?xml version="1.0" encoding="UTF-8" standalone="yes"?>
<svg xmlns="http://www.w3.org/2000/svg" xmlns:xlink="http://www.w3.org/1999/xlink" width="64" height="64" viewBox="0 0 64 64" version="1.1">
  <defs>
    <filter id="alpha" filterUnits="objectBoundingBox" x="0%" y="0%" width="100%" height="100%">
      <feColorMatrix type="matrix" in="SourceGraphic" values="0 0 0 0 1 0 0 0 0 1 0 0 0 0 1 0 0 0 1 0"/>
    </filter>
    <mask id="mask0">
      <g filter="url(#alpha)">
        <rect x="0" y="0" width="64" height="64" style="fill:rgb(0%,0%,0%);fill-opacity:0.2;stroke:none;"/>
      </g>
    </mask>
    <mask id="mask1">
      <g filter="url(#alpha)">
        <rect x="0" y="0" width="64" height="64" style="fill:rgb(0%,0%,0%);fill-opacity:0.2;stroke:none;"/>
      </g>
    </mask>
    <mask id="mask2">
      <g filter="url(#alpha)">
        <rect x="0" y="0" width="64" height="64" style="fill:rgb(0%,0%,0%);fill-opacity:0.1;stroke:none;"/>
      </g>
    </mask>
    <clipPath id="clip1">
      <rect x="0" y="0" width="64" height="64"/>
    </clipPath>
    <clipPath id="clip2">
      <rect x="0" y="0" width="64" height="64"/>
    </clipPath>
    <clipPath id="clip3">
      <rect x="0" y="0" width="64" height="64"/>
    </clipPath>
    <g id="surface5" clip-path="url(#clip1)">
      <path style=" stroke:none;fill-rule:nonzero;fill:rgb(0%,0%,0%);fill-opacity:1;" d="M 24 0 L 0 24 L 32 24 L 56 0 Z M 31.199219 22 L 4.800781 22 L 24.800781 2 L 51.199219 2 Z M 31.199219 22 "/>
    </g>
    <g id="surface8" clip-path="url(#clip2)">
      <path style=" stroke:none;fill-rule:nonzero;fill:rgb(0%,0%,0%);fill-opacity:1;" d="M 24 28 L 0 52 L 32 52 L 38 46 L 36.601562 44.601562 L 31.199219 50 L 4.800781 50 L 24.800781 30 L 51.199219 30 L 44.601562 36.601562 L 46 38 L 56 28 Z M 24 28 "/>
    </g>
    <g id="surface11" clip-path="url(#clip3)">
      <path style=" stroke:none;fill-rule:nonzero;fill:rgb(0%,0%,0%);fill-opacity:1;" d="M 58.800781 38.800781 L 61.199219 41.199219 L 53.800781 48.601562 L 52.398438 50 L 53.800781 51.398438 L 61.199219 58.800781 L 58.800781 61.199219 L 51.398438 53.800781 L 50 52.398438 L 48.601562 53.800781 L 41.199219 61.199219 L 38.800781 58.800781 L 46.199219 51.398438 L 47.601562 50 L 46.199219 48.601562 L 38.800781 41.199219 L 41.199219 38.800781 L 48.601562 46.199219 L 50 47.601562 L 51.398438 46.199219 Z M 58.800781 36 L 50 44.800781 L 41.199219 36 L 36 41.199219 L 44.800781 50 L 36 58.800781 L 41.199219 64 L 50 55.199219 L 58.800781 64 L 64 58.800781 L 55.199219 50 L 64 41.199219 Z M 58.800781 36 "/>
    </g>
  </defs>
  <g id="surface1">
    <path style=" stroke:none;fill-rule:nonzero;fill:rgb(80.000001%,36.078432%,36.078432%);fill-opacity:1;" d="M 32 24 L 0 24 L 24 0 L 56 0 Z M 32 24 "/>
    <path style=" stroke:none;fill-rule:nonzero;fill:rgb(40.392157%,69.411767%,90.196079%);fill-opacity:1;" d="M 56 28 L 46 38 L 41.199219 33.199219 L 33.199219 41.199219 L 38 46 L 32 52 L 0 52 L 24 28 Z M 56 28 "/>
    <path style=" stroke:none;fill-rule:nonzero;fill:rgb(100%,20%,20%);fill-opacity:1;" d="M 64 41.199219 L 58.800781 36 L 50 44.800781 L 41.199219 36 L 36 41.199219 L 44.800781 50 L 36 58.800781 L 41.199219 64 L 50 55.199219 L 58.800781 64 L 64 58.800781 L 55.199219 50 Z M 64 41.199219 "/>
    <use xlink:href="#surface5" mask="url(#mask0)"/>
    <use xlink:href="#surface8" mask="url(#mask1)"/>
    <use xlink:href="#surface11" mask="url(#mask2)"/>
  </g>
</svg>