<?xml version="1.0" encoding="UTF-8" standalone="yes"?>
<svg xmlns="http://www.w3.org/2000/svg" xmlns:xlink="http://www.w3.org/1999/xlink" width="64" height="64" viewBox="0 0 64 64" version="1.1">
  <g id="surface1">
    <path style=" stroke:none;fill-rule:nonzero;fill:rgb(40.000001%,40.000001%,40.000001%);fill-opacity:1;" d="M 48.019531 0 L 48.019531 38 C 48.019531 44.359375 43.78125 49.71875 38 51.421875 L 38 53.480469 C 44.898438 51.71875 50 45.460938 50 37.980469 L 50 0 Z M 48.019531 0 "/>
    <path style=" stroke:none;fill-rule:nonzero;fill:rgb(40.000001%,40.000001%,40.000001%);fill-opacity:1;" d="M 40 0 L 0 0 L 0 64 L 40 64 Z M 40 0 "/>
    <path style=" stroke:none;fill-rule:nonzero;fill:rgb(95.294118%,95.294118%,95.294118%);fill-opacity:1;" d="M 38 2 L 2 2 L 2 62 L 38 62 Z M 38 2 "/>
    <path style=" stroke:none;fill-rule:nonzero;fill:rgb(40.000001%,40.000001%,40.000001%);fill-opacity:1;" d="M 34 6 L 6 6 L 6 28 L 34 28 Z M 34 6 "/>
    <path style=" stroke:none;fill-rule:nonzero;fill:rgb(73.333335%,73.333335%,73.333335%);fill-opacity:1;" d="M 32 8 L 8 8 L 8 26 L 32 26 Z M 32 8 "/>
    <path style=" stroke:none;fill-rule:nonzero;fill:rgb(40.000001%,40.000001%,40.000001%);fill-opacity:1;" d="M 20 58 C 26.621094 58 32 52.621094 32 46 C 32 39.378906 26.621094 34 20 34 C 13.378906 34 8 39.378906 8 46 C 8 52.621094 13.378906 58 20 58 Z M 20 58 "/>
    <path style=" stroke:none;fill-rule:nonzero;fill:rgb(95.294118%,95.294118%,95.294118%);fill-opacity:1;" d="M 20 56 C 25.519531 56 30 51.519531 30 46 C 30 40.480469 25.519531 36 20 36 C 14.480469 36 10 40.480469 10 46 C 10 51.519531 14.480469 56 20 56 Z M 20 56 "/>
    <path style=" stroke:none;fill-rule:nonzero;fill:rgb(40.000001%,40.000001%,40.000001%);fill-opacity:1;" d="M 60 0 L 60 40 C 60 52.140625 50.140625 62 38 62 L 38 64 C 51.261719 64 62 53.261719 62 40 L 62 0 Z M 60 0 "/>
    <path style=" stroke:none;fill-rule:nonzero;fill:rgb(40.000001%,40.000001%,40.000001%);fill-opacity:1;" d="M 64 6 L 58 6 L 58 30 L 64 30 Z M 64 6 "/>
    <path style=" stroke:none;fill-rule:nonzero;fill:rgb(95.294118%,95.294118%,95.294118%);fill-opacity:1;" d="M 62 8 L 60 8 L 60 28 L 62 28 Z M 62 8 "/>
    <path style=" stroke:none;fill-rule:nonzero;fill:rgb(40.000001%,40.000001%,40.000001%);fill-opacity:1;" d="M 52 6 L 46 6 L 46 30 L 52 30 Z M 52 6 "/>
    <path style=" stroke:none;fill-rule:nonzero;fill:rgb(95.294118%,95.294118%,95.294118%);fill-opacity:1;" d="M 50 8 L 48 8 L 48 28 L 50 28 Z M 50 8 "/>
    <path style=" stroke:none;fill-rule:evenodd;fill:rgb(40.000001%,40.000001%,40.000001%);fill-opacity:1;" d="M 23.9375 52.0625 L 13.9375 42.0625 L 16.0625 39.9375 L 26.0625 49.9375 Z M 23.9375 52.0625 "/>
  </g>
</svg>