<?xml version="1.0" encoding="UTF-8" standalone="yes"?>
<svg xmlns="http://www.w3.org/2000/svg" xmlns:xlink="http://www.w3.org/1999/xlink" width="64" height="64" viewBox="0 0 64 64" version="1.1">
  <defs>
    <filter id="alpha" filterUnits="objectBoundingBox" x="0%" y="0%" width="100%" height="100%">
      <feColorMatrix type="matrix" in="SourceGraphic" values="0 0 0 0 1 0 0 0 0 1 0 0 0 0 1 0 0 0 1 0"/>
    </filter>
    <mask id="mask0">
      <g filter="url(#alpha)">
        <rect x="0" y="0" width="64" height="64" style="fill:rgb(0%,0%,0%);fill-opacity:0.1;stroke:none;"/>
      </g>
    </mask>
    <mask id="mask1">
      <g filter="url(#alpha)">
        <rect x="0" y="0" width="64" height="64" style="fill:rgb(0%,0%,0%);fill-opacity:0.1;stroke:none;"/>
      </g>
    </mask>
    <mask id="mask2">
      <g filter="url(#alpha)">
        <rect x="0" y="0" width="64" height="64" style="fill:rgb(0%,0%,0%);fill-opacity:0.1;stroke:none;"/>
      </g>
    </mask>
    <clipPath id="clip1">
      <rect x="0" y="0" width="64" height="64"/>
    </clipPath>
    <clipPath id="clip2">
      <rect x="0" y="0" width="64" height="64"/>
    </clipPath>
    <clipPath id="clip3">
      <rect x="0" y="0" width="64" height="64"/>
    </clipPath>
    <g id="surface5" clip-path="url(#clip1)">
      <path style=" stroke:none;fill-rule:nonzero;fill:rgb(0%,0%,0%);fill-opacity:1;" d="M 14.941406 25.421875 L 16.519531 29.519531 L 16.820312 30.300781 L 17.578125 30.640625 L 21.441406 32.320312 L 18 33.039062 L 16.839844 33.28125 L 16.480469 34.398438 L 14.941406 39.398438 L 13.300781 34.378906 L 12.941406 33.28125 L 11.820312 33.039062 L 8.421875 32.320312 L 12.21875 30.621094 L 12.960938 30.300781 L 13.261719 29.558594 Z M 15 20 L 11.398438 28.800781 L 2 33 L 11.398438 35 L 15 46 L 18.398438 35 L 28 33 L 18.398438 28.800781 Z M 15 20 "/>
    </g>
    <g id="surface8" clip-path="url(#clip2)">
      <path style=" stroke:none;fill-rule:nonzero;fill:rgb(0%,0%,0%);fill-opacity:1;" d="M 8.898438 49.441406 L 9.378906 50.699219 L 9.679688 51.480469 L 10.441406 51.820312 L 11.640625 52.359375 L 10.820312 52.539062 L 9.679688 52.800781 L 9.339844 53.921875 L 8.898438 55.359375 L 8.398438 53.859375 L 8.039062 52.800781 L 6.941406 52.539062 L 6.140625 52.359375 L 7.339844 51.820312 L 8.039062 51.5 L 8.339844 50.78125 Z M 9 44 L 6.5 50 L 0 53 L 6.5 54.5 L 9 62 L 11.238281 54.5 L 18 53 L 11.238281 50 Z M 9 44 "/>
    </g>
    <g id="surface11" clip-path="url(#clip3)">
      <path style=" stroke:none;fill-rule:nonzero;fill:rgb(0%,0%,0%);fill-opacity:1;" d="M 26.898438 43.441406 L 27.378906 44.699219 L 27.679688 45.480469 L 28.441406 45.820312 L 29.640625 46.359375 L 28.820312 46.539062 L 27.679688 46.800781 L 27.339844 47.921875 L 26.898438 49.359375 L 26.398438 47.859375 L 26.039062 46.800781 L 24.941406 46.539062 L 24.140625 46.359375 L 25.339844 45.820312 L 26.039062 45.5 L 26.339844 44.78125 Z M 27 38 L 24.5 44 L 18 47 L 24.5 48.5 L 27 56 L 29.238281 48.5 L 36 47 L 29.238281 44 Z M 27 38 "/>
    </g>
  </defs>
  <g id="surface1">
    <path style=" stroke:none;fill-rule:nonzero;fill:rgb(9.019608%,56.078434%,90.196079%);fill-opacity:1;" d="M 44 37.160156 L 44 2 L 0 2 L 0 6 L 40 6 L 40 38.839844 L 61.160156 60 L 64 60 L 64 57.160156 Z M 44 37.160156 "/>
    <path style=" stroke:none;fill-rule:nonzero;fill:rgb(100%,66.666669%,0%);fill-opacity:1;" d="M 15 20 L 18.398438 28.800781 L 28 33 L 18.398438 35 L 15 46 L 11.398438 35 L 2 33 L 11.398438 28.800781 Z M 15 20 "/>
    <path style=" stroke:none;fill-rule:nonzero;fill:rgb(100%,66.666669%,0%);fill-opacity:1;" d="M 9 44 L 11.238281 50 L 18 53 L 11.238281 54.5 L 9 62 L 6.5 54.5 L 0 53 L 6.5 50 Z M 9 44 "/>
    <path style=" stroke:none;fill-rule:nonzero;fill:rgb(100%,66.666669%,0%);fill-opacity:1;" d="M 27 38 L 29.238281 44 L 36 47 L 29.238281 48.5 L 27 56 L 24.5 48.5 L 18 47 L 24.5 44 Z M 27 38 "/>
    <use xlink:href="#surface5" mask="url(#mask0)"/>
    <use xlink:href="#surface8" mask="url(#mask1)"/>
    <use xlink:href="#surface11" mask="url(#mask2)"/>
  </g>
</svg>