<svg width="64" height="64" viewBox="0 0 64 64" fill="none" xmlns="http://www.w3.org/2000/svg">
<path d="M62 2H2V62H62V2Z" fill="#F3F3F3"/>
<path fill-rule="evenodd" clip-rule="evenodd" d="M60 60H4V33.1L6.16 29.72C8.52 26.12 12.4 24 16.28 24C20.16 24 24.04 26.12 26.4 29.5L41.9 52.16C42.12 52.58 42.76 52.8 43.2 52.8C43.64 52.8 44.28 52.58 44.5 52.16L50.1 44.54C51.6 42.64 53.98 41.58 56.34 41.78C57.64 41.78 58.92 42.2 60 42.84V60V60Z" fill="#999999"/>
<path fill-rule="evenodd" clip-rule="evenodd" d="M45 28C40.06 28 36 23.94 36 19C36 14.06 40.06 10 45 10C49.94 10 54 14.06 54 19C54 21.48 53.1 23.72 51.3 25.3C49.72 27.1 47.48 28 45 28Z" fill="#999999"/>
<path d="M57.72 2H6.28H2V6.28V57.7V62H6.28H57.7H62V57.72V6.28V2H57.72ZM60 60H4V4H60V60Z" fill="#666666"/>
</svg>
