<?xml version="1.0" encoding="UTF-8" standalone="yes"?>
<svg xmlns="http://www.w3.org/2000/svg" xmlns:xlink="http://www.w3.org/1999/xlink" width="64" height="64" viewBox="0 0 64 64" version="1.1">
  <defs>
    <filter id="alpha" filterUnits="objectBoundingBox" x="0%" y="0%" width="100%" height="100%">
      <feColorMatrix type="matrix" in="SourceGraphic" values="0 0 0 0 1 0 0 0 0 1 0 0 0 0 1 0 0 0 1 0"/>
    </filter>
    <mask id="mask0">
      <g filter="url(#alpha)">
        <rect x="0" y="0" width="64" height="64" style="fill:rgb(0%,0%,0%);fill-opacity:0.1;stroke:none;"/>
      </g>
    </mask>
    <clipPath id="clip1">
      <rect x="0" y="0" width="64" height="64"/>
    </clipPath>
    <g id="surface5" clip-path="url(#clip1)">
      <path style=" stroke:none;fill-rule:nonzero;fill:rgb(0%,0%,0%);fill-opacity:1;" d="M 46 43.539062 L 60.121094 52 L 46 60.460938 L 46 54 L 30 54 L 30 50 L 46 50 Z M 44 40 L 44 48 L 28 48 L 28 56 L 44 56 L 44 64 L 64 52 Z M 44 40 "/>
    </g>
  </defs>
  <g id="surface1">
    <path style=" stroke:none;fill-rule:nonzero;fill:rgb(95.294118%,95.294118%,95.294118%);fill-opacity:1;" d="M 54 2 L 54 43.660156 L 47.898438 40 L 44.558594 38 L 42 36.460938 L 42 46 L 26 46 L 26 54 L 2 54 L 2 2 Z M 54 2 "/>
    <path style=" stroke:none;fill-rule:nonzero;fill:rgb(40.000001%,40.000001%,40.000001%);fill-opacity:1;" d="M 0 0 L 0 56 L 26 56 L 26 54 L 2 54 L 2 2 L 54 2 L 54 43.660156 L 56 44.859375 L 56 0 Z M 0 0 "/>
    <path style=" stroke:none;fill-rule:nonzero;fill:rgb(40.000001%,40.000001%,40.000001%);fill-opacity:1;" d="M 20 38 L 2 38 L 2 54 L 20 54 Z M 20 38 "/>
    <path style=" stroke:none;fill-rule:nonzero;fill:rgb(40.000001%,40.000001%,40.000001%);fill-opacity:1;" d="M 11 32 C 13.761719 32 16 29.761719 16 27 C 16 24.238281 13.761719 22 11 22 C 8.238281 22 6 24.238281 6 27 C 6 29.761719 8.238281 32 11 32 Z M 11 32 "/>
    <path style=" stroke:none;fill-rule:nonzero;fill:rgb(95.294118%,95.294118%,95.294118%);fill-opacity:1;" d="M 11 30 C 12.660156 30 14 28.660156 14 27 C 14 25.339844 12.660156 24 11 24 C 9.339844 24 8 25.339844 8 27 C 8 28.660156 9.339844 30 11 30 Z M 11 30 "/>
    <path style=" stroke:none;fill-rule:nonzero;fill:rgb(40.000001%,40.000001%,40.000001%);fill-opacity:1;" d="M 12 30 L 10 30 L 10 38 L 12 38 Z M 12 30 "/>
    <path style=" stroke:none;fill-rule:nonzero;fill:rgb(40.000001%,40.000001%,40.000001%);fill-opacity:1;" d="M 32 2 L 30 2 L 30 28 L 32 28 Z M 32 2 "/>
    <path style=" stroke:none;fill-rule:nonzero;fill:rgb(40.000001%,40.000001%,40.000001%);fill-opacity:1;" d="M 40 26.421875 L 40 16 L 42 16 L 42 28.421875 Z M 40 26.421875 "/>
    <path style=" stroke:none;fill-rule:nonzero;fill:rgb(40.000001%,40.000001%,40.000001%);fill-opacity:1;" d="M 20.421875 10 L 2 10 L 2 8 L 18.421875 8 Z M 20.421875 10 "/>
    <path style=" stroke:none;fill-rule:nonzero;fill:rgb(40.000001%,40.000001%,40.000001%);fill-opacity:1;" d="M 23.359375 12.941406 L 21.941406 14.359375 L 15.582031 8 L 18.421875 8 Z M 23.359375 12.941406 "/>
    <path style=" stroke:none;fill-rule:nonzero;fill:rgb(40.000001%,40.000001%,40.000001%);fill-opacity:1;" d="M 42 38 L 42 40 L 39.578125 40 L 37.578125 38 Z M 42 38 "/>
    <path style=" stroke:none;fill-rule:nonzero;fill:rgb(40.000001%,40.000001%,40.000001%);fill-opacity:1;" d="M 54 38 L 54 40 L 47.898438 40 L 44.558594 38 Z M 54 38 "/>
    <path style=" stroke:none;fill-rule:nonzero;fill:rgb(40.000001%,40.000001%,40.000001%);fill-opacity:1;" d="M 42 39.578125 L 42 40 L 39.578125 40 L 31.519531 31.941406 L 30.640625 31.058594 L 32.058594 29.640625 Z M 42 39.578125 "/>
    <path style=" stroke:none;fill-rule:nonzero;fill:rgb(40.000001%,40.000001%,40.000001%);fill-opacity:1;" d="M 46.058594 32 L 43.578125 30 L 54 30 L 54 32 Z M 46.058594 32 "/>
    <path style=" stroke:none;fill-rule:nonzero;fill:rgb(40.000001%,40.000001%,40.000001%);fill-opacity:1;" d="M 45.578125 32 L 40 26.421875 L 40 23.578125 L 48.421875 32 Z M 45.578125 32 "/>
    <path style=" stroke:none;fill-rule:nonzero;fill:rgb(40.000001%,40.000001%,40.000001%);fill-opacity:1;" d="M 23 20 C 25.761719 20 28 17.761719 28 15 C 28 12.238281 25.761719 10 23 10 C 20.238281 10 18 12.238281 18 15 C 18 17.761719 20.238281 20 23 20 Z M 23 20 "/>
    <path style=" stroke:none;fill-rule:nonzero;fill:rgb(95.294118%,95.294118%,95.294118%);fill-opacity:1;" d="M 23 18 C 24.660156 18 26 16.660156 26 15 C 26 13.339844 24.660156 12 23 12 C 21.339844 12 20 13.339844 20 15 C 20 16.660156 21.339844 18 23 18 Z M 23 18 "/>
    <path style=" stroke:none;fill-rule:nonzero;fill:rgb(40.000001%,40.000001%,40.000001%);fill-opacity:1;" d="M 36 15 C 36 17.761719 38.238281 20 41 20 C 43.761719 20 46 17.761719 46 15 C 46 12.238281 43.761719 10 41 10 C 38.238281 10 36 12.238281 36 15 Z M 36 15 "/>
    <path style=" stroke:none;fill-rule:nonzero;fill:rgb(95.294118%,95.294118%,95.294118%);fill-opacity:1;" d="M 38 15 C 38 16.660156 39.339844 18 41 18 C 42.660156 18 44 16.660156 44 15 C 44 13.339844 42.660156 12 41 12 C 39.339844 12 38 13.339844 38 15 Z M 38 15 "/>
    <path style=" stroke:none;fill-rule:nonzero;fill:rgb(40.000001%,40.000001%,40.000001%);fill-opacity:1;" d="M 26 29 C 26 31.761719 28.238281 34 31 34 C 33.761719 34 36 31.761719 36 29 C 36 26.238281 33.761719 24 31 24 C 28.238281 24 26 26.238281 26 29 Z M 26 29 "/>
    <path style=" stroke:none;fill-rule:nonzero;fill:rgb(95.294118%,95.294118%,95.294118%);fill-opacity:1;" d="M 28 29 C 28 30.660156 29.339844 32 31 32 C 32.660156 32 34 30.660156 34 29 C 34 27.339844 32.660156 26 31 26 C 29.339844 26 28 27.339844 28 29 Z M 28 29 "/>
    <path style=" stroke:none;fill-rule:nonzero;fill:rgb(9.019608%,56.078434%,90.196079%);fill-opacity:1;" d="M 44 40 L 44 48 L 28 48 L 28 56 L 44 56 L 44 64 L 64 52 Z M 44 40 "/>
    <path style=" stroke:none;fill-rule:nonzero;fill:rgb(60.000002%,60.000002%,60.000002%);fill-opacity:1;" d="M 18 40 L 2 40 L 2 54 L 18 54 Z M 18 40 "/>
    <use xlink:href="#surface5" mask="url(#mask0)"/>
  </g>
</svg>