<?xml version="1.0" encoding="UTF-8" standalone="yes"?>
<svg xmlns="http://www.w3.org/2000/svg" xmlns:xlink="http://www.w3.org/1999/xlink" width="64" height="64" viewBox="0 0 64 64" version="1.1">
  <defs>
    <filter id="alpha" filterUnits="objectBoundingBox" x="0%" y="0%" width="100%" height="100%">
      <feColorMatrix type="matrix" in="SourceGraphic" values="0 0 0 0 1 0 0 0 0 1 0 0 0 0 1 0 0 0 1 0"/>
    </filter>
    <mask id="mask0">
      <g filter="url(#alpha)">
        <rect x="0" y="0" width="64" height="64" style="fill:rgb(0%,0%,0%);fill-opacity:0.1;stroke:none;"/>
      </g>
    </mask>
    <clipPath id="clip1">
      <rect x="0" y="0" width="64" height="64"/>
    </clipPath>
    <g id="surface5" clip-path="url(#clip1)">
      <path style=" stroke:none;fill-rule:nonzero;fill:rgb(0%,0%,0%);fill-opacity:1;" d="M 18.839844 37.839844 L 16.199219 43.101562 L 15.121094 45.261719 L 17.441406 45.921875 L 27.28125 48.738281 L 13.140625 58.160156 L 15.78125 52.898438 L 16.859375 50.738281 L 14.539062 50.078125 L 4.699219 47.261719 Z M 24 32 L 0 48 L 14 52 L 8 64 L 32 48 L 18 44 Z M 24 32 "/>
    </g>
  </defs>
  <g id="surface1">
    <path style=" stroke:none;fill-rule:evenodd;fill:rgb(9.019608%,56.078434%,90.196079%);fill-opacity:1;" d="M 49.585938 48.414062 L 15.585938 14.414062 L 18.414062 11.585938 L 52.414062 45.585938 Z M 49.585938 48.414062 "/>
    <path style=" stroke:none;fill-rule:nonzero;fill:rgb(40.000001%,40.000001%,40.000001%);fill-opacity:1;" d="M 12 2 C 15.300781 2 18 4.699219 18 8 C 18 11.300781 15.300781 14 12 14 C 8.699219 14 6 11.300781 6 8 C 6 4.699219 8.699219 2 12 2 Z M 12 0 C 7.578125 0 4 3.578125 4 8 C 4 12.421875 7.578125 16 12 16 C 16.421875 16 20 12.421875 20 8 C 20 3.578125 16.421875 0 12 0 Z M 12 0 "/>
    <path style=" stroke:none;fill-rule:nonzero;fill:rgb(40.000001%,40.000001%,40.000001%);fill-opacity:1;" d="M 56 46 C 59.300781 46 62 48.699219 62 52 C 62 55.300781 59.300781 58 56 58 C 52.699219 58 50 55.300781 50 52 C 50 48.699219 52.699219 46 56 46 Z M 56 44 C 51.578125 44 48 47.578125 48 52 C 48 56.421875 51.578125 60 56 60 C 60.421875 60 64 56.421875 64 52 C 64 47.578125 60.421875 44 56 44 Z M 56 44 "/>
    <path style=" stroke:none;fill-rule:evenodd;fill:rgb(100%,66.666669%,0%);fill-opacity:1;" d="M 0 48 L 24 32 L 18 44 L 32 48 L 8 64 L 14 52 Z M 0 48 "/>
    <path style=" stroke:none;fill-rule:nonzero;fill:rgb(80.000001%,16.078432%,16.078432%);fill-opacity:1;" d="M 56 40 L 60 40 L 60 20.199219 L 43.800781 4 L 24 4 L 24 8 L 42.140625 8 L 56 21.859375 Z M 56 40 "/>
    <use xlink:href="#surface5" mask="url(#mask0)"/>
  </g>
</svg>