<?xml version="1.0" encoding="UTF-8" standalone="yes"?>
<svg xmlns="http://www.w3.org/2000/svg" xmlns:xlink="http://www.w3.org/1999/xlink" width="64" height="64" viewBox="0 0 64 64" version="1.1">
  <defs>
    <filter id="alpha" filterUnits="objectBoundingBox" x="0%" y="0%" width="100%" height="100%">
      <feColorMatrix type="matrix" in="SourceGraphic" values="0 0 0 0 1 0 0 0 0 1 0 0 0 0 1 0 0 0 1 0"/>
    </filter>
    <mask id="mask0">
      <g filter="url(#alpha)">
        <rect x="0" y="0" width="64" height="64" style="fill:rgb(0%,0%,0%);fill-opacity:0.2;stroke:none;"/>
      </g>
    </mask>
    <mask id="mask1">
      <g filter="url(#alpha)">
        <rect x="0" y="0" width="64" height="64" style="fill:rgb(0%,0%,0%);fill-opacity:0.1;stroke:none;"/>
      </g>
    </mask>
    <clipPath id="clip1">
      <rect x="0" y="0" width="64" height="64"/>
    </clipPath>
    <clipPath id="clip2">
      <rect x="0" y="0" width="64" height="64"/>
    </clipPath>
    <g id="surface5" clip-path="url(#clip1)">
      <path style=" stroke:none;fill-rule:nonzero;fill:rgb(0%,0%,0%);fill-opacity:1;" d="M 8 0 L 0 8 L 0 32 L 24 32 L 32 24 L 32 0 Z M 30 23.179688 L 23.179688 30 L 2 30 L 2 8.820312 L 8.820312 2 L 30 2 Z M 30 23.179688 "/>
    </g>
    <g id="surface8" clip-path="url(#clip2)">
      <path style=" stroke:none;fill-rule:nonzero;fill:rgb(0%,0%,0%);fill-opacity:1;" d="M 50 34 L 50 46 L 62 46 L 62 50 L 50 50 L 50 62 L 46 62 L 46 50 L 34 50 L 34 46 L 46 46 L 46 34 Z M 52 32 L 44 32 L 44 44 L 32 44 L 32 52 L 44 52 L 44 64 L 52 64 L 52 52 L 64 52 L 64 44 L 52 44 Z M 52 32 "/>
    </g>
  </defs>
  <g id="surface1">
    <path style=" stroke:none;fill-rule:nonzero;fill:rgb(85.09804%,85.09804%,85.09804%);fill-opacity:1;" d="M 30 42 L 30 54 L 42 54 L 42 56 L 0 56 L 0 32 L 42 32 L 42 42 Z M 30 42 "/>
    <path style=" stroke:none;fill-rule:nonzero;fill:rgb(73.333335%,73.333335%,73.333335%);fill-opacity:1;" d="M 56 24 L 56 42 L 54 42 L 54 30 L 50 30 Z M 56 24 "/>
    <path style=" stroke:none;fill-rule:nonzero;fill:rgb(95.294118%,95.294118%,95.294118%);fill-opacity:1;" d="M 56 24 L 50 30 L 42 30 L 42 32 L 24 32 L 32 24 Z M 56 24 "/>
    <path style=" stroke:none;fill-rule:nonzero;fill:rgb(38.431373%,81.176472%,85.09804%);fill-opacity:1;" d="M 24 8 L 0 8 L 0 32 L 24 32 Z M 24 8 "/>
    <path style=" stroke:none;fill-rule:nonzero;fill:rgb(26.274511%,70.980394%,74.901962%);fill-opacity:1;" d="M 32 24 L 24 32 L 24 8 L 32 0 Z M 32 24 "/>
    <path style=" stroke:none;fill-rule:nonzero;fill:rgb(52.156866%,91.37255%,94.901961%);fill-opacity:1;" d="M 24 8 L 0 8 L 8 0 L 32 0 Z M 24 8 "/>
    <path style=" stroke:none;fill-rule:nonzero;fill:rgb(40.000001%,40.000001%,40.000001%);fill-opacity:1;" d="M 32 24 L 24 32 L 24 54 L 2 54 L 2 32 L 0 32 L 0 56 L 42 56 L 42 54 L 26 54 L 26 32.820312 L 32.820312 26 L 54 26 L 54 42 L 56 42 L 56 24 Z M 32 24 "/>
    <path style=" stroke:none;fill-rule:evenodd;fill:rgb(14.117648%,69.803923%,32.156864%);fill-opacity:1;" d="M 64 44 L 52 44 L 52 32 L 44 32 L 44 44 L 32 44 L 32 52 L 44 52 L 44 64 L 52 64 L 52 52 L 64 52 Z M 64 44 "/>
    <use xlink:href="#surface5" mask="url(#mask0)"/>
    <use xlink:href="#surface8" mask="url(#mask1)"/>
  </g>
</svg>