<?xml version="1.0" encoding="UTF-8" standalone="yes"?>
<svg xmlns="http://www.w3.org/2000/svg" xmlns:xlink="http://www.w3.org/1999/xlink" width="64" height="64" viewBox="0 0 64 64" version="1.1">
  <defs>
    <filter id="alpha" filterUnits="objectBoundingBox" x="0%" y="0%" width="100%" height="100%">
      <feColorMatrix type="matrix" in="SourceGraphic" values="0 0 0 0 1 0 0 0 0 1 0 0 0 0 1 0 0 0 1 0"/>
    </filter>
    <mask id="mask0">
      <g filter="url(#alpha)">
        <rect x="0" y="0" width="64" height="64" style="fill:rgb(0%,0%,0%);fill-opacity:0.2;stroke:none;"/>
      </g>
    </mask>
    <clipPath id="clip1">
      <rect x="0" y="0" width="64" height="64"/>
    </clipPath>
    <g id="surface5" clip-path="url(#clip1)">
      <path style=" stroke:none;fill-rule:nonzero;fill:rgb(0%,0%,0%);fill-opacity:1;" d="M 62 10.039062 L 62 62 L 10.039062 62 C 11.058594 33.800781 33.800781 11.058594 62 10.039062 Z M 64 8 C 33.078125 8 8 33.078125 8 64 L 64 64 Z M 64 8 "/>
    </g>
  </defs>
  <g id="surface1">
    <path style=" stroke:none;fill-rule:nonzero;fill:rgb(9.019608%,56.078434%,90.196079%);fill-opacity:1;" d="M 6 58 L 0 58 L 0 64 L 6 64 Z M 6 58 "/>
    <path style=" stroke:none;fill-rule:nonzero;fill:rgb(9.019608%,56.078434%,90.196079%);fill-opacity:1;" d="M 64 0 L 58 0 L 58 6 L 64 6 Z M 64 0 "/>
    <path style=" stroke:none;fill-rule:nonzero;fill:rgb(35.294119%,78.039217%,49.411765%);fill-opacity:1;" d="M 64 8 L 64 64 L 8 64 C 8 33.078125 33.078125 8 64 8 Z M 64 8 "/>
    <path style=" stroke:none;fill-rule:nonzero;fill:rgb(40.000001%,40.000001%,40.000001%);fill-opacity:1;" d="M 15.21875 26 C 8.898438 34.378906 4.898438 44.679688 4.140625 56 L 2.140625 56 C 2.917969 44 7.199219 33.121094 14 24.300781 L 14 26 Z M 15.21875 26 "/>
    <path style=" stroke:none;fill-rule:nonzero;fill:rgb(40.000001%,40.000001%,40.000001%);fill-opacity:1;" d="M 56 2.140625 L 56 4.140625 C 43.761719 4.960938 32.71875 9.558594 24 16.800781 L 24 16 L 21.839844 16 C 31.058594 8.039062 42.859375 2.980469 56 2.140625 Z M 56 2.140625 "/>
    <path style=" stroke:none;fill-rule:nonzero;fill:rgb(9.019608%,56.078434%,90.196079%);fill-opacity:1;" d="M 22 18 L 16 18 L 16 24 L 22 24 Z M 22 18 "/>
    <use xlink:href="#surface5" mask="url(#mask0)"/>
  </g>
</svg>