<?xml version="1.0" encoding="UTF-8" standalone="yes"?>
<svg xmlns="http://www.w3.org/2000/svg" xmlns:xlink="http://www.w3.org/1999/xlink" width="64" height="64" viewBox="0 0 64 64" version="1.1">
  <defs>
    <filter id="alpha" filterUnits="objectBoundingBox" x="0%" y="0%" width="100%" height="100%">
      <feColorMatrix type="matrix" in="SourceGraphic" values="0 0 0 0 1 0 0 0 0 1 0 0 0 0 1 0 0 0 1 0"/>
    </filter>
    <mask id="mask0">
      <g filter="url(#alpha)">
        <rect x="0" y="0" width="64" height="64" style="fill:rgb(0%,0%,0%);fill-opacity:0.5;stroke:none;"/>
      </g>
    </mask>
    <mask id="mask1">
      <g filter="url(#alpha)">
        <rect x="0" y="0" width="64" height="64" style="fill:rgb(0%,0%,0%);fill-opacity:0.5;stroke:none;"/>
      </g>
    </mask>
    <mask id="mask2">
      <g filter="url(#alpha)">
        <rect x="0" y="0" width="64" height="64" style="fill:rgb(0%,0%,0%);fill-opacity:0.5;stroke:none;"/>
      </g>
    </mask>
    <clipPath id="clip1">
      <rect x="0" y="0" width="64" height="64"/>
    </clipPath>
    <clipPath id="clip2">
      <rect x="0" y="0" width="64" height="64"/>
    </clipPath>
    <clipPath id="clip3">
      <rect x="0" y="0" width="64" height="64"/>
    </clipPath>
    <g id="surface5" clip-path="url(#clip1)">
      <path style=" stroke:none;fill-rule:nonzero;fill:rgb(40.000001%,40.000001%,40.000001%);fill-opacity:1;" d="M 13.574219 23.273438 L 13.574219 25.503906 C 11.441406 26.648438 9.445312 27.035156 7.679688 27.035156 C 5.21875 27.035156 3.21875 26.257812 1.9375 25.582031 L 1.9375 23.351562 C 3.199219 24.242188 7.796875 26.898438 13.574219 23.273438 Z M 13.574219 23.273438 "/>
    </g>
    <g id="surface8" clip-path="url(#clip2)">
      <path style=" stroke:none;fill-rule:nonzero;fill:rgb(40.000001%,40.000001%,40.000001%);fill-opacity:1;" d="M 27.152344 23.273438 L 27.152344 25.503906 C 25.019531 26.648438 23.019531 27.035156 21.253906 27.035156 C 18.792969 27.035156 16.796875 26.257812 15.515625 25.582031 L 15.515625 23.351562 C 16.777344 24.242188 21.371094 26.898438 27.152344 23.273438 Z M 27.152344 23.273438 "/>
    </g>
    <g id="surface11" clip-path="url(#clip3)">
      <path style=" stroke:none;fill-rule:nonzero;fill:rgb(40.000001%,40.000001%,40.000001%);fill-opacity:1;" d="M 40.726562 23.273438 L 40.726562 25.503906 C 38.59375 26.648438 36.597656 27.035156 34.832031 27.035156 C 32.367188 27.035156 30.371094 26.257812 29.089844 25.582031 L 29.089844 23.351562 C 30.351562 24.242188 34.949219 26.898438 40.726562 23.273438 Z M 40.726562 23.273438 "/>
    </g>
  </defs>
  <g id="surface1">
    <path style=" stroke:none;fill-rule:nonzero;fill:rgb(40.000001%,40.000001%,40.000001%);fill-opacity:1;" d="M 7.757812 58.183594 C 6.476562 58.183594 5.199219 57.96875 3.996094 57.523438 C 2.792969 57.113281 1.726562 56.550781 0.757812 55.816406 L 0 55.234375 L 0 12.742188 L 12.78125 0 L 27.152344 0 L 27.152344 43.460938 L 14.855469 55.757812 L 14.757812 55.835938 C 13.847656 56.535156 12.800781 57.078125 11.5 57.523438 C 10.316406 57.96875 9.039062 58.183594 7.757812 58.183594 Z M 7.757812 58.183594 "/>
    <path style=" stroke:none;fill-rule:nonzero;fill:rgb(73.333335%,73.333335%,73.333335%);fill-opacity:1;" d="M 25.210938 42.667969 L 13.574219 54.304688 L 13.574219 13.574219 L 19.394531 7.757812 L 25.210938 1.9375 Z M 25.210938 42.667969 "/>
    <path style=" stroke:none;fill-rule:nonzero;fill:rgb(95.294118%,95.294118%,95.294118%);fill-opacity:1;" d="M 13.574219 1.9375 L 1.9375 13.574219 C 3.570312 14.796875 5.566406 15.554688 7.757812 15.554688 C 9.949219 15.554688 11.945312 14.796875 13.574219 13.574219 L 25.210938 1.9375 Z M 13.574219 1.9375 "/>
    <path style=" stroke:none;fill-rule:nonzero;fill:rgb(85.09804%,85.09804%,85.09804%);fill-opacity:1;" d="M 13.574219 13.535156 L 13.574219 54.265625 C 12.761719 54.886719 11.867188 55.351562 10.859375 55.699219 C 9.890625 56.046875 8.84375 56.242188 7.757812 56.242188 C 6.671875 56.242188 5.625 56.046875 4.65625 55.699219 C 3.644531 55.351562 2.753906 54.886719 1.9375 54.265625 L 1.9375 13.535156 C 2.753906 14.15625 3.644531 14.621094 4.65625 14.972656 C 5.625 15.320312 6.671875 15.515625 7.757812 15.515625 C 8.84375 15.515625 9.890625 15.320312 10.859375 14.972656 C 11.867188 14.621094 12.761719 14.15625 13.574219 13.535156 Z M 13.574219 13.535156 "/>
    <path style=" stroke:none;fill-rule:nonzero;fill:rgb(40.000001%,40.000001%,40.000001%);fill-opacity:1;" d="M 40.726562 0 L 40.726562 39.484375 C 40.046875 39.679688 39.410156 39.933594 38.789062 40.242188 C 37.914062 40.6875 37.121094 41.269531 36.421875 41.949219 L 30.933594 47.4375 C 30.15625 48.214844 29.535156 49.085938 29.089844 50.054688 C 28.992188 50.230469 28.917969 50.40625 28.839844 50.578125 C 28.46875 51.453125 28.238281 52.363281 28.140625 53.3125 C 28.121094 53.644531 28.101562 53.972656 28.101562 54.304688 C 28.101562 54.847656 28.140625 55.390625 28.238281 55.914062 C 28.199219 55.933594 28.179688 55.953125 28.140625 55.972656 C 27.269531 56.628906 26.277344 57.113281 25.078125 57.542969 C 23.894531 57.96875 22.613281 58.183594 21.332031 58.183594 C 20.054688 58.183594 18.773438 57.96875 17.570312 57.523438 C 16.464844 57.152344 15.476562 56.628906 14.566406 55.972656 C 14.488281 55.933594 14.410156 55.875 14.332031 55.816406 L 13.574219 55.234375 L 13.574219 12.742188 L 24.417969 1.9375 L 26.355469 0 Z M 40.726562 0 "/>
    <path style=" stroke:none;fill-rule:nonzero;fill:rgb(73.333335%,73.333335%,73.333335%);fill-opacity:1;" d="M 38.789062 1.9375 L 38.789062 40.242188 C 37.914062 40.6875 37.121094 41.269531 36.421875 41.949219 L 30.933594 47.4375 C 30.15625 48.214844 29.535156 49.085938 29.089844 50.054688 C 28.992188 50.230469 28.917969 50.40625 28.839844 50.578125 C 28.46875 51.453125 28.238281 52.363281 28.140625 53.3125 L 27.152344 54.304688 L 27.152344 13.574219 Z M 38.789062 1.9375 "/>
    <path style=" stroke:none;fill-rule:nonzero;fill:rgb(95.294118%,95.294118%,95.294118%);fill-opacity:1;" d="M 27.152344 1.9375 L 15.515625 13.574219 C 17.144531 14.796875 19.140625 15.554688 21.332031 15.554688 C 23.523438 15.554688 25.523438 14.796875 27.152344 13.574219 L 38.789062 1.9375 Z M 27.152344 1.9375 "/>
    <path style=" stroke:none;fill-rule:nonzero;fill:rgb(85.09804%,85.09804%,85.09804%);fill-opacity:1;" d="M 27.152344 13.535156 L 27.152344 54.265625 C 26.335938 54.886719 25.445312 55.351562 24.4375 55.699219 C 23.464844 56.046875 22.417969 56.242188 21.332031 56.242188 C 20.246094 56.242188 19.199219 56.046875 18.230469 55.699219 C 17.222656 55.351562 16.328125 54.886719 15.515625 54.265625 L 15.515625 13.535156 C 16.328125 14.15625 17.222656 14.621094 18.230469 14.972656 C 19.199219 15.320312 20.246094 15.515625 21.332031 15.515625 C 22.417969 15.515625 23.464844 15.320312 24.4375 14.972656 C 25.445312 14.621094 26.335938 14.15625 27.152344 13.535156 Z M 27.152344 13.535156 "/>
    <path style=" stroke:none;fill-rule:nonzero;fill:rgb(40.000001%,40.000001%,40.000001%);fill-opacity:1;" d="M 54.304688 0 L 54.304688 33.707031 C 53.644531 33.707031 53.003906 33.765625 52.363281 33.902344 C 50.851562 34.210938 49.453125 34.871094 48.234375 35.839844 L 44.992188 38.921875 L 42.277344 39.195312 C 41.753906 39.253906 41.230469 39.351562 40.726562 39.484375 C 40.046875 39.679688 39.410156 39.933594 38.789062 40.242188 C 37.914062 40.6875 37.121094 41.269531 36.421875 41.949219 L 30.933594 47.4375 C 30.15625 48.214844 29.535156 49.085938 29.089844 50.054688 C 28.992188 50.230469 28.917969 50.40625 28.839844 50.578125 C 28.46875 51.453125 28.238281 52.363281 28.140625 53.3125 C 28.121094 53.644531 28.101562 53.972656 28.101562 54.304688 C 28.101562 54.847656 28.140625 55.390625 28.238281 55.914062 C 28.238281 55.972656 28.257812 56.007812 28.257812 56.046875 C 28.21875 56.027344 28.179688 56.007812 28.140625 55.972656 C 28.0625 55.933594 27.984375 55.875 27.90625 55.816406 L 27.152344 55.234375 L 27.152344 12.742188 L 37.992188 1.9375 L 39.933594 0 Z M 54.304688 0 "/>
    <path style=" stroke:none;fill-rule:nonzero;fill:rgb(73.333335%,73.333335%,73.333335%);fill-opacity:1;" d="M 52.363281 1.9375 L 52.363281 33.902344 C 50.851562 34.210938 49.453125 34.871094 48.234375 35.839844 L 44.992188 38.921875 L 42.277344 39.195312 C 41.753906 39.253906 41.230469 39.351562 40.726562 39.484375 L 40.726562 13.574219 Z M 52.363281 1.9375 "/>
    <path style=" stroke:none;fill-rule:nonzero;fill:rgb(95.294118%,95.294118%,95.294118%);fill-opacity:1;" d="M 40.726562 1.9375 L 29.089844 13.574219 C 30.71875 14.796875 32.71875 15.554688 34.910156 15.554688 C 37.101562 15.554688 39.097656 14.796875 40.726562 13.574219 L 52.363281 1.9375 Z M 40.726562 1.9375 "/>
    <path style=" stroke:none;fill-rule:nonzero;fill:rgb(85.09804%,85.09804%,85.09804%);fill-opacity:1;" d="M 40.726562 13.535156 L 40.726562 39.484375 C 40.046875 39.679688 39.410156 39.933594 38.789062 40.242188 C 37.914062 40.6875 37.121094 41.269531 36.421875 41.949219 L 30.933594 47.4375 C 30.15625 48.214844 29.535156 49.085938 29.089844 50.054688 L 29.089844 13.535156 C 29.089844 13.535156 29.109375 13.535156 29.109375 13.554688 C 29.925781 14.15625 30.796875 14.621094 31.804688 14.972656 C 32.777344 15.320312 33.824219 15.515625 34.910156 15.515625 C 35.996094 15.515625 37.042969 15.320312 38.011719 14.972656 C 38.285156 14.875 38.535156 14.777344 38.789062 14.660156 C 39.484375 14.371094 40.125 14.003906 40.726562 13.535156 Z M 40.726562 13.535156 "/>
    <path style=" stroke:none;fill-rule:nonzero;fill:rgb(90.196079%,49.411765%,20.784314%);fill-opacity:1;" d="M 47.128906 47.785156 C 47.28125 48.425781 47.28125 49.085938 47.128906 49.726562 C 46.953125 50.425781 46.605469 51.0625 46.097656 51.570312 L 40.628906 57.039062 C 39.894531 57.714844 38.921875 58.066406 37.933594 58.046875 C 36.945312 58.027344 35.996094 57.621094 35.277344 56.921875 C 34.578125 56.222656 34.171875 55.273438 34.132812 54.285156 C 34.113281 53.292969 34.464844 52.324219 35.121094 51.585938 L 39 47.613281 C 39.234375 45.246094 40.359375 43.035156 42.144531 41.445312 L 42.453125 41.152344 C 40.6875 41.328125 39.039062 42.105469 37.78125 43.34375 L 32.289062 48.832031 C 31.574219 49.550781 30.992188 50.40625 30.605469 51.355469 C 30.214844 52.304688 30.023438 53.3125 30.023438 54.324219 C 30.023438 55.351562 30.214844 56.359375 30.605469 57.289062 C 30.992188 58.238281 31.574219 59.09375 32.289062 59.8125 C 33.007812 60.527344 33.863281 61.109375 34.8125 61.5 C 35.761719 61.886719 36.769531 62.078125 37.78125 62.078125 C 38.808594 62.078125 39.816406 61.886719 40.746094 61.5 C 41.695312 61.109375 42.550781 60.527344 43.269531 59.8125 L 45.324219 57.753906 L 48.871094 54.265625 C 49.414062 53.703125 49.863281 53.042969 50.191406 52.324219 C 50.753906 51.296875 51.0625 50.171875 51.101562 49.007812 C 51.160156 47.535156 50.792969 46.0625 50.035156 44.78125 Z M 47.128906 47.785156 "/>
    <path style=" stroke:none;fill-rule:nonzero;fill:rgb(90.196079%,49.411765%,20.784314%);fill-opacity:1;" d="M 48.890625 37.777344 L 46.953125 39.71875 L 43.460938 43.210938 C 42.917969 43.792969 42.472656 44.449219 42.125 45.148438 C 41.621094 46.117188 41.308594 47.164062 41.230469 48.25 C 41.132812 49.804688 41.484375 51.355469 42.277344 52.691406 L 44.21875 50.753906 L 44.742188 50.230469 L 45.148438 49.804688 C 45.03125 49.242188 45.03125 48.660156 45.148438 48.097656 C 45.304688 47.359375 45.652344 46.699219 46.175781 46.15625 L 48.929688 43.402344 L 50.289062 42.046875 L 51.664062 40.667969 C 52.402344 39.933594 53.371094 39.523438 54.417969 39.523438 C 55.449219 39.523438 56.4375 39.933594 57.171875 40.667969 C 57.910156 41.40625 58.316406 42.375 58.316406 43.421875 C 58.316406 44.449219 57.910156 45.441406 57.171875 46.15625 L 52.984375 50.171875 C 52.695312 52.226562 51.742188 54.148438 50.269531 55.621094 L 49.433594 56.476562 C 51.335938 56.378906 53.121094 55.582031 54.476562 54.246094 L 59.945312 48.757812 C 61.34375 47.28125 62.097656 45.34375 62.082031 43.304688 C 62.0625 41.289062 61.246094 39.351562 59.8125 37.914062 C 58.375 36.480469 56.457031 35.664062 54.417969 35.644531 C 52.402344 35.625 50.445312 36.382812 48.96875 37.777344 Z M 48.890625 37.777344 "/>
    <use xlink:href="#surface5" mask="url(#mask0)"/>
    <use xlink:href="#surface8" mask="url(#mask1)"/>
    <use xlink:href="#surface11" mask="url(#mask2)"/>
  </g>
</svg>