<?xml version="1.0" encoding="UTF-8" standalone="yes"?>
<svg xmlns="http://www.w3.org/2000/svg" xmlns:xlink="http://www.w3.org/1999/xlink" width="64" height="64" viewBox="0 0 64 64" version="1.1">
  <g id="surface1">
    <path style=" stroke:none;fill-rule:nonzero;fill:rgb(95.294118%,95.294118%,95.294118%);fill-opacity:1;" d="M 16 12 L 16 10 L 30 10 L 30 0 L 6 0 L 6 52 L 16 52 Z M 16 12 "/>
    <path style=" stroke:none;fill-rule:nonzero;fill:rgb(95.294118%,95.294118%,95.294118%);fill-opacity:1;" d="M 42 28 L 42 12 L 18 12 L 18 64 L 58 64 L 58 28 Z M 42 28 "/>
    <path style=" stroke:none;fill-rule:nonzero;fill:rgb(40.000001%,40.000001%,40.000001%);fill-opacity:1;" d="M 56 28 L 56 62 L 20 62 L 20 14 L 42 14 L 42 12 L 18 12 L 18 64 L 58 64 L 58 28 Z M 56 28 "/>
    <path style=" stroke:none;fill-rule:nonzero;fill:rgb(40.000001%,40.000001%,40.000001%);fill-opacity:1;" d="M 40 10 L 30 0 L 30 10 Z M 40 10 "/>
    <path style=" stroke:none;fill-rule:nonzero;fill:rgb(40.000001%,40.000001%,40.000001%);fill-opacity:1;" d="M 16 50 L 8 50 L 8 2 L 30 2 L 30 0 L 6 0 L 6 52 L 16 52 Z M 16 50 "/>
    <path style=" stroke:none;fill-rule:nonzero;fill:rgb(40.000001%,40.000001%,40.000001%);fill-opacity:1;" d="M 58 28 L 42 28 L 42 12 Z M 58 28 "/>
  </g>
</svg>