<?xml version="1.0" encoding="UTF-8" standalone="yes"?>
<svg xmlns="http://www.w3.org/2000/svg" xmlns:xlink="http://www.w3.org/1999/xlink" width="64" height="64" viewBox="0 0 64 64" version="1.1">
  <g id="surface1">
    <path style=" stroke:none;fill-rule:evenodd;fill:rgb(9.019608%,56.078434%,90.196079%);fill-opacity:1;" d="M 64 52 C 62.660156 54.519531 60.800781 56.660156 58.582031 58.320312 L 53.78125 53.519531 C 53.941406 53.039062 54 52.519531 54 52 C 54 48.679688 51.320312 46 48 46 C 47.480469 46 46.960938 46.058594 46.480469 46.21875 L 43.101562 42.839844 C 44.660156 42.339844 46.320312 42.058594 48 42 C 54.71875 42.238281 60.839844 46.039062 64 52 Z M 64 52 "/>
    <path style=" stroke:none;fill-rule:evenodd;fill:rgb(9.019608%,56.078434%,90.196079%);fill-opacity:1;" d="M 52.921875 61.179688 C 51.339844 61.679688 49.679688 61.960938 48 62 C 41.238281 61.800781 35.160156 57.960938 32 52 C 33.339844 49.480469 35.238281 47.339844 37.460938 45.71875 L 42.21875 50.480469 C 42.058594 50.960938 42 51.480469 42 52 C 42 55.320312 44.679688 58 48 58 C 48.519531 58 49.039062 57.941406 49.519531 57.78125 Z M 52.921875 61.179688 "/>
    <path style=" stroke:none;fill-rule:nonzero;fill:rgb(95.294118%,95.294118%,95.294118%);fill-opacity:1;" d="M 58 22.398438 L 52.019531 40.539062 C 51.71875 40.460938 51.398438 40.421875 51.101562 40.378906 C 50.898438 40.339844 50.679688 40.300781 50.480469 40.261719 C 50.320312 40.238281 50.179688 40.199219 50.039062 40.179688 C 50.019531 40.179688 49.960938 40.199219 49.941406 40.199219 C 49.28125 40.121094 48.601562 40.019531 47.921875 40 C 45.679688 40.078125 43.539062 40.519531 41.539062 41.261719 L 37.71875 37.441406 L 33.460938 41.71875 L 36.058594 44.320312 C 33.679688 46.101562 31.699219 48.359375 30.28125 51 C 30.261719 51.019531 30.238281 51.019531 30.238281 51.039062 L 29.941406 51.601562 L 29.738281 51.980469 L 29.738281 52 L 30.121094 52.699219 L 30.21875 52.921875 C 30.421875 53.28125 30.621094 53.640625 30.839844 54 C 31.078125 54.421875 31.359375 54.820312 31.640625 55.21875 C 31.679688 55.300781 31.738281 55.359375 31.800781 55.441406 C 31.941406 55.621094 32.078125 55.820312 32.21875 56 L 11.078125 56 L 0 22.398438 L 29 0 Z M 58 22.398438 "/>
    <path style=" stroke:none;fill-rule:nonzero;fill:rgb(80.000001%,16.078432%,16.078432%);fill-opacity:1;" d="M 37.714844 40.277344 L 36.273438 41.71875 L 57.667969 63.117188 L 59.113281 61.671875 Z M 37.714844 40.277344 "/>
    <path style=" stroke:none;fill-rule:nonzero;fill:rgb(40.000001%,40.000001%,40.000001%);fill-opacity:1;" d="M 29 0 L 0 22.398438 L 11.078125 56 L 32.21875 56 C 31.71875 55.378906 31.238281 54.699219 30.839844 54 L 12.519531 54 L 2.339844 23.121094 L 29 2.519531 L 55.660156 23.121094 L 50.039062 40.179688 C 50.71875 40.261719 51.359375 40.378906 52.019531 40.539062 L 58 22.398438 Z M 29 0 "/>
  </g>
</svg>