<?xml version="1.0" encoding="UTF-8" standalone="yes"?>
<svg xmlns="http://www.w3.org/2000/svg" xmlns:xlink="http://www.w3.org/1999/xlink" width="64" height="64" viewBox="0 0 64 64" version="1.1">
  <defs>
    <filter id="alpha" filterUnits="objectBoundingBox" x="0%" y="0%" width="100%" height="100%">
      <feColorMatrix type="matrix" in="SourceGraphic" values="0 0 0 0 1 0 0 0 0 1 0 0 0 0 1 0 0 0 1 0"/>
    </filter>
    <mask id="mask0">
      <g filter="url(#alpha)">
        <rect x="0" y="0" width="64" height="64" style="fill:rgb(0%,0%,0%);fill-opacity:0.1;stroke:none;"/>
      </g>
    </mask>
    <clipPath id="clip1">
      <rect x="0" y="0" width="64" height="64"/>
    </clipPath>
    <g id="surface5" clip-path="url(#clip1)">
      <path style=" stroke:none;fill-rule:nonzero;fill:rgb(0%,0%,0%);fill-opacity:1;" d="M 18 5.601562 L 32.199219 14 L 18 22.398438 L 18 16 L 2 16 L 2 12 L 18 12 Z M 16 2 L 16 10 L 0 10 L 0 18 L 16 18 L 16 26 L 36 14 Z M 16 2 "/>
    </g>
  </defs>
  <g id="surface1">
    <path style=" stroke:none;fill-rule:nonzero;fill:rgb(95.294118%,95.294118%,95.294118%);fill-opacity:1;" d="M 64 10 L 64 62 L 4 62 L 4 20 L 14 20 L 14 29.601562 L 18.398438 27 L 20 26 L 26 22.398438 L 28 21.199219 L 39.800781 14 L 36.601562 12 L 33.199219 10 Z M 64 10 "/>
    <path style=" stroke:none;fill-rule:nonzero;fill:rgb(14.117648%,70.19608%,32.549021%);fill-opacity:1;" d="M 33.199219 10 L 36.601562 12 L 62 12 L 62 46 L 64 46 L 64 10 Z M 6 60 L 6 20 L 4 20 L 4 62 L 34 62 L 34 60 Z M 6 60 "/>
    <path style=" stroke:none;fill-rule:nonzero;fill:rgb(66.666669%,94.901961%,76.078433%);fill-opacity:1;" d="M 64 48 L 36 48 L 36 62 L 64 62 Z M 64 48 "/>
    <path style=" stroke:none;fill-rule:nonzero;fill:rgb(14.117648%,70.19608%,32.549021%);fill-opacity:1;" d="M 36 48 L 36 62 L 64 62 L 64 48 Z M 38 50 L 44 50 L 44 54 L 38 54 Z M 54 60 L 38 60 L 38 56 L 54 56 Z M 62 60 L 56 60 L 56 56 L 62 56 Z M 62 54 L 46 54 L 46 50 L 62 50 Z M 62 54 "/>
    <path style=" stroke:none;fill-rule:nonzero;fill:rgb(14.117648%,70.19608%,32.549021%);fill-opacity:1;" d="M 20 26 L 18.398438 27 L 27 42 L 36.199219 26 Z M 21.199219 28 L 32.800781 28 L 27 38 Z M 21.199219 28 "/>
    <path style=" stroke:none;fill-rule:nonzero;fill:rgb(14.117648%,70.19608%,32.549021%);fill-opacity:1;" d="M 17.335938 29.386719 L 12.386719 34.335938 L 13.800781 35.753906 L 18.753906 30.800781 Z M 17.335938 29.386719 "/>
    <path style=" stroke:none;fill-rule:nonzero;fill:rgb(14.117648%,70.19608%,32.549021%);fill-opacity:1;" d="M 11.398438 32.199219 L 10 38 L 15.800781 36.398438 Z M 11.398438 32.199219 "/>
    <path style=" stroke:none;fill-rule:nonzero;fill:rgb(14.117648%,70.19608%,32.549021%);fill-opacity:1;" d="M 17.335938 37.386719 L 12.386719 42.335938 L 13.800781 43.753906 L 18.753906 38.800781 Z M 17.335938 37.386719 "/>
    <path style=" stroke:none;fill-rule:nonzero;fill:rgb(14.117648%,70.19608%,32.549021%);fill-opacity:1;" d="M 11.398438 40.199219 L 10 46 L 15.800781 44.398438 Z M 11.398438 40.199219 "/>
    <path style=" stroke:none;fill-rule:nonzero;fill:rgb(14.117648%,70.19608%,32.549021%);fill-opacity:1;" d="M 28 21.199219 L 28 26 L 26 26 L 26 22.398438 Z M 28 21.199219 "/>
    <path style=" stroke:none;fill-rule:nonzero;fill:rgb(14.117648%,70.19608%,32.549021%);fill-opacity:1;" d="M 28 44 L 26 44 L 26 56 L 28 56 Z M 28 44 "/>
    <path style=" stroke:none;fill-rule:nonzero;fill:rgb(14.117648%,70.19608%,32.549021%);fill-opacity:1;" d="M 36 42 L 18 42 L 18 44 L 36 44 Z M 36 42 "/>
    <path style=" stroke:none;fill-rule:nonzero;fill:rgb(9.019608%,56.078434%,90.196079%);fill-opacity:1;" d="M 36 14 L 16 2 L 16 10 L 0 10 L 0 18 L 16 18 L 16 26 Z M 36 14 "/>
    <use xlink:href="#surface5" mask="url(#mask0)"/>
  </g>
</svg>