<?xml version="1.0" encoding="UTF-8" standalone="yes"?>
<svg xmlns="http://www.w3.org/2000/svg" xmlns:xlink="http://www.w3.org/1999/xlink" width="62.060606" height="64" viewBox="0 0 62.060606 64" version="1.1">
  <g id="surface1">
    <path style=" stroke:none;fill-rule:nonzero;fill:rgb(40.000001%,40.000001%,40.000001%);fill-opacity:1;" d="M 42.667969 1.941406 L 42.414062 1.941406 C 39.050781 2.347656 35.929688 3.894531 33.570312 6.324219 C 31.503906 8.261719 30.074219 10.785156 29.472656 13.558594 C 28.875 16.328125 29.132812 19.21875 30.214844 21.835938 L 30.214844 21.933594 C 30.378906 22.171875 30.445312 22.464844 30.398438 22.75 C 30.347656 23.035156 30.195312 23.292969 29.964844 23.46875 L 2.210938 50.132812 C 1.519531 50.753906 0.964844 51.515625 0.585938 52.367188 C 0.203125 53.21875 0.0078125 54.136719 0.0078125 55.070312 C 0.0078125 56 0.203125 56.921875 0.585938 57.773438 C 0.964844 58.621094 1.519531 59.382812 2.210938 60.003906 C 3.535156 61.3125 5.316406 62.046875 7.175781 62.0625 C 8.109375 62.066406 9.035156 61.875 9.886719 61.492188 C 10.742188 61.109375 11.503906 60.550781 12.121094 59.851562 C 12.488281 59.480469 37.972656 32.464844 38.535156 31.882812 C 38.636719 31.773438 38.757812 31.683594 38.894531 31.621094 C 39.03125 31.5625 39.179688 31.53125 39.332031 31.535156 C 39.515625 31.535156 39.695312 31.582031 39.855469 31.671875 L 39.953125 31.671875 C 41.519531 32.421875 43.238281 32.800781 44.972656 32.777344 C 48.96875 32.761719 52.804688 31.222656 55.699219 28.46875 C 58.191406 26.101562 59.78125 22.941406 60.199219 19.53125 L 60.199219 19.394531 C 60.234375 17.394531 59.628906 15.4375 58.472656 13.808594 L 57.152344 11.871094 L 49.203125 20.015625 L 43.171875 18.890625 L 42.046875 12.859375 L 49.804688 5.101562 L 48.175781 3.742188 C 46.609375 2.511719 44.65625 1.871094 42.667969 1.941406 Z M 42.667969 1.941406 "/>
    <path style=" stroke:none;fill-rule:nonzero;fill:rgb(95.294118%,95.294118%,95.294118%);fill-opacity:1;" d="M 42.667969 3.878906 C 44.203125 3.816406 45.714844 4.296875 46.933594 5.234375 L 40.726562 11.5 L 40.007812 12.21875 L 40.203125 13.226562 L 41.308594 19.257812 L 41.5625 20.558594 L 42.859375 20.808594 L 48.890625 21.914062 L 49.902344 22.109375 L 50.617188 21.390625 L 57.019531 14.933594 C 57.929688 16.238281 58.40625 17.800781 58.375 19.394531 C 58.015625 22.351562 56.648438 25.089844 54.496094 27.152344 C 51.960938 29.59375 48.589844 30.980469 45.070312 31.03125 C 43.636719 31.054688 42.21875 30.75 40.921875 30.136719 C 40.449219 29.828125 39.894531 29.664062 39.332031 29.671875 C 38.910156 29.667969 38.496094 29.75 38.113281 29.917969 C 37.726562 30.085938 37.382812 30.332031 37.101562 30.640625 L 10.726562 58.511719 C 10.289062 59.027344 9.746094 59.4375 9.132812 59.714844 C 8.515625 59.992188 7.847656 60.132812 7.175781 60.121094 C 5.820312 60.109375 4.519531 59.574219 3.550781 58.628906 C 3.039062 58.1875 2.628906 57.644531 2.351562 57.03125 C 2.074219 56.417969 1.933594 55.75 1.9375 55.078125 C 1.929688 54.429688 2.0625 53.785156 2.320312 53.1875 C 2.582031 52.59375 2.96875 52.0625 3.453125 51.625 L 31.359375 25.078125 C 31.90625 24.605469 32.265625 23.960938 32.382812 23.253906 C 32.5 22.542969 32.363281 21.816406 32 21.199219 C 31.042969 18.929688 30.8125 16.421875 31.332031 14.019531 C 31.851562 11.613281 33.101562 9.425781 34.910156 7.757812 C 36.964844 5.601562 39.707031 4.226562 42.667969 3.878906 Z M 42.667969 3.878906 "/>
    <path style=" stroke:none;fill-rule:nonzero;fill:rgb(40.000001%,40.000001%,40.000001%);fill-opacity:1;" d="M 6.789062 52.363281 C 6.210938 52.363281 5.648438 52.535156 5.171875 52.855469 C 4.691406 53.171875 4.320312 53.628906 4.101562 54.160156 C 3.878906 54.691406 3.824219 55.277344 3.933594 55.839844 C 4.046875 56.40625 4.324219 56.921875 4.730469 57.328125 C 5.136719 57.738281 5.65625 58.015625 6.21875 58.125 C 6.785156 58.238281 7.371094 58.179688 7.902344 57.960938 C 8.433594 57.738281 8.886719 57.367188 9.207031 56.890625 C 9.527344 56.410156 9.695312 55.847656 9.695312 55.273438 C 9.695312 54.5 9.390625 53.761719 8.84375 53.214844 C 8.300781 52.671875 7.558594 52.363281 6.789062 52.363281 Z M 6.789062 56.242188 C 6.597656 56.242188 6.410156 56.1875 6.25 56.078125 C 6.089844 55.972656 5.964844 55.820312 5.890625 55.644531 C 5.820312 55.464844 5.800781 55.273438 5.835938 55.082031 C 5.875 54.894531 5.964844 54.722656 6.101562 54.585938 C 6.238281 54.453125 6.410156 54.359375 6.597656 54.320312 C 6.785156 54.285156 6.980469 54.304688 7.160156 54.375 C 7.335938 54.449219 7.488281 54.574219 7.59375 54.734375 C 7.699219 54.894531 7.757812 55.082031 7.757812 55.273438 C 7.757812 55.53125 7.65625 55.777344 7.472656 55.957031 C 7.292969 56.140625 7.046875 56.242188 6.789062 56.242188 Z M 6.789062 56.242188 "/>
  </g>
</svg>