<?xml version="1.0" encoding="UTF-8" standalone="yes"?>
<svg xmlns="http://www.w3.org/2000/svg" xmlns:xlink="http://www.w3.org/1999/xlink" width="64" height="64" viewBox="0 0 64 64" version="1.1">
  <defs>
    <filter id="alpha" filterUnits="objectBoundingBox" x="0%" y="0%" width="100%" height="100%">
      <feColorMatrix type="matrix" in="SourceGraphic" values="0 0 0 0 1 0 0 0 0 1 0 0 0 0 1 0 0 0 1 0"/>
    </filter>
    <mask id="mask0">
      <g filter="url(#alpha)">
        <rect x="0" y="0" width="64" height="64" style="fill:rgb(0%,0%,0%);fill-opacity:0.2;stroke:none;"/>
      </g>
    </mask>
    <clipPath id="clip1">
      <rect x="0" y="0" width="64" height="64"/>
    </clipPath>
    <g id="surface5" clip-path="url(#clip1)">
      <path style=" stroke:none;fill-rule:nonzero;fill:rgb(0%,0%,0%);fill-opacity:1;" d="M 32 6 C 46.339844 6 58 17.660156 58 32 C 58 46.339844 46.339844 58 32 58 C 17.660156 58 6 46.339844 6 32 C 6 17.660156 17.660156 6 32 6 Z M 32 4 C 16.539062 4 4 16.539062 4 32 C 4 47.460938 16.539062 60 32 60 C 47.460938 60 60 47.460938 60 32 C 60 16.539062 47.460938 4 32 4 Z M 32 4 "/>
    </g>
  </defs>
  <g id="surface1">
    <path style=" stroke:none;fill-rule:nonzero;fill:rgb(9.019608%,56.078434%,90.196079%);fill-opacity:1;" d="M 32 60 C 47.464844 60 60 47.464844 60 32 C 60 16.535156 47.464844 4 32 4 C 16.535156 4 4 16.535156 4 32 C 4 47.464844 16.535156 60 32 60 Z M 32 60 "/>
    <path style=" stroke:none;fill-rule:nonzero;fill:rgb(100%,100%,100%);fill-opacity:1;" d="M 36 28 L 28 28 L 28 48 L 36 48 Z M 36 28 "/>
    <path style=" stroke:none;fill-rule:nonzero;fill:rgb(100%,100%,100%);fill-opacity:1;" d="M 32 24 C 34.210938 24 36 22.210938 36 20 C 36 17.789062 34.210938 16 32 16 C 29.789062 16 28 17.789062 28 20 C 28 22.210938 29.789062 24 32 24 Z M 32 24 "/>
    <use xlink:href="#surface5" mask="url(#mask0)"/>
  </g>
</svg>