<?xml version="1.0" encoding="UTF-8" standalone="yes"?>
<svg xmlns="http://www.w3.org/2000/svg" xmlns:xlink="http://www.w3.org/1999/xlink" width="64" height="64" viewBox="0 0 64 64" version="1.1">
  <defs>
    <filter id="alpha" filterUnits="objectBoundingBox" x="0%" y="0%" width="100%" height="100%">
      <feColorMatrix type="matrix" in="SourceGraphic" values="0 0 0 0 1 0 0 0 0 1 0 0 0 0 1 0 0 0 1 0"/>
    </filter>
    <mask id="mask0">
      <g filter="url(#alpha)">
        <rect x="0" y="0" width="64" height="64" style="fill:rgb(0%,0%,0%);fill-opacity:0.1;stroke:none;"/>
      </g>
    </mask>
    <clipPath id="clip1">
      <rect x="0" y="0" width="64" height="64"/>
    </clipPath>
    <g id="surface5" clip-path="url(#clip1)">
      <path style=" stroke:none;fill-rule:nonzero;fill:rgb(0%,0%,0%);fill-opacity:1;" d="M 18.839844 37.839844 L 16.199219 43.101562 L 15.121094 45.261719 L 17.441406 45.921875 L 27.28125 48.738281 L 13.140625 58.160156 L 15.78125 52.898438 L 16.859375 50.738281 L 14.539062 50.078125 L 4.699219 47.261719 Z M 24 32 L 0 48 L 14 52 L 8 64 L 32 48 L 18 44 Z M 24 32 "/>
    </g>
  </defs>
  <g id="surface1">
    <path style=" stroke:none;fill-rule:nonzero;fill:rgb(9.019608%,56.078434%,90.196079%);fill-opacity:1;" d="M 42.839844 32 L 47.078125 27.761719 L 44.238281 24.921875 L 32.921875 36.238281 L 35.761719 39.078125 L 40 34.839844 L 49.441406 44.28125 L 53.21875 42.378906 Z M 42.839844 32 "/>
    <path style=" stroke:none;fill-rule:nonzero;fill:rgb(9.019608%,56.078434%,90.196079%);fill-opacity:1;" d="M 36.238281 16.921875 L 32 21.160156 L 22.421875 11.582031 L 19.582031 14.421875 L 29.160156 24 L 24.921875 28.238281 L 27.761719 31.078125 L 39.078125 19.761719 Z M 36.238281 16.921875 "/>
    <path style=" stroke:none;fill-rule:nonzero;fill:rgb(40.000001%,40.000001%,40.000001%);fill-opacity:1;" d="M 16 2 C 19.300781 2 22 4.699219 22 8 C 22 11.300781 19.300781 14 16 14 C 12.699219 14 10 11.300781 10 8 C 10 4.699219 12.699219 2 16 2 Z M 16 0 C 11.578125 0 8 3.578125 8 8 C 8 12.421875 11.578125 16 16 16 C 20.421875 16 24 12.421875 24 8 C 24 3.578125 20.421875 0 16 0 Z M 16 0 "/>
    <path style=" stroke:none;fill-rule:nonzero;fill:rgb(40.000001%,40.000001%,40.000001%);fill-opacity:1;" d="M 56 42 C 59.300781 42 62 44.699219 62 48 C 62 51.300781 59.300781 54 56 54 C 52.699219 54 50 51.300781 50 48 C 50 44.699219 52.699219 42 56 42 Z M 56 40 C 51.578125 40 48 43.578125 48 48 C 48 52.421875 51.578125 56 56 56 C 60.421875 56 64 52.421875 64 48 C 64 43.578125 60.421875 40 56 40 Z M 56 40 "/>
    <path style=" stroke:none;fill-rule:evenodd;fill:rgb(100%,66.666669%,0%);fill-opacity:1;" d="M 0 48 L 24 32 L 18 44 L 32 48 L 8 64 L 14 52 Z M 0 48 "/>
    <use xlink:href="#surface5" mask="url(#mask0)"/>
  </g>
</svg>