<?xml version="1.0" encoding="UTF-8" standalone="yes"?>
<svg xmlns="http://www.w3.org/2000/svg" xmlns:xlink="http://www.w3.org/1999/xlink" width="64" height="64" viewBox="0 0 64 64" version="1.1">
  <g id="surface1">
    <path style=" stroke:none;fill-rule:nonzero;fill:rgb(100%,20%,20%);fill-opacity:1;" d="M 3.753906 12.242188 L 12.238281 3.757812 L 60.238281 51.757812 L 51.75 60.242188 Z M 3.753906 12.242188 "/>
    <path style=" stroke:none;fill-rule:nonzero;fill:rgb(100%,20%,20%);fill-opacity:1;" d="M 3.753906 51.757812 L 51.75 3.757812 L 60.238281 12.242188 L 12.238281 60.242188 Z M 3.753906 51.757812 "/>
    <path style=" stroke:none;fill-rule:evenodd;fill:rgb(0%,0%,0%);fill-opacity:0.2;" d="M 32 23.519531 L 51.761719 3.761719 L 60.238281 12.238281 L 40.480469 32 L 60.238281 51.761719 L 51.761719 60.238281 L 32 40.480469 L 12.238281 60.238281 L 3.757812 51.761719 L 23.519531 32 L 3.757812 12.238281 L 12.238281 3.761719 Z M 57.417969 12.238281 L 51.761719 6.578125 L 32 26.339844 L 30.578125 24.921875 L 12.238281 6.578125 L 6.578125 12.238281 L 26.339844 32 L 6.578125 51.761719 L 12.238281 57.421875 L 30.578125 39.078125 L 32 37.660156 L 51.761719 57.421875 L 57.417969 51.761719 L 39.078125 33.421875 L 37.660156 32 L 39.078125 30.578125 Z M 57.417969 12.238281 "/>
  </g>
</svg>