<?xml version="1.0" encoding="UTF-8" standalone="yes"?>
<svg xmlns="http://www.w3.org/2000/svg" xmlns:xlink="http://www.w3.org/1999/xlink" width="64" height="64" viewBox="0 0 64 64" version="1.1">
  <g id="surface1">
    <path style=" stroke:none;fill-rule:evenodd;fill:rgb(95.294118%,95.294118%,95.294118%);fill-opacity:1;" d="M 0 32 C 5.84375 20.144531 17.976562 12 32 12 C 46.023438 12 58.15625 20.144531 64 32 C 58.15625 43.855469 46.023438 52 32 52 C 17.976562 52 5.84375 43.855469 0 32 Z M 0 32 "/>
    <path style=" stroke:none;fill-rule:evenodd;fill:rgb(40.000001%,40.000001%,40.000001%);fill-opacity:1;" d="M 2.246094 32 C 7.925781 42.722656 19.125 50 32 50 C 44.875 50 56.074219 42.722656 61.753906 32 C 56.074219 21.277344 44.875 14 32 14 C 19.125 14 7.925781 21.277344 2.246094 32 Z M 64 32 C 58.15625 20.144531 46.023438 12 32 12 C 17.976562 12 5.84375 20.144531 0 32 C 5.84375 43.855469 17.976562 52 32 52 C 46.023438 52 58.15625 43.855469 64 32 Z M 64 32 "/>
    <path style=" stroke:none;fill-rule:nonzero;fill:rgb(40.000001%,40.000001%,40.000001%);fill-opacity:1;" d="M 46 32 C 46 39.730469 39.730469 46 32 46 C 24.269531 46 18 39.730469 18 32 C 18 24.269531 24.269531 18 32 18 C 39.730469 18 46 24.269531 46 32 Z M 46 32 "/>
    <path style=" stroke:none;fill-rule:nonzero;fill:rgb(50.196081%,50.196081%,50.196081%);fill-opacity:1;" d="M 40 32 C 40 36.417969 36.417969 40 32 40 C 27.582031 40 24 36.417969 24 32 C 24 27.582031 27.582031 24 32 24 C 36.417969 24 40 27.582031 40 32 Z M 40 32 "/>
  </g>
</svg>