<?xml version="1.0" encoding="UTF-8" standalone="yes"?>
<svg xmlns="http://www.w3.org/2000/svg" xmlns:xlink="http://www.w3.org/1999/xlink" width="64" height="64" viewBox="0 0 64 64" version="1.1">
  <g id="surface1">
    <path style=" stroke:none;fill-rule:nonzero;fill:rgb(85.09804%,85.09804%,85.09804%);fill-opacity:1;" d="M 46 0 L 46 8 L 24 8 C 21.347656 8 18.804688 9.054688 16.929688 10.929688 C 15.054688 12.804688 14 15.347656 14 18 L 14 38 L 8 38 L 8 0 Z M 46 0 "/>
    <path style=" stroke:none;fill-rule:nonzero;fill:rgb(73.333335%,73.333335%,73.333335%);fill-opacity:1;" d="M 14 38 L 14 54 L 8 54 C 5.878906 54 3.84375 53.15625 2.34375 51.65625 C 0.84375 50.15625 0 48.121094 0 46 L 0 8 C 0 5.878906 0.84375 3.84375 2.34375 2.34375 C 3.84375 0.84375 5.878906 0 8 0 L 8 38 Z M 14 38 "/>
    <path style=" stroke:none;fill-rule:nonzero;fill:rgb(95.294118%,95.294118%,95.294118%);fill-opacity:1;" d="M 14 40 L 14 50 L 11 50 C 9.675781 50 8.402344 49.472656 7.464844 48.535156 C 6.527344 47.597656 6 46.324219 6 45 C 6 43.675781 6.527344 42.402344 7.464844 41.464844 C 8.402344 40.527344 9.675781 40 11 40 Z M 14 40 "/>
    <path style=" stroke:none;fill-rule:nonzero;fill:rgb(40.000001%,40.000001%,40.000001%);fill-opacity:1;" d="M 8 0 C 5.878906 0 3.84375 0.84375 2.34375 2.34375 C 0.84375 3.84375 0 5.878906 0 8 L 0 46 C 0 48.121094 0.84375 50.15625 2.34375 51.65625 C 3.84375 53.15625 5.878906 54 8 54 L 14 54 L 14 52 L 8 52 C 6.410156 52 4.882812 51.367188 3.757812 50.242188 C 2.632812 49.117188 2 47.589844 2 46 L 2 8 C 2 6.410156 2.632812 4.882812 3.757812 3.757812 C 4.882812 2.632812 6.410156 2 8 2 L 44 2 L 44 8 L 46 8 L 46 0 Z M 8 0 "/>
    <path style=" stroke:none;fill-rule:nonzero;fill:rgb(2.352941%,58.823532%,84.313726%);fill-opacity:1;" d="M 48 64 C 56.835938 64 64 56.835938 64 48 C 64 39.164062 56.835938 32 48 32 C 39.164062 32 32 39.164062 32 48 C 32 56.835938 39.164062 64 48 64 Z M 48 64 "/>
    <path style=" stroke:none;fill-rule:nonzero;fill:rgb(73.333335%,73.333335%,73.333335%);fill-opacity:1;" d="M 30 48 L 24 48 L 24 10 C 21.878906 10 19.84375 10.84375 18.34375 12.34375 C 16.84375 13.84375 16 15.878906 16 18 L 16 56 C 16 58.121094 16.84375 60.15625 18.34375 61.65625 C 19.84375 63.15625 21.878906 64 24 64 L 39.78125 64 C 36.835938 62.488281 34.367188 60.195312 32.640625 57.375 C 30.917969 54.550781 30.003906 51.308594 30 48 Z M 30 48 "/>
    <path style=" stroke:none;fill-rule:nonzero;fill:rgb(95.294118%,95.294118%,95.294118%);fill-opacity:1;" d="M 30.121094 50 L 27 50 C 25.675781 50 24.402344 50.527344 23.464844 51.464844 C 22.527344 52.402344 22 53.675781 22 55 C 22 56.324219 22.527344 57.597656 23.464844 58.535156 C 24.402344 59.472656 25.675781 60 27 60 L 34.621094 60 C 32.117188 57.214844 30.542969 53.71875 30.121094 50 Z M 30.121094 50 "/>
    <path style=" stroke:none;fill-rule:nonzero;fill:rgb(85.09804%,85.09804%,85.09804%);fill-opacity:1;" d="M 48 30 C 50.6875 30 53.335938 30.605469 55.757812 31.761719 C 58.179688 32.921875 60.3125 34.609375 62 36.699219 L 62 10 L 24 10 L 24 48 L 30 48 C 30 43.226562 31.894531 38.648438 35.273438 35.273438 C 38.648438 31.894531 43.226562 30 48 30 Z M 48 30 "/>
    <path style=" stroke:none;fill-rule:nonzero;fill:rgb(40.000001%,40.000001%,40.000001%);fill-opacity:1;" d="M 36.699219 62 L 24 62 C 22.410156 62 20.882812 61.367188 19.757812 60.242188 C 18.632812 59.117188 18 57.589844 18 56 L 18 18 C 18 16.410156 18.632812 14.882812 19.757812 13.757812 C 20.882812 12.632812 22.410156 12 24 12 L 60 12 L 60 34.621094 C 60.722656 35.226562 61.390625 35.898438 62 36.621094 L 62 10 L 24 10 C 21.878906 10 19.84375 10.84375 18.34375 12.34375 C 16.84375 13.84375 16 15.878906 16 18 L 16 56 C 16 58.121094 16.84375 60.15625 18.34375 61.65625 C 19.84375 63.15625 21.878906 64 24 64 L 39.78125 64 C 38.6875 63.441406 37.65625 62.773438 36.699219 62 Z M 36.699219 62 "/>
    <path style=" stroke:none;fill-rule:evenodd;fill:rgb(100%,100%,100%);fill-opacity:1;" d="M 36.519531 48.460938 C 36.511719 46.339844 37.121094 44.265625 38.277344 42.488281 C 39.429688 40.710938 41.082031 39.3125 43.023438 38.460938 C 44.964844 37.609375 47.109375 37.347656 49.199219 37.703125 C 51.289062 38.058594 53.230469 39.015625 54.78125 40.460938 L 58.78125 37.660156 L 59.519531 49.039062 L 48 45.300781 L 52.179688 42.339844 C 50.828125 41.265625 49.148438 40.679688 47.421875 40.679688 C 45.96875 40.679688 44.546875 41.085938 43.316406 41.847656 C 42.085938 42.613281 41.089844 43.707031 40.445312 45.007812 C 39.800781 46.304688 39.535156 47.761719 39.671875 49.203125 C 39.8125 50.648438 40.351562 52.023438 41.230469 53.175781 C 42.109375 54.328125 43.292969 55.214844 44.648438 55.730469 C 46.003906 56.246094 47.476562 56.375 48.898438 56.097656 C 50.324219 55.820312 51.640625 55.152344 52.707031 54.167969 C 53.769531 53.183594 54.535156 51.917969 54.921875 50.519531 L 57.859375 51.558594 C 57.109375 54.0625 55.484375 56.214844 53.277344 57.617188 C 51.074219 59.023438 48.441406 59.589844 45.851562 59.214844 C 43.265625 58.839844 40.902344 57.546875 39.1875 55.570312 C 37.476562 53.597656 36.527344 51.074219 36.519531 48.460938 Z M 36.519531 48.460938 "/>
  </g>
</svg>