<?xml version="1.0" encoding="UTF-8" standalone="yes"?>
<svg xmlns="http://www.w3.org/2000/svg" xmlns:xlink="http://www.w3.org/1999/xlink" width="64" height="64" viewBox="0 0 64 64" version="1.1">
  <g id="surface1">
    <path style=" stroke:none;fill-rule:nonzero;fill:rgb(73.333335%,73.333335%,73.333335%);fill-opacity:1;" d="M 57.660156 56 L 6.339844 56 L 4 52 L 60 52 Z M 57.660156 56 "/>
    <path style=" stroke:none;fill-rule:nonzero;fill:rgb(85.09804%,85.09804%,85.09804%);fill-opacity:1;" d="M 58.839844 40 L 5.179688 44 L 4.019531 52 L 60.019531 52 Z M 58.839844 40 "/>
    <path style=" stroke:none;fill-rule:nonzero;fill:rgb(95.294118%,95.294118%,95.294118%);fill-opacity:1;" d="M 58.839844 44 L 5.160156 44 L 16.5 18 L 18.140625 18 L 19.5 20.179688 L 21.878906 24 L 23 25.78125 L 24.199219 23.859375 L 26.238281 20.578125 L 27.859375 18 L 36 18 L 36 34 L 42 34 L 42 18 L 47.5 18 L 57.160156 40.121094 Z M 58.839844 44 "/>
    <path style=" stroke:none;fill-rule:nonzero;fill:rgb(40.000001%,40.000001%,40.000001%);fill-opacity:1;" d="M 61.980469 51.71875 L 60.820312 43.71875 L 60.78125 43.441406 L 60.660156 43.199219 L 49.339844 17.199219 L 48.800781 16 L 42 16 L 42 18 L 47.5 18 L 57.160156 40.121094 L 58.839844 44 L 60 52 L 57.660156 56 L 6.339844 56 L 4 52 L 5.160156 44 L 16.5 18 L 18.140625 18 L 16.898438 16 L 15.199219 16 L 14.660156 17.199219 L 3.339844 43.199219 L 3.21875 43.441406 L 3.179688 43.71875 L 2.019531 51.71875 L 1.921875 52.398438 L 2.28125 53 L 4.601562 57 L 5.179688 58 L 58.820312 58 L 59.398438 57 L 61.71875 53 L 62.078125 52.398438 Z M 36 16 L 29.101562 16 L 27.859375 18 L 36 18 Z M 36 16 "/>
    <path style=" stroke:none;fill-rule:nonzero;fill:rgb(40.000001%,40.000001%,40.000001%);fill-opacity:1;" d="M 19.5 20.179688 L 21.878906 24 C 18.621094 23.980469 16 23.078125 16 22 C 16 21.199219 17.421875 20.5 19.5 20.179688 Z M 19.5 20.179688 "/>
    <path style=" stroke:none;fill-rule:nonzero;fill:rgb(40.000001%,40.000001%,40.000001%);fill-opacity:1;" d="M 28 22 C 28 22.839844 26.417969 23.558594 24.199219 23.859375 L 26.238281 20.578125 C 27.320312 20.960938 28 21.441406 28 22 Z M 28 22 "/>
    <path style=" stroke:none;fill-rule:nonzero;fill:rgb(40.000001%,40.000001%,40.000001%);fill-opacity:1;" d="M 14 48 L 10 48 L 10 62 L 14 62 Z M 14 48 "/>
    <path style=" stroke:none;fill-rule:nonzero;fill:rgb(40.000001%,40.000001%,40.000001%);fill-opacity:1;" d="M 22 48 L 18 48 L 18 62 L 22 62 Z M 22 48 "/>
    <path style=" stroke:none;fill-rule:nonzero;fill:rgb(40.000001%,40.000001%,40.000001%);fill-opacity:1;" d="M 30 48 L 26 48 L 26 62 L 30 62 Z M 30 48 "/>
    <path style=" stroke:none;fill-rule:nonzero;fill:rgb(40.000001%,40.000001%,40.000001%);fill-opacity:1;" d="M 38 48 L 34 48 L 34 62 L 38 62 Z M 38 48 "/>
    <path style=" stroke:none;fill-rule:nonzero;fill:rgb(40.000001%,40.000001%,40.000001%);fill-opacity:1;" d="M 46 48 L 42 48 L 42 62 L 46 62 Z M 46 48 "/>
    <path style=" stroke:none;fill-rule:nonzero;fill:rgb(40.000001%,40.000001%,40.000001%);fill-opacity:1;" d="M 54 48 L 50 48 L 50 62 L 54 62 Z M 54 48 "/>
    <path style=" stroke:none;fill-rule:nonzero;fill:rgb(9.019608%,56.078434%,90.196079%);fill-opacity:1;" d="M 31 2 C 26.039062 2.019531 22.019531 6.039062 22 11 L 22 14 L 18 14 L 23 22 L 28 14 L 24 14 L 24 11 C 24 7.140625 27.140625 4 31 4 C 34.859375 4 38 7.140625 38 11 L 38 32 L 40 32 L 40 11 C 39.980469 6.039062 35.960938 2.019531 31 2 Z M 31 2 "/>
  </g>
</svg>