<?xml version="1.0" encoding="UTF-8" standalone="yes"?>
<svg xmlns="http://www.w3.org/2000/svg" xmlns:xlink="http://www.w3.org/1999/xlink" width="64" height="64" viewBox="0 0 64 64" version="1.1">
  <g id="surface1">
    <path style=" stroke:none;fill-rule:nonzero;fill:rgb(95.294118%,95.294118%,95.294118%);fill-opacity:1;" d="M 24 28 L 10 28 C 8.9375 28 7.921875 28.421875 7.171875 29.171875 C 6.421875 29.921875 6 30.9375 6 32 L 6 46 C 6 47.0625 6.421875 48.078125 7.171875 48.828125 C 7.921875 49.578125 8.9375 50 10 50 L 12 50 L 12 60 L 14 60 L 14 50 L 20 50 L 20 60 L 22 60 L 22 50 L 24 50 C 25.0625 50 26.078125 49.578125 26.828125 48.828125 C 27.578125 48.078125 28 47.0625 28 46 L 28 32 C 28 30.9375 27.578125 29.921875 26.828125 29.171875 C 26.078125 28.421875 25.0625 28 24 28 Z M 24 28 "/>
    <path style=" stroke:none;fill-rule:evenodd;fill:rgb(40.000001%,40.000001%,40.000001%);fill-opacity:1;" d="M 24 48 C 24.53125 48 25.039062 47.789062 25.414062 47.414062 C 25.789062 47.039062 26 46.53125 26 46 L 26 32 C 26 31.46875 25.789062 30.960938 25.414062 30.585938 C 25.039062 30.210938 24.53125 30 24 30 L 10 30 C 9.46875 30 8.960938 30.210938 8.585938 30.585938 C 8.210938 30.960938 8 31.46875 8 32 L 8 46 C 8 46.53125 8.210938 47.039062 8.585938 47.414062 C 8.960938 47.789062 9.46875 48 10 48 Z M 10 28 L 24 28 C 25.0625 28 26.078125 28.421875 26.828125 29.171875 C 27.578125 29.921875 28 30.9375 28 32 L 28 46 C 28 47.0625 27.578125 48.078125 26.828125 48.828125 C 26.078125 49.578125 25.0625 50 24 50 L 22 50 L 22 60 L 20 60 L 20 50 L 14 50 L 14 60 L 12 60 L 12 50 L 10 50 C 8.9375 50 7.921875 49.578125 7.171875 48.828125 C 6.421875 48.078125 6 47.0625 6 46 L 6 32 C 6 30.9375 6.421875 29.921875 7.171875 29.171875 C 7.921875 28.421875 8.9375 28 10 28 Z M 10 28 "/>
    <path style=" stroke:none;fill-rule:nonzero;fill:rgb(40.392157%,69.411767%,90.196079%);fill-opacity:1;" d="M 54 28 L 40 28 C 38.9375 28 37.921875 28.421875 37.171875 29.171875 C 36.421875 29.921875 36 30.9375 36 32 L 36 46 C 36 47.0625 36.421875 48.078125 37.171875 48.828125 C 37.921875 49.578125 38.9375 50 40 50 L 42 50 L 42 60 L 44 60 L 44 50 L 50 50 L 50 60 L 52 60 L 52 50 L 54 50 C 55.0625 50 56.078125 49.578125 56.828125 48.828125 C 57.578125 48.078125 58 47.0625 58 46 L 58 32 C 58 30.9375 57.578125 29.921875 56.828125 29.171875 C 56.078125 28.421875 55.0625 28 54 28 Z M 54 28 "/>
    <path style=" stroke:none;fill-rule:evenodd;fill:rgb(0%,0%,0%);fill-opacity:0.2;" d="M 54 48 C 54.53125 48 55.039062 47.789062 55.414062 47.414062 C 55.789062 47.039062 56 46.53125 56 46 L 56 32 C 56 31.46875 55.789062 30.960938 55.414062 30.585938 C 55.039062 30.210938 54.53125 30 54 30 L 40 30 C 39.46875 30 38.960938 30.210938 38.585938 30.585938 C 38.210938 30.960938 38 31.46875 38 32 L 38 46 C 38 46.53125 38.210938 47.039062 38.585938 47.414062 C 38.960938 47.789062 39.46875 48 40 48 Z M 40 28 L 54 28 C 55.0625 28 56.078125 28.421875 56.828125 29.171875 C 57.578125 29.921875 58 30.9375 58 32 L 58 46 C 58 47.0625 57.578125 48.078125 56.828125 48.828125 C 56.078125 49.578125 55.0625 50 54 50 L 52 50 L 52 60 L 50 60 L 50 50 L 44 50 L 44 60 L 42 60 L 42 50 L 40 50 C 38.9375 50 37.921875 49.578125 37.171875 48.828125 C 36.421875 48.078125 36 47.0625 36 46 L 36 32 C 36 30.9375 36.421875 29.921875 37.171875 29.171875 C 37.921875 28.421875 38.9375 28 40 28 Z M 40 28 "/>
    <path style=" stroke:none;fill-rule:evenodd;fill:rgb(9.019608%,56.078434%,90.196079%);fill-opacity:1;" d="M 29.394531 4.121094 C 31.878906 3.773438 34.410156 3.925781 36.835938 4.566406 C 39.261719 5.210938 41.53125 6.335938 43.519531 7.871094 C 45.5 9.402344 47.15625 11.320312 48.386719 13.503906 C 48.742188 14.117188 49.066406 14.746094 49.355469 15.390625 L 53.300781 14.660156 L 49.960938 24.058594 L 43.5 16.480469 L 47.328125 15.769531 C 47.117188 15.339844 46.894531 14.914062 46.65625 14.5 L 46.648438 14.492188 C 45.546875 12.539062 44.066406 10.824219 42.292969 9.453125 C 40.519531 8.078125 38.488281 7.074219 36.324219 6.5 C 34.15625 5.925781 31.894531 5.789062 29.675781 6.101562 C 27.453125 6.414062 25.316406 7.167969 23.394531 8.316406 L 23.386719 8.324219 C 20.414062 10.0625 18.054688 12.65625 16.597656 15.75 L 20.421875 16.417969 L 14.039062 24.058594 L 10.601562 14.699219 L 14.5625 15.394531 C 16.167969 11.722656 18.894531 8.636719 22.371094 6.597656 C 24.523438 5.3125 26.914062 4.46875 29.394531 4.121094 Z M 29.394531 4.121094 "/>
  </g>
</svg>