<?xml version="1.0" encoding="UTF-8" standalone="yes"?>
<svg xmlns="http://www.w3.org/2000/svg" xmlns:xlink="http://www.w3.org/1999/xlink" width="64" height="64" viewBox="0 0 64 64" version="1.1">
  <g id="surface1">
    <path style=" stroke:none;fill-rule:nonzero;fill:rgb(95.294118%,95.294118%,95.294118%);fill-opacity:1;" d="M 53.140625 10.464844 L 32.804688 30.804688 L 41.289062 39.289062 L 61.628906 18.953125 Z M 53.140625 10.464844 "/>
    <path style=" stroke:none;fill-rule:nonzero;fill:rgb(85.09804%,85.09804%,85.09804%);fill-opacity:1;" d="M 61.621094 18.960938 L 57.980469 15.320312 L 36.660156 36.660156 L 40.300781 40.300781 Z M 61.621094 18.960938 "/>
    <path style=" stroke:none;fill-rule:nonzero;fill:rgb(40.000001%,40.000001%,40.000001%);fill-opacity:1;" d="M 53.140625 13.300781 L 58.800781 18.960938 L 40.300781 37.460938 L 34.640625 31.800781 Z M 53.140625 10.480469 L 31.800781 31.800781 L 40.28125 40.28125 L 61.621094 18.941406 Z M 53.140625 10.480469 "/>
    <path style=" stroke:none;fill-rule:nonzero;fill:rgb(95.294118%,95.294118%,95.294118%);fill-opacity:1;" d="M 18 18 L 4 18 L 4 32 L 18 32 Z M 18 18 "/>
    <path style=" stroke:none;fill-rule:nonzero;fill:rgb(40.000001%,40.000001%,40.000001%);fill-opacity:1;" d="M 11 60 L 14 32 L 8 32 Z M 11 60 "/>
    <path style=" stroke:none;fill-rule:nonzero;fill:rgb(95.294118%,95.294118%,95.294118%);fill-opacity:1;" d="M 22 4 L 0 4 L 0 20 L 22 20 Z M 22 4 "/>
    <path style=" stroke:none;fill-rule:nonzero;fill:rgb(40.000001%,40.000001%,40.000001%);fill-opacity:1;" d="M 16 20 L 16 30 L 6 30 L 6 20 Z M 18 18 L 4 18 L 4 32 L 18 32 Z M 18 18 "/>
    <path style=" stroke:none;fill-rule:nonzero;fill:rgb(40.000001%,40.000001%,40.000001%);fill-opacity:1;" d="M 20 6 L 20 18 L 2 18 L 2 6 Z M 22 4 L 0 4 L 0 20 L 22 20 Z M 22 4 "/>
    <path style=" stroke:none;fill-rule:nonzero;fill:rgb(95.294118%,95.294118%,95.294118%);fill-opacity:1;" d="M 41 19 L 41 5 L 63 5 L 63 19 Z M 41 19 "/>
    <path style=" stroke:none;fill-rule:evenodd;fill:rgb(40.000001%,40.000001%,40.000001%);fill-opacity:1;" d="M 40 4 L 64 4 L 64 20 L 40 20 Z M 42 6 L 42 18 L 62 18 L 62 6 Z M 42 6 "/>
    <path style=" stroke:none;fill-rule:nonzero;fill:rgb(85.09804%,85.09804%,85.09804%);fill-opacity:1;" d="M 20 6 L 14 6 L 14 18 L 20 18 Z M 20 6 "/>
    <path style=" stroke:none;fill-rule:nonzero;fill:rgb(85.09804%,85.09804%,85.09804%);fill-opacity:1;" d="M 62 6 L 56 6 L 56 18 L 62 18 Z M 62 6 "/>
    <path style=" stroke:none;fill-rule:nonzero;fill:rgb(85.09804%,85.09804%,85.09804%);fill-opacity:1;" d="M 16 20 L 12 20 L 12 30 L 16 30 Z M 16 20 "/>
    <path style=" stroke:none;fill-rule:nonzero;fill:rgb(40.000001%,40.000001%,40.000001%);fill-opacity:1;" d="M 12.160156 59.839844 L 38.140625 38.121094 L 33.898438 33.878906 Z M 12.160156 59.839844 "/>
  </g>
</svg>