<?xml version="1.0" encoding="UTF-8" standalone="yes"?>
<svg xmlns="http://www.w3.org/2000/svg" xmlns:xlink="http://www.w3.org/1999/xlink" width="64" height="64" viewBox="0 0 64 64" version="1.1">
  <defs>
    <filter id="alpha" filterUnits="objectBoundingBox" x="0%" y="0%" width="100%" height="100%">
      <feColorMatrix type="matrix" in="SourceGraphic" values="0 0 0 0 1 0 0 0 0 1 0 0 0 0 1 0 0 0 1 0"/>
    </filter>
    <mask id="mask0">
      <g filter="url(#alpha)">
        <rect x="0" y="0" width="64" height="64" style="fill:rgb(0%,0%,0%);fill-opacity:0.2;stroke:none;"/>
      </g>
    </mask>
    <mask id="mask1">
      <g filter="url(#alpha)">
        <rect x="0" y="0" width="64" height="64" style="fill:rgb(0%,0%,0%);fill-opacity:0.2;stroke:none;"/>
      </g>
    </mask>
    <mask id="mask2">
      <g filter="url(#alpha)">
        <rect x="0" y="0" width="64" height="64" style="fill:rgb(0%,0%,0%);fill-opacity:0.2;stroke:none;"/>
      </g>
    </mask>
    <clipPath id="clip1">
      <rect x="0" y="0" width="64" height="64"/>
    </clipPath>
    <clipPath id="clip2">
      <rect x="0" y="0" width="64" height="64"/>
    </clipPath>
    <clipPath id="clip3">
      <rect x="0" y="0" width="64" height="64"/>
    </clipPath>
    <g id="surface5" clip-path="url(#clip1)">
      <path style=" stroke:none;fill-rule:nonzero;fill:rgb(0%,0%,0%);fill-opacity:1;" d="M 58 32 L 58 26 C 58 22.285156 56.523438 18.726562 53.898438 16.101562 C 51.273438 13.476562 47.714844 12 44 12 C 40.285156 12 36.726562 13.476562 34.101562 16.101562 C 31.476562 18.726562 30 22.285156 30 26 L 30 32 L 24 32 L 24 64 L 64 64 L 64 32 Z M 32 30 L 32 26 C 32 22.816406 33.265625 19.765625 35.515625 17.515625 C 37.765625 15.265625 40.816406 14 44 14 C 47.183594 14 50.234375 15.265625 52.484375 17.515625 C 54.734375 19.765625 56 22.816406 56 26 L 56 32 L 52 32 L 52 26 C 52 23.878906 51.15625 21.84375 49.65625 20.34375 C 48.15625 18.84375 46.121094 18 44 18 C 41.878906 18 39.84375 18.84375 38.34375 20.34375 C 36.84375 21.84375 36 23.878906 36 26 L 36 32 L 32 32 Z M 50 32 L 38 32 L 38 26 C 38 24.410156 38.632812 22.882812 39.757812 21.757812 C 40.882812 20.632812 42.410156 20 44 20 C 45.589844 20 47.117188 20.632812 48.242188 21.757812 C 49.367188 22.882812 50 24.410156 50 26 Z M 62 62 L 26 62 L 26 34 L 62 34 Z M 62 62 "/>
    </g>
    <g id="surface8" clip-path="url(#clip2)">
      <path style=" stroke:none;fill-rule:nonzero;fill:rgb(0%,0%,0%);fill-opacity:1;" d="M 20 0 C 16.285156 0 12.726562 1.476562 10.101562 4.101562 C 7.476562 6.726562 6 10.285156 6 14 L 6 20 L 8 20 L 8 14 C 8 10.816406 9.265625 7.765625 11.515625 5.515625 C 13.765625 3.265625 16.816406 2 20 2 C 23.183594 2 26.234375 3.265625 28.484375 5.515625 C 30.734375 7.765625 32 10.816406 32 14 L 32 15.441406 C 32.601562 14.746094 33.269531 14.117188 34 13.558594 C 33.886719 9.921875 32.359375 6.476562 29.746094 3.945312 C 27.132812 1.414062 23.636719 0 20 0 Z M 20 0 "/>
    </g>
    <g id="surface11" clip-path="url(#clip3)">
      <path style=" stroke:none;fill-rule:nonzero;fill:rgb(0%,0%,0%);fill-opacity:1;" d="M 2 20 L 0 20 L 0 52 L 22 52 L 22 50 L 2 50 L 2 22 L 28.5 22 C 28.683594 21.320312 28.910156 20.652344 29.179688 20 L 28 20 L 28 14 C 28 11.878906 27.15625 9.84375 25.65625 8.34375 C 24.15625 6.84375 22.121094 6 20 6 C 17.878906 6 15.84375 6.84375 14.34375 8.34375 C 12.84375 9.84375 12 11.878906 12 14 L 12 20 Z M 14 14 C 14 12.410156 14.632812 10.882812 15.757812 9.757812 C 16.882812 8.632812 18.410156 8 20 8 C 21.589844 8 23.117188 8.632812 24.242188 9.757812 C 25.367188 10.882812 26 12.410156 26 14 L 26 20 L 14 20 Z M 14 14 "/>
    </g>
  </defs>
  <g id="surface1">
    <path style=" stroke:none;fill-rule:nonzero;fill:rgb(100%,66.666669%,0%);fill-opacity:1;" d="M 20 0 C 16.285156 0 12.726562 1.476562 10.101562 4.101562 C 7.476562 6.726562 6 10.285156 6 14 L 6 20 L 0 20 L 0 52 L 22 52 L 22 30 L 28 30 L 28 26 C 28.003906 24.652344 28.171875 23.308594 28.5 22 C 28.683594 21.320312 28.910156 20.652344 29.179688 20 C 29.855469 18.332031 30.808594 16.789062 32 15.441406 C 32.601562 14.746094 33.269531 14.117188 34 13.558594 C 33.886719 9.921875 32.359375 6.476562 29.746094 3.945312 C 27.132812 1.414062 23.636719 0 20 0 Z M 14 20 L 14 14 C 14 12.410156 14.632812 10.882812 15.757812 9.757812 C 16.882812 8.632812 18.410156 8 20 8 C 21.589844 8 23.117188 8.632812 24.242188 9.757812 C 25.367188 10.882812 26 12.410156 26 14 L 26 20 Z M 14 20 "/>
    <path style=" stroke:none;fill-rule:nonzero;fill:rgb(100%,100%,100%);fill-opacity:1;" d="M 20 30 L 16 30 L 16 42 L 20 42 Z M 20 30 "/>
    <path style=" stroke:none;fill-rule:nonzero;fill:rgb(100%,66.666669%,0%);fill-opacity:1;" d="M 58 32 L 58 26 C 58 22.285156 56.523438 18.726562 53.898438 16.101562 C 51.273438 13.476562 47.714844 12 44 12 C 40.285156 12 36.726562 13.476562 34.101562 16.101562 C 31.476562 18.726562 30 22.285156 30 26 L 30 32 L 24 32 L 24 64 L 64 64 L 64 32 Z M 38 32 L 38 26 C 38 24.410156 38.632812 22.882812 39.757812 21.757812 C 40.882812 20.632812 42.410156 20 44 20 C 45.589844 20 47.117188 20.632812 48.242188 21.757812 C 49.367188 22.882812 50 24.410156 50 26 L 50 32 Z M 38 32 "/>
    <path style=" stroke:none;fill-rule:nonzero;fill:rgb(100%,100%,100%);fill-opacity:1;" d="M 46 42 L 42 42 L 42 54 L 46 54 Z M 46 42 "/>
    <use xlink:href="#surface5" mask="url(#mask0)"/>
    <use xlink:href="#surface8" mask="url(#mask1)"/>
    <use xlink:href="#surface11" mask="url(#mask2)"/>
  </g>
</svg>