<?xml version="1.0" encoding="UTF-8" standalone="yes"?>
<svg xmlns="http://www.w3.org/2000/svg" xmlns:xlink="http://www.w3.org/1999/xlink" width="64" height="64" viewBox="0 0 64 64" version="1.1">
  <g id="surface1">
    <path style=" stroke:none;fill-rule:nonzero;fill:rgb(95.294118%,95.294118%,95.294118%);fill-opacity:1;" d="M 50 40 L 14 40 L 14 62 L 50 62 Z M 50 40 "/>
    <path style=" stroke:none;fill-rule:nonzero;fill:rgb(40.000001%,40.000001%,40.000001%);fill-opacity:1;" d="M 12 0 L 12 26 L 52 26 L 52 0 Z M 50 24 L 14 24 L 14 2 L 50 2 Z M 50 24 "/>
    <path style=" stroke:none;fill-rule:nonzero;fill:rgb(40.000001%,40.000001%,40.000001%);fill-opacity:1;" d="M 50 40 L 50 62 L 14 62 L 14 40 L 12 40 L 12 64 L 52 64 L 52 40 Z M 50 40 "/>
    <path style=" stroke:none;fill-rule:nonzero;fill:rgb(40.000001%,40.000001%,40.000001%);fill-opacity:1;" d="M 61.71875 12 L 52 12 L 52 26 L 54 26 L 54 14 L 62 14 L 62 50 L 54 50 L 54 38 L 10 38 L 10 50 L 2 50 L 2 14 L 10 14 L 10 26 L 12 26 L 12 12 L 0 12 L 0 52 L 12 52 L 12 40 L 52 40 L 52 52 L 64 52 L 64 12 Z M 61.71875 12 "/>
    <path style=" stroke:none;fill-rule:nonzero;fill:rgb(95.294118%,95.294118%,95.294118%);fill-opacity:1;" d="M 50 2 L 14 2 L 14 24 L 50 24 Z M 50 2 "/>
    <path style=" stroke:none;fill-rule:nonzero;fill:rgb(40.392157%,69.411767%,90.196079%);fill-opacity:1;" d="M 48 40 L 16 40 L 16 60 L 48 60 Z M 48 40 "/>
    <path style=" stroke:none;fill-rule:nonzero;fill:rgb(60.000002%,60.000002%,60.000002%);fill-opacity:1;" d="M 2 32 L 2 50 L 10 50 L 10 38 L 54 38 L 54 50 L 62 50 L 62 32 Z M 2 32 "/>
    <path style=" stroke:none;fill-rule:nonzero;fill:rgb(95.294118%,95.294118%,95.294118%);fill-opacity:1;" d="M 2 32 L 2 14 L 10 14 L 10 26 L 54 26 L 54 14 L 62 14 L 62 32 Z M 2 32 "/>
  </g>
</svg>