<?xml version="1.0" encoding="UTF-8" standalone="yes"?>
<svg xmlns="http://www.w3.org/2000/svg" xmlns:xlink="http://www.w3.org/1999/xlink" width="64" height="64" viewBox="0 0 64 64" version="1.1">
  <defs>
    <filter id="alpha" filterUnits="objectBoundingBox" x="0%" y="0%" width="100%" height="100%">
      <feColorMatrix type="matrix" in="SourceGraphic" values="0 0 0 0 1 0 0 0 0 1 0 0 0 0 1 0 0 0 1 0"/>
    </filter>
    <mask id="mask0">
      <g filter="url(#alpha)">
        <rect x="0" y="0" width="64" height="64" style="fill:rgb(0%,0%,0%);fill-opacity:0.2;stroke:none;"/>
      </g>
    </mask>
    <clipPath id="clip1">
      <rect x="0" y="0" width="64" height="64"/>
    </clipPath>
    <g id="surface5" clip-path="url(#clip1)">
      <path style=" stroke:none;fill-rule:nonzero;fill:rgb(0%,0%,0%);fill-opacity:1;" d="M 52.761719 30 L 61.761719 48 L 60.761719 50 L 3.238281 50 L 2.238281 48 L 11.238281 30 Z M 54 28 L 10 28 L 0 48 L 2 52 L 62 52 L 64 48 Z M 54 28 "/>
    </g>
  </defs>
  <g id="surface1">
    <path style=" stroke:none;fill-rule:nonzero;fill:rgb(50.980395%,85.09804%,62.352943%);fill-opacity:1;" d="M 10 28 L 0 48 L 64 48 L 54 28 Z M 10 28 "/>
    <path style=" stroke:none;fill-rule:nonzero;fill:rgb(35.294119%,78.039217%,49.411765%);fill-opacity:1;" d="M 0 48 L 2 52 L 62 52 L 64 48 Z M 0 48 "/>
    <path style=" stroke:none;fill-rule:nonzero;fill:rgb(100%,87.450981%,41.568628%);fill-opacity:1;" d="M 12 46 L 18 46 L 22 34 L 16 34 Z M 12 46 "/>
    <path style=" stroke:none;fill-rule:nonzero;fill:rgb(100%,87.450981%,41.568628%);fill-opacity:1;" d="M 20 46 L 26 46 L 30 34 L 24 34 Z M 20 46 "/>
    <path style=" stroke:none;fill-rule:nonzero;fill:rgb(100%,87.450981%,41.568628%);fill-opacity:1;" d="M 28 46 L 36 46 L 34 34 L 30 34 Z M 28 46 "/>
    <path style=" stroke:none;fill-rule:nonzero;fill:rgb(100%,87.450981%,41.568628%);fill-opacity:1;" d="M 40 34 L 34 34 L 38 46 L 44 46 Z M 40 34 "/>
    <path style=" stroke:none;fill-rule:nonzero;fill:rgb(100%,87.450981%,41.568628%);fill-opacity:1;" d="M 48 34 L 42 34 L 46 46 L 52 46 Z M 48 34 "/>
    <path style=" stroke:none;fill-rule:nonzero;fill:rgb(73.333335%,73.333335%,73.333335%);fill-opacity:1;" d="M 54 42 L 10 42 L 8 38 L 56 38 Z M 54 42 "/>
    <path style=" stroke:none;fill-rule:nonzero;fill:rgb(85.09804%,85.09804%,85.09804%);fill-opacity:1;" d="M 55 30 L 9 30 L 8 38 L 56 38 Z M 55 30 "/>
    <path style=" stroke:none;fill-rule:nonzero;fill:rgb(95.294118%,95.294118%,95.294118%);fill-opacity:1;" d="M 47 14 L 17 14 L 9 30 L 55 30 Z M 47 14 "/>
    <path style=" stroke:none;fill-rule:nonzero;fill:rgb(40.000001%,40.000001%,40.000001%);fill-opacity:1;" d="M 45.761719 16 L 53.058594 30.578125 L 53.941406 37.640625 L 52.761719 40 L 11.238281 40 L 10.058594 37.640625 L 10.941406 30.578125 L 18.238281 16 Z M 47 14 L 17 14 L 9 30 L 8 38 L 10 42 L 54 42 L 56 38 L 55 30 Z M 47 14 "/>
    <path style=" stroke:none;fill-rule:nonzero;fill:rgb(40.000001%,40.000001%,40.000001%);fill-opacity:1;" d="M 18 34 L 14 34 L 14 44 L 18 44 Z M 18 34 "/>
    <path style=" stroke:none;fill-rule:nonzero;fill:rgb(40.000001%,40.000001%,40.000001%);fill-opacity:1;" d="M 26 34 L 22 34 L 22 44 L 26 44 Z M 26 34 "/>
    <path style=" stroke:none;fill-rule:nonzero;fill:rgb(40.000001%,40.000001%,40.000001%);fill-opacity:1;" d="M 34 34 L 30 34 L 30 44 L 34 44 Z M 34 34 "/>
    <path style=" stroke:none;fill-rule:nonzero;fill:rgb(40.000001%,40.000001%,40.000001%);fill-opacity:1;" d="M 38 44 L 42 44 L 42 34 L 38 34 Z M 38 44 "/>
    <path style=" stroke:none;fill-rule:nonzero;fill:rgb(40.000001%,40.000001%,40.000001%);fill-opacity:1;" d="M 46 44 L 50 44 L 50 34 L 46 34 Z M 46 44 "/>
    <path style=" stroke:none;fill-rule:nonzero;fill:rgb(40.000001%,40.000001%,40.000001%);fill-opacity:1;" d="M 23 20 C 24.65625 20 26 19.550781 26 19 C 26 18.449219 24.65625 18 23 18 C 21.34375 18 20 18.449219 20 19 C 20 19.550781 21.34375 20 23 20 Z M 23 20 "/>
    <use xlink:href="#surface5" mask="url(#mask0)"/>
  </g>
</svg>