<?xml version="1.0" encoding="UTF-8" standalone="yes"?>
<svg xmlns="http://www.w3.org/2000/svg" xmlns:xlink="http://www.w3.org/1999/xlink" width="64" height="64" viewBox="0 0 64 64" version="1.1">
  <g id="surface1">
    <path style=" stroke:none;fill-rule:nonzero;fill:rgb(85.09804%,85.09804%,85.09804%);fill-opacity:1;" d="M 32 20.839844 L 32 0 L 30 0 L 30 16.140625 C 30.699219 17.640625 31.359375 19.199219 32 20.839844 Z M 32 20.839844 "/>
    <path style=" stroke:none;fill-rule:nonzero;fill:rgb(85.09804%,85.09804%,85.09804%);fill-opacity:1;" d="M 56.359375 30 L 35.238281 30 C 35.28125 30.101562 35.300781 30.199219 35.339844 30.28125 C 35.519531 30.839844 35.71875 31.421875 35.921875 32 L 55.878906 32 C 55.960938 31.699219 56.019531 31.421875 56.101562 31.121094 Z M 56.359375 30 "/>
    <path style=" stroke:none;fill-rule:nonzero;fill:rgb(85.09804%,85.09804%,85.09804%);fill-opacity:1;" d="M 5.898438 30.878906 L 5.640625 32 L 27.460938 32 C 27.238281 31.339844 27.019531 30.679688 26.78125 30 L 6.121094 30 C 6.039062 30.300781 5.960938 30.578125 5.898438 30.878906 Z M 5.898438 30.878906 "/>
    <path style=" stroke:none;fill-rule:nonzero;fill:rgb(85.09804%,85.09804%,85.09804%);fill-opacity:1;" d="M 30 39.359375 L 30 62 L 32 62 L 32 44.539062 C 31.300781 42.898438 30.640625 41.160156 30 39.359375 Z M 30 39.359375 "/>
    <path style=" stroke:none;fill-rule:nonzero;fill:rgb(45.09804%,86.274511%,90.196079%);fill-opacity:1;" d="M 46 56 C 37.640625 56 33.761719 44.441406 29.640625 32.199219 C 26.140625 21.800781 22.179688 10 16 10 C 10.621094 10 5.761719 22.539062 3.960938 30.441406 L 0.0585938 29.558594 C 0.601562 27.140625 5.699219 6 16 6 C 25.058594 6 29.320312 18.660156 33.441406 30.921875 C 36.921875 41.28125 40.519531 52 46 52 C 51.378906 52 56.238281 39.460938 58.039062 31.558594 L 61.941406 32.441406 C 61.398438 34.859375 56.300781 56 46 56 Z M 46 56 "/>
  </g>
</svg>