<?xml version="1.0" encoding="UTF-8" standalone="yes"?>
<svg xmlns="http://www.w3.org/2000/svg" xmlns:xlink="http://www.w3.org/1999/xlink" width="64" height="64" viewBox="0 0 64 64" version="1.1">
  <g id="surface1">
    <path style=" stroke:none;fill-rule:nonzero;fill:rgb(98.823529%,74.509805%,0.784314%);fill-opacity:1;" d="M 59.539062 53.820312 L 35.820312 6.378906 C 34.238281 3.242188 29.761719 3.242188 28.179688 6.378906 L 4.460938 53.820312 C 3.039062 56.660156 5.101562 60 8.28125 60 L 55.71875 60 C 58.898438 60 60.960938 56.660156 59.539062 53.820312 Z M 59.539062 53.820312 "/>
    <path style=" stroke:none;fill-rule:nonzero;fill:rgb(0%,0%,0%);fill-opacity:1;" d="M 31 40 L 33 40 C 33.558594 40 34 39.441406 34 38.761719 L 36 22.5 C 36 21.800781 33.878906 20 33.339844 20 L 30.679688 20 C 30.121094 20 28 21.800781 28 22.5 L 30 38.761719 C 30 39.441406 30.441406 40 31 40 Z M 31 40 "/>
    <path style=" stroke:none;fill-rule:nonzero;fill:rgb(0%,0%,0%);fill-opacity:1;" d="M 32 52 C 34.210938 52 36 50.210938 36 48 C 36 45.789062 34.210938 44 32 44 C 29.789062 44 28 45.789062 28 48 C 28 50.210938 29.789062 52 32 52 Z M 32 52 "/>
  </g>
</svg>