<?xml version="1.0" encoding="UTF-8" standalone="yes"?>
<svg xmlns="http://www.w3.org/2000/svg" xmlns:xlink="http://www.w3.org/1999/xlink" width="64" height="64" viewBox="0 0 64 64" version="1.1">
  <g id="surface1">
    <path style=" stroke:none;fill-rule:nonzero;fill:rgb(85.09804%,85.09804%,85.09804%);fill-opacity:1;" d="M 60.398438 12.199219 L 59 10.199219 L 50.601562 18.601562 L 44.398438 17.398438 L 43.199219 11.199219 L 51.199219 3.199219 L 49.601562 1.800781 C 48.199219 0.601562 46.199219 0 44 0 L 43.601562 0 C 40 0.398438 36.601562 2.199219 34.398438 4.601562 C 30 8.800781 28.601562 15.199219 31 20.601562 C 31.199219 20.800781 31.398438 21.601562 30.800781 22.199219 C 30.601562 22.800781 2.800781 49.199219 2.199219 49.800781 C 0.800781 50.800781 0 52.800781 0 54.800781 C 0 56.800781 0.800781 58.800781 2.199219 59.800781 C 3.601562 61.199219 5.601562 62 7.398438 62 C 9.398438 62 11.398438 61.199219 12.601562 59.800781 C 13 59.398438 39.199219 31.601562 39.800781 31 C 40 30.800781 40.199219 30.601562 40.601562 30.601562 C 40.800781 30.601562 41 30.601562 41.199219 30.800781 L 41.601562 30.800781 C 43 31.601562 44.800781 32 46.800781 32 C 50.800781 32 55.199219 30.199219 57.800781 27.601562 C 60.199219 25.398438 62 22 62.398438 18.398438 L 62.398438 18 C 62.199219 15.800781 61.601562 13.800781 60.398438 12.199219 Z M 7 58 C 5.398438 58 4 56.601562 4 55 C 4 53.398438 5.398438 52 7 52 C 8.601562 52 10 53.398438 10 55 C 10 56.601562 8.601562 58 7 58 Z M 7 58 "/>
  </g>
</svg>