<?xml version="1.0" encoding="UTF-8" standalone="yes"?>
<svg xmlns="http://www.w3.org/2000/svg" xmlns:xlink="http://www.w3.org/1999/xlink" width="64" height="64" viewBox="0 0 64 64" version="1.1">
  <g id="surface1">
    <path style=" stroke:none;fill-rule:nonzero;fill:rgb(45.09804%,77.254903%,100%);fill-opacity:1;" d="M 44 37.160156 L 44 2 L 0 2 L 0 6 L 40 6 L 40 38.839844 L 61.160156 60 L 64 60 L 64 57.160156 Z M 44 37.160156 "/>
    <path style=" stroke:none;fill-rule:nonzero;fill:rgb(100%,83.529413%,50.196081%);fill-opacity:1;" d="M 15 20 L 18.398438 28.800781 L 28 33 L 18.398438 35 L 15 46 L 11.398438 35 L 2 33 L 11.398438 28.800781 Z M 15 20 "/>
    <path style=" stroke:none;fill-rule:nonzero;fill:rgb(100%,83.529413%,50.196081%);fill-opacity:1;" d="M 9 44 L 11.238281 50 L 18 53 L 11.238281 54.5 L 9 62 L 6.5 54.5 L 0 53 L 6.5 50 Z M 9 44 "/>
    <path style=" stroke:none;fill-rule:nonzero;fill:rgb(100%,83.529413%,50.196081%);fill-opacity:1;" d="M 27 38 L 29.238281 44 L 36 47 L 29.238281 48.5 L 27 56 L 24.5 48.5 L 18 47 L 24.5 44 Z M 27 38 "/>
  </g>
</svg>