<?xml version="1.0" encoding="UTF-8" standalone="yes"?>
<svg xmlns="http://www.w3.org/2000/svg" xmlns:xlink="http://www.w3.org/1999/xlink" width="64" height="64" viewBox="0 0 64 64" version="1.1">
  <g id="surface1">
    <path style=" stroke:none;fill-rule:nonzero;fill:rgb(35.294119%,78.039217%,49.411765%);fill-opacity:1;" d="M 64 46 L 0 46 L 6.320312 33.359375 L 6.019531 35.761719 L 5.941406 36.359375 L 6.21875 36.898438 L 8.21875 40.898438 L 8.761719 42 L 55.238281 42 L 55.78125 40.898438 L 57.78125 36.898438 L 58.058594 36.359375 L 57.980469 35.761719 L 57.679688 33.359375 Z M 64 46 "/>
    <path style=" stroke:none;fill-rule:nonzero;fill:rgb(27.843139%,70.19608%,41.960785%);fill-opacity:1;" d="M 0 46 L 2 50 L 62 50 L 64 46 Z M 0 46 "/>
    <path style=" stroke:none;fill-rule:nonzero;fill:rgb(100%,83.529413%,50.196081%);fill-opacity:1;" d="M 19.339844 42 L 18 46 L 12 46 L 13.339844 42 Z M 19.339844 42 "/>
    <path style=" stroke:none;fill-rule:nonzero;fill:rgb(100%,83.529413%,50.196081%);fill-opacity:1;" d="M 27.339844 42 L 26 46 L 20 46 L 21.339844 42 Z M 27.339844 42 "/>
    <path style=" stroke:none;fill-rule:nonzero;fill:rgb(100%,83.529413%,50.196081%);fill-opacity:1;" d="M 36 46 L 28 46 L 28.660156 42 L 35.339844 42 Z M 36 46 "/>
    <path style=" stroke:none;fill-rule:nonzero;fill:rgb(100%,83.529413%,50.196081%);fill-opacity:1;" d="M 44 46 L 38 46 L 36.660156 42 L 42.660156 42 Z M 44 46 "/>
    <path style=" stroke:none;fill-rule:nonzero;fill:rgb(100%,83.529413%,50.196081%);fill-opacity:1;" d="M 52 46 L 46 46 L 44.660156 42 L 50.660156 42 Z M 52 46 "/>
    <path style=" stroke:none;fill-rule:nonzero;fill:rgb(73.333335%,73.333335%,73.333335%);fill-opacity:1;" d="M 54 40 L 10 40 L 8 36 L 56 36 Z M 54 40 "/>
    <path style=" stroke:none;fill-rule:nonzero;fill:rgb(85.09804%,85.09804%,85.09804%);fill-opacity:1;" d="M 55 28 L 9 28 L 8 36 L 56 36 Z M 55 28 "/>
    <path style=" stroke:none;fill-rule:nonzero;fill:rgb(95.294118%,95.294118%,95.294118%);fill-opacity:1;" d="M 47 12 L 17 12 L 9 28 L 55 28 Z M 47 12 "/>
    <path style=" stroke:none;fill-rule:nonzero;fill:rgb(40.000001%,40.000001%,40.000001%);fill-opacity:1;" d="M 18 34 L 14 34 L 14 44 L 18 44 Z M 18 34 "/>
    <path style=" stroke:none;fill-rule:nonzero;fill:rgb(40.000001%,40.000001%,40.000001%);fill-opacity:1;" d="M 26 34 L 22 34 L 22 44 L 26 44 Z M 26 34 "/>
    <path style=" stroke:none;fill-rule:nonzero;fill:rgb(40.000001%,40.000001%,40.000001%);fill-opacity:1;" d="M 34 34 L 30 34 L 30 44 L 34 44 Z M 34 34 "/>
    <path style=" stroke:none;fill-rule:nonzero;fill:rgb(40.000001%,40.000001%,40.000001%);fill-opacity:1;" d="M 38 44 L 42 44 L 42 34 L 38 34 Z M 38 44 "/>
    <path style=" stroke:none;fill-rule:nonzero;fill:rgb(40.000001%,40.000001%,40.000001%);fill-opacity:1;" d="M 46 44 L 50 44 L 50 34 L 46 34 Z M 46 44 "/>
    <path style=" stroke:none;fill-rule:nonzero;fill:rgb(40.000001%,40.000001%,40.000001%);fill-opacity:1;" d="M 23 18 C 24.660156 18 26 17.558594 26 17 C 26 16.441406 24.660156 16 23 16 C 21.339844 16 20 16.441406 20 17 C 20 17.558594 21.339844 18 23 18 Z M 23 18 "/>
  </g>
</svg>