<svg width="64" height="64" viewBox="0 0 64 64" fill="none" xmlns="http://www.w3.org/2000/svg">
<path fill-rule="evenodd" clip-rule="evenodd" d="M34.8823 42H8.76L8.22 40.9L6.22 36.9L5.94 36.36L6.02 35.76L6.32 33.36L0 46H32V44H37L34.8823 42Z" fill="#5AC77E"/>
<path fill-rule="evenodd" clip-rule="evenodd" d="M32 46H0L2 50H32V46Z" fill="#47B36B"/>
<path d="M19.34 42L18 46H12L13.34 42H19.34Z" fill="#FFD580"/>
<path d="M27.34 42L26 46H20L21.34 42H27.34Z" fill="#FFD580"/>
<path d="M47 12H17L9 28H55L47 12Z" fill="#F3F3F3"/>
<path d="M23 18C24.66 18 26 17.56 26 17C26 16.44 24.66 16 23 16C21.34 16 20 16.44 20 17C20 17.56 21.34 18 23 18Z" fill="#666666"/>
<path fill-rule="evenodd" clip-rule="evenodd" d="M54.9444 36H54V37L54.9444 36ZM44 36H43.0556L44 37V36ZM38 36H8L10 40H34L38 36Z" fill="#BBBBBB"/>
<path fill-rule="evenodd" clip-rule="evenodd" d="M9 28H55L55.8766 35.013L54.9444 36H54V32H44V36H43.0556L40.6 33.4L38 36H8L9 28Z" fill="#D9D9D9"/>
<path fill-rule="evenodd" clip-rule="evenodd" d="M42 34.8824V34H41.1667L42 34.8824ZM40 34H38V36L40 34Z" fill="#666666"/>
<path fill-rule="evenodd" clip-rule="evenodd" d="M52 34V38.4272C52.8799 38.6829 53.7168 39.0475 54.4951 39.5048L57.6001 36.4L61.7998 40.6L58.6406 43.7597C59.0303 44.4649 59.3447 45.2154 59.5728 46H64V52H59.5728C59.3447 52.7846 59.0303 53.5352 58.6406 54.2404L61.7998 57.4L57.6001 61.6L54.4951 58.4952C53.7168 58.9526 52.8799 59.3171 52 59.5728V64H46V59.5728C45.2153 59.3448 44.4644 59.0302 43.7593 58.6404L40.6001 61.8L36.3999 57.6L39.5049 54.4951C39.0474 53.7169 38.6831 52.8798 38.4272 52H34V46H38.4272C38.6831 45.1202 39.0474 44.2831 39.5049 43.5048L36.3999 40.4L40.6001 36.2L43.7593 39.3596C44.4644 38.9698 45.2153 38.6552 46 38.4272V34H52ZM49 54C46.2002 54 44 51.8 44 49C44 46.2 46.2002 44 49 44C51.7998 44 54 46.2 54 49C54 51.8 51.7998 54 49 54Z" fill="#73C5FF"/>
<path fill-rule="evenodd" clip-rule="evenodd" d="M34.8824 42H28.66L28 46H32V44H35.67L35.4245 42.512L34.8824 42Z" fill="#FFD580"/>
<path d="M18 34H14V44H18V34Z" fill="#666666"/>
<path d="M26 34H22V44H26V34Z" fill="#666666"/>
<path d="M34 34H30V44H34V34Z" fill="#666666"/>
</svg>
