<?xml version="1.0" encoding="UTF-8" standalone="yes"?>
<svg xmlns="http://www.w3.org/2000/svg" xmlns:xlink="http://www.w3.org/1999/xlink" width="64" height="64" viewBox="0 0 64 64" version="1.1">
  <g id="surface1">
    <path style=" stroke:none;fill-rule:nonzero;fill:rgb(73.333335%,73.333335%,73.333335%);fill-opacity:1;" d="M 64 50 L 50 64 L 50 36 L 64 22 Z M 64 50 "/>
    <path style=" stroke:none;fill-rule:nonzero;fill:rgb(85.09804%,85.09804%,85.09804%);fill-opacity:1;" d="M 50 36 L 2 36 L 2 64 L 50 64 Z M 50 36 "/>
    <path style=" stroke:none;fill-rule:nonzero;fill:rgb(95.294118%,95.294118%,95.294118%);fill-opacity:1;" d="M 30 20 L 30 26 L 16.601562 26 L 26.601562 20 Z M 30 20 "/>
    <path style=" stroke:none;fill-rule:nonzero;fill:rgb(85.09804%,85.09804%,85.09804%);fill-opacity:1;" d="M 24 26 L 24 32 L 14 32 L 14 27.601562 L 16.601562 26 Z M 24 26 "/>
    <path style=" stroke:none;fill-rule:nonzero;fill:rgb(73.333335%,73.333335%,73.333335%);fill-opacity:1;" d="M 30 26 L 24 32 L 24 26 L 30 20 Z M 30 26 "/>
    <path style=" stroke:none;fill-rule:nonzero;fill:rgb(95.294118%,95.294118%,95.294118%);fill-opacity:1;" d="M 52 20 L 42 20 L 36 26 L 52 26 Z M 52 20 "/>
    <path style=" stroke:none;fill-rule:nonzero;fill:rgb(85.09804%,85.09804%,85.09804%);fill-opacity:1;" d="M 46 26 L 36 26 L 36 32 L 46 32 Z M 46 26 "/>
    <path style=" stroke:none;fill-rule:nonzero;fill:rgb(73.333335%,73.333335%,73.333335%);fill-opacity:1;" d="M 52 26 L 46 32 L 46 26 L 52 20 Z M 52 26 "/>
    <path style=" stroke:none;fill-rule:nonzero;fill:rgb(45.09804%,77.254903%,100%);fill-opacity:1;" d="M 36 12 L 16 0 L 16 8 L 0 8 L 0 16 L 16 16 L 16 24 Z M 36 12 "/>
    <path style=" stroke:none;fill-rule:nonzero;fill:rgb(95.294118%,95.294118%,95.294118%);fill-opacity:1;" d="M 54 22 L 54 26.800781 L 46.800781 34 L 34 34 L 34 25.199219 L 37.199219 22 L 32 22 L 32 26.800781 L 24.800781 34 L 12 34 L 12 26 L 2 36 L 50 36 L 64 22 Z M 54 22 "/>
  </g>
</svg>