<?xml version="1.0" encoding="UTF-8" standalone="yes"?>
<svg xmlns="http://www.w3.org/2000/svg" xmlns:xlink="http://www.w3.org/1999/xlink" width="64" height="64" viewBox="0 0 64 64" version="1.1">
  <g id="surface1">
    <path style=" stroke:none;fill-rule:nonzero;fill:rgb(45.09804%,77.254903%,100%);fill-opacity:1;" d="M 40 18 L 40 14 L 32 14 L 32 18 Z M 40 18 "/>
    <path style=" stroke:none;fill-rule:nonzero;fill:rgb(45.09804%,77.254903%,100%);fill-opacity:1;" d="M 40 48 L 40 44 L 32 44 L 32 48 Z M 40 48 "/>
    <path style=" stroke:none;fill-rule:nonzero;fill:rgb(45.09804%,77.254903%,100%);fill-opacity:1;" d="M 51.460938 46.71875 L 50.699219 44.878906 C 51.34375 44.597656 51.96875 44.285156 52.582031 43.941406 C 54.285156 42.949219 55.773438 41.628906 56.964844 40.058594 C 58.152344 38.484375 59.015625 36.691406 59.5 34.78125 C 60.007812 32.875 60.132812 30.890625 59.859375 28.941406 C 59.558594 26.980469 58.878906 25.097656 57.859375 23.398438 C 56.210938 20.566406 53.660156 18.363281 50.621094 17.140625 L 51.378906 15.300781 C 54.824219 16.695312 57.707031 19.191406 59.582031 22.398438 C 60.710938 24.324219 61.449219 26.449219 61.761719 28.660156 C 62.21875 31.992188 61.675781 35.386719 60.207031 38.410156 C 58.738281 41.4375 56.402344 43.960938 53.5 45.660156 C 52.847656 46.0625 52.164062 46.414062 51.460938 46.71875 Z M 51.460938 46.71875 "/>
    <path style=" stroke:none;fill-rule:nonzero;fill:rgb(45.09804%,77.254903%,100%);fill-opacity:1;" d="M 53.460938 50.101562 L 44 46.960938 L 51.441406 40.339844 Z M 53.460938 50.101562 "/>
    <path style=" stroke:none;fill-rule:nonzero;fill:rgb(45.09804%,77.254903%,100%);fill-opacity:1;" d="M 53.460938 11.878906 L 44 15.039062 L 51.460938 21.640625 Z M 53.460938 11.878906 "/>
    <path style=" stroke:none;fill-rule:nonzero;fill:rgb(85.09804%,85.09804%,85.09804%);fill-opacity:1;" d="M 40 28 L 40 24 L 32 24 L 32 10 C 32 9.46875 31.789062 8.960938 31.414062 8.585938 C 31.039062 8.210938 30.53125 8 30 8 L 26 8 L 26 0 L 22 0 L 22 8 L 16 8 L 16 0 L 12 0 L 12 8 L 6 8 L 6 0 L 2 0 L 2 14 L 26 14 L 26 48 L 2 48 L 2 62 L 6 62 L 6 54 L 12 54 L 12 62 L 16 62 L 16 54 L 22 54 L 22 62 L 26 62 L 26 54 L 30 54 C 30.53125 54 31.039062 53.789062 31.414062 53.414062 C 31.789062 53.039062 32 52.53125 32 52 L 32 38 L 40 38 L 40 34 L 32 34 L 32 28 Z M 40 28 "/>
    <path style=" stroke:none;fill-rule:nonzero;fill:rgb(73.333335%,73.333335%,73.333335%);fill-opacity:1;" d="M 22 42 L 22 20 C 22 19.46875 21.789062 18.960938 21.414062 18.585938 C 21.039062 18.210938 20.53125 18 20 18 L 2 18 L 2 44 L 20 44 C 20.53125 44 21.039062 43.789062 21.414062 43.414062 C 21.789062 43.039062 22 42.53125 22 42 Z M 22 42 "/>
  </g>
</svg>