<?xml version="1.0" encoding="UTF-8" standalone="yes"?>
<svg xmlns="http://www.w3.org/2000/svg" xmlns:xlink="http://www.w3.org/1999/xlink" width="64" height="64" viewBox="0 0 64 64" version="1.1">
  <g id="surface1">
    <path style=" stroke:none;fill-rule:evenodd;fill:rgb(100%,83.529413%,50.196081%);fill-opacity:1;" d="M 0 48 L 24 32 L 18 44 L 32 48 L 8 64 L 14 52 Z M 0 48 "/>
    <path style=" stroke:none;fill-rule:evenodd;fill:rgb(45.09804%,77.254903%,100%);fill-opacity:1;" d="M 41.585938 19.585938 L 49.585938 11.585938 L 52.414062 14.414062 L 44.414062 22.414062 Z M 41.585938 19.585938 "/>
    <path style=" stroke:none;fill-rule:nonzero;fill:rgb(45.09804%,77.254903%,100%);fill-opacity:1;" d="M 56 2 C 59.300781 2 62 4.699219 62 8 C 62 11.300781 59.300781 14 56 14 C 52.699219 14 50 11.300781 50 8 C 50 4.699219 52.699219 2 56 2 Z M 56 0 C 51.578125 0 48 3.578125 48 8 C 48 12.421875 51.578125 16 56 16 C 60.421875 16 64 12.421875 64 8 C 64 3.578125 60.421875 0 56 0 Z M 56 0 "/>
    <path style=" stroke:none;fill-rule:nonzero;fill:rgb(85.09804%,85.09804%,85.09804%);fill-opacity:1;" d="M 56 46 C 59.300781 46 62 48.699219 62 52 C 62 55.300781 59.300781 58 56 58 C 52.699219 58 50 55.300781 50 52 C 50 48.699219 52.699219 46 56 46 Z M 56 44 C 51.578125 44 48 47.578125 48 52 C 48 56.421875 51.578125 60 56 60 C 60.421875 60 64 56.421875 64 52 C 64 47.578125 60.421875 44 56 44 Z M 56 44 "/>
    <path style=" stroke:none;fill-rule:nonzero;fill:rgb(85.09804%,85.09804%,85.09804%);fill-opacity:1;" d="M 12 2 C 15.300781 2 18 4.699219 18 8 C 18 11.300781 15.300781 14 12 14 C 8.699219 14 6 11.300781 6 8 C 6 4.699219 8.699219 2 12 2 Z M 12 0 C 7.578125 0 4 3.578125 4 8 C 4 12.421875 7.578125 16 12 16 C 16.421875 16 20 12.421875 20 8 C 20 3.578125 16.421875 0 12 0 Z M 12 0 "/>
    <path style=" stroke:none;fill-rule:nonzero;fill:rgb(85.09804%,85.09804%,85.09804%);fill-opacity:1;" d="M 38 20 C 41.300781 20 44 22.699219 44 26 C 44 29.300781 41.300781 32 38 32 C 34.699219 32 32 29.300781 32 26 C 32 22.699219 34.699219 20 38 20 Z M 38 18 C 33.578125 18 30 21.578125 30 26 C 30 30.421875 33.578125 34 38 34 C 42.421875 34 46 30.421875 46 26 C 46 21.578125 42.421875 18 38 18 Z M 38 18 "/>
    <path style=" stroke:none;fill-rule:evenodd;fill:rgb(85.09804%,85.09804%,85.09804%);fill-opacity:1;" d="M 30.457031 22.839844 L 16.640625 13.960938 L 18.800781 10.597656 L 32.746094 19.558594 L 33.863281 20.402344 L 31.457031 23.597656 Z M 30.457031 22.839844 "/>
    <path style=" stroke:none;fill-rule:evenodd;fill:rgb(85.09804%,85.09804%,85.09804%);fill-opacity:1;" d="M 43.3125 29.746094 L 53.613281 45.484375 L 50.265625 47.675781 L 39.964844 31.933594 Z M 43.3125 29.746094 "/>
    <path style=" stroke:none;fill-rule:nonzero;fill:rgb(45.09804%,77.254903%,100%);fill-opacity:0.301961;" d="M 64 8 C 64 12.417969 60.417969 16 56 16 C 51.582031 16 48 12.417969 48 8 C 48 3.582031 51.582031 0 56 0 C 60.417969 0 64 3.582031 64 8 Z M 64 8 "/>
  </g>
</svg>