<?xml version="1.0" encoding="UTF-8" standalone="yes"?>
<svg xmlns="http://www.w3.org/2000/svg" xmlns:xlink="http://www.w3.org/1999/xlink" width="64" height="64" viewBox="0 0 64 64" version="1.1">
  <g id="surface1">
    <path style=" stroke:none;fill-rule:nonzero;fill:rgb(45.09804%,86.274511%,90.196079%);fill-opacity:1;" d="M 46.101562 4.699219 C 46.921875 5.160156 47.539062 5.800781 47.960938 6.640625 C 48.378906 7.460938 48.578125 8.421875 48.578125 9.5 L 48.578125 12.519531 C 48.578125 13.578125 48.378906 14.539062 47.960938 15.359375 C 47.539062 16.179688 46.921875 16.820312 46.101562 17.300781 C 45.261719 17.761719 44.238281 18 43.039062 18 C 41.839844 18 40.820312 17.761719 40 17.300781 C 39.160156 16.820312 38.539062 16.179688 38.121094 15.359375 C 37.699219 14.539062 37.5 13.601562 37.5 12.519531 L 37.5 9.5 C 37.5 8.421875 37.699219 7.460938 38.121094 6.640625 C 38.539062 5.800781 39.160156 5.160156 40 4.699219 C 40.820312 4.238281 41.839844 4 43.039062 4 C 44.238281 4 45.261719 4.238281 46.101562 4.699219 Z M 40.71875 6.839844 C 40.179688 7.480469 39.921875 8.359375 39.921875 9.480469 L 39.921875 12.558594 C 39.921875 13.660156 40.179688 14.539062 40.699219 15.179688 C 41.238281 15.820312 42 16.121094 43.039062 16.121094 C 44.058594 16.121094 44.839844 15.800781 45.359375 15.160156 C 45.878906 14.519531 46.140625 13.660156 46.140625 12.539062 L 46.140625 9.480469 C 46.140625 8.359375 45.878906 7.480469 45.359375 6.839844 C 44.839844 6.199219 44.058594 5.878906 43.039062 5.878906 C 42 5.878906 41.238281 6.199219 40.71875 6.839844 Z M 40.71875 6.839844 "/>
    <path style=" stroke:none;fill-rule:nonzero;fill:rgb(45.09804%,86.274511%,90.196079%);fill-opacity:1;" d="M 46.101562 36.699219 C 46.921875 37.160156 47.539062 37.800781 47.960938 38.640625 C 48.378906 39.460938 48.578125 40.421875 48.578125 41.5 L 48.578125 44.519531 C 48.578125 45.578125 48.378906 46.539062 47.960938 47.359375 C 47.539062 48.179688 46.921875 48.820312 46.101562 49.300781 C 45.261719 49.761719 44.238281 50 43.039062 50 C 41.839844 50 40.820312 49.761719 40 49.300781 C 39.160156 48.820312 38.539062 48.179688 38.121094 47.359375 C 37.699219 46.539062 37.5 45.601562 37.5 44.519531 L 37.5 41.5 C 37.5 40.421875 37.699219 39.460938 38.121094 38.640625 C 38.539062 37.800781 39.160156 37.160156 40 36.699219 C 40.820312 36.238281 41.839844 36 43.039062 36 C 44.238281 36 45.261719 36.238281 46.101562 36.699219 Z M 40.71875 38.839844 C 40.179688 39.480469 39.921875 40.359375 39.921875 41.480469 L 39.921875 44.558594 C 39.921875 45.660156 40.179688 46.539062 40.699219 47.179688 C 41.238281 47.820312 42 48.121094 43.039062 48.121094 C 44.058594 48.121094 44.839844 47.800781 45.359375 47.160156 C 45.878906 46.519531 46.140625 45.660156 46.140625 44.539062 L 46.140625 41.480469 C 46.140625 40.359375 45.878906 39.480469 45.359375 38.839844 C 44.839844 38.199219 44.058594 37.878906 43.039062 37.878906 C 42 37.878906 41.238281 38.199219 40.71875 38.839844 Z M 40.71875 38.839844 "/>
    <path style=" stroke:none;fill-rule:nonzero;fill:rgb(45.09804%,86.274511%,90.196079%);fill-opacity:1;" d="M 34.320312 5.941406 L 34.320312 16.058594 L 36.121094 16.058594 L 36.121094 18 L 30 18 L 30 16.058594 L 31.800781 16.058594 L 31.800781 5.941406 L 30 5.941406 L 30 4 L 36.121094 4 L 36.121094 5.941406 Z M 34.320312 5.941406 "/>
    <path style=" stroke:none;fill-rule:nonzero;fill:rgb(45.09804%,86.274511%,90.196079%);fill-opacity:1;" d="M 58 16.101562 L 58 18 L 50.460938 18 L 50.460938 16.101562 L 53.238281 16.101562 L 53.238281 6.71875 L 50.898438 7.921875 L 50 6.28125 L 53.800781 4 L 55.601562 4 L 55.601562 16.101562 Z M 58 16.101562 "/>
    <path style=" stroke:none;fill-rule:nonzero;fill:rgb(45.09804%,86.274511%,90.196079%);fill-opacity:1;" d="M 34.320312 37.941406 L 34.320312 48.058594 L 36.121094 48.058594 L 36.121094 50 L 30 50 L 30 48.058594 L 31.800781 48.058594 L 31.800781 37.941406 L 30 37.941406 L 30 36 L 36.121094 36 L 36.121094 37.941406 Z M 34.320312 37.941406 "/>
    <path style=" stroke:none;fill-rule:nonzero;fill:rgb(45.09804%,86.274511%,90.196079%);fill-opacity:1;" d="M 59.140625 48 L 59.140625 50 L 50.28125 50 L 50.28125 48.601562 C 50.28125 47.480469 50.519531 46.539062 51 45.78125 C 51.480469 45.019531 52.160156 44.339844 53.058594 43.71875 L 54.941406 42.421875 C 55.578125 41.980469 56.019531 41.601562 56.28125 41.28125 C 56.519531 40.960938 56.660156 40.601562 56.660156 40.160156 L 56.660156 39.679688 C 56.660156 39.21875 56.460938 38.800781 56.078125 38.441406 C 55.699219 38.078125 55.121094 37.898438 54.378906 37.898438 C 53.800781 37.898438 53.261719 38 52.761719 38.179688 C 52.261719 38.359375 51.699219 38.660156 51.101562 39.078125 L 50 37.601562 C 50.660156 37.078125 51.378906 36.679688 52.101562 36.398438 C 52.839844 36.121094 53.640625 35.980469 54.519531 35.980469 C 55.460938 35.980469 56.28125 36.140625 56.980469 36.5 C 57.679688 36.839844 58.21875 37.28125 58.578125 37.839844 C 58.941406 38.398438 59.121094 38.980469 59.121094 39.621094 L 59.121094 40.21875 C 59.121094 40.921875 58.898438 41.578125 58.441406 42.199219 C 57.980469 42.820312 57.21875 43.480469 56.179688 44.160156 L 54.660156 45.140625 C 53.941406 45.621094 53.441406 46.078125 53.160156 46.5 C 52.878906 46.921875 52.738281 47.421875 52.699219 47.980469 L 59.140625 47.980469 Z M 59.140625 48 "/>
    <path style=" stroke:none;fill-rule:nonzero;fill:rgb(96.862745%,71.372551%,53.333336%);fill-opacity:1;" d="M 22 6 L 22 26 L 2 26 L 2 6 Z M 24 4 L 0 4 L 0 28 L 24 28 Z M 24 4 "/>
    <path style=" stroke:none;fill-rule:nonzero;fill:rgb(85.09804%,85.09804%,85.09804%);fill-opacity:1;" d="M 64 20 L 24 20 L 24 22 L 64 22 Z M 64 20 "/>
    <path style=" stroke:none;fill-rule:nonzero;fill:rgb(96.862745%,71.372551%,53.333336%);fill-opacity:1;" d="M 22 38 L 22 58 L 2 58 L 2 38 Z M 24 36 L 0 36 L 0 60 L 24 60 Z M 24 36 "/>
    <path style=" stroke:none;fill-rule:nonzero;fill:rgb(85.09804%,85.09804%,85.09804%);fill-opacity:1;" d="M 64 52 L 24 52 L 24 54 L 64 54 Z M 64 52 "/>
    <path style=" stroke:none;fill-rule:nonzero;fill:rgb(96.862745%,71.372551%,53.333336%);fill-opacity:0.301961;" d="M 2 6 L 22 6 L 22 26 L 2 26 Z M 2 6 "/>
    <path style=" stroke:none;fill-rule:nonzero;fill:rgb(96.862745%,71.372551%,53.333336%);fill-opacity:0.301961;" d="M 2 38 L 22 38 L 22 58 L 2 58 Z M 2 38 "/>
  </g>
</svg>