<?xml version="1.0" encoding="UTF-8" standalone="yes"?>
<svg xmlns="http://www.w3.org/2000/svg" xmlns:xlink="http://www.w3.org/1999/xlink" width="64" height="64" viewBox="0 0 64 64" version="1.1">
  <g id="surface1">
    <path style=" stroke:none;fill-rule:nonzero;fill:rgb(100%,100%,100%);fill-opacity:1;" d="M 52 0 L 12 0 L 12 22 L 52 22 Z M 52 0 "/>
    <path style=" stroke:none;fill-rule:nonzero;fill:rgb(100%,100%,100%);fill-opacity:1;" d="M 52 42 L 12 42 L 12 64 L 52 64 Z M 52 42 "/>
    <path style=" stroke:none;fill-rule:nonzero;fill:rgb(100%,100%,100%);fill-opacity:1;" d="M 56 10 L 56 24 L 8 24 L 8 10 L 0 10 L 0 32 L 64 32 L 64 10 Z M 56 10 "/>
    <path style=" stroke:none;fill-rule:nonzero;fill:rgb(80.000001%,80.000001%,80.000001%);fill-opacity:1;" d="M 0 32 L 0 54 L 8 54 L 8 40 L 56 40 L 56 54 L 64 54 L 64 32 Z M 0 32 "/>
    <path style=" stroke:none;fill-rule:nonzero;fill:rgb(53.725493%,79.607844%,98.039216%);fill-opacity:1;" d="M 50 42 L 14 42 L 14 62 L 50 62 Z M 50 42 "/>
  </g>
</svg>