<?xml version="1.0" encoding="UTF-8" standalone="yes"?>
<svg xmlns="http://www.w3.org/2000/svg" xmlns:xlink="http://www.w3.org/1999/xlink" width="64" height="64" viewBox="0 0 64 64" version="1.1">
  <g id="surface1">
    <path style=" stroke:none;fill-rule:evenodd;fill:rgb(45.09804%,77.254903%,100%);fill-opacity:1;" d="M 38.171875 10 L 50 10 L 50 14 L 39.828125 14 L 31.828125 22 L 0 22 L 0 18 L 30.171875 18 Z M 38.171875 10 "/>
    <path style=" stroke:none;fill-rule:nonzero;fill:rgb(45.09804%,77.254903%,100%);fill-opacity:1;" d="M 50 30 L 0 30 L 0 34 L 50 34 Z M 50 30 "/>
    <path style=" stroke:none;fill-rule:nonzero;fill:rgb(85.09804%,85.09804%,85.09804%);fill-opacity:1;" d="M 56 6 C 59.300781 6 62 8.699219 62 12 C 62 15.300781 59.300781 18 56 18 C 52.699219 18 50 15.300781 50 12 C 50 8.699219 52.699219 6 56 6 Z M 56 4 C 51.578125 4 48 7.578125 48 12 C 48 16.421875 51.578125 20 56 20 C 60.421875 20 64 16.421875 64 12 C 64 7.578125 60.421875 4 56 4 Z M 56 4 "/>
    <path style=" stroke:none;fill-rule:evenodd;fill:rgb(45.09804%,77.254903%,100%);fill-opacity:1;" d="M 0 42 L 31.828125 42 L 39.828125 50 L 50 50 L 50 54 L 38.171875 54 L 30.171875 46 L 0 46 Z M 0 42 "/>
    <path style=" stroke:none;fill-rule:nonzero;fill:rgb(85.09804%,85.09804%,85.09804%);fill-opacity:1;" d="M 56 46 C 59.300781 46 62 48.699219 62 52 C 62 55.300781 59.300781 58 56 58 C 52.699219 58 50 55.300781 50 52 C 50 48.699219 52.699219 46 56 46 Z M 56 44 C 51.578125 44 48 47.578125 48 52 C 48 56.421875 51.578125 60 56 60 C 60.421875 60 64 56.421875 64 52 C 64 47.578125 60.421875 44 56 44 Z M 56 44 "/>
    <path style=" stroke:none;fill-rule:nonzero;fill:rgb(85.09804%,85.09804%,85.09804%);fill-opacity:1;" d="M 56 26 C 59.300781 26 62 28.699219 62 32 C 62 35.300781 59.300781 38 56 38 C 52.699219 38 50 35.300781 50 32 C 50 28.699219 52.699219 26 56 26 Z M 56 24 C 51.578125 24 48 27.578125 48 32 C 48 36.421875 51.578125 40 56 40 C 60.421875 40 64 36.421875 64 32 C 64 27.578125 60.421875 24 56 24 Z M 56 24 "/>
  </g>
</svg>