<svg width="64" height="64" viewBox="0 0 64 64" fill="none" xmlns="http://www.w3.org/2000/svg">
<path d="M32 0H4V28L8 32H20.82L21.12 32.3L30 41.18V54L36 60L64 32L32 0ZM16 16C15.2089 16 14.4355 15.7654 13.7777 15.3259C13.1199 14.8864 12.6072 14.2616 12.3045 13.5307C12.0017 12.7998 11.9225 11.9956 12.0769 11.2196C12.2312 10.4437 12.6122 9.73098 13.1716 9.17157C13.731 8.61216 14.4437 8.2312 15.2196 8.07686C15.9956 7.92252 16.7998 8.00173 17.5307 8.30448C18.2616 8.60723 18.8864 9.11992 19.3259 9.77772C19.7654 10.4355 20 11.2089 20 12C20 13.0609 19.5786 14.0783 18.8284 14.8284C18.0783 15.5786 17.0609 16 16 16Z" fill="#D9D9D9"/>
<path d="M32.7121 15.3006L31.2979 16.7148L51.2948 36.7118L52.709 35.2976L32.7121 15.3006Z" fill="#666666"/>
<path d="M26.7106 33.2884L25.2964 34.7026L36.299 45.7052L37.7132 44.291L26.7106 33.2884Z" fill="#666666"/>
<path d="M29.3108 21.2761L25.3086 25.2783L26.7228 26.6925L30.725 22.6903L29.3108 21.2761Z" fill="#666666"/>
<path d="M24.6998 28.6998L21.1198 32.2998L20.8198 31.9998H19.9998L19.2998 31.2998L23.2998 27.2998L24.6998 28.6998Z" fill="#666666"/>
<path fill-rule="evenodd" clip-rule="evenodd" d="M0 34V64H28V44H18V34H0Z" fill="#89CBFA"/>
<path fill-rule="evenodd" clip-rule="evenodd" d="M20 34V42H28L24 38L20 34Z" fill="#73C5FF"/>
<path d="M22 48H6V50H22V48Z" fill="white"/>
<path d="M16 44H6V46H16V44Z" fill="white"/>
<path d="M22 52H6V54H22V52Z" fill="white"/>
<path d="M16 56H6V58H16V56Z" fill="white"/>
<path d="M32.7003 27.2791L31.2861 28.6934L44.2828 41.69L45.697 40.2758L32.7003 27.2791Z" fill="#666666"/>
</svg>
