<?xml version="1.0" encoding="UTF-8" standalone="yes"?>
<svg xmlns="http://www.w3.org/2000/svg" xmlns:xlink="http://www.w3.org/1999/xlink" width="66" height="64" viewBox="0 0 66 64" version="1.1">
  <g id="surface1">
    <path style=" stroke:none;fill-rule:nonzero;fill:rgb(73.333335%,73.333335%,73.333335%);fill-opacity:1;" d="M 26 44 L 26 58 L 7 58 C 3.199219 58 0 54.800781 0 51 L 0 8 C 0 4.199219 2.601562 1 6 0 L 6 44 Z M 26 44 "/>
    <path style=" stroke:none;fill-rule:nonzero;fill:rgb(95.294118%,95.294118%,95.294118%);fill-opacity:1;" d="M 26 46 L 9 46 C 6.199219 46 4 48.199219 4 51 C 4 53.800781 6.199219 56 9 56 L 26 56 Z M 26 46 "/>
    <path style=" stroke:none;fill-rule:nonzero;fill:rgb(85.09804%,85.09804%,85.09804%);fill-opacity:1;" d="M 42 36.398438 L 50 41.199219 L 50 0 L 6 0 L 6 44 L 42 44 Z M 42 36.398438 "/>
    <path style=" stroke:none;fill-rule:nonzero;fill:rgb(45.09804%,77.254903%,100%);fill-opacity:1;" d="M 64 52 L 44 40 L 44 48 L 28 48 L 28 56 L 44 56 L 44 64 Z M 64 52 "/>
  </g>
</svg>