<?xml version="1.0" encoding="UTF-8" standalone="yes"?>
<svg xmlns="http://www.w3.org/2000/svg" xmlns:xlink="http://www.w3.org/1999/xlink" width="64" height="64" viewBox="0 0 64 64" version="1.1">
  <g id="surface1">
    <path style=" stroke:none;fill-rule:nonzero;fill:rgb(100%,83.529413%,50.196081%);fill-opacity:1;" d="M 35.179688 20 C 34.921875 20.640625 34.679688 21.320312 34.5 22 C 34.179688 23.28125 34 24.621094 34 26 L 34 30 L 10 30 L 10 52 L 0 52 L 0 20 Z M 35.179688 20 "/>
    <path style=" stroke:none;fill-rule:nonzero;fill:rgb(100%,83.529413%,50.196081%);fill-opacity:1;" d="M 51.441406 10.058594 C 50.980469 10.019531 50.480469 10 50 10 C 49.78125 10 49.539062 10 49.320312 10.019531 C 47.921875 10.078125 46.558594 10.320312 45.28125 10.71875 C 44.640625 10.921875 44 11.160156 43.398438 11.421875 C 42.441406 9.398438 40.378906 8 38 8 C 34.699219 8 32 10.699219 32 14 L 32 20 L 24 20 L 24 14 C 24 6.261719 30.261719 0 38 0 C 44.378906 0 49.738281 4.238281 51.441406 10.058594 Z M 51.441406 10.058594 "/>
    <path style=" stroke:none;fill-rule:nonzero;fill:rgb(100%,83.529413%,50.196081%);fill-opacity:1;" d="M 44 32 L 44 26 C 44 22.699219 46.699219 20 50 20 C 53.300781 20 56 22.699219 56 26 L 56 32 L 64 32 L 64 26 C 64 18.261719 57.738281 12 50 12 C 42.261719 12 36 18.261719 36 26 L 36 32 Z M 44 32 "/>
    <path style=" stroke:none;fill-rule:nonzero;fill:rgb(100%,83.529413%,50.196081%);fill-opacity:1;" d="M 12 32 L 12 64 L 52 64 L 52 32 Z M 34 54 L 30 54 L 30 42 L 34 42 Z M 34 54 "/>
  </g>
</svg>