<?xml version="1.0" encoding="UTF-8" standalone="yes"?>
<svg xmlns="http://www.w3.org/2000/svg" xmlns:xlink="http://www.w3.org/1999/xlink" width="62.060606" height="64" viewBox="0 0 62.060606 64" version="1.1">
  <defs>
    <filter id="alpha" filterUnits="objectBoundingBox" x="0%" y="0%" width="100%" height="100%">
      <feColorMatrix type="matrix" in="SourceGraphic" values="0 0 0 0 1 0 0 0 0 1 0 0 0 0 1 0 0 0 1 0"/>
    </filter>
    <mask id="mask0">
      <g filter="url(#alpha)">
        <rect x="0" y="0" width="62.060606" height="64" style="fill:rgb(0%,0%,0%);fill-opacity:0.5;stroke:none;"/>
      </g>
    </mask>
    <mask id="mask1">
      <g filter="url(#alpha)">
        <rect x="0" y="0" width="62.060606" height="64" style="fill:rgb(0%,0%,0%);fill-opacity:0.5;stroke:none;"/>
      </g>
    </mask>
    <mask id="mask2">
      <g filter="url(#alpha)">
        <rect x="0" y="0" width="62.060606" height="64" style="fill:rgb(0%,0%,0%);fill-opacity:0.5;stroke:none;"/>
      </g>
    </mask>
    <clipPath id="clip1">
      <rect x="0" y="0" width="63" height="64"/>
    </clipPath>
    <clipPath id="clip2">
      <rect x="0" y="0" width="63" height="64"/>
    </clipPath>
    <clipPath id="clip3">
      <rect x="0" y="0" width="63" height="64"/>
    </clipPath>
    <g id="surface5" clip-path="url(#clip1)">
      <path style=" stroke:none;fill-rule:nonzero;fill:rgb(40.000001%,40.000001%,40.000001%);fill-opacity:1;" d="M 11.636719 21.332031 L 11.636719 23.5625 C 9.503906 24.707031 7.503906 25.097656 5.742188 25.097656 C 3.277344 25.097656 1.28125 24.320312 0 23.640625 L 0 21.410156 C 1.261719 22.304688 5.855469 24.960938 11.636719 21.332031 Z M 11.636719 21.332031 "/>
    </g>
    <g id="surface8" clip-path="url(#clip2)">
      <path style=" stroke:none;fill-rule:nonzero;fill:rgb(40.000001%,40.000001%,40.000001%);fill-opacity:1;" d="M 25.210938 21.332031 L 25.210938 23.5625 C 23.078125 24.707031 21.082031 25.097656 19.316406 25.097656 C 16.851562 25.097656 14.855469 24.320312 13.574219 23.640625 L 13.574219 21.410156 C 14.835938 22.304688 19.433594 24.960938 25.210938 21.332031 Z M 25.210938 21.332031 "/>
    </g>
    <g id="surface11" clip-path="url(#clip3)">
      <path style=" stroke:none;fill-rule:nonzero;fill:rgb(40.000001%,40.000001%,40.000001%);fill-opacity:1;" d="M 38.789062 21.332031 L 38.789062 23.5625 C 36.65625 24.707031 34.65625 25.097656 32.890625 25.097656 C 30.429688 25.097656 28.429688 24.320312 27.152344 23.640625 L 27.152344 21.410156 C 28.414062 22.304688 33.007812 24.960938 38.789062 21.332031 Z M 38.789062 21.332031 "/>
    </g>
  </defs>
  <g id="surface1">
    <path style=" stroke:none;fill-rule:nonzero;fill:rgb(73.333335%,73.333335%,73.333335%);fill-opacity:1;" d="M 50.425781 0 L 50.425781 34.519531 C 49.648438 34.851562 48.910156 35.296875 48.234375 35.839844 L 48.078125 35.839844 L 44.992188 38.921875 L 42.277344 39.195312 C 41.058594 39.332031 39.875 39.679688 38.789062 40.242188 L 38.789062 11.636719 Z M 50.425781 0 "/>
    <path style=" stroke:none;fill-rule:nonzero;fill:rgb(95.294118%,95.294118%,95.294118%);fill-opacity:1;" d="M 25.210938 0 L 13.574219 11.636719 C 15.203125 12.859375 17.203125 13.613281 19.394531 13.613281 C 21.585938 13.613281 23.582031 12.859375 25.210938 11.636719 L 36.847656 0 Z M 25.210938 0 "/>
    <path style=" stroke:none;fill-rule:nonzero;fill:rgb(95.294118%,95.294118%,95.294118%);fill-opacity:1;" d="M 38.789062 0 L 27.152344 11.636719 C 28.78125 12.859375 30.777344 13.613281 32.96875 13.613281 C 35.160156 13.613281 37.160156 12.859375 38.789062 11.636719 L 50.425781 0 Z M 38.789062 0 "/>
    <path style=" stroke:none;fill-rule:nonzero;fill:rgb(95.294118%,95.294118%,95.294118%);fill-opacity:1;" d="M 11.636719 0 L 0 11.636719 C 1.628906 12.859375 3.625 13.613281 5.816406 13.613281 C 8.007812 13.613281 10.007812 12.859375 11.636719 11.636719 L 23.273438 0 Z M 11.636719 0 "/>
    <path style=" stroke:none;fill-rule:nonzero;fill:rgb(85.09804%,85.09804%,85.09804%);fill-opacity:1;" d="M 11.636719 11.597656 L 11.636719 52.324219 C 10.820312 52.945312 9.929688 53.410156 8.921875 53.761719 C 7.953125 54.109375 6.902344 54.304688 5.816406 54.304688 C 4.730469 54.304688 3.683594 54.109375 2.714844 53.761719 C 1.707031 53.410156 0.816406 52.945312 0 52.324219 L 0 11.597656 C 0.816406 12.21875 1.707031 12.683594 2.714844 13.03125 C 3.683594 13.382812 4.730469 13.574219 5.816406 13.574219 C 6.902344 13.574219 7.953125 13.382812 8.921875 13.03125 C 9.929688 12.683594 10.820312 12.21875 11.636719 11.597656 Z M 11.636719 11.597656 "/>
    <path style=" stroke:none;fill-rule:nonzero;fill:rgb(85.09804%,85.09804%,85.09804%);fill-opacity:1;" d="M 25.210938 11.597656 L 25.210938 52.324219 C 24.398438 52.945312 23.503906 53.410156 22.496094 53.761719 C 21.527344 54.109375 20.480469 54.304688 19.394531 54.304688 C 18.308594 54.304688 17.261719 54.109375 16.289062 53.761719 C 15.28125 53.410156 14.390625 52.945312 13.574219 52.324219 L 13.574219 11.597656 C 14.390625 12.21875 15.28125 12.683594 16.289062 13.03125 C 17.261719 13.382812 18.308594 13.574219 19.394531 13.574219 C 20.480469 13.574219 21.527344 13.382812 22.496094 13.03125 C 23.503906 12.683594 24.398438 12.21875 25.210938 11.597656 Z M 25.210938 11.597656 "/>
    <path style=" stroke:none;fill-rule:nonzero;fill:rgb(85.09804%,85.09804%,85.09804%);fill-opacity:1;" d="M 38.789062 11.597656 L 38.789062 40.242188 C 37.914062 40.6875 37.121094 41.269531 36.421875 41.949219 L 30.933594 47.4375 C 30.023438 48.347656 29.324219 49.394531 28.839844 50.578125 C 28.507812 51.355469 28.296875 52.167969 28.199219 53.003906 C 27.832031 52.808594 27.480469 52.578125 27.152344 52.324219 L 27.152344 11.597656 C 27.152344 11.597656 27.171875 11.597656 27.171875 11.617188 C 27.984375 12.21875 28.859375 12.683594 29.867188 13.03125 C 30.835938 13.382812 31.882812 13.574219 32.96875 13.574219 C 34.054688 13.574219 35.101562 13.382812 36.074219 13.03125 C 37.082031 12.683594 37.972656 12.21875 38.789062 11.597656 Z M 38.789062 11.597656 "/>
    <path style=" stroke:none;fill-rule:nonzero;fill:rgb(96.862745%,71.372551%,53.333336%);fill-opacity:1;" d="M 47.128906 47.785156 C 47.28125 48.425781 47.28125 49.085938 47.128906 49.726562 C 46.953125 50.425781 46.605469 51.0625 46.097656 51.570312 L 40.628906 57.039062 C 39.894531 57.714844 38.921875 58.066406 37.933594 58.046875 C 36.945312 58.027344 35.996094 57.621094 35.277344 56.921875 C 34.578125 56.222656 34.171875 55.273438 34.132812 54.285156 C 34.113281 53.292969 34.464844 52.324219 35.121094 51.585938 L 39 47.613281 C 39.234375 45.246094 40.359375 43.035156 42.144531 41.445312 L 42.453125 41.152344 C 40.6875 41.328125 39.039062 42.105469 37.78125 43.34375 L 32.289062 48.832031 C 31.574219 49.550781 30.992188 50.40625 30.605469 51.355469 C 30.214844 52.304688 30.023438 53.3125 30.023438 54.324219 C 30.023438 55.351562 30.214844 56.359375 30.605469 57.289062 C 30.992188 58.238281 31.574219 59.09375 32.289062 59.8125 C 33.007812 60.527344 33.863281 61.109375 34.8125 61.5 C 35.761719 61.886719 36.769531 62.078125 37.78125 62.078125 C 38.808594 62.078125 39.816406 61.886719 40.746094 61.5 C 41.695312 61.109375 42.550781 60.527344 43.269531 59.8125 L 45.324219 57.753906 L 48.871094 54.265625 C 49.414062 53.703125 49.863281 53.042969 50.191406 52.324219 C 50.753906 51.296875 51.0625 50.171875 51.101562 49.007812 C 51.160156 47.535156 50.792969 46.0625 50.035156 44.78125 Z M 47.128906 47.785156 "/>
    <path style=" stroke:none;fill-rule:nonzero;fill:rgb(96.862745%,71.372551%,53.333336%);fill-opacity:1;" d="M 48.890625 37.777344 L 46.953125 39.71875 L 43.460938 43.210938 C 42.917969 43.792969 42.472656 44.449219 42.125 45.148438 C 41.621094 46.117188 41.308594 47.164062 41.230469 48.25 C 41.132812 49.804688 41.484375 51.355469 42.277344 52.691406 L 44.21875 50.753906 L 44.742188 50.230469 L 45.148438 49.804688 C 45.03125 49.242188 45.03125 48.660156 45.148438 48.097656 C 45.304688 47.359375 45.652344 46.699219 46.175781 46.15625 L 48.929688 43.402344 L 50.289062 42.046875 L 51.664062 40.667969 C 52.402344 39.933594 53.371094 39.523438 54.398438 39.523438 C 55.429688 39.523438 56.417969 39.933594 57.152344 40.667969 C 57.890625 41.40625 58.296875 42.375 58.296875 43.421875 C 58.296875 44.449219 57.890625 45.441406 57.152344 46.15625 L 52.964844 50.171875 C 52.675781 52.226562 51.722656 54.148438 50.25 55.621094 L 49.414062 56.476562 C 51.316406 56.378906 53.101562 55.582031 54.457031 54.246094 L 59.925781 48.757812 C 61.324219 47.28125 62.082031 45.34375 62.0625 43.304688 C 62.042969 41.289062 61.226562 39.351562 59.792969 37.914062 C 58.355469 36.480469 56.4375 35.664062 54.398438 35.644531 C 52.382812 35.625 50.425781 36.382812 48.949219 37.777344 Z M 48.890625 37.777344 "/>
    <use xlink:href="#surface5" mask="url(#mask0)"/>
    <use xlink:href="#surface8" mask="url(#mask1)"/>
    <use xlink:href="#surface11" mask="url(#mask2)"/>
  </g>
</svg>