<?xml version="1.0" encoding="UTF-8" standalone="yes"?>
<svg xmlns="http://www.w3.org/2000/svg" xmlns:xlink="http://www.w3.org/1999/xlink" width="64" height="64" viewBox="0 0 64 64" version="1.1">
  <defs>
    <filter id="alpha" filterUnits="objectBoundingBox" x="0%" y="0%" width="100%" height="100%">
      <feColorMatrix type="matrix" in="SourceGraphic" values="0 0 0 0 1 0 0 0 0 1 0 0 0 0 1 0 0 0 1 0"/>
    </filter>
    <mask id="mask0">
      <g filter="url(#alpha)">
        <rect x="0" y="0" width="64" height="64" style="fill:rgb(0%,0%,0%);fill-opacity:0.4;stroke:none;"/>
      </g>
    </mask>
    <mask id="mask1">
      <g filter="url(#alpha)">
        <rect x="0" y="0" width="64" height="64" style="fill:rgb(0%,0%,0%);fill-opacity:0.4;stroke:none;"/>
      </g>
    </mask>
    <clipPath id="clip1">
      <rect x="0" y="0" width="64" height="64"/>
    </clipPath>
    <clipPath id="clip2">
      <rect x="0" y="0" width="64" height="64"/>
    </clipPath>
    <g id="surface5" clip-path="url(#clip1)">
      <path style=" stroke:none;fill-rule:nonzero;fill:rgb(100%,100%,100%);fill-opacity:1;" d="M 10 34 L 28 34 L 28 38 L 10 38 Z M 10 34 "/>
    </g>
    <g id="surface8" clip-path="url(#clip2)">
      <path style=" stroke:none;fill-rule:nonzero;fill:rgb(100%,100%,100%);fill-opacity:1;" d="M 32 16 L 40 16 L 40 26 L 32 26 Z M 32 16 "/>
    </g>
  </defs>
  <g id="surface1">
    <path style=" stroke:none;fill-rule:nonzero;fill:rgb(50.980395%,85.09804%,62.352943%);fill-opacity:1;" d="M 29.179688 46.679688 L 37.378906 38.480469 L 45.339844 46.441406 L 58 33.800781 L 58 4 L 16 4 L 2 18 L 2 30 L 10 30 L 10 42 L 2 42 L 2 48 L 30.480469 48 Z M 29.179688 46.679688 "/>
    <path style=" stroke:none;fill-rule:nonzero;fill:rgb(40.000001%,40.000001%,40.000001%);fill-opacity:1;" d="M 24 10 L 48 10 L 48 16 L 24 16 Z M 24 10 "/>
    <path style=" stroke:none;fill-rule:nonzero;fill:rgb(85.09804%,85.09804%,85.09804%);fill-opacity:1;" d="M 0 32 L 8 32 L 8 40 L 0 40 Z M 0 32 "/>
    <path style=" stroke:none;fill-rule:nonzero;fill:rgb(40.000001%,40.000001%,40.000001%);fill-opacity:1;" d="M 32 42 L 33.859375 42 L 37.378906 38.480469 L 40.820312 42 C 42.703125 41.605469 44.039062 39.925781 44 38 L 44 30 C 44 27.789062 42.210938 26 40 26 L 32 26 C 29.789062 26 28 27.789062 28 30 L 28 38 C 28 40.210938 29.789062 42 32 42 Z M 32 42 "/>
    <path style=" stroke:none;fill-rule:nonzero;fill:rgb(38.431373%,85.09804%,52.941179%);fill-opacity:1;" d="M 45.339844 60 L 32 46.679688 L 37.378906 41.320312 L 45.339844 49.261719 L 58.621094 36 L 64 41.359375 Z M 45.339844 60 "/>
    <use xlink:href="#surface5" mask="url(#mask0)"/>
    <use xlink:href="#surface8" mask="url(#mask1)"/>
  </g>
</svg>