<?xml version="1.0" encoding="UTF-8" standalone="yes"?>
<svg xmlns="http://www.w3.org/2000/svg" xmlns:xlink="http://www.w3.org/1999/xlink" width="64" height="64" viewBox="0 0 64 64" version="1.1">
  <g id="surface1">
    <path style=" stroke:none;fill-rule:nonzero;fill:rgb(85.09804%,85.09804%,85.09804%);fill-opacity:1;" d="M 31.640625 55.21875 C 31.359375 54.820312 31.078125 54.421875 30.839844 54 C 30.621094 53.640625 30.421875 53.28125 30.21875 52.921875 L 30.058594 52.601562 L 29.738281 51.980469 L 29.960938 51.578125 L 30.261719 51.019531 C 30.261719 51 30.28125 51 30.300781 50.980469 C 31.679688 48.460938 33.480469 46.300781 35.660156 44.558594 L 34.140625 43.039062 L 39.078125 38.101562 L 42 41.058594 L 43.078125 40.761719 C 44.621094 40.320312 46.238281 40.078125 47.921875 40 C 47.921875 40 47.921875 40 47.941406 40 C 48.640625 40.019531 49.359375 40.078125 50.039062 40.179688 C 50.179688 40.199219 50.320312 40.238281 50.480469 40.261719 C 50.679688 40.300781 50.898438 40.339844 51.101562 40.378906 C 51.398438 40.441406 51.71875 40.480469 52.019531 40.539062 L 58 22.398438 L 29 0 L 0 22.398438 L 11.078125 56 L 32.21875 56 C 32.078125 55.820312 31.941406 55.621094 31.800781 55.441406 C 31.738281 55.359375 31.679688 55.300781 31.640625 55.21875 Z M 31.640625 55.21875 "/>
    <path style=" stroke:none;fill-rule:nonzero;fill:rgb(90.196079%,45.09804%,45.09804%);fill-opacity:1;" d="M 39.0625 40.941406 L 36.941406 43.0625 L 56.9375 63.058594 L 59.058594 60.9375 Z M 39.0625 40.941406 "/>
    <path style=" stroke:none;fill-rule:evenodd;fill:rgb(45.09804%,77.254903%,100%);fill-opacity:1;" d="M 48.980469 57.921875 C 48.660156 57.980469 48.339844 58 48 58 C 44.679688 58 42 55.320312 42 52 C 42 51.660156 42.019531 51.339844 42.078125 51.019531 L 37.058594 46 C 35 47.601562 33.28125 49.640625 32 52 C 35.140625 57.980469 41.261719 61.800781 48 62 C 49.5 61.941406 50.960938 61.71875 52.378906 61.320312 Z M 48 42 C 46.5 42.058594 45.039062 42.28125 43.621094 42.679688 L 47.019531 46.078125 C 47.339844 46.019531 47.660156 46 48 46 C 51.320312 46 54 48.679688 54 52 C 54 52.339844 53.980469 52.660156 53.921875 52.980469 L 58.960938 58.019531 C 61.019531 56.441406 62.761719 54.398438 64 52 C 60.839844 46.039062 54.738281 42.238281 48 42 Z M 48 42 "/>
  </g>
</svg>