<svg width="64" height="64" viewBox="0 0 64 64" fill="none" xmlns="http://www.w3.org/2000/svg">
<path d="M54 2V43.12C52.08 42.44 50.04 42.06 47.92 42C40.5 42.28 33.72 46.5 30.24 53.06L29.74 54H2V2H54Z" fill="#D9D9D9" fill-opacity="0.3"/>
<path d="M0 0V56H30.84C30.62 55.64 30.42 55.28 30.22 54.92L29.74 54H20V38H12V31.9C14.28 31.44 16 29.42 16 27C16 24.24 13.76 22 11 22C8.24 22 6 24.24 6 27C6 29.42 7.72 31.44 10 31.9V38H2V10H17.58L19.28 11.7C18.5 12.58 18 13.72 18 15C18 17.76 20.24 20 23 20C25.76 20 28 17.76 28 15C28 12.24 25.76 10 23 10C22.24 10 21.54 10.18 20.9 10.48L18.42 8H2V2H30V24.1C27.72 24.56 26 26.58 26 29C26 31.76 28.24 34 31 34C31.76 34 32.46 33.82 33.1 33.52L37.58 38L39.58 40H54V43.12C54.68 43.34 55.36 43.6 56 43.88V0H0ZM8 27C8 25.34 9.34 24 11 24C12.66 24 14 25.34 14 27C14 28.66 12.66 30 11 30C9.34 30 8 28.66 8 27ZM23 12C24.66 12 26 13.34 26 15C26 16.66 24.66 18 23 18C21.34 18 20 16.66 20 15C20 13.34 21.34 12 23 12ZM31 32C29.34 32 28 30.66 28 29C28 27.34 29.34 26 31 26C32.66 26 34 27.34 34 29C34 30.66 32.66 32 31 32ZM54 30H46.42L42 25.58V19.9C44.28 19.44 46 17.42 46 15C46 12.24 43.76 10 41 10C38.24 10 36 12.24 36 15C36 17.42 37.72 19.44 40 19.9V26.42L45.58 32H54V38H40.42L34.72 32.3C35.5 31.42 36 30.28 36 29C36 26.58 34.28 24.56 32 24.1V2H54V30ZM41 18C39.34 18 38 16.66 38 15C38 13.34 39.34 12 41 12C42.66 12 44 13.34 44 15C44 16.66 42.66 18 41 18Z" fill="#D9D9D9"/>
<path fill-rule="evenodd" clip-rule="evenodd" d="M42 54C42 50.68 44.68 48 48 48C51.32 48 54 50.68 54 54C54 57.32 51.32 60 48 60C44.68 60 42 57.32 42 54ZM32 54C35.14 59.98 41.26 63.8 48 64C54.74 63.78 60.86 59.98 64 54C60.84 48.04 54.74 44.24 48 44C41.26 44.24 35.18 48.06 32 54ZM44 54C44 56.2 45.8 58 48 58C50.2 58 52 56.2 52 54C52 51.8 50.2 50 48 50C45.8 50 44 51.8 44 54Z" fill="#73C5FF"/>
<path d="M18 40H2V54H18V40Z" fill="#999999"/>
</svg>
