<?xml version="1.0" encoding="UTF-8" standalone="yes"?>
<svg xmlns="http://www.w3.org/2000/svg" xmlns:xlink="http://www.w3.org/1999/xlink" width="64" height="64" viewBox="0 0 64 64" version="1.1">
  <g id="surface1">
    <path style=" stroke:none;fill-rule:nonzero;fill:rgb(85.09804%,85.09804%,85.09804%);fill-opacity:1;" d="M 12 21.21875 L 12 23.578125 C 5.359375 28.28125 4.21875 42.621094 4.039062 52 L 2.039062 52 C 2.238281 41.761719 3.578125 25.699219 12 21.21875 Z M 12 21.21875 "/>
    <path style=" stroke:none;fill-rule:nonzero;fill:rgb(85.09804%,85.09804%,85.09804%);fill-opacity:1;" d="M 44 38.839844 L 44 41.019531 C 39.640625 39.28125 36.019531 35.480469 32.480469 31.78125 C 29.058594 28.21875 25.800781 24.800781 22 23.121094 L 22 20.941406 C 26.558594 22.679688 30.28125 26.578125 33.921875 30.398438 C 37.21875 33.839844 40.378906 37.160156 44 38.839844 Z M 44 38.839844 "/>
    <path style=" stroke:none;fill-rule:nonzero;fill:rgb(85.09804%,85.09804%,85.09804%);fill-opacity:1;" d="M 62 12 C 62.019531 21.660156 61.621094 33.621094 56.160156 39.101562 C 55.5 39.761719 54.78125 40.320312 54 40.738281 L 54 38.320312 C 54.261719 38.140625 54.5 37.921875 54.738281 37.679688 C 59.621094 32.78125 60 21.519531 60 12 Z M 62 12 "/>
    <path style=" stroke:none;fill-rule:nonzero;fill:rgb(45.09804%,77.254903%,100%);fill-opacity:1;" d="M 6 54 L 0 54 L 0 60 L 6 60 Z M 6 54 "/>
    <path style=" stroke:none;fill-rule:nonzero;fill:rgb(45.09804%,77.254903%,100%);fill-opacity:1;" d="M 52 38 L 46 38 L 46 44 L 52 44 Z M 52 38 "/>
    <path style=" stroke:none;fill-rule:nonzero;fill:rgb(45.09804%,77.254903%,100%);fill-opacity:1;" d="M 20 18 L 14 18 L 14 24 L 20 24 Z M 20 18 "/>
    <path style=" stroke:none;fill-rule:nonzero;fill:rgb(45.09804%,77.254903%,100%);fill-opacity:1;" d="M 64 4 L 58 4 L 58 10 L 64 10 Z M 64 4 "/>
    <path style=" stroke:none;fill-rule:nonzero;fill:rgb(50.980395%,85.09804%,62.352943%);fill-opacity:1;" d="M 59 41.921875 C 56.339844 44.578125 52.878906 46 48.980469 46 C 40.519531 46 34.699219 39.921875 29.578125 34.539062 C 25.378906 30.160156 22 26 17 26 C 10 26 8 42.859375 8 57 L 8 60 L 62 60 L 62 37.71875 C 61.179688 39.28125 60.199219 40.71875 59 41.921875 Z M 59 41.921875 "/>
  </g>
</svg>