<?xml version="1.0" encoding="UTF-8" standalone="yes"?>
<svg xmlns="http://www.w3.org/2000/svg" xmlns:xlink="http://www.w3.org/1999/xlink" width="64" height="64" viewBox="0 0 64 64" version="1.1">
  <g id="surface1">
    <path style=" stroke:none;fill-rule:nonzero;fill:rgb(85.09804%,85.09804%,85.09804%);fill-opacity:0.301961;" d="M 50 2 L 50 30 L 42 30 L 42 42 L 30 42 L 30 52 L 12 52 L 12 2 Z M 50 2 "/>
    <path style=" stroke:none;fill-rule:nonzero;fill:rgb(96.862745%,71.372551%,53.333336%);fill-opacity:1;" d="M 10 10 L 0 10 L 0 14 L 10 14 Z M 10 10 "/>
    <path style=" stroke:none;fill-rule:nonzero;fill:rgb(85.09804%,85.09804%,85.09804%);fill-opacity:1;" d="M 26 8 L 18 8 L 18 10 L 26 10 Z M 26 8 "/>
    <path style=" stroke:none;fill-rule:nonzero;fill:rgb(96.862745%,71.372551%,53.333336%);fill-opacity:1;" d="M 10 20 L 0 20 L 0 24 L 10 24 Z M 10 20 "/>
    <path style=" stroke:none;fill-rule:nonzero;fill:rgb(96.862745%,71.372551%,53.333336%);fill-opacity:1;" d="M 10 30 L 0 30 L 0 34 L 10 34 Z M 10 30 "/>
    <path style=" stroke:none;fill-rule:nonzero;fill:rgb(96.862745%,71.372551%,53.333336%);fill-opacity:1;" d="M 10 40 L 0 40 L 0 44 L 10 44 Z M 10 40 "/>
    <path style=" stroke:none;fill-rule:nonzero;fill:rgb(96.862745%,71.372551%,53.333336%);fill-opacity:1;" d="M 62 10 L 52 10 L 52 14 L 62 14 Z M 62 10 "/>
    <path style=" stroke:none;fill-rule:nonzero;fill:rgb(96.862745%,71.372551%,53.333336%);fill-opacity:1;" d="M 62 20 L 52 20 L 52 24 L 62 24 Z M 62 20 "/>
    <path style=" stroke:none;fill-rule:nonzero;fill:rgb(96.862745%,71.372551%,53.333336%);fill-opacity:1;" d="M 62 30 L 54 30 L 54 34 L 62 34 Z M 62 30 "/>
    <path style=" stroke:none;fill-rule:nonzero;fill:rgb(96.862745%,71.372551%,53.333336%);fill-opacity:1;" d="M 62 40 L 54 40 L 54 42 L 62 42 Z M 62 40 "/>
    <path style=" stroke:none;fill-rule:nonzero;fill:rgb(85.09804%,85.09804%,85.09804%);fill-opacity:1;" d="M 12 2 L 12 52 L 30 52 L 30 50 L 14 50 L 14 4 L 48 4 L 48 30 L 50 30 L 50 2 Z M 12 2 "/>
    <path style=" stroke:none;fill-rule:evenodd;fill:rgb(38.431373%,85.09804%,52.941179%);fill-opacity:1;" d="M 64 44 L 52 44 L 52 32 L 44 32 L 44 44 L 32 44 L 32 52 L 44 52 L 44 64 L 52 64 L 52 52 L 64 52 Z M 64 44 "/>
  </g>
</svg>