<?xml version="1.0" encoding="UTF-8" standalone="yes"?>
<svg xmlns="http://www.w3.org/2000/svg" xmlns:xlink="http://www.w3.org/1999/xlink" width="64" height="64" viewBox="0 0 64 64" version="1.1">
  <g id="surface1">
    <path style=" stroke:none;fill-rule:nonzero;fill:rgb(85.09804%,85.09804%,85.09804%);fill-opacity:1;" d="M 52 18 L 52 30 L 42 30 L 42 42 L 30 42 L 30 54 L 42 54 L 42 60 L 0 60 L 0 0 L 34 0 L 34 18 Z M 52 18 "/>
    <path style=" stroke:none;fill-rule:nonzero;fill:rgb(95.294118%,95.294118%,95.294118%);fill-opacity:1;" d="M 36 16 L 52 16 L 36 0 Z M 36 16 "/>
    <path style=" stroke:none;fill-rule:nonzero;fill:rgb(38.431373%,81.176472%,85.09804%);fill-opacity:1;" d="M 30 54 L 42 54 L 42 60 L 0 60 L 0 30 L 42 30 L 42 42 L 30 42 Z M 30 54 "/>
    <path style=" stroke:none;fill-rule:nonzero;fill:rgb(100%,100%,100%);fill-opacity:1;" d="M 35.601562 54 C 34.238281 54.941406 32.820312 55.5 31.339844 55.5 C 27.078125 55.5 24.660156 50.78125 22.359375 46 C 22.28125 45.839844 22.199219 45.660156 22.121094 45.480469 C 21.878906 44.980469 21.640625 44.5 21.398438 44 C 19.78125 40.699219 18 37.5 16 37.5 C 12.980469 37.5 10.679688 40.320312 8.640625 44 C 8.261719 44.640625 7.921875 45.320312 7.578125 46 L 4.21875 46 C 4.558594 45.320312 4.878906 44.660156 5.21875 44 C 7.859375 38.960938 11.058594 34.5 16 34.5 C 20.121094 34.5 22.480469 39.28125 24.71875 44 C 24.761719 44.058594 24.78125 44.140625 24.820312 44.199219 C 25.101562 44.800781 25.398438 45.398438 25.699219 46 C 26.980469 48.621094 28.398438 51.140625 30 52.078125 L 30 54 Z M 35.601562 54 "/>
    <path style=" stroke:none;fill-rule:evenodd;fill:rgb(38.431373%,85.09804%,52.941179%);fill-opacity:1;" d="M 64 44 L 52 44 L 52 32 L 44 32 L 44 44 L 32 44 L 32 52 L 44 52 L 44 64 L 52 64 L 52 52 L 64 52 Z M 64 44 "/>
  </g>
</svg>