<?xml version="1.0" encoding="UTF-8" standalone="yes"?>
<svg xmlns="http://www.w3.org/2000/svg" xmlns:xlink="http://www.w3.org/1999/xlink" width="64" height="64" viewBox="0 0 64 64" version="1.1">
  <g id="surface1">
    <path style=" stroke:none;fill-rule:evenodd;fill:rgb(85.09804%,85.09804%,85.09804%);fill-opacity:1;" d="M 19.269531 30.679688 L 20.734375 29.320312 L 30.636719 40 L 64 40 L 64 42 L 29.765625 42 Z M 19.269531 30.679688 "/>
    <path style=" stroke:none;fill-rule:evenodd;fill:rgb(45.09804%,86.274511%,90.196079%);fill-opacity:1;" d="M 16 55 L 16 0 L 22 0 L 22 55 C 22 59.976562 17.976562 64 13 64 L 0 64 L 0 58 L 13 58 C 14.664062 58 16 56.664062 16 55 Z M 16 55 "/>
    <path style=" stroke:none;fill-rule:nonzero;fill:rgb(45.09804%,86.274511%,90.196079%);fill-opacity:1;" d="M 44.578125 25.5 C 45.519531 26.5 46 27.859375 46 29.601562 L 46 32.078125 C 46 33.941406 45.480469 35.378906 44.441406 36.421875 C 43.378906 37.480469 41.898438 38 39.960938 38 L 36 38 L 36 24 L 40.460938 24 C 42.261719 24 43.640625 24.5 44.578125 25.5 Z M 43.539062 29.539062 C 43.539062 28.378906 43.28125 27.5 42.738281 26.878906 C 42.199219 26.261719 41.398438 25.960938 40.339844 25.960938 L 38.460938 25.960938 L 38.460938 36.078125 L 40 36.078125 C 41.199219 36.078125 42.078125 35.761719 42.679688 35.101562 C 43.28125 34.441406 43.558594 33.460938 43.558594 32.140625 L 43.558594 29.539062 Z M 43.539062 29.539062 "/>
    <path style=" stroke:none;fill-rule:nonzero;fill:rgb(45.09804%,86.274511%,90.196079%);fill-opacity:1;" d="M 56 36.101562 L 56 38 L 48.460938 38 L 48.460938 36.101562 L 51.238281 36.101562 L 51.238281 26.71875 L 48.898438 27.921875 L 48 26.28125 L 51.800781 24 L 53.601562 24 L 53.601562 36.101562 Z M 56 36.101562 "/>
  </g>
</svg>