<?xml version="1.0" encoding="UTF-8" standalone="yes"?>
<svg xmlns="http://www.w3.org/2000/svg" xmlns:xlink="http://www.w3.org/1999/xlink" width="64" height="64" viewBox="0 0 64 64" version="1.1">
  <g id="surface1">
    <path style=" stroke:none;fill-rule:nonzero;fill:rgb(100%,100%,100%);fill-opacity:1;" d="M 32 5 C 32 5.558594 31.558594 6 31 6 L 25 6 C 24.441406 6 24 5.558594 24 5 L 24 1 C 24 0.441406 24.441406 0 25 0 L 31 0 C 31.558594 0 32 0.441406 32 1 Z M 32 5 "/>
    <path style=" stroke:none;fill-rule:nonzero;fill:rgb(100%,100%,100%);fill-opacity:1;" d="M 37.820312 8 C 37.921875 7.679688 38 7.359375 38 7 C 38 5.339844 36.660156 4 35 4 L 21 4 C 19.339844 4 18 5.339844 18 7 C 18 7.359375 18.078125 7.679688 18.179688 8 Z M 37.820312 8 "/>
    <path style=" stroke:none;fill-rule:nonzero;fill:rgb(85.09804%,68.235296%,46.666667%);fill-opacity:1;" d="M 40 6 L 40 10 L 16 10 L 16 6 L 6 6 L 6 56 L 20 56 L 20 18 L 50 18 L 50 6 Z M 40 6 "/>
    <path style=" stroke:none;fill-rule:nonzero;fill:rgb(95.294118%,95.294118%,95.294118%);fill-opacity:1;" d="M 58 32 L 46 32 L 46 20 Z M 58 32 "/>
    <path style=" stroke:none;fill-rule:nonzero;fill:rgb(85.09804%,85.09804%,85.09804%);fill-opacity:1;" d="M 44 34 L 44 20 L 22 20 L 22 64 L 58 64 L 58 34 Z M 44 34 "/>
  </g>
</svg>