<?xml version="1.0" encoding="UTF-8" standalone="yes"?>
<svg xmlns="http://www.w3.org/2000/svg" xmlns:xlink="http://www.w3.org/1999/xlink" width="64" height="64" viewBox="0 0 64 64" version="1.1">
  <g id="surface1">
    <path style=" stroke:none;fill-rule:nonzero;fill:rgb(73.333335%,73.333335%,73.333335%);fill-opacity:1;" d="M 33.441406 57.480469 L 36.921875 54 L 32 54 L 32 44 L 6 44 L 6 0 C 4.269531 0.503906 2.75 1.558594 1.667969 3 C 0.585938 4.441406 0 6.195312 0 8 L 0 51 C 0 52.855469 0.738281 54.636719 2.050781 55.949219 C 3.363281 57.261719 5.144531 58 7 58 L 34 58 Z M 33.441406 57.480469 "/>
    <path style=" stroke:none;fill-rule:nonzero;fill:rgb(95.294118%,95.294118%,95.294118%);fill-opacity:1;" d="M 36.921875 54 L 32 54 L 32 46 L 9 46 C 7.675781 46 6.402344 46.527344 5.464844 47.464844 C 4.527344 48.402344 4 49.675781 4 51 C 4 52.324219 4.527344 53.597656 5.464844 54.535156 C 6.402344 55.472656 7.675781 56 9 56 L 35 56 Z M 36.921875 54 "/>
    <path style=" stroke:none;fill-rule:nonzero;fill:rgb(85.09804%,85.09804%,85.09804%);fill-opacity:1;" d="M 36.921875 44 L 33.441406 40.519531 L 40.519531 33.441406 L 44 36.921875 L 44 32 L 50 32 L 50 0 L 6 0 L 6 44 Z M 36.921875 44 "/>
    <path style=" stroke:none;fill-rule:evenodd;fill:rgb(45.09804%,77.254903%,100%);fill-opacity:1;" d="M 52 38.417969 L 52 34 L 46 34 L 46 38.417969 C 45.179688 38.648438 44.386719 38.976562 43.636719 39.394531 L 40.519531 36.28125 L 36.28125 40.519531 L 39.394531 43.636719 C 39.1875 44.007812 39 44.394531 38.835938 44.789062 C 38.671875 45.1875 38.53125 45.589844 38.417969 46 L 34 46 L 34 52 L 38.417969 52 C 38.652344 52.824219 38.980469 53.617188 39.394531 54.363281 L 36.28125 57.480469 L 40.519531 61.71875 L 43.636719 58.605469 C 44.382812 59.019531 45.175781 59.347656 46 59.582031 L 46 64 L 52 64 L 52 59.582031 C 52.410156 59.46875 52.8125 59.328125 53.210938 59.164062 C 53.605469 59 53.992188 58.8125 54.363281 58.605469 L 57.480469 61.71875 L 61.71875 57.480469 L 58.605469 54.363281 C 59.023438 53.613281 59.351562 52.820312 59.582031 52 L 64 52 L 64 46 L 59.582031 46 C 59.347656 45.175781 59.019531 44.382812 58.605469 43.636719 L 61.71875 40.519531 L 57.480469 36.28125 L 54.363281 39.394531 C 53.617188 38.980469 52.824219 38.652344 52 38.417969 Z M 49 54 C 48.011719 54 47.042969 53.707031 46.222656 53.15625 C 45.398438 52.609375 44.757812 51.828125 44.378906 50.914062 C 44.003906 50 43.902344 48.996094 44.097656 48.023438 C 44.289062 47.054688 44.765625 46.164062 45.464844 45.464844 C 46.164062 44.765625 47.054688 44.289062 48.023438 44.097656 C 48.996094 43.902344 50 44.003906 50.914062 44.378906 C 51.828125 44.757812 52.609375 45.398438 53.15625 46.222656 C 53.707031 47.042969 54 48.011719 54 49 C 54 50.324219 53.472656 51.597656 52.535156 52.535156 C 51.597656 53.472656 50.324219 54 49 54 Z M 49 54 "/>
  </g>
</svg>