<?xml version="1.0" encoding="UTF-8" standalone="yes"?>
<svg xmlns="http://www.w3.org/2000/svg" xmlns:xlink="http://www.w3.org/1999/xlink" width="64" height="64" viewBox="0 0 64 64" version="1.1">
  <defs>
    <filter id="alpha" filterUnits="objectBoundingBox" x="0%" y="0%" width="100%" height="100%">
      <feColorMatrix type="matrix" in="SourceGraphic" values="0 0 0 0 1 0 0 0 0 1 0 0 0 0 1 0 0 0 1 0"/>
    </filter>
    <mask id="mask0">
      <g filter="url(#alpha)">
        <rect x="0" y="0" width="64" height="64" style="fill:rgb(0%,0%,0%);fill-opacity:0.3;stroke:none;"/>
      </g>
    </mask>
    <clipPath id="clip1">
      <rect x="0" y="0" width="64" height="64"/>
    </clipPath>
    <g id="surface5" clip-path="url(#clip1)">
      <path style=" stroke:none;fill-rule:nonzero;fill:rgb(90.196079%,45.09804%,45.09804%);fill-opacity:1;" d="M 37 14 L 62 33.199219 L 52.460938 62 L 21.539062 62 L 12 33.199219 Z M 37 14 "/>
    </g>
  </defs>
  <g id="surface1">
    <path style=" stroke:none;fill-rule:nonzero;fill:rgb(85.09804%,85.09804%,85.09804%);fill-opacity:1;" d="M 32 3.839844 L 32 6.359375 L 46 17.101562 L 46 14.601562 Z M 48.300781 24 L 42.320312 42 L 44.441406 42 L 50.421875 24 Z M 8 14.601562 L 8 17.101562 L 22 6.359375 L 22 3.839844 Z M 3.601562 24 L 9.558594 42 L 11.679688 42 L 5.699219 24 Z M 16 46 L 16 48 L 38 48 L 38 46 Z M 16 46 "/>
    <path style=" stroke:none;fill-rule:nonzero;fill:rgb(45.09804%,77.254903%,100%);fill-opacity:1;" d="M 30 0 L 24 0 L 24 6 L 30 6 Z M 30 0 "/>
    <path style=" stroke:none;fill-rule:nonzero;fill:rgb(45.09804%,77.254903%,100%);fill-opacity:1;" d="M 6 16 L 0 16 L 0 22 L 6 22 Z M 6 16 "/>
    <path style=" stroke:none;fill-rule:nonzero;fill:rgb(45.09804%,77.254903%,100%);fill-opacity:1;" d="M 14 44 L 8 44 L 8 50 L 14 50 Z M 14 44 "/>
    <path style=" stroke:none;fill-rule:nonzero;fill:rgb(45.09804%,77.254903%,100%);fill-opacity:1;" d="M 54 16 L 48 16 L 48 22 L 54 22 Z M 54 16 "/>
    <path style=" stroke:none;fill-rule:nonzero;fill:rgb(45.09804%,77.254903%,100%);fill-opacity:1;" d="M 46 44 L 40 44 L 40 50 L 46 50 Z M 46 44 "/>
    <path style=" stroke:none;fill-rule:nonzero;fill:rgb(90.196079%,45.09804%,45.09804%);fill-opacity:1;" d="M 37 16.519531 L 59.660156 33.921875 L 51 60 L 23 60 L 14.359375 33.921875 Z M 37 14 L 12 33.199219 L 21.539062 62 L 52.441406 62 L 62 33.199219 Z M 37 14 "/>
    <path style=" stroke:none;fill-rule:nonzero;fill:rgb(90.196079%,45.09804%,45.09804%);fill-opacity:1;" d="M 40 14 L 34 14 L 34 20 L 40 20 Z M 40 14 "/>
    <path style=" stroke:none;fill-rule:nonzero;fill:rgb(90.196079%,45.09804%,45.09804%);fill-opacity:1;" d="M 16 30 L 10 30 L 10 36 L 16 36 Z M 16 30 "/>
    <path style=" stroke:none;fill-rule:nonzero;fill:rgb(90.196079%,45.09804%,45.09804%);fill-opacity:1;" d="M 24 58 L 18 58 L 18 64 L 24 64 Z M 24 58 "/>
    <path style=" stroke:none;fill-rule:nonzero;fill:rgb(90.196079%,45.09804%,45.09804%);fill-opacity:1;" d="M 64 30 L 58 30 L 58 36 L 64 36 Z M 64 30 "/>
    <path style=" stroke:none;fill-rule:nonzero;fill:rgb(90.196079%,45.09804%,45.09804%);fill-opacity:1;" d="M 56 58 L 50 58 L 50 64 L 56 64 Z M 56 58 "/>
    <use xlink:href="#surface5" mask="url(#mask0)"/>
  </g>
</svg>