<?xml version="1.0" encoding="UTF-8" standalone="yes"?>
<svg xmlns="http://www.w3.org/2000/svg" xmlns:xlink="http://www.w3.org/1999/xlink" width="64" height="64" viewBox="0 0 64 64" version="1.1">
  <g id="surface1">
    <path style=" stroke:none;fill-rule:nonzero;fill:rgb(85.09804%,85.09804%,85.09804%);fill-opacity:1;" d="M 48.019531 0 L 48.019531 38 C 48.019531 44.359375 43.78125 49.71875 38 51.421875 L 38 53.480469 C 44.898438 51.71875 50 45.460938 50 37.980469 L 50 0 Z M 48.019531 0 "/>
    <path style=" stroke:none;fill-rule:nonzero;fill:rgb(85.09804%,85.09804%,85.09804%);fill-opacity:1;" d="M 0 0 L 0 64 L 40 64 L 40 0 Z M 34 28 L 6 28 L 6 6 L 34 6 Z M 34 28 "/>
    <path style=" stroke:none;fill-rule:nonzero;fill:rgb(60.000002%,60.000002%,60.000002%);fill-opacity:1;" d="M 8 8 L 8 26 L 32 26 L 32 8 Z M 30.78125 18.441406 C 29.800781 20.421875 27.140625 25 24 25 C 20.519531 25 19.261719 21.101562 18.160156 17.679688 C 17.800781 16.519531 16.660156 13 16 13 C 15.558594 13.160156 13.980469 14.980469 12.78125 17.359375 L 12.339844 18.238281 L 8.761719 16.441406 L 9.21875 15.558594 C 10.199219 13.578125 12.859375 9 16 9 C 19.578125 9 20.839844 12.960938 21.960938 16.460938 C 22.421875 17.859375 23.359375 20.78125 24.019531 21 C 24.441406 20.839844 26.019531 19.019531 27.21875 16.640625 L 27.660156 15.761719 L 31.238281 17.558594 Z M 30.78125 18.441406 "/>
    <path style=" stroke:none;fill-rule:nonzero;fill:rgb(40.000001%,40.000001%,40.000001%);fill-opacity:1;" d="M 6 6 L 6 28 L 34 28 L 34 6 Z M 32 26 L 8 26 L 8 8 L 32 8 Z M 32 26 "/>
    <path style=" stroke:none;fill-rule:nonzero;fill:rgb(40.000001%,40.000001%,40.000001%);fill-opacity:1;" d="M 20 58 C 26.621094 58 32 52.621094 32 46 C 32 39.378906 26.621094 34 20 34 C 13.378906 34 8 39.378906 8 46 C 8 52.621094 13.378906 58 20 58 Z M 20 58 "/>
    <path style=" stroke:none;fill-rule:nonzero;fill:rgb(95.294118%,95.294118%,95.294118%);fill-opacity:1;" d="M 20 56 C 25.519531 56 30 51.519531 30 46 C 30 40.480469 25.519531 36 20 36 C 14.480469 36 10 40.480469 10 46 C 10 51.519531 14.480469 56 20 56 Z M 20 56 "/>
    <path style=" stroke:none;fill-rule:nonzero;fill:rgb(85.09804%,85.09804%,85.09804%);fill-opacity:1;" d="M 60 0 L 60 40 C 60 52.140625 50.140625 62 38 62 L 38 64 C 51.261719 64 62 53.261719 62 40 L 62 0 Z M 60 0 "/>
    <path style=" stroke:none;fill-rule:nonzero;fill:rgb(85.09804%,85.09804%,85.09804%);fill-opacity:1;" d="M 64 8 L 58 8 L 58 28 L 64 28 Z M 64 8 "/>
    <path style=" stroke:none;fill-rule:nonzero;fill:rgb(85.09804%,85.09804%,85.09804%);fill-opacity:1;" d="M 52 8 L 46 8 L 46 28 L 52 28 Z M 52 8 "/>
    <path style=" stroke:none;fill-rule:evenodd;fill:rgb(40.000001%,40.000001%,40.000001%);fill-opacity:1;" d="M 23.9375 52.0625 L 13.9375 42.0625 L 16.0625 39.9375 L 26.0625 49.9375 Z M 23.9375 52.0625 "/>
    <path style=" stroke:none;fill-rule:nonzero;fill:rgb(45.09804%,86.274511%,90.196079%);fill-opacity:1;" d="M 24 24 C 21.238281 24 20.160156 20.640625 19.121094 17.378906 C 18.300781 14.859375 17.378906 12 16 12 C 15.019531 12 13.078125 14.539062 11.898438 16.898438 L 10.101562 16 C 10.601562 15 13.261719 10 16 10 C 18.839844 10 19.941406 13.441406 21.019531 16.761719 C 21.800781 19.21875 22.699219 22 24 22 C 24.980469 22 26.921875 19.460938 28.101562 17.101562 L 29.898438 18 C 29.378906 19 26.71875 24 24 24 Z M 24 24 "/>
  </g>
</svg>