<svg width="64" height="64" viewBox="0 0 64 64" fill="none" xmlns="http://www.w3.org/2000/svg">
<g clip-path="url(#clip0_3133_14441)">
<path d="M26 0C11.64 0 0 11.64 0 26C0 40.36 11.64 52 26 52C40.36 52 52 40.36 52 26C52 11.64 40.36 0 26 0Z" fill="#D9D9D9" fill-opacity="0.2"/>
<path d="M63.1998 58.96L48.4998 44.26C47.2398 45.82 45.8198 47.24 44.2598 48.5L58.9598 63.2C58.9598 63.2 61.0798 65.08 63.0798 63.08C65.0798 61.08 63.1998 58.96 63.1998 58.96Z" fill="#D9AE77"/>
<path d="M26 0C11.64 0 0 11.64 0 26C0 40.36 11.64 52 26 52C40.36 52 52 40.36 52 26C52 11.64 40.36 0 26 0ZM26 50C12.74 50 2 39.26 2 26C2 12.74 12.74 2 26 2C39.26 2 50 12.74 50 26C50 39.26 39.26 50 26 50Z" fill="#F3F3F3"/>
<path d="M13 32L18 24H8L13 32Z" fill="#D9D9D9"/>
<path d="M26.0002 12C18.9602 12 13.1402 17.22 12.1602 24H14.1802C15.1402 18.34 20.0602 14 26.0002 14C32.6202 14 38.0002 19.38 38.0002 26C38.0002 32.62 32.6202 38 26.0002 38V40C33.7202 40 40.0002 33.72 40.0002 26C40.0002 18.28 33.7202 12 26.0002 12Z" fill="#D9D9D9"/>
</g>
<defs>
<clipPath id="clip0_3133_14441">
<rect width="64" height="64" fill="white"/>
</clipPath>
</defs>
</svg>
