<?xml version="1.0" encoding="UTF-8" standalone="yes"?>
<svg xmlns="http://www.w3.org/2000/svg" xmlns:xlink="http://www.w3.org/1999/xlink" width="64" height="64" viewBox="0 0 64 64" version="1.1">
  <g id="surface1">
    <path style=" stroke:none;fill-rule:nonzero;fill:rgb(85.09804%,85.09804%,85.09804%);fill-opacity:1;" d="M 24 28 L 10 28 C 8.9375 28 7.921875 28.421875 7.171875 29.171875 C 6.421875 29.921875 6 30.9375 6 32 L 6 46 C 6 47.0625 6.421875 48.078125 7.171875 48.828125 C 7.921875 49.578125 8.9375 50 10 50 L 12 50 L 12 60 L 14 60 L 14 50 L 20 50 L 20 60 L 22 60 L 22 50 L 24 50 C 25.0625 50 26.078125 49.578125 26.828125 48.828125 C 27.578125 48.078125 28 47.0625 28 46 L 28 32 C 28 30.9375 27.578125 29.921875 26.828125 29.171875 C 26.078125 28.421875 25.0625 28 24 28 Z M 24 28 "/>
    <path style="fill-rule:nonzero;fill:rgb(53.725493%,79.607844%,98.039216%);fill-opacity:1;stroke-width:1;stroke-linecap:butt;stroke-linejoin:miter;stroke:rgb(53.725493%,79.607844%,98.039216%);stroke-opacity:1;stroke-miterlimit:4;" d="M 21.5 24.5 L 20 24.5 C 19.601562 24.5 19.220703 24.341797 18.939453 24.060547 C 18.658203 23.779297 18.5 23.398438 18.5 23 L 18.5 16 C 18.5 15.601562 18.658203 15.220703 18.939453 14.939453 C 19.220703 14.658203 19.601562 14.5 20 14.5 L 27 14.5 C 27.398438 14.5 27.779297 14.658203 28.060547 14.939453 C 28.341797 15.220703 28.5 15.601562 28.5 16 L 28.5 23 C 28.5 23.398438 28.341797 23.779297 28.060547 24.060547 C 27.779297 24.341797 27.398438 24.5 27 24.5 Z M 21.5 24.5 " transform="matrix(2,0,0,2,0,0)"/>
    <path style=" stroke:none;fill-rule:evenodd;fill:rgb(45.09804%,77.254903%,100%);fill-opacity:1;" d="M 29.394531 4.121094 C 31.878906 3.773438 34.410156 3.925781 36.835938 4.566406 C 39.261719 5.210938 41.53125 6.335938 43.519531 7.871094 C 45.5 9.402344 47.15625 11.320312 48.386719 13.503906 C 48.964844 14.496094 49.453125 15.535156 49.855469 16.609375 L 47.984375 17.308594 C 47.621094 16.339844 47.175781 15.398438 46.65625 14.5 L 46.648438 14.492188 C 45.546875 12.539062 44.066406 10.824219 42.292969 9.453125 C 40.519531 8.078125 38.488281 7.074219 36.324219 6.5 C 34.15625 5.925781 31.894531 5.789062 29.675781 6.101562 C 27.453125 6.414062 25.316406 7.167969 23.394531 8.316406 L 23.386719 8.324219 C 19.933594 10.347656 17.304688 13.523438 15.960938 17.296875 L 14.078125 16.625 C 15.574219 12.410156 18.511719 8.859375 22.371094 6.597656 C 24.523438 5.3125 26.910156 4.46875 29.394531 4.121094 Z M 29.394531 4.121094 "/>
    <path style=" stroke:none;fill-rule:nonzero;fill:rgb(45.09804%,77.254903%,100%);fill-opacity:1;" d="M 53.300781 14.660156 L 49.960938 24.058594 L 43.5 16.480469 Z M 53.300781 14.660156 "/>
    <path style=" stroke:none;fill-rule:nonzero;fill:rgb(45.09804%,77.254903%,100%);fill-opacity:1;" d="M 10.601562 14.699219 L 14.039062 24.058594 L 20.421875 16.417969 Z M 10.601562 14.699219 "/>
  </g>
</svg>