<?xml version="1.0" encoding="UTF-8" standalone="yes"?>
<svg xmlns="http://www.w3.org/2000/svg" xmlns:xlink="http://www.w3.org/1999/xlink" width="64" height="64" viewBox="0 0 64 64" version="1.1">
  <g id="surface1">
    <path style=" stroke:none;fill-rule:nonzero;fill:rgb(45.09804%,77.254903%,100%);fill-opacity:1;" d="M 14 6 L 36 6 L 36 24.359375 L 33.460938 26.898438 L 32 25.441406 L 32 10 L 14 10 Z M 14 6 "/>
    <path style=" stroke:none;fill-rule:nonzero;fill:rgb(45.09804%,77.254903%,100%);fill-opacity:1;" d="M 44.433594 41.59375 L 41.59375 44.4375 L 49.570312 52.414062 L 52.410156 49.570312 Z M 44.433594 41.59375 "/>
    <path style=" stroke:none;fill-rule:nonzero;fill:rgb(85.09804%,85.09804%,85.09804%);fill-opacity:1;" d="M 8 2 C 11.300781 2 14 4.699219 14 8 C 14 11.300781 11.300781 14 8 14 C 4.699219 14 2 11.300781 2 8 C 2 4.699219 4.699219 2 8 2 Z M 8 0 C 3.578125 0 0 3.578125 0 8 C 0 12.421875 3.578125 16 8 16 C 12.421875 16 16 12.421875 16 8 C 16 3.578125 12.421875 0 8 0 Z M 8 0 "/>
    <path style=" stroke:none;fill-rule:nonzero;fill:rgb(85.09804%,85.09804%,85.09804%);fill-opacity:1;" d="M 56 50 C 59.300781 50 62 52.699219 62 56 C 62 59.300781 59.300781 62 56 62 C 52.699219 62 50 59.300781 50 56 C 50 52.699219 52.699219 50 56 50 Z M 56 48 C 51.578125 48 48 51.578125 48 56 C 48 60.421875 51.578125 64 56 64 C 60.421875 64 64 60.421875 64 56 C 64 51.578125 60.421875 48 56 48 Z M 56 48 "/>
    <path style=" stroke:none;fill-rule:nonzero;fill:rgb(100%,40.000001%,40.000001%);fill-opacity:1;" d="M 43.460938 27.160156 L 39.738281 23.441406 L 33.460938 29.738281 L 27.179688 23.441406 L 23.460938 27.160156 L 29.738281 33.441406 L 23.460938 39.738281 L 27.179688 43.441406 L 33.460938 37.160156 L 39.738281 43.441406 L 43.460938 39.738281 L 37.179688 33.441406 Z M 43.460938 27.160156 "/>
  </g>
</svg>