<?xml version="1.0" encoding="UTF-8" standalone="yes"?>
<svg xmlns="http://www.w3.org/2000/svg" xmlns:xlink="http://www.w3.org/1999/xlink" width="64" height="64" viewBox="0 0 64 64" version="1.1">
  <g id="surface1">
    <path style=" stroke:none;fill-rule:nonzero;fill:rgb(100%,100%,100%);fill-opacity:1;" d="M 56 28 C 56.007812 30.765625 55.59375 33.515625 54.78125 36.160156 L 54 36.941406 L 54 32 L 44 32 L 44 36.941406 L 40.519531 33.460938 L 33.460938 40.519531 L 36.941406 44 L 32 44 L 32 54 L 36.941406 54 L 36.160156 54.78125 C 33.515625 55.59375 30.765625 56.007812 28 56 C 22.460938 56 17.046875 54.359375 12.445312 51.28125 C 7.839844 48.203125 4.25 43.832031 2.132812 38.714844 C 0.0117188 33.597656 -0.542969 27.96875 0.539062 22.539062 C 1.617188 17.105469 4.285156 12.117188 8.199219 8.199219 C 12.117188 4.285156 17.105469 1.617188 22.539062 0.539062 C 27.96875 -0.542969 33.597656 0.0117188 38.714844 2.132812 C 43.832031 4.25 48.203125 7.839844 51.28125 12.445312 C 54.359375 17.046875 56 22.460938 56 28 Z M 56 28 "/>
    <path style=" stroke:none;fill-rule:nonzero;fill:rgb(40.000001%,40.000001%,40.000001%);fill-opacity:1;" d="M 35.820312 38.160156 L 33.460938 40.519531 L 35.621094 42.679688 C 35.621094 43.121094 35.621094 43.558594 35.621094 44 L 32 44 L 32 48 C 30.679688 48 29.359375 48 28 48 C 25.519531 48 23.101562 48 20.71875 47.78125 C 20.859375 49.601562 21.019531 51.359375 21.179688 53.058594 C 16.871094 51.894531 12.9375 49.636719 9.757812 46.5 C 13.382812 47.101562 17.035156 47.515625 20.699219 47.738281 C 20.417969 44 20.21875 40 20.101562 36 C 22.679688 36 25.320312 36.101562 28 36.101562 C 30.679688 36.101562 33.320312 36 36 36 C 35.878906 36.660156 35.859375 37.421875 35.820312 38.160156 Z M 35.820312 38.160156 "/>
    <path style=" stroke:none;fill-rule:nonzero;fill:rgb(40.000001%,40.000001%,40.000001%);fill-opacity:1;" d="M 47.78125 20.71875 C 48 23.097656 48 25.519531 48 28 C 48 29.359375 48 30.679688 48 32 L 44 32 L 44 35.539062 C 43.558594 35.539062 43.121094 35.539062 42.660156 35.539062 L 40.519531 33.398438 L 38.179688 35.800781 L 35.898438 35.800781 C 35.898438 33.238281 36 30.597656 36 27.917969 C 36 25.238281 36 22.597656 35.898438 20.039062 C 40.039062 20.160156 44.019531 20.339844 47.738281 20.621094 C 47.515625 16.953125 47.101562 13.304688 46.5 9.679688 C 49.636719 12.855469 51.894531 16.789062 53.058594 21.097656 Z M 47.78125 20.71875 "/>
    <path style=" stroke:none;fill-rule:nonzero;fill:rgb(40.000001%,40.000001%,40.000001%);fill-opacity:1;" d="M 20.101562 20.101562 C 22.679688 20 25.320312 20 28 20 C 30.679688 20 33.320312 20 35.898438 20.101562 C 35.78125 16 35.578125 12 35.300781 8.261719 C 38.964844 8.488281 42.617188 8.902344 46.238281 9.5 C 43.0625 6.363281 39.128906 4.105469 34.820312 2.941406 C 34.980469 4.640625 35.140625 6.402344 35.28125 8.21875 C 32.898438 8 30.480469 8 28 8 C 25.519531 8 23.101562 8 20.71875 8.21875 C 20.859375 6.402344 21.019531 4.640625 21.179688 2.941406 C 16.871094 4.105469 12.9375 6.363281 9.757812 9.5 C 13.382812 8.902344 17.035156 8.488281 20.699219 8.261719 C 20.417969 12 20.21875 16 20.101562 20.101562 Z M 20.101562 20.101562 "/>
    <path style=" stroke:none;fill-rule:nonzero;fill:rgb(40.000001%,40.000001%,40.000001%);fill-opacity:1;" d="M 20.101562 35.878906 C 20 33.320312 20 30.679688 20 28 C 20 25.320312 20 22.679688 20.101562 20.121094 C 15.960938 20.238281 11.980469 20.417969 8.261719 20.699219 C 8.484375 17.035156 8.898438 13.382812 9.5 9.757812 C 6.363281 12.9375 4.105469 16.871094 2.941406 21.179688 L 8.21875 20.71875 C 8 23.101562 8 25.519531 8 28 C 8 30.480469 8 32.898438 8.21875 35.28125 L 2.941406 34.820312 C 4.105469 39.128906 6.363281 43.0625 9.5 46.238281 C 8.898438 42.617188 8.484375 38.964844 8.261719 35.300781 C 12 35.578125 16 35.761719 20.101562 35.878906 Z M 20.101562 35.878906 "/>
    <path style=" stroke:none;fill-rule:nonzero;fill:rgb(45.09804%,77.254903%,100%);fill-opacity:1;" d="M 49 38 C 46.824219 38 44.699219 38.644531 42.890625 39.855469 C 41.078125 41.0625 39.667969 42.78125 38.835938 44.789062 C 38.003906 46.800781 37.785156 49.011719 38.210938 51.144531 C 38.636719 53.28125 39.683594 55.238281 41.222656 56.777344 C 42.761719 58.316406 44.71875 59.363281 46.855469 59.789062 C 48.988281 60.214844 51.199219 59.996094 53.210938 59.164062 C 55.21875 58.332031 56.9375 56.921875 58.144531 55.109375 C 59.355469 53.300781 60 51.175781 60 49 C 60 46.082031 58.839844 43.285156 56.777344 41.222656 C 54.714844 39.160156 51.917969 38 49 38 Z M 49 54 C 48.011719 54 47.042969 53.707031 46.222656 53.15625 C 45.398438 52.609375 44.757812 51.828125 44.378906 50.914062 C 44.003906 50 43.902344 48.996094 44.097656 48.023438 C 44.289062 47.054688 44.765625 46.164062 45.464844 45.464844 C 46.164062 44.765625 47.054688 44.289062 48.023438 44.097656 C 48.996094 43.902344 50 44.003906 50.914062 44.378906 C 51.828125 44.757812 52.609375 45.398438 53.15625 46.222656 C 53.707031 47.042969 54 48.011719 54 49 C 54 50.324219 53.472656 51.597656 52.535156 52.535156 C 51.597656 53.472656 50.324219 54 49 54 Z M 49 54 "/>
    <path style=" stroke:none;fill-rule:nonzero;fill:rgb(45.09804%,77.254903%,100%);fill-opacity:1;" d="M 45.140625 40.898438 L 40.519531 36.28125 L 36.28125 40.519531 L 40.898438 45.140625 C 41.78125 43.277344 43.277344 41.78125 45.140625 40.898438 Z M 45.140625 40.898438 "/>
    <path style=" stroke:none;fill-rule:nonzero;fill:rgb(45.09804%,77.254903%,100%);fill-opacity:1;" d="M 49 40 C 50.023438 40.011719 51.039062 40.199219 52 40.558594 L 52 34 L 46 34 L 46 40.558594 C 46.960938 40.199219 47.976562 40.011719 49 40 Z M 49 40 "/>
    <path style=" stroke:none;fill-rule:nonzero;fill:rgb(45.09804%,77.254903%,100%);fill-opacity:1;" d="M 57.101562 45.140625 L 61.71875 40.519531 L 57.480469 36.28125 L 52.859375 40.898438 C 54.722656 41.78125 56.21875 43.277344 57.101562 45.140625 Z M 57.101562 45.140625 "/>
    <path style=" stroke:none;fill-rule:nonzero;fill:rgb(45.09804%,77.254903%,100%);fill-opacity:1;" d="M 40 49 C 40.011719 47.976562 40.199219 46.960938 40.558594 46 L 34 46 L 34 52 L 40.558594 52 C 40.199219 51.039062 40.011719 50.023438 40 49 Z M 40 49 "/>
    <path style=" stroke:none;fill-rule:nonzero;fill:rgb(45.09804%,77.254903%,100%);fill-opacity:1;" d="M 40.898438 52.859375 L 36.28125 57.480469 L 40.519531 61.71875 L 45.140625 57.101562 C 43.277344 56.21875 41.78125 54.722656 40.898438 52.859375 Z M 40.898438 52.859375 "/>
    <path style=" stroke:none;fill-rule:nonzero;fill:rgb(45.09804%,77.254903%,100%);fill-opacity:1;" d="M 57.441406 46 C 58.1875 47.929688 58.1875 50.070312 57.441406 52 L 64 52 L 64 46 Z M 57.441406 46 "/>
    <path style=" stroke:none;fill-rule:nonzero;fill:rgb(45.09804%,77.254903%,100%);fill-opacity:1;" d="M 52.859375 57.101562 L 57.480469 61.71875 L 61.71875 57.480469 L 57.101562 52.859375 C 56.21875 54.722656 54.722656 56.21875 52.859375 57.101562 Z M 52.859375 57.101562 "/>
    <path style=" stroke:none;fill-rule:nonzero;fill:rgb(45.09804%,77.254903%,100%);fill-opacity:1;" d="M 49 58 C 47.976562 57.992188 46.960938 57.800781 46 57.441406 L 46 64 L 52 64 L 52 57.441406 C 51.039062 57.800781 50.023438 57.992188 49 58 Z M 49 58 "/>
  </g>
</svg>