<?xml version="1.0" encoding="UTF-8" standalone="yes"?>
<svg xmlns="http://www.w3.org/2000/svg" xmlns:xlink="http://www.w3.org/1999/xlink" width="64" height="64" viewBox="0 0 64 64" version="1.1">
  <g id="surface1">
    <path style=" stroke:none;fill-rule:nonzero;fill:rgb(85.09804%,85.09804%,85.09804%);fill-opacity:1;" d="M 58 0 L 58 30.28125 C 57.378906 29.820312 56.71875 29.421875 56 29.101562 C 54.5 28.398438 52.800781 28 51 28 C 44.941406 28 40 32.480469 40 38 L 40 42 L 36 42 L 36 48 L 0 48 L 0 0 Z M 58 0 "/>
    <path style=" stroke:none;fill-rule:evenodd;fill:rgb(100%,83.529413%,50.196081%);fill-opacity:1;" d="M 44.851562 32.15625 C 46.535156 30.65625 48.746094 29.886719 51 30.011719 C 53.253906 29.886719 55.464844 30.65625 57.148438 32.15625 C 58.835938 33.65625 59.859375 35.757812 60 38.011719 L 60 44.007812 L 56 44.007812 L 56 38.011719 C 55.847656 36.824219 55.242188 35.746094 54.308594 35 C 53.378906 34.253906 52.191406 33.898438 51 34.011719 C 49.808594 33.898438 48.621094 34.253906 47.691406 35 C 46.757812 35.746094 46.152344 36.824219 46 38.011719 L 46 44.007812 L 42 44.007812 L 42 38.011719 C 42.140625 35.757812 43.164062 33.65625 44.851562 32.15625 Z M 38 64 L 38 44.007812 L 64 44.007812 L 64 64 Z M 50 50.007812 L 50 58.003906 L 52 58.003906 L 52 50.007812 Z M 50 50.007812 "/>
  </g>
</svg>