<svg width="64" height="64" viewBox="0 0 64 64" fill="none" xmlns="http://www.w3.org/2000/svg">
<path d="M2 2V54H26V46H42V36.46L44.56 38L47.9 40L54 43.66V2H2Z" fill="#D9D9D9" fill-opacity="0.3"/>
<path d="M0 0V56H26V54H20V38H12V31.9C14.28 31.44 16 29.42 16 27C16 24.24 13.76 22 11 22C8.24 22 6 24.24 6 27C6 29.42 7.72 31.44 10 31.9V38H2V10H17.58L19.28 11.7C18.5 12.58 18 13.72 18 15C18 17.76 20.24 20 23 20C25.76 20 28 17.76 28 15C28 12.24 25.76 10 23 10C22.24 10 21.54 10.18 20.9 10.48L18.42 8H2V2H30V24.1C27.72 24.56 26 26.58 26 29C26 31.76 28.24 34 31 34C31.76 34 32.46 33.82 33.1 33.52L37.58 38L39.58 40H42V38H40.42L34.72 32.3C35.5 31.42 36 30.28 36 29C36 26.58 34.28 24.56 32 24.1V2H54V30H46.42L42 25.58V19.9C44.28 19.44 46 17.42 46 15C46 12.24 43.76 10 41 10C38.24 10 36 12.24 36 15C36 17.42 37.72 19.44 40 19.9V26.42L45.58 32H54V38H44.56L47.9 40H54V43.66L56 44.86V0H0ZM8 27C8 25.34 9.34 24 11 24C12.66 24 14 25.34 14 27C14 28.66 12.66 30 11 30C9.34 30 8 28.66 8 27ZM23 12C24.66 12 26 13.34 26 15C26 16.66 24.66 18 23 18C21.34 18 20 16.66 20 15C20 13.34 21.34 12 23 12ZM34 29C34 30.66 32.66 32 31 32C29.34 32 28 30.66 28 29C28 27.34 29.34 26 31 26C32.66 26 34 27.34 34 29ZM38 15C38 13.34 39.34 12 41 12C42.66 12 44 13.34 44 15C44 16.66 42.66 18 41 18C39.34 18 38 16.66 38 15Z" fill="#D9D9D9"/>
<path d="M44 40V48H28V56H44V64L64 52L44 40Z" fill="#73C5FF"/>
<path d="M18 40H2V54H18V40Z" fill="#999999"/>
<path d="M56 0H0V22H56V0Z" fill="#808080"/>
<path d="M12.2001 6.5C12.8001 6.84 13.2401 7.3 13.5401 7.88C13.8401 8.48 13.9801 9.16 13.9801 9.92V12.08C13.9801 12.84 13.8401 13.52 13.5401 14.1C13.2401 14.68 12.8001 15.14 12.2001 15.48C11.6001 15.82 10.8801 15.98 10.0201 15.98C9.16008 15.98 8.44008 15.82 7.86008 15.48C7.26008 15.14 6.82008 14.68 6.52008 14.1C6.22008 13.52 6.08008 12.84 6.08008 12.08V9.92C6.08008 9.14 6.22008 8.46 6.52008 7.88C6.82008 7.28 7.26008 6.82 7.86008 6.5C8.46008 6.16 9.18008 6 10.0201 6C10.8801 6 11.6001 6.16 12.2001 6.5ZM8.36008 8.02C7.98008 8.48 7.80008 9.1 7.80008 9.9V12.1C7.80008 12.88 7.98008 13.52 8.36008 13.96C8.74008 14.42 9.28008 14.64 10.0201 14.64C10.7601 14.64 11.3001 14.42 11.6801 13.96C12.0601 13.5 12.2401 12.88 12.2401 12.1V9.9C12.2401 9.1 12.0601 8.48 11.6801 8.02C11.3001 7.56 10.7601 7.34 10.0201 7.34C9.28008 7.34 8.74008 7.56 8.36008 8.02Z" fill="white"/>
<path d="M22.3 7.08C23 7.8 23.34 8.76 23.34 10V11.78C23.34 13.1 22.96 14.14 22.2 14.88C21.44 15.62 20.34 16 18.92 16H16V6H19.28C20.6 6 21.6 6.36 22.3 7.08ZM21.54 9.96C21.54 9.14 21.34 8.5 20.94 8.06C20.54 7.62 19.96 7.4 19.18 7.4H17.8V14.62H18.92C19.8 14.62 20.46 14.38 20.88 13.92C21.32 13.46 21.54 12.76 21.54 11.8V9.96Z" fill="white"/>
<path d="M32.4 11.44C32.76 11.76 32.94 12.24 32.94 12.84V13.42C32.94 13.92 32.78 14.38 32.46 14.76C32.14 15.14 31.7 15.46 31.12 15.68C30.54 15.9 29.86 16 29.08 16H26V6H29.08C30.16 6 31.02 6.22 31.66 6.66C32.3 7.1 32.62 7.7 32.62 8.48V9.1C32.62 9.58 32.48 9.96 32.2 10.22C31.92 10.5 31.56 10.68 31.16 10.8C31.62 10.92 32.04 11.12 32.4 11.44ZM27.8 7.32V10.34H29.38C29.82 10.34 30.18 10.24 30.44 10.04C30.7 9.84 30.82 9.54 30.82 9.14V8.62C30.82 8.2 30.66 7.88 30.36 7.66C30.06 7.44 29.64 7.34 29.1 7.34H27.8V7.32ZM31.14 12.82C31.14 12.44 31 12.14 30.7 11.92C30.4 11.7 30 11.6 29.46 11.6H27.8V14.68H29.1C29.74 14.68 30.24 14.56 30.6 14.34C30.96 14.12 31.14 13.78 31.14 13.32V12.82Z" fill="white"/>
<path d="M41.98 11.76H39.8V14H38.16V11.76H36V10.24H38.18V8H39.82V10.24H42V11.76H41.98Z" fill="white"/>
<path d="M49.98 11.76H47.8V14H46.16V11.76H44V10.24H46.18V8H47.82V10.24H50V11.76H49.98Z" fill="white"/>
</svg>
