<?xml version="1.0" encoding="UTF-8" standalone="yes"?>
<svg xmlns="http://www.w3.org/2000/svg" xmlns:xlink="http://www.w3.org/1999/xlink" width="64" height="64" viewBox="0 0 64 64" version="1.1">
  <g id="surface1">
    <path style=" stroke:none;fill-rule:evenodd;fill:rgb(45.09804%,77.254903%,100%);fill-opacity:1;" d="M 19.269531 30.679688 L 20.734375 29.320312 L 30.636719 40 L 64 40 L 64 42 L 29.765625 42 Z M 19.269531 30.679688 "/>
    <path style=" stroke:none;fill-rule:evenodd;fill:rgb(45.09804%,77.254903%,100%);fill-opacity:1;" d="M 19.269531 52.679688 L 20.734375 51.320312 L 30.636719 62 L 64 62 L 64 64 L 29.765625 64 Z M 19.269531 52.679688 "/>
    <path style=" stroke:none;fill-rule:evenodd;fill:rgb(45.09804%,86.274511%,90.196079%);fill-opacity:1;" d="M 16 55 L 16 0 L 22 0 L 22 55 C 22 59.976562 17.976562 64 13 64 L 0 64 L 0 58 L 13 58 C 14.664062 58 16 56.664062 16 55 Z M 16 55 "/>
    <path style=" stroke:none;fill-rule:nonzero;fill:rgb(45.09804%,77.254903%,100%);fill-opacity:1;" d="M 44.578125 25.5 C 45.519531 26.5 46 27.859375 46 29.601562 L 46 32.078125 C 46 33.941406 45.480469 35.378906 44.441406 36.421875 C 43.378906 37.480469 41.898438 38 39.960938 38 L 36 38 L 36 24 L 40.460938 24 C 42.261719 24 43.640625 24.5 44.578125 25.5 Z M 43.539062 29.539062 C 43.539062 28.378906 43.28125 27.5 42.738281 26.878906 C 42.199219 26.261719 41.398438 25.960938 40.339844 25.960938 L 38.460938 25.960938 L 38.460938 36.078125 L 40 36.078125 C 41.199219 36.078125 42.078125 35.761719 42.679688 35.101562 C 43.28125 34.441406 43.558594 33.460938 43.558594 32.140625 L 43.558594 29.539062 Z M 43.539062 29.539062 "/>
    <path style=" stroke:none;fill-rule:nonzero;fill:rgb(45.09804%,77.254903%,100%);fill-opacity:1;" d="M 44.578125 47.5 C 45.519531 48.5 46 49.859375 46 51.601562 L 46 54.078125 C 46 55.941406 45.480469 57.378906 44.441406 58.421875 C 43.378906 59.480469 41.898438 60 39.960938 60 L 36 60 L 36 46 L 40.460938 46 C 42.261719 46 43.640625 46.5 44.578125 47.5 Z M 43.539062 51.539062 C 43.539062 50.378906 43.28125 49.5 42.738281 48.878906 C 42.199219 48.261719 41.398438 47.960938 40.339844 47.960938 L 38.460938 47.960938 L 38.460938 58.078125 L 40 58.078125 C 41.199219 58.078125 42.078125 57.761719 42.679688 57.101562 C 43.28125 56.441406 43.558594 55.460938 43.558594 54.140625 L 43.558594 51.539062 Z M 43.539062 51.539062 "/>
    <path style=" stroke:none;fill-rule:nonzero;fill:rgb(45.09804%,77.254903%,100%);fill-opacity:1;" d="M 57.320312 36 L 57.320312 38 L 48.300781 38 L 48.300781 36.601562 C 48.300781 35.480469 48.539062 34.539062 49.039062 33.78125 C 49.519531 33.019531 50.21875 32.339844 51.121094 31.71875 L 53.039062 30.421875 C 53.699219 29.980469 54.140625 29.601562 54.398438 29.28125 C 54.660156 28.960938 54.78125 28.601562 54.78125 28.160156 L 54.78125 27.679688 C 54.78125 27.199219 54.578125 26.800781 54.199219 26.441406 C 53.800781 26.078125 53.21875 25.898438 52.460938 25.898438 C 51.878906 25.898438 51.320312 26 50.800781 26.179688 C 50.28125 26.359375 49.71875 26.660156 49.121094 27.078125 L 48 25.601562 C 48.679688 25.078125 49.398438 24.679688 50.140625 24.398438 C 50.898438 24.121094 51.71875 23.980469 52.621094 23.980469 C 53.578125 23.980469 54.421875 24.140625 55.121094 24.5 C 55.839844 24.839844 56.378906 25.28125 56.738281 25.839844 C 57.101562 26.398438 57.28125 26.980469 57.28125 27.621094 L 57.28125 28.21875 C 57.28125 28.921875 57.039062 29.578125 56.578125 30.199219 C 56.121094 30.820312 55.339844 31.480469 54.28125 32.160156 L 52.738281 33.140625 C 52 33.621094 51.5 34.078125 51.21875 34.5 C 50.941406 34.921875 50.78125 35.421875 50.761719 35.980469 L 57.320312 35.980469 Z M 57.320312 36 "/>
    <path style=" stroke:none;fill-rule:nonzero;fill:rgb(45.09804%,77.254903%,100%);fill-opacity:1;" d="M 50.019531 59.460938 C 49.261719 59.101562 48.578125 58.601562 48 57.941406 L 49.398438 56.621094 C 50.378906 57.640625 51.5 58.160156 52.800781 58.160156 C 53.621094 58.160156 54.28125 57.980469 54.800781 57.640625 C 55.320312 57.300781 55.558594 56.761719 55.558594 56.019531 L 55.558594 55.539062 C 55.558594 54.800781 55.261719 54.261719 54.679688 53.960938 C 54.101562 53.640625 53.460938 53.480469 52.761719 53.480469 L 51.5 53.480469 L 51.5 51.738281 L 52.761719 51.738281 C 53.398438 51.738281 53.960938 51.601562 54.421875 51.339844 C 54.898438 51.078125 55.140625 50.621094 55.140625 50.019531 L 55.140625 49.578125 C 55.140625 48.980469 54.921875 48.539062 54.480469 48.238281 C 54.039062 47.960938 53.480469 47.820312 52.800781 47.820312 C 52.179688 47.820312 51.601562 47.941406 51.058594 48.179688 C 50.519531 48.421875 50 48.78125 49.480469 49.261719 L 48.179688 47.960938 C 48.820312 47.339844 49.519531 46.859375 50.300781 46.519531 C 51.101562 46.179688 52 46 53.019531 46 C 53.859375 46 54.621094 46.140625 55.300781 46.421875 C 55.980469 46.699219 56.539062 47.078125 56.941406 47.578125 C 57.339844 48.078125 57.539062 48.660156 57.539062 49.300781 L 57.539062 50.058594 C 57.539062 50.640625 57.300781 51.160156 56.839844 51.601562 C 56.378906 52.058594 55.820312 52.339844 55.199219 52.480469 C 55.621094 52.539062 56.039062 52.699219 56.480469 52.960938 C 56.921875 53.21875 57.28125 53.558594 57.578125 53.960938 C 57.878906 54.378906 58.019531 54.839844 58.019531 55.339844 L 58.019531 56.199219 C 58.019531 56.898438 57.800781 57.558594 57.359375 58.121094 C 56.921875 58.699219 56.320312 59.160156 55.539062 59.480469 C 54.761719 59.800781 53.898438 59.980469 52.941406 59.980469 C 51.761719 60 50.800781 59.820312 50.019531 59.460938 Z M 50.019531 59.460938 "/>
  </g>
</svg>