<?xml version="1.0" encoding="UTF-8" standalone="yes"?>
<svg xmlns="http://www.w3.org/2000/svg" xmlns:xlink="http://www.w3.org/1999/xlink" width="64" height="64" viewBox="0 0 64 64" version="1.1">
  <g id="surface1">
    <path style=" stroke:none;fill-rule:evenodd;fill:rgb(85.09804%,85.09804%,85.09804%);fill-opacity:1;" d="M 34.5 49.441406 L 42.640625 57.359375 L 32.078125 60.058594 Z M 34.5 49.441406 "/>
    <path style=" stroke:none;fill-rule:evenodd;fill:rgb(100%,40.000001%,40.000001%);fill-opacity:1;" d="M 61.160156 30.800781 C 63.558594 33.21875 63.558594 37.140625 61.160156 39.539062 L 59.71875 41 L 51.039062 32.261719 L 52.480469 30.800781 C 54.878906 28.378906 58.757812 28.378906 61.160156 30.800781 Z M 61.160156 30.800781 "/>
    <path style=" stroke:none;fill-rule:evenodd;fill:rgb(100%,83.529413%,50.196081%);fill-opacity:1;" d="M 49.261719 34 L 58 42.71875 L 44.71875 56 L 36 47.28125 Z M 49.261719 34 "/>
    <path style=" stroke:none;fill-rule:nonzero;fill:rgb(85.09804%,85.09804%,85.09804%);fill-opacity:1;" d="M 16.820312 12 L 16 12 L 16 10 L 6 20 L 8 20 L 8 20.820312 Z M 16.820312 12 "/>
    <path style=" stroke:none;fill-rule:nonzero;fill:rgb(85.09804%,85.09804%,85.09804%);fill-opacity:1;" d="M 56 12 L 56 27.039062 C 56.28125 27.019531 56.539062 27 56.820312 27 C 57.21875 27 57.621094 27.019531 58 27.101562 L 58 12 Z M 56 12 "/>
    <path style=" stroke:none;fill-rule:nonzero;fill:rgb(85.09804%,85.09804%,85.09804%);fill-opacity:1;" d="M 8 48 L 8 50 L 32.359375 50 L 32.839844 48 Z M 8 48 "/>
    <path style=" stroke:none;fill-rule:nonzero;fill:rgb(85.09804%,85.09804%,85.09804%);fill-opacity:1;" d="M 4 30 L 2 30 L 2 44 L 4 44 Z M 4 30 "/>
    <path style=" stroke:none;fill-rule:nonzero;fill:rgb(85.09804%,85.09804%,85.09804%);fill-opacity:1;" d="M 52 6 L 26 6 L 26 8 L 52 8 Z M 52 6 "/>
    <path style=" stroke:none;fill-rule:nonzero;fill:rgb(45.09804%,77.254903%,100%);fill-opacity:1;" d="M 6 22 L 0 22 L 0 28 L 6 28 Z M 6 22 "/>
    <path style=" stroke:none;fill-rule:nonzero;fill:rgb(45.09804%,77.254903%,100%);fill-opacity:1;" d="M 6 46 L 0 46 L 0 52 L 6 52 Z M 6 46 "/>
    <path style=" stroke:none;fill-rule:nonzero;fill:rgb(45.09804%,77.254903%,100%);fill-opacity:1;" d="M 24 4 L 18 4 L 18 10 L 24 10 Z M 24 4 "/>
    <path style=" stroke:none;fill-rule:nonzero;fill:rgb(45.09804%,77.254903%,100%);fill-opacity:1;" d="M 60 4 L 54 4 L 54 10 L 60 10 Z M 60 4 "/>
    <path style=" stroke:none;fill-rule:nonzero;fill:rgb(45.09804%,77.254903%,100%);fill-opacity:1;" d="M 60 46 L 60 52 L 54 52 L 54 49.539062 L 57.539062 46 Z M 60 46 "/>
  </g>
</svg>