<?xml version="1.0" encoding="UTF-8" standalone="yes"?>
<svg xmlns="http://www.w3.org/2000/svg" xmlns:xlink="http://www.w3.org/1999/xlink" width="64" height="64" viewBox="0 0 64 64" version="1.1">
  <defs>
    <filter id="alpha" filterUnits="objectBoundingBox" x="0%" y="0%" width="100%" height="100%">
      <feColorMatrix type="matrix" in="SourceGraphic" values="0 0 0 0 1 0 0 0 0 1 0 0 0 0 1 0 0 0 1 0"/>
    </filter>
    <mask id="mask0">
      <g filter="url(#alpha)">
        <rect x="0" y="0" width="64" height="64" style="fill:rgb(0%,0%,0%);fill-opacity:0.5;stroke:none;"/>
      </g>
    </mask>
    <mask id="mask1">
      <g filter="url(#alpha)">
        <rect x="0" y="0" width="64" height="64" style="fill:rgb(0%,0%,0%);fill-opacity:0.5;stroke:none;"/>
      </g>
    </mask>
    <mask id="mask2">
      <g filter="url(#alpha)">
        <rect x="0" y="0" width="64" height="64" style="fill:rgb(0%,0%,0%);fill-opacity:0.5;stroke:none;"/>
      </g>
    </mask>
    <clipPath id="clip1">
      <rect x="0" y="0" width="64" height="64"/>
    </clipPath>
    <clipPath id="clip2">
      <rect x="0" y="0" width="64" height="64"/>
    </clipPath>
    <clipPath id="clip3">
      <rect x="0" y="0" width="64" height="64"/>
    </clipPath>
    <g id="surface5" clip-path="url(#clip1)">
      <path style=" stroke:none;fill-rule:nonzero;fill:rgb(40.000001%,40.000001%,40.000001%);fill-opacity:1;" d="M 12 22 L 12 24.300781 C 9.800781 25.480469 7.738281 25.878906 5.921875 25.878906 C 3.378906 25.878906 1.320312 25.078125 0 24.378906 L 0 22.078125 C 1.300781 23 6.039062 25.738281 12 22 Z M 12 22 "/>
    </g>
    <g id="surface8" clip-path="url(#clip2)">
      <path style=" stroke:none;fill-rule:nonzero;fill:rgb(40.000001%,40.000001%,40.000001%);fill-opacity:1;" d="M 26 22 L 26 24.300781 C 23.800781 25.480469 21.738281 25.878906 19.921875 25.878906 C 17.378906 25.878906 15.320312 25.078125 14 24.378906 L 14 22.078125 C 15.300781 23 20.039062 25.738281 26 22 Z M 26 22 "/>
    </g>
    <g id="surface11" clip-path="url(#clip3)">
      <path style=" stroke:none;fill-rule:nonzero;fill:rgb(40.000001%,40.000001%,40.000001%);fill-opacity:1;" d="M 40 22 L 40 24.300781 C 37.800781 25.480469 35.738281 25.878906 33.921875 25.878906 C 31.378906 25.878906 29.320312 25.078125 28 24.378906 L 28 22.078125 C 29.300781 23 34.039062 25.738281 40 22 Z M 40 22 "/>
    </g>
  </defs>
  <g id="surface1">
    <path style=" stroke:none;fill-rule:nonzero;fill:rgb(73.333335%,73.333335%,73.333335%);fill-opacity:1;" d="M 52 0 L 52 35.601562 C 50.941406 36.058594 49.960938 36.699219 49.121094 37.519531 L 46.941406 39.621094 L 46.140625 40.5 L 40 34.339844 L 40 12 Z M 52 0 "/>
    <path style=" stroke:none;fill-rule:nonzero;fill:rgb(95.294118%,95.294118%,95.294118%);fill-opacity:1;" d="M 26 0 L 14 12 C 15.679688 13.261719 17.738281 14.039062 20 14.039062 C 22.261719 14.039062 24.320312 13.261719 26 12 L 38 0 Z M 26 0 "/>
    <path style=" stroke:none;fill-rule:nonzero;fill:rgb(95.294118%,95.294118%,95.294118%);fill-opacity:1;" d="M 40 0 L 28 12 C 29.679688 13.261719 31.738281 14.039062 34 14.039062 C 36.261719 14.039062 38.320312 13.261719 40 12 L 52 0 Z M 40 0 "/>
    <path style=" stroke:none;fill-rule:nonzero;fill:rgb(95.294118%,95.294118%,95.294118%);fill-opacity:1;" d="M 12 0 L 0 12 C 1.679688 13.261719 3.738281 14.039062 6 14.039062 C 8.261719 14.039062 10.320312 13.261719 12 12 L 24 0 Z M 12 0 "/>
    <path style=" stroke:none;fill-rule:nonzero;fill:rgb(85.09804%,85.09804%,85.09804%);fill-opacity:1;" d="M 12 11.960938 L 12 53.960938 C 11.160156 54.601562 10.238281 55.078125 9.199219 55.441406 C 8.199219 55.800781 7.121094 56 6 56 C 4.878906 56 3.800781 55.800781 2.800781 55.441406 C 1.761719 55.078125 0.839844 54.601562 0 53.960938 L 0 11.960938 C 0.839844 12.601562 1.761719 13.078125 2.800781 13.441406 C 3.800781 13.800781 4.878906 14 6 14 C 7.121094 14 8.199219 13.800781 9.199219 13.441406 C 10.238281 13.078125 11.160156 12.601562 12 11.960938 Z M 12 11.960938 "/>
    <path style=" stroke:none;fill-rule:nonzero;fill:rgb(85.09804%,85.09804%,85.09804%);fill-opacity:1;" d="M 26 11.960938 L 26 53.960938 C 25.160156 54.601562 24.238281 55.078125 23.199219 55.441406 C 22.199219 55.800781 21.121094 56 20 56 C 18.878906 56 17.800781 55.800781 16.800781 55.441406 C 15.761719 55.078125 14.839844 54.601562 14 53.960938 L 14 11.960938 C 14.839844 12.601562 15.761719 13.078125 16.800781 13.441406 C 17.800781 13.800781 18.878906 14 20 14 C 21.121094 14 22.199219 13.800781 23.199219 13.441406 C 24.238281 13.078125 25.160156 12.601562 26 11.960938 Z M 26 11.960938 "/>
    <path style=" stroke:none;fill-rule:nonzero;fill:rgb(85.09804%,85.09804%,85.09804%);fill-opacity:1;" d="M 40 11.960938 L 40 34.339844 L 37.421875 31.761719 L 31.761719 37.421875 L 37.601562 43.261719 L 31.898438 48.921875 C 30.960938 49.878906 30.21875 50.980469 29.738281 52.160156 C 29.398438 52.960938 29.179688 53.800781 29.078125 54.660156 C 28.699219 54.460938 28.339844 54.21875 28 53.960938 L 28 11.960938 C 28 11.960938 28.019531 11.960938 28.019531 11.980469 C 28.859375 12.601562 29.761719 13.078125 30.800781 13.441406 C 31.800781 13.800781 32.878906 14 34 14 C 35.121094 14 36.199219 13.800781 37.199219 13.441406 C 38.238281 13.078125 39.160156 12.601562 40 11.960938 Z M 40 11.960938 "/>
    <path style=" stroke:none;fill-rule:nonzero;fill:rgb(96.862745%,71.372551%,53.333336%);fill-opacity:1;" d="M 49.640625 56.71875 L 46.761719 59.539062 L 44.640625 61.660156 C 43.902344 62.398438 43 62.980469 42.039062 63.398438 C 41.058594 63.800781 40.019531 64 38.980469 64 C 37.921875 64 36.878906 63.800781 35.921875 63.398438 C 34.941406 62.980469 34.058594 62.398438 33.320312 61.660156 C 32.582031 60.921875 31.980469 60.019531 31.582031 59.058594 C 31.179688 58.082031 30.980469 57.039062 30.980469 56 C 30.980469 54.941406 31.179688 53.898438 31.582031 52.941406 C 31.980469 51.960938 32.582031 51.082031 33.320312 50.339844 L 38.300781 45.378906 L 41.160156 48.238281 L 36.242188 53.179688 C 35.539062 53.941406 35.179688 54.941406 35.199219 55.960938 C 35.242188 56.980469 35.660156 57.960938 36.378906 58.679688 C 37.101562 59.421875 38.082031 59.839844 39.121094 59.859375 C 40.140625 59.878906 41.140625 59.5 41.902344 58.820312 L 46.820312 53.898438 Z M 49.640625 56.71875 "/>
    <path style=" stroke:none;fill-rule:nonzero;fill:rgb(96.862745%,71.372551%,53.333336%);fill-opacity:1;" d="M 64 44.660156 C 64.019531 46.761719 63.238281 48.761719 61.800781 50.28125 L 59.582031 52.5 L 56.761719 49.679688 L 58.941406 47.601562 C 59.679688 46.839844 60.101562 45.820312 60.101562 44.761719 C 60.101562 43.699219 59.679688 42.679688 58.941406 41.941406 C 58.179688 41.179688 57.160156 40.761719 56.101562 40.761719 C 55.039062 40.761719 54.019531 41.179688 53.28125 41.941406 L 51.859375 43.359375 L 51.160156 44.082031 L 48.238281 41.160156 L 48.421875 40.960938 L 50.5 38.960938 C 52 37.519531 54.019531 36.738281 56.101562 36.761719 C 58.199219 36.78125 60.179688 37.640625 61.660156 39.101562 C 63.140625 40.582031 63.980469 42.582031 64 44.660156 Z M 64 44.660156 "/>
    <path style=" stroke:none;fill-rule:nonzero;fill:rgb(90.196079%,45.09804%,45.09804%);fill-opacity:1;" d="M 37.414062 34.59375 L 34.585938 37.421875 L 60.578125 63.414062 L 63.410156 60.585938 Z M 37.414062 34.59375 "/>
    <use xlink:href="#surface5" mask="url(#mask0)"/>
    <use xlink:href="#surface8" mask="url(#mask1)"/>
    <use xlink:href="#surface11" mask="url(#mask2)"/>
  </g>
</svg>