<?xml version="1.0" encoding="UTF-8" standalone="yes"?>
<svg xmlns="http://www.w3.org/2000/svg" xmlns:xlink="http://www.w3.org/1999/xlink" width="64" height="64" viewBox="0 0 64 64" version="1.1">
  <g id="surface1">
    <path style=" stroke:none;fill-rule:evenodd;fill:rgb(100%,83.529413%,50.196081%);fill-opacity:1;" d="M 0 48 L 24 32 L 18 44 L 32 48 L 8 64 L 14 52 Z M 0 48 "/>
    <path style=" stroke:none;fill-rule:nonzero;fill:rgb(45.09804%,77.254903%,100%);fill-opacity:1;" d="M 48 49.199219 L 48 16 L 0 16 L 0 20 L 44 20 L 44 50.800781 L 57.199219 64 L 62.800781 64 Z M 48 49.199219 "/>
    <path style=" stroke:none;fill-rule:nonzero;fill:rgb(45.09804%,77.254903%,100%);fill-opacity:1;" d="M 64 49.199219 L 64 54.800781 L 52 42.800781 L 52 12 L 0 12 L 0 8 L 56 8 L 56 41.199219 Z M 64 49.199219 "/>
    <path style=" stroke:none;fill-rule:nonzero;fill:rgb(45.09804%,77.254903%,100%);fill-opacity:1;" d="M 64 0 L 64 38.800781 L 60 34.800781 L 60 4 L 0 4 L 0 0 Z M 64 0 "/>
  </g>
</svg>