<?xml version="1.0" encoding="UTF-8" standalone="yes"?>
<svg xmlns="http://www.w3.org/2000/svg" xmlns:xlink="http://www.w3.org/1999/xlink" width="64" height="64" viewBox="0 0 64 64" version="1.1">
  <defs>
    <filter id="alpha" filterUnits="objectBoundingBox" x="0%" y="0%" width="100%" height="100%">
      <feColorMatrix type="matrix" in="SourceGraphic" values="0 0 0 0 1 0 0 0 0 1 0 0 0 0 1 0 0 0 1 0"/>
    </filter>
    <mask id="mask0">
      <g filter="url(#alpha)">
        <rect x="0" y="0" width="64" height="64" style="fill:rgb(0%,0%,0%);fill-opacity:0.3;stroke:none;"/>
      </g>
    </mask>
    <mask id="mask1">
      <g filter="url(#alpha)">
        <rect x="0" y="0" width="64" height="64" style="fill:rgb(0%,0%,0%);fill-opacity:0.3;stroke:none;"/>
      </g>
    </mask>
    <clipPath id="clip1">
      <rect x="0" y="0" width="64" height="64"/>
    </clipPath>
    <clipPath id="clip2">
      <rect x="0" y="0" width="64" height="64"/>
    </clipPath>
    <g id="surface5" clip-path="url(#clip1)">
      <path style=" stroke:none;fill-rule:nonzero;fill:rgb(85.09804%,85.09804%,85.09804%);fill-opacity:1;" d="M 62 6 L 62 44 L 34 44 L 34 58 L 2 58 L 2 6 Z M 62 6 "/>
    </g>
    <g id="surface8" clip-path="url(#clip2)">
      <path style=" stroke:none;fill-rule:nonzero;fill:rgb(0.784314%,85.09804%,52.941179%);fill-opacity:1;" d="M 62 44 L 34 44 L 34 58 L 62 58 Z M 62 44 "/>
    </g>
  </defs>
  <g id="surface1">
    <use xlink:href="#surface5" mask="url(#mask0)"/>
    <use xlink:href="#surface8" mask="url(#mask1)"/>
    <path style=" stroke:none;fill-rule:nonzero;fill:rgb(0.784314%,85.09804%,52.941179%);fill-opacity:1;" d="M 2 6 L 2 58 L 32 58 L 32 56 L 4 56 L 4 8 L 60 8 L 60 42 L 62 42 L 62 6 Z M 2 6 "/>
    <path style=" stroke:none;fill-rule:nonzero;fill:rgb(0.784314%,85.09804%,52.941179%);fill-opacity:1;" d="M 34 44 L 34 58 L 62 58 L 62 44 Z M 36 46 L 42 46 L 42 50 L 36 50 Z M 36 56 L 36 52 L 52 52 L 52 56 Z M 60 56 L 54 56 L 54 52 L 60 52 Z M 60 50 L 44 50 L 44 46 L 60 46 Z M 60 50 "/>
    <path style=" stroke:none;fill-rule:evenodd;fill:rgb(0.784314%,85.09804%,52.941179%);fill-opacity:1;" d="M 24 12 L 24 22 L 15.757812 22 L 25 38 L 16 38 L 16 40 L 24 40 L 24 52 L 26 52 L 26 40 L 34 40 L 34 38 L 25 38 L 34.238281 22 L 26 22 L 26 12 Z M 25 34 L 30.78125 24 L 19.21875 24 Z M 15.292969 25.292969 L 10.914062 29.671875 L 9.5 28.261719 L 7.960938 34.039062 L 13.738281 32.5 L 12.328125 31.085938 L 16.707031 26.707031 Z M 15.292969 33.292969 L 10.914062 37.671875 L 9.5 36.261719 L 7.960938 42.039062 L 13.738281 40.5 L 12.328125 39.085938 L 16.707031 34.707031 Z M 15.292969 33.292969 "/>
  </g>
</svg>