<?xml version="1.0" encoding="UTF-8" standalone="yes"?>
<svg xmlns="http://www.w3.org/2000/svg" xmlns:xlink="http://www.w3.org/1999/xlink" width="64" height="64" viewBox="0 0 64 64" version="1.1">
  <g id="surface1">
    <path style=" stroke:none;fill-rule:nonzero;fill:rgb(45.09804%,86.274511%,90.196079%);fill-opacity:1;" d="M 48.578125 7.5 C 49.519531 8.5 50 9.859375 50 11.601562 L 50 14.078125 C 50 15.941406 49.480469 17.378906 48.441406 18.421875 C 47.378906 19.480469 45.898438 20 43.960938 20 L 40 20 L 40 6 L 44.460938 6 C 46.261719 6 47.640625 6.5 48.578125 7.5 Z M 47.539062 11.539062 C 47.539062 10.378906 47.28125 9.5 46.738281 8.878906 C 46.199219 8.261719 45.398438 7.960938 44.339844 7.960938 L 42.460938 7.960938 L 42.460938 18.078125 L 44 18.078125 C 45.199219 18.078125 46.078125 17.761719 46.679688 17.101562 C 47.28125 16.441406 47.558594 15.460938 47.558594 14.140625 L 47.558594 11.539062 Z M 47.539062 11.539062 "/>
    <path style=" stroke:none;fill-rule:nonzero;fill:rgb(45.09804%,86.274511%,90.196079%);fill-opacity:1;" d="M 60 18.101562 L 60 20 L 52.460938 20 L 52.460938 18.101562 L 55.238281 18.101562 L 55.238281 8.71875 L 52.898438 9.921875 L 52 8.28125 L 55.800781 6 L 57.601562 6 L 57.601562 18.101562 Z M 60 18.101562 "/>
    <path style=" stroke:none;fill-rule:nonzero;fill:rgb(45.09804%,86.274511%,90.196079%);fill-opacity:1;" d="M 48.578125 37.5 C 49.519531 38.5 50 39.859375 50 41.601562 L 50 44.078125 C 50 45.941406 49.480469 47.378906 48.441406 48.421875 C 47.378906 49.480469 45.898438 50 43.960938 50 L 40 50 L 40 36 L 44.460938 36 C 46.261719 36 47.640625 36.5 48.578125 37.5 Z M 47.539062 41.539062 C 47.539062 40.378906 47.28125 39.5 46.738281 38.878906 C 46.199219 38.261719 45.398438 37.960938 44.339844 37.960938 L 42.460938 37.960938 L 42.460938 48.078125 L 44 48.078125 C 45.199219 48.078125 46.078125 47.761719 46.679688 47.101562 C 47.28125 46.441406 47.558594 45.460938 47.558594 44.140625 L 47.558594 41.539062 Z M 47.539062 41.539062 "/>
    <path style=" stroke:none;fill-rule:nonzero;fill:rgb(45.09804%,86.274511%,90.196079%);fill-opacity:1;" d="M 61.320312 48 L 61.320312 50 L 52.300781 50 L 52.300781 48.601562 C 52.300781 47.480469 52.539062 46.539062 53.039062 45.78125 C 53.519531 45.019531 54.21875 44.339844 55.121094 43.71875 L 57.039062 42.421875 C 57.699219 41.980469 58.140625 41.601562 58.398438 41.28125 C 58.660156 40.960938 58.78125 40.601562 58.78125 40.160156 L 58.78125 39.679688 C 58.78125 39.199219 58.578125 38.800781 58.199219 38.441406 C 57.800781 38.078125 57.21875 37.898438 56.460938 37.898438 C 55.878906 37.898438 55.320312 38 54.800781 38.179688 C 54.28125 38.359375 53.71875 38.660156 53.121094 39.078125 L 52 37.601562 C 52.679688 37.078125 53.398438 36.679688 54.140625 36.398438 C 54.898438 36.121094 55.71875 35.980469 56.621094 35.980469 C 57.578125 35.980469 58.421875 36.140625 59.121094 36.5 C 59.839844 36.839844 60.378906 37.28125 60.738281 37.839844 C 61.101562 38.398438 61.28125 38.980469 61.28125 39.621094 L 61.28125 40.21875 C 61.28125 40.921875 61.039062 41.578125 60.578125 42.199219 C 60.121094 42.820312 59.339844 43.480469 58.28125 44.160156 L 56.738281 45.140625 C 56 45.621094 55.5 46.078125 55.21875 46.5 C 54.941406 46.921875 54.78125 47.421875 54.761719 47.980469 L 61.320312 47.980469 Z M 61.320312 48 "/>
    <path style=" stroke:none;fill-rule:nonzero;fill:rgb(85.09804%,85.09804%,85.09804%);fill-opacity:1;" d="M 28 54 L 28 52 L 64 52 L 64 54 Z M 28 54 "/>
    <path style=" stroke:none;fill-rule:nonzero;fill:rgb(85.09804%,85.09804%,85.09804%);fill-opacity:1;" d="M 28 24 L 28 22 L 64 22 L 64 24 Z M 28 24 "/>
    <path style=" stroke:none;fill-rule:nonzero;fill:rgb(96.862745%,71.372551%,53.333336%);fill-opacity:1;" d="M 28 0 L 0 0 L 0 2 L 26 2 L 26 62 L 0 62 L 0 64 L 28 64 Z M 28 0 "/>
    <path style=" stroke:none;fill-rule:nonzero;fill:rgb(90.196079%,49.411765%,20.784314%);fill-opacity:0.301961;" d="M 0 2 L 26 2 L 26 62 L 0 62 Z M 0 2 "/>
  </g>
</svg>