<?xml version="1.0" encoding="UTF-8" standalone="yes"?>
<svg xmlns="http://www.w3.org/2000/svg" xmlns:xlink="http://www.w3.org/1999/xlink" width="64" height="64" viewBox="0 0 64 64" version="1.1">
  <g id="surface1">
    <path style=" stroke:none;fill-rule:nonzero;fill:rgb(45.09804%,77.254903%,100%);fill-opacity:1;" d="M 58 28 L 54 28 L 54 52 C 54 55.320312 51.320312 58 48 58 C 44.679688 58 42 55.320312 42 52 L 42 12 C 42 6.480469 37.519531 2 32 2 C 26.480469 2 22 6.480469 22 12 L 22 52 C 22 55.320312 19.320312 58 16 58 C 12.679688 58 10 55.320312 10 52 L 10 28 L 0 28 L 0 32 L 6 32 L 6 52 C 6 57.519531 10.480469 62 16 62 C 21.519531 62 26 57.519531 26 52 L 26 12 C 26 8.679688 28.679688 6 32 6 C 35.320312 6 38 8.679688 38 12 L 38 52 C 38 57.519531 42.480469 62 48 62 C 53.519531 62 58 57.519531 58 52 L 58 32 L 64 32 L 64 28 Z M 58 28 "/>
  </g>
</svg>