<?xml version="1.0" encoding="UTF-8" standalone="yes"?>
<svg xmlns="http://www.w3.org/2000/svg" xmlns:xlink="http://www.w3.org/1999/xlink" width="64" height="64" viewBox="0 0 64 64" version="1.1">
  <g id="surface1">
    <path style=" stroke:none;fill-rule:nonzero;fill:rgb(45.09804%,77.254903%,100%);fill-opacity:1;" d="M 27.640625 7 C 29.578125 9 30.558594 11.738281 30.558594 15.199219 L 30.558594 20.160156 C 30.558594 23.859375 29.480469 26.761719 27.339844 28.859375 C 25.199219 30.960938 22.140625 32 18.160156 32 L 10 32 L 10 4 L 19.160156 4 C 22.859375 4 25.699219 5 27.640625 7 Z M 25.519531 15.078125 C 25.519531 12.761719 24.960938 10.980469 23.859375 9.738281 C 22.761719 8.5 21.101562 7.878906 18.921875 7.878906 L 15.039062 7.878906 L 15.039062 28.121094 L 18.199219 28.121094 C 20.660156 28.121094 22.480469 27.460938 23.699219 26.160156 C 24.921875 24.859375 25.519531 22.878906 25.519531 20.238281 Z M 25.519531 15.078125 "/>
    <path style=" stroke:none;fill-rule:nonzero;fill:rgb(45.09804%,77.254903%,100%);fill-opacity:1;" d="M 54 28.199219 L 54 32 L 38.941406 32 L 38.941406 28.199219 L 44.5 28.199219 L 44.5 9.441406 L 39.800781 11.839844 L 38 8.558594 L 45.621094 4 L 49.238281 4 L 49.238281 28.199219 Z M 54 28.199219 "/>
    <path style=" stroke:none;fill-rule:nonzero;fill:rgb(85.09804%,85.09804%,85.09804%);fill-opacity:1;" d="M 60 48 L 4 48 L 4 52 L 60 52 Z M 60 48 "/>
    <path style=" stroke:none;fill-rule:evenodd;fill:rgb(45.09804%,77.254903%,100%);fill-opacity:1;" d="M 26.9375 61.0625 L 6.941406 41.0625 L 9.0625 38.9375 L 29.0625 58.9375 Z M 26.9375 61.0625 "/>
    <path style=" stroke:none;fill-rule:evenodd;fill:rgb(45.09804%,77.254903%,100%);fill-opacity:1;" d="M 6.941406 58.9375 L 26.9375 38.9375 L 29.0625 41.0625 L 9.0625 61.0625 Z M 6.941406 58.9375 "/>
  </g>
</svg>