<svg width="64" height="64" viewBox="0 0 64 64" fill="none" xmlns="http://www.w3.org/2000/svg">
<path d="M62 2H2V62H62V2Z" fill="#D9D9D9"/>
<path fill-rule="evenodd" clip-rule="evenodd" d="M62 62H2V33.62L4.3 30.04C6.84 26.24 11 24 15.14 24C19.28 24 23.44 26.24 25.98 29.82L42.6 53.74C42.84 54.18 43.52 54.42 43.98 54.42C44.44 54.42 45.14 54.2 45.36 53.74L51.36 45.7C52.98 43.68 55.52 42.58 58.06 42.8C59.44 42.8 60.82 43.24 61.98 43.92V62H62Z" fill="#999999"/>
<path fill-rule="evenodd" clip-rule="evenodd" d="M45 28C40.06 28 36 23.96 36 19C36 14.04 40.06 10 45 10C49.94 10 54 14.04 54 19C54 21.48 53.1 23.72 51.3 25.3C49.72 27.1 47.48 28 45 28Z" fill="#999999"/>
</svg>
