<?xml version="1.0" encoding="UTF-8" standalone="yes"?>
<svg xmlns="http://www.w3.org/2000/svg" xmlns:xlink="http://www.w3.org/1999/xlink" width="64" height="64" viewBox="0 0 64 64" version="1.1">
  <g id="surface1">
    <path style=" stroke:none;fill-rule:evenodd;fill:rgb(100%,83.529413%,50.196081%);fill-opacity:1;" d="M 0 48 L 24 32 L 18 44 L 32 48 L 8 64 L 14 52 Z M 0 48 "/>
    <path style=" stroke:none;fill-rule:nonzero;fill:rgb(45.09804%,77.254903%,100%);fill-opacity:1;" d="M 64 0 L 4 0 L 4 4 L 64 4 Z M 64 0 "/>
    <path style=" stroke:none;fill-rule:nonzero;fill:rgb(45.09804%,77.254903%,100%);fill-opacity:1;" d="M 56 8 L 4 8 L 4 12 L 56 12 Z M 56 8 "/>
    <path style=" stroke:none;fill-rule:nonzero;fill:rgb(45.09804%,77.254903%,100%);fill-opacity:1;" d="M 44 16 L 4 16 L 4 20 L 44 20 Z M 44 16 "/>
    <path style=" stroke:none;fill-rule:nonzero;fill:rgb(90.196079%,45.09804%,45.09804%);fill-opacity:1;" d="M 64 37.199219 L 56 29.199219 L 56 12 L 52 12 L 52 30.800781 L 62 40.800781 Z M 64 37.199219 "/>
    <path style=" stroke:none;fill-rule:nonzero;fill:rgb(85.09804%,85.09804%,85.09804%);fill-opacity:1;" d="M 45 50.398438 L 41.199219 54.199219 L 46.800781 59.800781 L 50.601562 56 Z M 45 50.398438 "/>
    <path style=" stroke:none;fill-rule:nonzero;fill:rgb(85.09804%,85.09804%,85.09804%);fill-opacity:1;" d="M 57.800781 37.800781 L 46.601562 49 L 52.199219 54.601562 L 63.398438 43.398438 L 64 37.199219 Z M 57.800781 37.800781 "/>
  </g>
</svg>