<svg width="64" height="64" viewBox="0 0 64 64" fill="none" xmlns="http://www.w3.org/2000/svg">
<g clip-path="url(#clip0_3133_14420)">
<path d="M63.2 58.96L48.5 44.26C47.24 45.82 45.82 47.24 44.26 48.5L58.96 63.2C58.96 63.2 61.08 65.08 63.08 63.08C65.08 61.08 63.2 58.96 63.2 58.96Z" fill="#D9AE77"/>
<path d="M26 0C11.64 0 0 11.64 0 26C0 40.36 11.64 52 26 52C40.36 52 52 40.36 52 26C52 11.64 40.36 0 26 0Z" fill="white" fill-opacity="0.1"/>
<path d="M26 0C11.64 0 0 11.64 0 26C0 40.36 11.64 52 26 52C40.36 52 52 40.36 52 26C52 11.64 40.36 0 26 0ZM26 50C12.74 50 2 39.26 2 26C2 12.74 12.74 2 26 2C39.26 2 50 12.74 50 26C50 39.26 39.26 50 26 50Z" fill="#F3F3F3"/>
<path fill-rule="evenodd" clip-rule="evenodd" d="M9.93068 26.0022C9.93078 26.0018 9.93088 26.0014 8.00004 25.48C6.0692 24.9586 6.06932 24.9582 6.06946 24.9576L6.0707 24.953L6.07334 24.9434L6.08212 24.9116L6.11342 24.8008C6.14042 24.7064 6.17966 24.5722 6.231 24.4036C6.33362 24.067 6.48512 23.5918 6.6845 23.0238C7.08118 21.8938 7.6772 20.3684 8.46808 18.827C9.25016 17.3027 10.2724 15.6637 11.5549 14.3802C12.8349 13.099 14.5539 12 16.68 12C20.0136 12 22.3222 14.1871 23.9588 16.64C25.5978 19.0966 26.8912 22.305 28.072 25.2572C28.0976 25.3212 28.1232 25.3852 28.1486 25.449C29.3442 28.4384 30.4342 31.1638 31.7118 33.1792C33.036 35.2682 34.1848 36 35.3 36C35.964 36 36.7248 35.664 37.5956 34.7926C38.4636 33.9238 39.2626 32.6926 39.953 31.347C40.6348 30.0184 41.1624 28.6738 41.5214 27.6512C41.6998 27.143 41.834 26.7214 41.9228 26.4302C41.9672 26.2848 42 26.1724 42.021 26.0986L42.044 26.0174L42.0488 26L42.0494 25.9978C42.0492 25.9982 42.0492 25.9986 43.98 26.52C45.9108 27.0414 45.9108 27.0418 45.9106 27.0424L45.9068 27.0566L45.898 27.0884L45.8666 27.1992C45.8396 27.2936 45.8004 27.4278 45.749 27.5964C45.6464 27.933 45.495 28.4082 45.2956 28.9762C44.8988 30.1062 44.3028 31.6316 43.512 33.173C42.73 34.6974 41.7076 36.3362 40.4252 37.6198C39.1452 38.901 37.4262 40 35.3 40C32.0552 40 29.8616 37.7318 28.3334 35.3208C26.8524 32.9844 25.6408 29.9528 24.5104 27.1236C24.4594 26.9962 24.4086 26.8692 24.358 26.7428C23.139 23.695 21.9948 20.9034 20.6314 18.86C19.2655 16.8129 18.0065 16 16.68 16C16.0161 16 15.2552 16.336 14.3845 17.2073C13.5164 18.0763 12.7174 19.3073 12.027 20.653C11.3454 21.9816 10.8176 23.3262 10.4587 24.3488C10.2803 24.857 10.146 25.2786 10.0573 25.5698C10.013 25.7152 9.98014 25.8276 9.959 25.9014L9.93608 25.9826L9.93126 26L9.93068 26.0022Z" fill="#73DCE6"/>
</g>
<defs>
<clipPath id="clip0_3133_14420">
<rect width="64" height="64" fill="white"/>
</clipPath>
</defs>
</svg>
