<svg width="64" height="64" viewBox="0 0 64 64" fill="none" xmlns="http://www.w3.org/2000/svg">
<path d="M54 2V32H44V36.94L40.52 33.46L38.2 35.78L36.78 37.2L33.46 40.52L36.94 44H32V54H2V2H54Z" fill="#D9D9D9" fill-opacity="0.3"/>
<path d="M0 0V56H34.96L36.94 54H20V38H12V31.9C14.28 31.44 16 29.42 16 27C16 24.24 13.76 22 11 22C8.24 22 6 24.24 6 27C6 29.42 7.72 31.44 10 31.9V38H2V10H17.58L19.28 11.7C18.5 12.58 18 13.72 18 15C18 17.76 20.24 20 23 20C25.76 20 28 17.76 28 15C28 12.24 25.76 10 23 10C22.24 10 21.54 10.18 20.9 10.48L18.42 8H2V2H30V24.1C27.72 24.56 26 26.58 26 29C26 31.76 28.24 34 31 34C31.76 34 32.46 33.82 33.1 33.52L36.78 37.2L38.2 35.78L34.72 32.3C35.5 31.42 36 30.28 36 29C36 26.58 34.28 24.56 32 24.1V2H54V30H46.42L42 25.58V19.9C44.28 19.44 46 17.42 46 15C46 12.24 43.76 10 41 10C38.24 10 36 12.24 36 15C36 17.42 37.72 19.44 40 19.9V26.42L45.58 32H54V36.94L56 34.94V0H0ZM8 27C8 25.34 9.34 24 11 24C12.66 24 14 25.34 14 27C14 28.66 12.66 30 11 30C9.34 30 8 28.66 8 27ZM23 12C24.66 12 26 13.34 26 15C26 16.66 24.66 18 23 18C21.34 18 20 16.66 20 15C20 13.34 21.34 12 23 12ZM34 29C34 30.66 32.66 32 31 32C29.34 32 28 30.66 28 29C28 27.34 29.34 26 31 26C32.66 26 34 27.34 34 29ZM38 15C38 13.34 39.34 12 41 12C42.66 12 44 13.34 44 15C44 16.66 42.66 18 41 18C39.34 18 38 16.66 38 15Z" fill="#D9D9D9"/>
<path d="M64 52V46H59.58C59.34 45.18 59.02 44.38 58.6 43.64L61.72 40.52L57.48 36.28L54.36 39.4C53.62 38.98 52.82 38.66 52 38.42V34H46V38.44C45.18 38.66 44.38 38.98 43.64 39.4L40.52 36.28L36.28 40.52L39.4 43.64C38.98 44.38 38.66 45.18 38.42 46H34V52H38.42C38.66 52.82 38.98 53.62 39.4 54.36L36.28 57.5L40.52 61.74L43.64 58.6C44.38 59.02 45.18 59.34 46 59.58V64H52V59.56C52.82 59.32 53.62 59 54.36 58.58L57.48 61.72L61.72 57.48L58.6 54.34C59.02 53.6 59.34 52.82 59.58 52H64ZM54 49C54 49.98 53.7 50.94 53.14 51.74C52.6 52.56 51.82 53.18 50.9 53.54C50 53.9 49 54 48.04 53.8C47.08 53.6 46.2 53.12 45.52 52.44C44.84 51.74 44.36 50.86 44.18 49.9C44 48.94 44.1 47.94 44.46 47.04C44.84 46.14 45.48 45.36 46.28 44.82C47.1 44.28 48.06 43.98 49.04 43.98C50.36 44 51.62 44.52 52.54 45.46C53.48 46.4 54 47.66 54 49Z" fill="#73C5FF"/>
<path d="M18 40H2V54H18V40Z" fill="#999999"/>
</svg>
