<?xml version="1.0" encoding="UTF-8" standalone="yes"?>
<svg xmlns="http://www.w3.org/2000/svg" xmlns:xlink="http://www.w3.org/1999/xlink" width="64" height="64" viewBox="0 0 64 64" version="1.1">
  <g id="surface1">
    <path style=" stroke:none;fill-rule:nonzero;fill:rgb(85.09804%,85.09804%,85.09804%);fill-opacity:1;" d="M 30 2 L 2 2 L 2 30 L 34 62 L 62 34 Z M 14 10 C 16.199219 10 18 11.800781 18 14 C 18 16.199219 16.199219 18 14 18 C 11.800781 18 10 16.199219 10 14 C 10 11.800781 11.800781 10 14 10 Z M 14 10 "/>
    <path style=" stroke:none;fill-rule:nonzero;fill:rgb(40.000001%,40.000001%,40.000001%);fill-opacity:1;" d="M 30.707031 17.292969 L 29.292969 18.707031 L 49.289062 38.707031 L 50.703125 37.292969 Z M 30.707031 17.292969 "/>
    <path style=" stroke:none;fill-rule:nonzero;fill:rgb(40.000001%,40.000001%,40.000001%);fill-opacity:1;" d="M 30.703125 29.289062 L 29.289062 30.703125 L 42.285156 43.699219 L 43.699219 42.285156 Z M 30.703125 29.289062 "/>
    <path style=" stroke:none;fill-rule:nonzero;fill:rgb(40.000001%,40.000001%,40.000001%);fill-opacity:1;" d="M 24.707031 35.292969 L 23.289062 36.707031 L 34.292969 47.707031 L 35.707031 46.292969 Z M 24.707031 35.292969 "/>
    <path style=" stroke:none;fill-rule:nonzero;fill:rgb(40.000001%,40.000001%,40.000001%);fill-opacity:1;" d="M 27.300781 23.285156 L 23.296875 27.289062 L 24.710938 28.703125 L 28.714844 24.699219 Z M 27.300781 23.285156 "/>
    <path style=" stroke:none;fill-rule:nonzero;fill:rgb(40.000001%,40.000001%,40.000001%);fill-opacity:1;" d="M 21.300781 29.285156 L 17.296875 33.289062 L 18.710938 34.703125 L 22.714844 30.699219 Z M 21.300781 29.285156 "/>
  </g>
</svg>