<?xml version="1.0" encoding="UTF-8" standalone="yes"?>
<svg xmlns="http://www.w3.org/2000/svg" xmlns:xlink="http://www.w3.org/1999/xlink" width="64" height="64" viewBox="0 0 64 64" version="1.1">
  <g id="surface1">
    <path style=" stroke:none;fill-rule:nonzero;fill:rgb(100%,83.529413%,50.196081%);fill-opacity:1;" d="M 20 0 C 16.285156 0 12.726562 1.476562 10.101562 4.101562 C 7.476562 6.726562 6 10.285156 6 14 L 6 20 L 0 20 L 0 52 L 22 52 L 22 30 L 28 30 L 28 26 C 28.003906 24.652344 28.171875 23.308594 28.5 22 C 28.683594 21.320312 28.910156 20.652344 29.179688 20 C 29.855469 18.332031 30.808594 16.789062 32 15.441406 C 32.601562 14.746094 33.269531 14.117188 34 13.558594 C 33.886719 9.921875 32.359375 6.476562 29.746094 3.945312 C 27.132812 1.414062 23.636719 0 20 0 Z M 20 42 L 16 42 L 16 30 L 20 30 Z M 26 20 L 14 20 L 14 14 C 14 12.410156 14.632812 10.882812 15.757812 9.757812 C 16.882812 8.632812 18.410156 8 20 8 C 21.589844 8 23.117188 8.632812 24.242188 9.757812 C 25.367188 10.882812 26 12.410156 26 14 Z M 26 20 "/>
    <path style=" stroke:none;fill-rule:nonzero;fill:rgb(100%,83.529413%,50.196081%);fill-opacity:1;" d="M 58 32 L 58 26 C 58 22.285156 56.523438 18.726562 53.898438 16.101562 C 51.273438 13.476562 47.714844 12 44 12 C 40.285156 12 36.726562 13.476562 34.101562 16.101562 C 31.476562 18.726562 30 22.285156 30 26 L 30 32 L 24 32 L 24 64 L 64 64 L 64 32 Z M 46 54 L 42 54 L 42 42 L 46 42 Z M 50 32 L 38 32 L 38 26 C 38 24.410156 38.632812 22.882812 39.757812 21.757812 C 40.882812 20.632812 42.410156 20 44 20 C 45.589844 20 47.117188 20.632812 48.242188 21.757812 C 49.367188 22.882812 50 24.410156 50 26 Z M 50 32 "/>
  </g>
</svg>