<?xml version="1.0" encoding="UTF-8" standalone="yes"?>
<svg xmlns="http://www.w3.org/2000/svg" xmlns:xlink="http://www.w3.org/1999/xlink" width="64" height="64" viewBox="0 0 64 64" version="1.1">
  <g id="surface1">
    <path style=" stroke:none;fill-rule:nonzero;fill:rgb(53.725493%,79.607844%,98.039216%);fill-opacity:1;" d="M 56 53 C 56 58 44.800781 62 31 62 C 17.199219 62 6 58 6 53 C 6 50 9.800781 47.601562 15.800781 45.800781 C 18 47 20.800781 47.800781 24 48.398438 C 26.199219 48.800781 28.601562 49 31 49 C 33.398438 49 35.800781 48.800781 38 48.398438 C 41.199219 47.800781 44 47 46.199219 45.800781 C 52.199219 47.601562 56 50 56 53 Z M 56 53 "/>
    <path style=" stroke:none;fill-rule:nonzero;fill:rgb(50.196081%,50.196081%,50.196081%);fill-opacity:1;" d="M 38 48.398438 L 38 53 C 38 54.601562 34.800781 56 31 56 C 27.199219 56 24 54.601562 24 53 L 24 48.398438 C 26.199219 48.800781 28.601562 49 31 49 C 33.398438 49 35.800781 48.800781 38 48.398438 Z M 38 48.398438 "/>
    <path style=" stroke:none;fill-rule:nonzero;fill:rgb(85.09804%,85.09804%,85.09804%);fill-opacity:1;" d="M 50 40 C 50 44.398438 41.601562 48 31 48 C 20.398438 48 12 44.398438 12 40 C 12 37.398438 15 35 19.800781 33.601562 C 21 34 22.398438 34.199219 24 34.601562 C 26.199219 35 28.601562 35.199219 31 35.199219 C 33.398438 35.199219 35.800781 35 38 34.601562 C 39.398438 34.398438 40.800781 34 42.199219 33.601562 C 47 35 50 37.398438 50 40 Z M 50 40 "/>
    <path style=" stroke:none;fill-rule:nonzero;fill:rgb(50.196081%,50.196081%,50.196081%);fill-opacity:1;" d="M 38 34.601562 L 38 39.078125 C 38 40.636719 34.800781 42 31 42 C 27.199219 42 24 40.636719 24 39.078125 L 24 34.601562 C 26.199219 34.988281 28.601562 35.183594 31 35.183594 C 33.398438 35.183594 35.800781 34.988281 38 34.601562 Z M 38 34.601562 "/>
    <path style=" stroke:none;fill-rule:nonzero;fill:rgb(85.09804%,85.09804%,85.09804%);fill-opacity:1;" d="M 50 26 C 50 30.398438 41.601562 34 31 34 C 20.398438 34 12 30.398438 12 26 C 12 23.601562 14.601562 21.398438 18.800781 19.800781 C 20.398438 20.199219 22.199219 20.398438 24 20.601562 C 26.199219 20.800781 28.601562 21 31 21 C 33.398438 21 35.800781 20.800781 38 20.601562 C 39.800781 20.398438 41.601562 20.199219 43.199219 19.800781 C 47.398438 21.398438 50 23.601562 50 26 Z M 50 26 "/>
    <path style=" stroke:none;fill-rule:nonzero;fill:rgb(50.196081%,50.196081%,50.196081%);fill-opacity:1;" d="M 38 20.601562 L 38 25 C 38 26.601562 34.800781 28 31 28 C 27.199219 28 24 26.601562 24 25 L 24 20.601562 C 26.199219 20.800781 28.601562 21 31 21 C 33.398438 21 35.800781 20.800781 38 20.601562 Z M 38 20.601562 "/>
    <path style=" stroke:none;fill-rule:nonzero;fill:rgb(90.196079%,45.09804%,45.09804%);fill-opacity:1;" d="M 31 2 C 17.199219 2 6 6 6 11 C 6 16 17.199219 20 31 20 C 44.800781 20 56 16 56 11 C 56 6 44.800781 2 31 2 Z M 31 15 C 27 15 23 13.601562 23 11 C 23 8.398438 27 7 31 7 C 35 7 39 8.398438 39 11 C 39 13.601562 35 15 31 15 Z M 31 15 "/>
    <path style=" stroke:none;fill-rule:nonzero;fill:rgb(50.196081%,50.196081%,50.196081%);fill-opacity:1;" d="M 31 14 C 34.867188 14 38 12.65625 38 11 C 38 9.34375 34.867188 8 31 8 C 27.132812 8 24 9.34375 24 11 C 24 12.65625 27.132812 14 31 14 Z M 31 14 "/>
  </g>
</svg>