<?xml version="1.0" encoding="UTF-8" standalone="yes"?>
<svg xmlns="http://www.w3.org/2000/svg" xmlns:xlink="http://www.w3.org/1999/xlink" width="64" height="64" viewBox="0 0 64 64" version="1.1">
  <g id="surface1">
    <path style=" stroke:none;fill-rule:nonzero;fill:rgb(73.333335%,73.333335%,73.333335%);fill-opacity:1;" d="M 57.660156 56 L 6.339844 56 L 4 52 L 60 52 Z M 57.660156 56 "/>
    <path style=" stroke:none;fill-rule:nonzero;fill:rgb(85.09804%,85.09804%,85.09804%);fill-opacity:1;" d="M 58.839844 44 L 5.160156 44 L 4 52 L 60 52 Z M 58.839844 44 "/>
    <path style=" stroke:none;fill-rule:nonzero;fill:rgb(95.294118%,95.294118%,95.294118%);fill-opacity:1;" d="M 58.839844 44 L 5.160156 44 L 16.5 18 L 18.140625 18 L 20.839844 22.300781 L 23 25.78125 L 25.320312 22.058594 L 27.859375 18 L 36 18 L 36 34 L 42 34 L 42 18 L 47.5 18 Z M 58.839844 44 "/>
    <path style=" stroke:none;fill-rule:nonzero;fill:rgb(50.196081%,50.196081%,50.196081%);fill-opacity:1;" d="M 30 24 C 30 25.101562 27.320312 26 24 26 C 20.679688 26 18 25.101562 18 24 C 18 23.28125 19.140625 22.660156 20.839844 22.300781 L 23 25.78125 L 25.320312 22.058594 C 28 22.238281 30 23.039062 30 24 Z M 30 24 "/>
    <path style=" stroke:none;fill-rule:nonzero;fill:rgb(50.196081%,50.196081%,50.196081%);fill-opacity:1;" d="M 14 48 L 10 48 L 10 62 L 14 62 Z M 14 48 "/>
    <path style=" stroke:none;fill-rule:nonzero;fill:rgb(50.196081%,50.196081%,50.196081%);fill-opacity:1;" d="M 22 48 L 18 48 L 18 62 L 22 62 Z M 22 48 "/>
    <path style=" stroke:none;fill-rule:nonzero;fill:rgb(50.196081%,50.196081%,50.196081%);fill-opacity:1;" d="M 30 48 L 26 48 L 26 62 L 30 62 Z M 30 48 "/>
    <path style=" stroke:none;fill-rule:nonzero;fill:rgb(50.196081%,50.196081%,50.196081%);fill-opacity:1;" d="M 38 48 L 34 48 L 34 62 L 38 62 Z M 38 48 "/>
    <path style=" stroke:none;fill-rule:nonzero;fill:rgb(50.196081%,50.196081%,50.196081%);fill-opacity:1;" d="M 46 48 L 42 48 L 42 62 L 46 62 Z M 46 48 "/>
    <path style=" stroke:none;fill-rule:nonzero;fill:rgb(50.196081%,50.196081%,50.196081%);fill-opacity:1;" d="M 54 48 L 50 48 L 50 62 L 54 62 Z M 54 48 "/>
    <path style=" stroke:none;fill-rule:nonzero;fill:rgb(45.09804%,77.254903%,100%);fill-opacity:1;" d="M 31 2 C 26.039062 2.019531 22.019531 6.039062 22 11 L 22 14 L 18 14 L 23 22 L 28 14 L 24 14 L 24 11 C 24 7.140625 27.140625 4 31 4 C 34.859375 4 38 7.140625 38 11 L 38 32 L 40 32 L 40 11 C 39.980469 6.039062 35.960938 2.019531 31 2 Z M 31 2 "/>
  </g>
</svg>