<?xml version="1.0" encoding="UTF-8" standalone="yes"?>
<svg xmlns="http://www.w3.org/2000/svg" xmlns:xlink="http://www.w3.org/1999/xlink" width="64" height="64" viewBox="0 0 64 64" version="1.1">
  <g id="surface1">
    <path style=" stroke:none;fill-rule:nonzero;fill:rgb(85.09804%,85.09804%,85.09804%);fill-opacity:1;" d="M 40 34.378906 L 33.179688 41.199219 L 40 48.019531 L 40 51.980469 L 35.980469 56 L 0 56 L 0 16 L 40 16 Z M 40 34.378906 "/>
    <path style=" stroke:none;fill-rule:nonzero;fill:rgb(73.333335%,73.333335%,73.333335%);fill-opacity:1;" d="M 41.980469 50 L 40 51.980469 L 40 48.019531 Z M 41.980469 50 "/>
    <path style=" stroke:none;fill-rule:nonzero;fill:rgb(73.333335%,73.333335%,73.333335%);fill-opacity:1;" d="M 56 0 L 56 35.980469 L 50 41.980469 L 41.199219 33.179688 L 40 34.378906 L 40 16 Z M 56 0 "/>
    <path style=" stroke:none;fill-rule:nonzero;fill:rgb(95.294118%,95.294118%,95.294118%);fill-opacity:1;" d="M 56 0 L 16 0 L 0 16 L 40 16 Z M 56 0 "/>
    <path style=" stroke:none;fill-rule:nonzero;fill:rgb(100%,40.000001%,40.000001%);fill-opacity:1;" d="M 64 41.199219 L 58.800781 36 L 50 44.800781 L 41.199219 36 L 36 41.199219 L 44.800781 50 L 36 58.800781 L 41.199219 64 L 50 55.199219 L 58.800781 64 L 64 58.800781 L 55.199219 50 Z M 64 41.199219 "/>
  </g>
</svg>