<?xml version="1.0" encoding="UTF-8" standalone="yes"?>
<svg xmlns="http://www.w3.org/2000/svg" xmlns:xlink="http://www.w3.org/1999/xlink" width="64" height="64" viewBox="0 0 64 64" version="1.1">
  <g id="surface1">
    <path style=" stroke:none;fill-rule:nonzero;fill:rgb(85.09804%,85.09804%,85.09804%);fill-opacity:1;" d="M 11.046875 14.253906 C 10.898438 13.992188 10.878906 13.679688 10.988281 13.402344 L 16.042969 0.589844 C 16.175781 0.253906 16.476562 0.0273438 16.824219 0.00390625 C 17.171875 -0.0234375 17.5 0.164062 17.675781 0.476562 L 20.246094 5.144531 C 26.78125 1.9375 34.609375 1.046875 42.65625 3.4375 L 42.667969 3.441406 C 52.011719 6.308594 59.535156 13.703125 62.488281 23.238281 L 62.488281 23.242188 C 69.03125 44.59375 53.40625 64 33.554688 64 C 20.210938 64 8.824219 55.296875 4.699219 43.105469 C 1.992188 42.355469 0 39.773438 0 36.703125 C 0 33.046875 2.832031 30.082031 6.320312 30.082031 C 9.8125 30.082031 12.644531 33.046875 12.644531 36.703125 C 12.644531 38.773438 11.738281 40.625 10.316406 41.835938 C 13.832031 51.351562 22.875 58.15625 33.554688 58.15625 C 49.457031 58.15625 61.777344 42.855469 57.335938 26.230469 C 55.167969 18.132812 48.84375 11.597656 40.808594 9.183594 C 34.429688 7.269531 28.273438 7.929688 23.105469 10.332031 L 25.582031 14.824219 C 25.753906 15.136719 25.746094 15.523438 25.554688 15.824219 C 25.367188 16.125 25.03125 16.292969 24.691406 16.25 L 11.726562 14.714844 C 11.445312 14.683594 11.191406 14.511719 11.046875 14.253906 Z M 11.046875 14.253906 "/>
  </g>
</svg>