<?xml version="1.0" encoding="UTF-8" standalone="yes"?>
<svg xmlns="http://www.w3.org/2000/svg" xmlns:xlink="http://www.w3.org/1999/xlink" width="64" height="64" viewBox="0 0 64 64" version="1.1">
  <g id="surface1">
    <path style=" stroke:none;fill-rule:nonzero;fill:rgb(85.09804%,85.09804%,85.09804%);fill-opacity:1;" d="M 30 42 L 30 54 L 40 54 L 40 56 L 0 56 L 0 16 L 40 16 L 40 42 Z M 30 42 "/>
    <path style=" stroke:none;fill-rule:nonzero;fill:rgb(73.333335%,73.333335%,73.333335%);fill-opacity:1;" d="M 56 0 L 56 40 L 54 42 L 54 30 L 42 30 L 42 42 L 40 42 L 40 16 Z M 56 0 "/>
    <path style=" stroke:none;fill-rule:nonzero;fill:rgb(95.294118%,95.294118%,95.294118%);fill-opacity:1;" d="M 56 0 L 16 0 L 0 16 L 40 16 Z M 56 0 "/>
    <path style=" stroke:none;fill-rule:evenodd;fill:rgb(38.431373%,85.09804%,52.941179%);fill-opacity:1;" d="M 64 44 L 52 44 L 52 32 L 44 32 L 44 44 L 32 44 L 32 52 L 44 52 L 44 64 L 52 64 L 52 52 L 64 52 Z M 64 44 "/>
  </g>
</svg>