<?xml version="1.0" encoding="UTF-8" standalone="yes"?>
<svg xmlns="http://www.w3.org/2000/svg" xmlns:xlink="http://www.w3.org/1999/xlink" width="66" height="64" viewBox="0 0 66 64" version="1.1">
  <g id="surface1">
    <path style=" stroke:none;fill-rule:nonzero;fill:rgb(38.431373%,85.09804%,52.941179%);fill-opacity:1;" d="M 0 12 L 2 12 L 2 20 L 0 20 Z M 0 12 "/>
    <path style=" stroke:none;fill-rule:nonzero;fill:rgb(38.431373%,85.09804%,52.941179%);fill-opacity:1;" d="M 54 12 L 56 12 L 56 20 L 54 20 Z M 54 12 "/>
    <path style=" stroke:none;fill-rule:nonzero;fill:rgb(38.431373%,85.09804%,52.941179%);fill-opacity:1;" d="M 0 24 L 2 24 L 2 32 L 0 32 Z M 0 24 "/>
    <path style=" stroke:none;fill-rule:nonzero;fill:rgb(38.431373%,85.09804%,52.941179%);fill-opacity:1;" d="M 54 24 L 56 24 L 56 32 L 54 32 Z M 54 24 "/>
    <path style=" stroke:none;fill-rule:nonzero;fill:rgb(38.431373%,85.09804%,52.941179%);fill-opacity:1;" d="M 8 0 L 0 0 L 0 8 L 2 8 L 2 2 L 8 2 Z M 8 0 "/>
    <path style=" stroke:none;fill-rule:nonzero;fill:rgb(38.431373%,85.09804%,52.941179%);fill-opacity:1;" d="M 12 0 L 20 0 L 20 2 L 12 2 Z M 12 0 "/>
    <path style=" stroke:none;fill-rule:nonzero;fill:rgb(38.431373%,85.09804%,52.941179%);fill-opacity:1;" d="M 24 0 L 32 0 L 32 2 L 24 2 Z M 24 0 "/>
    <path style=" stroke:none;fill-rule:nonzero;fill:rgb(38.431373%,85.09804%,52.941179%);fill-opacity:1;" d="M 36 0 L 44 0 L 44 2 L 36 2 Z M 36 0 "/>
    <path style=" stroke:none;fill-rule:nonzero;fill:rgb(38.431373%,85.09804%,52.941179%);fill-opacity:1;" d="M 48 0 L 48 2 L 54 2 L 54 8 L 56 8 L 56 0 Z M 48 0 "/>
    <path style=" stroke:none;fill-rule:nonzero;fill:rgb(38.431373%,85.09804%,52.941179%);fill-opacity:1;" d="M 32 44 L 24 44 L 24 42 L 32 42 Z M 32 44 "/>
    <path style=" stroke:none;fill-rule:nonzero;fill:rgb(38.431373%,85.09804%,52.941179%);fill-opacity:1;" d="M 36 42 L 40 42 L 40 44 L 36 44 Z M 36 42 "/>
    <path style=" stroke:none;fill-rule:nonzero;fill:rgb(38.431373%,85.09804%,52.941179%);fill-opacity:1;" d="M 20 44 L 12 44 L 12 42 L 20 42 Z M 20 44 "/>
    <path style=" stroke:none;fill-rule:nonzero;fill:rgb(38.431373%,85.09804%,52.941179%);fill-opacity:1;" d="M 2 42 L 2 36 L 0 36 L 0 44 L 8 44 L 8 42 Z M 2 42 "/>
    <path style=" stroke:none;fill-rule:nonzero;fill:rgb(100%,100%,100%);fill-opacity:1;" d="M 64 50 L 42 28 L 42 58 L 47.941406 52.058594 L 52.199219 64 L 59.199219 61.320312 L 54.960938 50 Z M 64 50 "/>
    <path style=" stroke:none;fill-rule:nonzero;fill:rgb(38.431373%,85.09804%,52.941179%);fill-opacity:1;" d="M 54 36 L 54 37.179688 L 56 39.179688 L 56 36 Z M 54 36 "/>
  </g>
</svg>