<?xml version="1.0" encoding="UTF-8" standalone="yes"?>
<svg xmlns="http://www.w3.org/2000/svg" xmlns:xlink="http://www.w3.org/1999/xlink" width="64" height="64" viewBox="0 0 64 64" version="1.1">
  <g id="surface1">
    <path style=" stroke:none;fill-rule:nonzero;fill:rgb(73.333335%,73.333335%,73.333335%);fill-opacity:1;" d="M 14.019531 49.980469 L 5.980469 49.980469 L 5.980469 50 L 14.019531 50 Z M 14.019531 49.980469 "/>
    <path style=" stroke:none;fill-rule:nonzero;fill:rgb(73.333335%,73.333335%,73.333335%);fill-opacity:1;" d="M 14 50 L 6 50 C 4.410156 50 2.882812 49.367188 1.757812 48.242188 C 0.632812 47.117188 0 45.589844 0 44 L 0 6 C 0 4.410156 0.632812 2.882812 1.757812 1.757812 C 2.882812 0.632812 4.410156 0 6 0 L 6 38 L 14 38 Z M 14 50 "/>
    <path style=" stroke:none;fill-rule:nonzero;fill:rgb(85.09804%,85.09804%,85.09804%);fill-opacity:1;" d="M 42 0 L 42 10 L 22 10 C 19.878906 10 17.84375 10.84375 16.34375 12.34375 C 14.84375 13.84375 14 15.878906 14 18 L 14 38 L 6 38 L 6 0 Z M 42 0 "/>
    <path style=" stroke:none;fill-rule:nonzero;fill:rgb(95.294118%,95.294118%,95.294118%);fill-opacity:1;" d="M 14 40 L 14 48 L 8 48 C 6.9375 48 5.921875 47.578125 5.171875 46.828125 C 4.421875 46.078125 4 45.0625 4 44 C 4 42.9375 4.421875 41.921875 5.171875 41.171875 C 5.921875 40.421875 6.9375 40 8 40 Z M 14 40 "/>
    <path style=" stroke:none;fill-rule:nonzero;fill:rgb(73.333335%,73.333335%,73.333335%);fill-opacity:1;" d="M 36.71875 62 L 22 62 C 20.410156 62 18.882812 61.367188 17.757812 60.242188 C 16.632812 59.117188 16 57.589844 16 56 L 16 18 C 16 16.410156 16.632812 14.882812 17.757812 13.757812 C 18.882812 12.632812 20.410156 12 22 12 L 22 50 L 30.121094 50 C 30.1875 50.671875 30.292969 51.339844 30.441406 52 C 31.125 54.976562 32.558594 57.730469 34.601562 60 C 35.238281 60.738281 35.945312 61.40625 36.71875 62 Z M 36.71875 62 "/>
    <path style=" stroke:none;fill-rule:nonzero;fill:rgb(85.09804%,85.09804%,85.09804%);fill-opacity:1;" d="M 58 12 L 58 33.039062 C 55.289062 31.230469 52.140625 30.1875 48.882812 30.027344 C 45.628906 29.867188 42.390625 30.59375 39.519531 32.128906 C 36.644531 33.667969 34.238281 35.953125 32.5625 38.75 C 30.886719 41.542969 30 44.742188 30 48 C 30 48.667969 30.039062 49.335938 30.121094 50 L 22 50 L 22 12 Z M 58 12 "/>
    <path style=" stroke:none;fill-rule:nonzero;fill:rgb(95.294118%,95.294118%,95.294118%);fill-opacity:1;" d="M 34.601562 60 L 24 60 C 22.9375 60 21.921875 59.578125 21.171875 58.828125 C 20.421875 58.078125 20 57.0625 20 56 C 20 54.9375 20.421875 53.921875 21.171875 53.171875 C 21.921875 52.421875 22.9375 52 24 52 L 30.441406 52 C 31.125 54.976562 32.558594 57.730469 34.601562 60 Z M 34.601562 60 "/>
    <path style=" stroke:none;fill-rule:nonzero;fill:rgb(95.294118%,95.294118%,95.294118%);fill-opacity:1;" d="M 14.019531 49.980469 L 14 49.980469 L 14 50 L 14.019531 50 Z M 14.019531 49.980469 "/>
    <path style=" stroke:none;fill-rule:nonzero;fill:rgb(2.352941%,58.823532%,84.313726%);fill-opacity:1;" d="M 48 64 C 56.835938 64 64 56.835938 64 48 C 64 39.164062 56.835938 32 48 32 C 39.164062 32 32 39.164062 32 48 C 32 56.835938 39.164062 64 48 64 Z M 48 64 "/>
    <path style=" stroke:none;fill-rule:evenodd;fill:rgb(100%,100%,100%);fill-opacity:1;" d="M 36.519531 48.460938 C 36.511719 46.339844 37.121094 44.265625 38.277344 42.488281 C 39.429688 40.710938 41.082031 39.3125 43.023438 38.460938 C 44.964844 37.609375 47.109375 37.347656 49.199219 37.703125 C 51.289062 38.058594 53.230469 39.015625 54.78125 40.460938 L 58.78125 37.660156 L 59.519531 49.039062 L 48 45.300781 L 52.179688 42.339844 C 50.828125 41.265625 49.148438 40.679688 47.421875 40.679688 C 45.96875 40.679688 44.546875 41.085938 43.316406 41.847656 C 42.085938 42.613281 41.089844 43.707031 40.445312 45.007812 C 39.800781 46.304688 39.535156 47.761719 39.671875 49.203125 C 39.8125 50.648438 40.351562 52.023438 41.230469 53.175781 C 42.109375 54.328125 43.292969 55.214844 44.648438 55.730469 C 46.003906 56.246094 47.476562 56.375 48.898438 56.097656 C 50.324219 55.820312 51.640625 55.152344 52.707031 54.167969 C 53.769531 53.183594 54.535156 51.917969 54.921875 50.519531 L 57.859375 51.558594 C 57.109375 54.0625 55.484375 56.214844 53.277344 57.617188 C 51.074219 59.023438 48.441406 59.589844 45.851562 59.214844 C 43.265625 58.839844 40.902344 57.546875 39.1875 55.570312 C 37.476562 53.597656 36.527344 51.074219 36.519531 48.460938 Z M 36.519531 48.460938 "/>
  </g>
</svg>