<?xml version="1.0" encoding="UTF-8" standalone="yes"?>
<svg xmlns="http://www.w3.org/2000/svg" xmlns:xlink="http://www.w3.org/1999/xlink" width="64" height="64" viewBox="0 0 64 64" version="1.1">
  <g id="surface1">
    <path style=" stroke:none;fill-rule:nonzero;fill:rgb(85.09804%,85.09804%,85.09804%);fill-opacity:1;" d="M 52.921875 32 C 52.238281 32.359375 51.621094 32.839844 51.058594 33.398438 L 42.460938 42 L 42 42.441406 L 32.980469 51.460938 L 32.359375 54 L 0 54 L 0 32 Z M 52.921875 32 "/>
    <path style=" stroke:none;fill-rule:nonzero;fill:rgb(85.09804%,85.09804%,85.09804%);fill-opacity:1;" d="M 62 8 L 0 8 L 0 18 L 62 18 Z M 62 8 "/>
    <path style=" stroke:none;fill-rule:nonzero;fill:rgb(40.000001%,40.000001%,40.000001%);fill-opacity:1;" d="M 42.460938 42 L 42 42.441406 L 40.441406 44 L 0 44 L 0 42 Z M 42.460938 42 "/>
    <path style=" stroke:none;fill-rule:nonzero;fill:rgb(40.000001%,40.000001%,40.000001%);fill-opacity:1;" d="M 22 8 L 20 8 L 20 18 L 22 18 Z M 22 8 "/>
    <path style=" stroke:none;fill-rule:nonzero;fill:rgb(40.000001%,40.000001%,40.000001%);fill-opacity:1;" d="M 22 32 L 20 32 L 20 54 L 22 54 Z M 22 32 "/>
    <path style=" stroke:none;fill-rule:nonzero;fill:rgb(40.000001%,40.000001%,40.000001%);fill-opacity:1;" d="M 42 8 L 40 8 L 40 18 L 42 18 Z M 42 8 "/>
    <path style=" stroke:none;fill-rule:nonzero;fill:rgb(40.000001%,40.000001%,40.000001%);fill-opacity:1;" d="M 40 32 L 42 32 L 42 42.441406 L 40 44.441406 Z M 40 32 "/>
    <path style=" stroke:none;fill-rule:nonzero;fill:rgb(60.000002%,60.000002%,60.000002%);fill-opacity:1;" d="M 62 8 L 62 0 L 0 0 L 0 8 Z M 2 2 L 6 2 L 6 6 L 2 6 Z M 2 2 "/>
    <path style=" stroke:none;fill-rule:evenodd;fill:rgb(100%,40.000001%,40.000001%);fill-opacity:1;" d="M 61.160156 34.800781 C 63.558594 37.21875 63.558594 41.140625 61.160156 43.539062 L 59.71875 45 L 51.039062 36.261719 L 52.480469 34.800781 C 54.878906 32.378906 58.761719 32.378906 61.160156 34.800781 Z M 61.160156 34.800781 "/>
    <path style=" stroke:none;fill-rule:evenodd;fill:rgb(100%,83.529413%,50.196081%);fill-opacity:1;" d="M 49.261719 38 L 58 46.71875 L 44.71875 60 L 36 51.28125 Z M 49.261719 38 "/>
    <path style=" stroke:none;fill-rule:evenodd;fill:rgb(95.294118%,95.294118%,95.294118%);fill-opacity:1;" d="M 34.558594 53.398438 L 42.601562 61.441406 L 32 64 Z M 34.558594 53.398438 "/>
    <path style=" stroke:none;fill-rule:nonzero;fill:rgb(53.725493%,79.607844%,98.039216%);fill-opacity:1;" d="M 62 20 L 0 20 L 0 30 L 62 30 Z M 62 20 "/>
    <path style=" stroke:none;fill-rule:nonzero;fill:rgb(40.000001%,40.000001%,40.000001%);fill-opacity:1;" d="M 22 20 L 20 20 L 20 30 L 22 30 Z M 22 20 "/>
    <path style=" stroke:none;fill-rule:nonzero;fill:rgb(40.000001%,40.000001%,40.000001%);fill-opacity:1;" d="M 42 20 L 40 20 L 40 30 L 42 30 Z M 42 20 "/>
  </g>
</svg>