<svg width="64" height="64" viewBox="0 0 64 64" fill="none" xmlns="http://www.w3.org/2000/svg">
<path d="M2 2V54H26V46H42V36.46L44.56 38L47.9 40L54 43.66V2H2Z" fill="#D9D9D9" fill-opacity="0.3"/>
<path d="M0 0V56H26V54H20V38H12V31.9C14.28 31.44 16 29.42 16 27C16 24.24 13.76 22 11 22C8.24 22 6 24.24 6 27C6 29.42 7.72 31.44 10 31.9V38H2V10H17.58L19.28 11.7C18.5 12.58 18 13.72 18 15C18 17.76 20.24 20 23 20C25.76 20 28 17.76 28 15C28 12.24 25.76 10 23 10C22.24 10 21.54 10.18 20.9 10.48L18.42 8H2V2H30V24.1C27.72 24.56 26 26.58 26 29C26 31.76 28.24 34 31 34C31.76 34 32.46 33.82 33.1 33.52L37.58 38L39.58 40H42V38H40.42L34.72 32.3C35.5 31.42 36 30.28 36 29C36 26.58 34.28 24.56 32 24.1V2H54V30H46.42L42 25.58V19.9C44.28 19.44 46 17.42 46 15C46 12.24 43.76 10 41 10C38.24 10 36 12.24 36 15C36 17.42 37.72 19.44 40 19.9V26.42L45.58 32H54V38H44.56L47.9 40H54V43.66L56 44.86V0H0ZM8 27C8 25.34 9.34 24 11 24C12.66 24 14 25.34 14 27C14 28.66 12.66 30 11 30C9.34 30 8 28.66 8 27ZM23 12C24.66 12 26 13.34 26 15C26 16.66 24.66 18 23 18C21.34 18 20 16.66 20 15C20 13.34 21.34 12 23 12ZM34 29C34 30.66 32.66 32 31 32C29.34 32 28 30.66 28 29C28 27.34 29.34 26 31 26C32.66 26 34 27.34 34 29ZM38 15C38 13.34 39.34 12 41 12C42.66 12 44 13.34 44 15C44 16.66 42.66 18 41 18C39.34 18 38 16.66 38 15Z" fill="#D9D9D9"/>
<path d="M44 40V48H28V56H44V64L64 52L44 40Z" fill="#73C5FF"/>
<path d="M18 40H2V54H18V40Z" fill="#999999"/>
</svg>
