<?xml version="1.0" encoding="UTF-8" standalone="yes"?>
<svg xmlns="http://www.w3.org/2000/svg" xmlns:xlink="http://www.w3.org/1999/xlink" width="64" height="64" viewBox="0 0 64 64" version="1.1">
  <g id="surface1">
    <path style=" stroke:none;fill-rule:evenodd;fill:rgb(95.294118%,95.294118%,95.294118%);fill-opacity:1;" d="M 53.878906 23.839844 L 62.261719 15.5 C 63.800781 13.960938 63.800781 11.480469 62.261719 9.941406 L 59.460938 7.160156 C 57.921875 5.621094 55.421875 5.621094 53.878906 7.160156 L 45.5 15.5 L 38.519531 8.539062 C 35.441406 5.460938 30.441406 5.460938 27.359375 8.539062 L 21.878906 14.101562 L 55.421875 47.558594 L 60.839844 41.941406 C 63.921875 38.859375 63.921875 33.878906 60.839844 30.800781 Z M 53.878906 23.839844 "/>
    <path style=" stroke:none;fill-rule:nonzero;fill:rgb(100%,83.529413%,50.196081%);fill-opacity:1;" d="M 20.421875 15.480469 C 16.300781 19.28125 4.480469 29.421875 0 25 C 4.140625 29.101562 28.160156 52.921875 32.761719 57.480469 C 37.21875 61.902344 49.558594 52.441406 53.898438 48.859375 Z M 20.421875 15.480469 "/>
  </g>
</svg>