<?xml version="1.0" encoding="UTF-8" standalone="yes"?>
<svg xmlns="http://www.w3.org/2000/svg" xmlns:xlink="http://www.w3.org/1999/xlink" width="64" height="64" viewBox="0 0 64 64" version="1.1">
  <g id="surface1">
    <path style=" stroke:none;fill-rule:nonzero;fill:rgb(53.725493%,79.607844%,98.039216%);fill-opacity:1;" d="M 40 54 L 40 58.601562 C 36.199219 59.398438 31.800781 60 27 60 C 13.199219 60 2 56 2 51 C 2 48 5.800781 45.601562 11.800781 43.800781 C 14 45 16.800781 45.800781 20 46.398438 C 22.199219 46.800781 24.601562 47 27 47 C 27.398438 47 27.601562 47 28 47 L 28 54 Z M 40 54 "/>
    <path style=" stroke:none;fill-rule:nonzero;fill:rgb(50.196081%,50.196081%,50.196081%);fill-opacity:1;" d="M 28 47 L 28 54 C 27.601562 54 27.398438 54 27 54 C 23.199219 54 20 52.601562 20 51 L 20 46.402344 C 22.199219 46.800781 24.601562 47 27 47 C 27.398438 47 27.601562 47 28 47 Z M 28 47 "/>
    <path style=" stroke:none;fill-rule:nonzero;fill:rgb(85.09804%,85.09804%,85.09804%);fill-opacity:1;" d="M 40 32.199219 L 40 42 L 28 42 L 28 46 C 27.601562 46 27.398438 46 27 46 C 16.601562 46 8 42.398438 8 38 C 8 35.398438 11 33 15.800781 31.597656 C 17 32 18.398438 32.199219 20 32.597656 C 22.199219 33 24.601562 33.199219 27 33.199219 C 29.398438 33.199219 31.800781 33 34 32.597656 C 35.398438 32.398438 36.800781 32 38.199219 31.597656 C 38.800781 31.800781 39.398438 32 40 32.199219 Z M 40 32.199219 "/>
    <path style=" stroke:none;fill-rule:nonzero;fill:rgb(50.196081%,50.196081%,50.196081%);fill-opacity:1;" d="M 34 32.609375 L 34 37 C 34 38.601562 30.800781 40 27 40 C 23.199219 40 20 38.601562 20 37 L 20 32.609375 C 22.199219 33.007812 24.601562 33.210938 27 33.210938 C 29.398438 33.210938 31.800781 33.007812 34 32.609375 Z M 34 32.609375 "/>
    <path style=" stroke:none;fill-rule:nonzero;fill:rgb(85.09804%,85.09804%,85.09804%);fill-opacity:1;" d="M 46 24 C 46 28.398438 37.601562 32 27 32 C 16.398438 32 8 28.398438 8 24 C 8 21.601562 10.601562 19.398438 14.800781 17.800781 C 16.398438 18.199219 18.199219 18.398438 20 18.601562 C 22.199219 18.800781 24.601562 19 27 19 C 29.398438 19 31.800781 18.800781 34 18.601562 C 35.800781 18.398438 37.601562 18.199219 39.199219 17.800781 C 43.398438 19.398438 46 21.601562 46 24 Z M 46 24 "/>
    <path style=" stroke:none;fill-rule:nonzero;fill:rgb(50.196081%,50.196081%,50.196081%);fill-opacity:1;" d="M 34 18.597656 L 34 23 C 34 24.597656 30.800781 26 27 26 C 23.199219 26 20 24.597656 20 23 L 20 18.597656 C 22.199219 18.800781 24.601562 19 27 19 C 29.398438 19 31.800781 18.800781 34 18.597656 Z M 34 18.597656 "/>
    <path style=" stroke:none;fill-rule:evenodd;fill:rgb(38.431373%,85.09804%,52.941179%);fill-opacity:1;" d="M 62 44 L 50 44 L 50 32 L 42 32 L 42 44 L 30 44 L 30 52 L 42 52 L 42 64 L 50 64 L 50 52 L 62 52 Z M 62 44 "/>
    <path style=" stroke:none;fill-rule:nonzero;fill:rgb(90.196079%,45.09804%,45.09804%);fill-opacity:1;" d="M 27 0 C 13.199219 0 2 4 2 9 C 2 14 13.199219 18 27 18 C 40.800781 18 52 14 52 9 C 52 4 40.800781 0 27 0 Z M 27 13 C 23 13 19 11.601562 19 9 C 19 6.398438 23 5 27 5 C 31 5 35 6.398438 35 9 C 35 11.601562 31 13 27 13 Z M 27 13 "/>
    <path style=" stroke:none;fill-rule:nonzero;fill:rgb(50.196081%,50.196081%,50.196081%);fill-opacity:1;" d="M 27 12 C 30.867188 12 34 10.65625 34 9 C 34 7.34375 30.867188 6 27 6 C 23.132812 6 20 7.34375 20 9 C 20 10.65625 23.132812 12 27 12 Z M 27 12 "/>
  </g>
</svg>