<?xml version="1.0" encoding="UTF-8" standalone="yes"?>
<svg xmlns="http://www.w3.org/2000/svg" xmlns:xlink="http://www.w3.org/1999/xlink" width="64" height="64" viewBox="0 0 64 64" version="1.1">
  <g id="surface1">
    <path style=" stroke:none;fill-rule:nonzero;fill:rgb(73.333335%,73.333335%,73.333335%);fill-opacity:1;" d="M 14 4.019531 L 14 54 L 8.019531 54 L 8.019531 10.019531 C 8.019531 8.421875 8.660156 6.898438 9.78125 5.78125 C 10.898438 4.660156 12.398438 4.019531 14 4.019531 Z M 14 4.019531 "/>
    <path style=" stroke:none;fill-rule:nonzero;fill:rgb(85.09804%,85.09804%,85.09804%);fill-opacity:1;" d="M 55.941406 4.019531 L 55.941406 47.679688 C 55.820312 47.78125 55.71875 47.878906 55.621094 47.980469 L 14 47.980469 L 14 4.019531 Z M 55.941406 4.019531 "/>
    <path style=" stroke:none;fill-rule:nonzero;fill:rgb(73.333335%,73.333335%,73.333335%);fill-opacity:1;" d="M 55.941406 59.980469 L 14 59.980469 L 14 60 L 55.941406 60 Z M 55.941406 59.980469 "/>
    <path style=" stroke:none;fill-rule:nonzero;fill:rgb(73.333335%,73.333335%,73.333335%);fill-opacity:1;" d="M 22 53.980469 C 22 55.441406 21.601562 56.820312 20.941406 57.980469 C 20.921875 58 20.921875 58 20.921875 58 C 20.480469 58.738281 19.921875 59.421875 19.28125 59.980469 L 19.261719 60 L 14 60 C 12.398438 60 10.898438 59.359375 9.78125 58.238281 C 8.660156 57.121094 8.019531 55.601562 8.019531 54 L 8.019531 48.660156 C 9.480469 47.019531 11.621094 45.980469 14 45.980469 C 16.019531 45.980469 17.859375 46.738281 19.28125 47.980469 L 19.300781 48 C 19.859375 48.480469 20.339844 49.039062 20.738281 49.660156 C 20.738281 49.660156 20.761719 49.660156 20.738281 49.679688 C 21.460938 50.800781 21.898438 52.078125 21.980469 53.5 C 21.980469 53.5 21.980469 53.5 21.980469 53.519531 C 22 53.660156 22 53.820312 22 53.980469 Z M 22 53.980469 "/>
    <path style=" stroke:none;fill-rule:nonzero;fill:rgb(73.333335%,73.333335%,73.333335%);fill-opacity:1;" d="M 55.941406 45.980469 L 55.941406 47.679688 C 55.820312 47.78125 55.71875 47.878906 55.621094 47.980469 L 14 47.980469 L 14 45.980469 Z M 55.941406 45.980469 "/>
    <path style=" stroke:none;fill-rule:nonzero;fill:rgb(73.333335%,73.333335%,73.333335%);fill-opacity:1;" d="M 54.898438 58 C 55.21875 58.398438 55.558594 58.78125 55.941406 59.101562 L 55.941406 59.980469 L 14 59.980469 L 14 57.980469 L 54.898438 57.980469 C 54.898438 58 54.898438 58 54.898438 58 Z M 54.898438 58 "/>
    <path style=" stroke:none;fill-rule:nonzero;fill:rgb(95.294118%,95.294118%,95.294118%);fill-opacity:1;" d="M 17 57.980469 C 19.761719 57.980469 22 55.738281 22 52.980469 C 22 50.21875 19.761719 47.980469 17 47.980469 C 14.238281 47.980469 12 50.21875 12 52.980469 C 12 55.738281 14.238281 57.980469 17 57.980469 Z M 17 57.980469 "/>
    <path style=" stroke:none;fill-rule:nonzero;fill:rgb(95.294118%,95.294118%,95.294118%);fill-opacity:1;" d="M 54.039062 56.519531 C 54.28125 57.039062 54.558594 57.539062 54.898438 57.980469 C 54.898438 58 54.898438 58 54.898438 58 L 17 58 L 17 48 L 55.601562 48 C 54.941406 48.640625 54.421875 49.378906 54.039062 50.238281 C 53.621094 51.21875 53.421875 52.300781 53.480469 53.359375 L 53.460938 53.359375 C 53.421875 54.441406 53.621094 55.519531 54.039062 56.519531 Z M 54.039062 56.519531 "/>
  </g>
</svg>