<?xml version="1.0" encoding="UTF-8" standalone="yes"?>
<svg xmlns="http://www.w3.org/2000/svg" xmlns:xlink="http://www.w3.org/1999/xlink" width="64" height="64" viewBox="0 0 64 64" version="1.1">
  <g id="surface1">
    <path style=" stroke:none;fill-rule:nonzero;fill:rgb(45.09804%,77.254903%,100%);fill-opacity:1;" d="M 32 60 C 47.464844 60 60 47.464844 60 32 C 60 16.535156 47.464844 4 32 4 C 16.535156 4 4 16.535156 4 32 C 4 47.464844 16.535156 60 32 60 Z M 32 60 "/>
    <path style=" stroke:none;fill-rule:nonzero;fill:rgb(100%,100%,100%);fill-opacity:1;" d="M 36 28 L 28 28 L 28 48 L 36 48 Z M 36 28 "/>
    <path style=" stroke:none;fill-rule:nonzero;fill:rgb(100%,100%,100%);fill-opacity:1;" d="M 32 24 C 34.210938 24 36 22.210938 36 20 C 36 17.789062 34.210938 16 32 16 C 29.789062 16 28 17.789062 28 20 C 28 22.210938 29.789062 24 32 24 Z M 32 24 "/>
  </g>
</svg>