<?xml version="1.0" encoding="UTF-8" standalone="yes"?>
<svg xmlns="http://www.w3.org/2000/svg" xmlns:xlink="http://www.w3.org/1999/xlink" width="64" height="64" viewBox="0 0 64 64" version="1.1">
  <g id="surface1">
    <path style=" stroke:none;fill-rule:nonzero;fill:rgb(85.09804%,85.09804%,85.09804%);fill-opacity:1;" d="M 5.660156 62 L 11.71875 55.941406 C 17.839844 59.519531 25.878906 58.761719 31.121094 53.519531 L 33.941406 50.699219 L 28.28125 45.039062 L 33.941406 39.378906 L 31.121094 36.558594 L 25.460938 42.21875 L 19.800781 36.558594 L 25.460938 30.898438 L 22.640625 28.078125 L 16.980469 33.738281 L 11.320312 28.078125 L 8.5 30.898438 C 3.261719 36.140625 2.480469 44.160156 6.078125 50.300781 L 0 56.339844 Z M 5.660156 62 "/>
    <path style=" stroke:none;fill-rule:nonzero;fill:rgb(53.725493%,79.607844%,98.039216%);fill-opacity:1;" d="M 33.660156 33.941406 L 39.71875 27.878906 C 45.839844 31.460938 53.878906 30.699219 59.121094 25.460938 L 61.941406 22.640625 L 56.28125 16.980469 L 61.941406 11.320312 L 59.121094 8.5 L 53.460938 14.160156 L 47.800781 8.480469 L 53.460938 2.820312 L 50.621094 0 L 44.960938 5.660156 L 39.320312 0 L 36.5 2.820312 C 31.261719 8.058594 30.480469 16.078125 34.078125 22.21875 L 28 28.28125 Z M 33.660156 33.941406 "/>
  </g>
</svg>