<?xml version="1.0" encoding="UTF-8" standalone="yes"?>
<svg xmlns="http://www.w3.org/2000/svg" xmlns:xlink="http://www.w3.org/1999/xlink" width="64" height="64" viewBox="0 0 64 64" version="1.1">
  <g id="surface1">
    <path style=" stroke:none;fill-rule:evenodd;fill:rgb(85.09804%,85.09804%,85.09804%);fill-opacity:1;" d="M 52.953125 14.253906 C 53.101562 13.992188 53.121094 13.679688 53.011719 13.402344 L 47.957031 0.589844 C 47.824219 0.253906 47.523438 0.0273438 47.175781 0.00390625 C 46.828125 -0.0234375 46.5 0.164062 46.328125 0.476562 L 43.753906 5.144531 C 37.21875 1.9375 29.390625 1.046875 21.34375 3.4375 L 21.332031 3.441406 C 11.988281 6.308594 4.464844 13.703125 1.511719 23.238281 L 1.511719 23.242188 C -5.03125 44.59375 10.59375 64 30.445312 64 C 44.488281 64 56.371094 54.355469 59.890625 41.152344 C 62.292969 40.214844 64 37.792969 64 34.949219 C 64 31.292969 61.167969 28.328125 57.679688 28.328125 C 54.1875 28.328125 51.355469 31.292969 51.355469 34.949219 C 51.355469 37.238281 52.464844 39.257812 54.152344 40.445312 C 51.03125 50.679688 41.636719 58.15625 30.445312 58.15625 C 14.542969 58.15625 2.222656 42.855469 6.664062 26.230469 C 8.832031 18.132812 15.15625 11.597656 23.191406 9.183594 C 29.570312 7.269531 35.726562 7.929688 40.894531 10.332031 L 38.417969 14.824219 C 38.246094 15.136719 38.253906 15.523438 38.445312 15.824219 C 38.632812 16.125 38.96875 16.292969 39.308594 16.25 L 52.273438 14.714844 C 52.554688 14.683594 52.808594 14.511719 52.953125 14.253906 Z M 52.953125 14.253906 "/>
  </g>
</svg>