<?xml version="1.0" encoding="UTF-8" standalone="yes"?>
<svg xmlns="http://www.w3.org/2000/svg" xmlns:xlink="http://www.w3.org/1999/xlink" width="64" height="64" viewBox="0 0 64 64" version="1.1">
  <g id="surface1">
    <path style=" stroke:none;fill-rule:nonzero;fill:rgb(73.333335%,73.333335%,73.333335%);fill-opacity:1;" d="M 53.660156 56 L 2.339844 56 L 0 52 L 56 52 Z M 53.660156 56 "/>
    <path style=" stroke:none;fill-rule:nonzero;fill:rgb(85.09804%,85.09804%,85.09804%);fill-opacity:1;" d="M 54.839844 44 L 1.160156 44 L 0 52 L 56 52 Z M 54.839844 44 "/>
    <path style=" stroke:none;fill-rule:nonzero;fill:rgb(95.294118%,95.294118%,95.294118%);fill-opacity:1;" d="M 54.839844 44 L 1.160156 44 L 12.5 18 L 31.820312 18 L 41.78125 24.21875 L 49 35.78125 L 50.320312 33.660156 Z M 54.839844 44 "/>
    <path style=" stroke:none;fill-rule:nonzero;fill:rgb(50.196081%,50.196081%,50.196081%);fill-opacity:1;" d="M 20 26 C 23.320312 26 26 25.101562 26 24 C 26 22.898438 23.320312 22 20 22 C 16.679688 22 14 22.898438 14 24 C 14 25.101562 16.679688 26 20 26 Z M 20 26 "/>
    <path style=" stroke:none;fill-rule:nonzero;fill:rgb(50.196081%,50.196081%,50.196081%);fill-opacity:1;" d="M 18 48 L 14 48 L 14 62 L 18 62 Z M 18 48 "/>
    <path style=" stroke:none;fill-rule:nonzero;fill:rgb(50.196081%,50.196081%,50.196081%);fill-opacity:1;" d="M 26 48 L 22 48 L 22 62 L 26 62 Z M 26 48 "/>
    <path style=" stroke:none;fill-rule:nonzero;fill:rgb(50.196081%,50.196081%,50.196081%);fill-opacity:1;" d="M 34 48 L 30 48 L 30 62 L 34 62 Z M 34 48 "/>
    <path style=" stroke:none;fill-rule:nonzero;fill:rgb(50.196081%,50.196081%,50.196081%);fill-opacity:1;" d="M 42 48 L 38 48 L 38 62 L 42 62 Z M 42 48 "/>
    <path style=" stroke:none;fill-rule:nonzero;fill:rgb(50.196081%,50.196081%,50.196081%);fill-opacity:1;" d="M 50 48 L 46 48 L 46 62 L 50 62 Z M 50 48 "/>
    <path style=" stroke:none;fill-rule:nonzero;fill:rgb(100%,100%,100%);fill-opacity:1;" d="M 64 17 L 56 12 L 56 16 L 50 16 L 50 10 L 54 10 L 49 2 L 44 10 L 48 10 L 48 16 L 42 16 L 42 12 L 34 17 L 42 22 L 42 18 L 48 18 L 48 24 L 44 24 L 49 32 L 54 24 L 50 24 L 50 18 L 56 18 L 56 22 Z M 64 17 "/>
    <path style=" stroke:none;fill-rule:nonzero;fill:rgb(50.196081%,50.196081%,50.196081%);fill-opacity:1;" d="M 10 48 L 6 48 L 6 62 L 10 62 Z M 10 48 "/>
  </g>
</svg>