<svg width="64" height="64" viewBox="0 0 64 64" fill="none" xmlns="http://www.w3.org/2000/svg">
<path d="M32 0H4V28L12.98 36.98L16 32L24.34 45.88H21.84L36 60L64 32L32 0ZM16 16C15.2089 16 14.4355 15.7654 13.7777 15.3259C13.1199 14.8864 12.6072 14.2616 12.3045 13.5307C12.0017 12.7998 11.9225 11.9956 12.0769 11.2196C12.2312 10.4437 12.6122 9.73098 13.1716 9.17157C13.731 8.61216 14.4437 8.2312 15.2196 8.07686C15.9956 7.92252 16.7998 8.00173 17.5307 8.30448C18.2616 8.60723 18.8864 9.11992 19.3259 9.77772C19.7654 10.4355 20 11.2089 20 12C20 13.0609 19.5786 14.0783 18.8284 14.8284C18.0783 15.5786 17.0609 16 16 16Z" fill="#D9D9D9"/>
<path d="M32.7121 15.3006L31.2979 16.7148L51.2948 36.7118L52.709 35.2976L32.7121 15.3006Z" fill="#666666"/>
<path d="M32.7003 27.2791L31.2861 28.6934L44.2828 41.69L45.697 40.2758L32.7003 27.2791Z" fill="#666666"/>
<path d="M26.7106 33.2884L25.2964 34.7026L36.299 45.7052L37.7132 44.291L26.7106 33.2884Z" fill="#666666"/>
<path d="M29.3108 21.2761L25.3086 25.2783L26.7228 26.6925L30.725 22.6903L29.3108 21.2761Z" fill="#666666"/>
<path d="M23.3108 27.2815L19.3086 31.2837L20.7228 32.6979L24.725 28.6957L23.3108 27.2815Z" fill="#666666"/>
<path d="M31.8601 63.8398L27.3201 55.6798L25.9801 58.0198L18.0001 52.7598V43.8398H20.8001L16.0001 35.8398L11.2001 43.8398H14.0001V52.7598L6.02014 58.0198L4.68014 55.6798L0.140137 63.8398L9.48014 63.9998L8.02014 61.4798L16.0001 56.2398L23.9801 61.4798L22.5201 63.9998L31.8601 63.8398Z" fill="#73C5FF"/>
</svg>
